<?xml version="1.0" encoding="UTF-8"?><svg xmlns="http://www.w3.org/2000/svg" width="180.99" height="393.77" xmlns:xlink="http://www.w3.org/1999/xlink" viewBox="0 0 180.99 393.77"><defs><clipPath id="clippath"><path d="m115.05,131.91l-3.87,14.02s-3.04,4.9-17.84.96c-14.09-3.76-12.74-10.57-12.74-10.57l3.32-11.12,31.13,6.7Z" style="fill:#ffa672; stroke-width:0px;"/></clipPath></defs><g style="isolation:isolate;"><g id="_Слой_2"><g id="_Слой_1-2"><path d="m148.25,250.47c1.18,2.39,4.3,9.88,4.54,13.74,1.01,4.63-1.31,16.43-.1,16.69,1.64.4,4.26-7.65,4.11-7.71.42.02-1.25,13.56.35,13.95,2.38.53,5.97-12.61,5.6-12.71.52-.05-.29,15.7,2.05,15.85,3.25.06,3.96-14.99,3.55-16.38.43,1.25,1.85,12.58,3.87,12.1,3.03-.68,1.92-18.16,1.26-19.23.61.64,5.51,7.76,7.17,6.46,2.41-2-8.86-18.72-11.6-21.33-1.15-1.91-3.16-5.3-4.69-7.85-5.29,2.3-10.66,4.46-16.11,6.42Zm20.04,23.32s.02,0,.03.03c-.01-.02-.02-.03-.03-.03Z" style="fill:#ffa672; stroke-width:0px;"/><path d="m117.57,170.73c1.2,13.12,9.86,19.81,18.26,47.49,5.83,19.16,10.68,36.2,13.12,44.87.08.28.15.57.24.84.94,3.34,1.45,5.22,1.45,5.22,8.06-1.03,27.53-6.26,26.6-10.6-.35-1.64-.71-3.27-1.09-4.91-.06-.25-.11-.5-.18-.74-12.16-52.25-35.8-97.86-43.57-105.4-9.49-9.2-16.02,10.11-14.82,23.23Z" style="fill:#4436bc; stroke-width:0px;"/><path d="m148.95,263.09c.08.28.15.57.24.84,4.24-1.43,8.39-3.15,12.56-4.74,4.8-1.84,9.6-3.7,14.4-5.54-.06-.25-.11-.5-.18-.74-4.84,1.8-9.68,3.61-14.52,5.44-4.15,1.57-8.39,3.02-12.49,4.75Z" style="stroke-width:0px;"/><path d="m155.7,224.05c-3.51-1.49-15.41-3.6-22.53.09-7.12,3.68-14.27,7.5-12.71,20.59,1.57,13.08,5.61,52.55,9.59,54.19,3.98,1.64,16.58,1.96,20.8,1.59,4.22-.37,14.86-1.36,17.36-4.58,2.5-3.22-6.09-69.16-12.51-71.88Z" style="fill:#90efdc; stroke-width:0px;"/><path d="m147.33,257.83c-1.67-11.83-3.74-23.77-3.68-35.74,5.13.02,10.01,1.09,12.06,1.96,6.42,2.72,15.02,68.67,12.51,71.88-1.92,2.47-8.64,3.63-13.57,4.2-3.85-13.78-5.32-28.17-7.32-42.3Z" style="fill:#90efdc; mix-blend-mode:multiply; stroke-width:0px;"/><path d="m21.84,44.29c-3.8,3.1-6.24,7.59-7.77,12.25-2.33,7.08-2.67,14.99.12,21.9,2.38,5.91,6.82,10.71,10.29,16.05,3.47,5.34,6.03,11.97,4.02,18.02-1.13,3.41-3.59,6.21-6.14,8.75-4.81,4.79-10.29,9.17-13.44,15.19-3.15,6.02-3.17,14.41,2.11,18.67,2.54,2.05,6.2,3.18,7.27,6.26.91,2.63-.58,5.47-2.27,7.69-3.43,4.49-7.88,8.13-11.31,12.63-3.43,4.5-5.82,10.37-4.2,15.78,1.63,5.43,6.84,9,12.11,11.07,5.42,2.12,11.54,3.11,17.06,1.24,1.41-.48,2.85-1.14,4.31-.91,1.89.31,3.2,1.99,4.54,3.35,5.11,5.18,13.19,6.8,20.24,4.99,7.05-1.8,13.05-6.67,17.26-12.6,5.12-7.22,7.83-16.44,5.95-25.09-1.88-8.65-8.87-16.33-17.6-17.73,4.46.75,8.91-1.55,12.33-4.52,7.66-6.64,11.79-18.18,7.38-27.3-4.67-9.65-16.37-13.2-26.78-15.75,3.87-3.15,7.8-6.37,10.54-10.53,7.13-10.8,4.58-25.78-2.65-36.52-4.15-6.18-9.63-11.32-15.46-15.89-2.98-2.34-6.06-4.53-9.17-6.69-2.44-1.7-4.61-3.71-7.65-3.95-4-.32-8.01,1.12-11.1,3.64Z" style="fill:#c05a44; stroke-width:0px;"/><path d="m64.39,161.81c4.46.75,8.91-1.55,12.33-4.52,7.66-6.64,11.79-18.18,7.38-27.3-4.67-9.65-16.37-13.2-26.78-15.75,3.87-3.15,7.8-6.37,10.54-10.53,7.13-10.8,4.58-25.78-2.65-36.52-4.15-6.18-9.63-11.32-15.46-15.89-2.98-2.34-6.06-4.53-9.17-6.69-2.44-1.7-4.61-3.71-7.65-3.95-2.05-.17-4.1.14-6.03.81-.36.54-.73,1.08-1.08,1.64-4.17,6.68-5.96,14.84-6.26,22.63-.29,7.61,2.32,15.2,5.97,21.78,1.68,3.02,3.57,5.91,5.78,8.57,1.75,2.1,3.63,4.09,5.23,6.3,1.51,2.08,2.71,4.41,3.16,6.97.55,3.14.05,6.32-.81,9.35-2.02,7.1-6.1,13.46-7.73,20.69-1.59,7.07-1.07,15.52,3.38,21.51,1.81,2.43,4.17,4.62,4.56,7.78.43,3.48-1.41,6.84-3.05,9.77-1.85,3.29-3.73,6.56-4.89,10.16-1.15,3.55-1.51,7.23-1.16,10.94.31,3.25,1.17,6.47,2.63,9.34.45-.07.91-.09,1.37-.02,1.89.31,3.2,1.99,4.54,3.35,5.11,5.18,13.19,6.8,20.24,4.99,7.05-1.8,13.05-6.67,17.26-12.6,5.12-7.22,7.83-16.44,5.95-25.09-1.88-8.65-8.87-16.33-17.6-17.73Z" style="fill:#c05a44; mix-blend-mode:multiply; opacity:.44; stroke-width:0px;"/><ellipse cx="88.46" cy="383.58" rx="88.15" ry="10.19" style="fill:#acceff; mix-blend-mode:multiply; opacity:.5; stroke-width:0px;"/><path d="m96.14,270.91c.08,0,.08.13,0,.13s-.08-.13,0-.13Z" style="stroke-width:0px;"/><path d="m98.23,262.18c5.42.02,10.84-.1,16.25-.39,7.15-.38,14.32-1.1,21.32-2.61.08-.02.16-.04.24-.06-.51,13.07-1.29,23.92-2.17,30.11-3.55,24.89-9.24,79.38-9.24,79.38h-29.17c.12-19.91,3.12-87.7,2.77-106.44Z" style="fill:#ffa672; stroke-width:0px;"/><path d="m130.74,284.68c-5.34.93-10.73,1.56-16.13,1.98-5.56.44-11.14.69-16.74.8.29-10.87.46-20.02.36-25.29,5.42.02,10.84-.1,16.25-.39,7.15-.38,14.32-1.1,21.32-2.61.08-.02.16-.04.24-.06-.39,9.94-.93,18.6-1.56,24.9-1.26.23-2.51.44-3.75.66Z" style="fill:#c4311d; mix-blend-mode:multiply; stroke-width:0px;"/><path d="m95.45,368.61h29.17s1.66-15.89,3.75-34.42c.03-.26.06-.53.09-.81.13-1.07.25-2.16.38-3.26.01-.21.04-.44.08-.67.21-1.92.43-3.86.65-5.8-10.92.65-21.89.65-32.85.23-.08,2.16-.15,4.3-.21,6.43-.01.25-.03.49-.03.74-.04,1.17-.08,2.34-.11,3.5-.01.3-.03.59-.04.89-.47,14.05-.84,26.39-.88,33.16Z" style="fill:#e0ecff; stroke-width:0px;"/><path d="m96.49,331.06c10.78.97,21.65.65,32.36-.93.01-.21.04-.44.08-.67-1.16.16-2.31.31-3.48.45-7.12.83-14.32,1.13-21.48.88-2.49-.09-4.97-.24-7.45-.48-.01.25-.03.49-.03.74Z" style="fill:#4436bc; stroke-width:0px;"/><path d="m96.33,335.45c.31.03.62.06.92.09,1.46.14,2.92.25,4.39.33,8.93.47,17.93-.1,26.73-1.67.03-.26.06-.53.09-.81-1.47.25-2.94.49-4.43.69-5.16.7-10.38,1.06-15.59,1.07-2.58,0-5.15-.08-7.72-.25-1.26-.08-2.52-.18-3.77-.29-.19-.01-.38-.04-.58-.05-.01.3-.03.59-.04.89Z" style="fill:#4436bc; stroke-width:0px;"/><path d="m125.13,367.26c-1.03-.49-28.51-.05-29.84.33-1.33.37-4.14,12.24-2.64,14.84,1.31,2.27,39.72.57,49.25.11,1.12-.05,1.83-1.23,1.33-2.23-1.01-2.03-3.45-4.86-8.06-7.89-7.55-4.94-10.04-5.15-10.04-5.15Z" style="fill:#eb1e40; stroke-width:0px;"/><path d="m125.33,373.9c1.53-.83,3.19-1.42,4.9-1.77,1.97-.4,3.96-.5,5.94-.12.7.13.52,1.22-.16,1.22-3.53-.02-6.93.6-10.01,2.39-.58.34-1.75,1.16-2.18.16-.4-.95.87-1.51,1.52-1.86Z" style="stroke-width:0px;"/><path d="m118.82,373.2c.11-.12.24-.22.37-.3.74-.57,1.7-.99,2.53-1.35.99-.43,2.01-.81,3.05-1.11,2.11-.61,4.29-.9,6.48-.85.87.02.86,1.29,0,1.35-2.04.13-4.08.5-6.03,1.12-.95.3-1.89.67-2.79,1.11-.93.45-1.82,1.09-2.78,1.45-.84.31-1.36-.84-.82-1.42Z" style="stroke-width:0px;"/><path d="m117.97,368.99c.99-.46,2.01-.85,3.06-1.14,2.09-.59,4.19-.67,6.33-.41.52.06.55.81,0,.84-1.99.09-4,.53-5.9,1.14-.93.3-1.83.67-2.7,1.12-.45.23-.9.47-1.34.73-.47.28-.86.42-1.38.17-.19-.09-.28-.31-.29-.51-.05-1.02,1.45-1.57,2.22-1.93Z" style="stroke-width:0px;"/><path d="m55.2,262.18c5.42.02,10.85-.1,16.29-.39,7.19-.38,14.44-1.1,21.61-2.61.08-.02.17-.04.25-.06-1.94,13.07-3.91,23.92-5.47,30.11-6.28,24.89-17.95,79.38-17.95,79.38h-29.17c2.31-19.91,12.74-87.7,14.45-106.44Z" style="fill:#ffa672; stroke-width:0px;"/><path d="m85.25,284.68c-5.45.93-10.9,1.56-16.35,1.98-5.6.44-11.22.69-16.83.8,1.48-10.87,2.65-20.02,3.14-25.29,5.42.02,10.85-.1,16.29-.39,7.19-.38,14.44-1.1,21.61-2.61.08-.02.17-.04.25-.06-1.48,9.94-2.97,18.6-4.29,24.9-1.28.23-2.56.44-3.82.66Z" style="fill:#c4311d; mix-blend-mode:multiply; stroke-width:0px;"/><path d="m40.75,368.61h29.17s3.4-15.89,7.52-34.42c.05-.26.12-.53.18-.81.24-1.07.49-2.16.73-3.26.04-.21.09-.44.15-.67.43-1.92.85-3.86,1.29-5.8-10.99.65-21.96.65-32.87.23-.31,2.16-.62,4.3-.92,6.43-.04.25-.08.49-.11.74-.17,1.17-.33,2.34-.5,3.5-.05.3-.09.59-.14.89-2.01,14.05-3.74,26.39-4.52,33.16Z" style="fill:#e0ecff; stroke-width:0px;"/><path d="m45.9,331.06c10.68.97,21.58.65,32.46-.93.04-.21.09-.44.15-.67-1.18.16-2.35.31-3.53.45-7.21.83-14.44,1.13-21.57.88-2.48-.09-4.94-.24-7.4-.48-.04.25-.08.49-.11.74Z" style="fill:#4436bc; stroke-width:0px;"/><path d="m45.27,335.45c.31.03.61.06.91.09,1.44.14,2.89.25,4.35.33,8.88.47,17.94-.1,26.92-1.67.05-.26.12-.53.18-.81-1.5.25-3,.49-4.5.69-5.24.7-10.49,1.06-15.7,1.07-2.58,0-5.14-.08-7.7-.25-1.25-.08-2.5-.18-3.74-.29-.19-.01-.37-.04-.57-.05-.05.3-.09.59-.14.89Z" style="fill:#4436bc; stroke-width:0px;"/><path d="m70.43,367.26c-1.03-.49-28.51-.05-29.84.33-1.33.37-4.14,12.24-2.64,14.84,1.31,2.27,39.72.57,49.25.11,1.12-.05,1.83-1.23,1.33-2.23-1.01-2.03-3.45-4.86-8.06-7.89-7.55-4.94-10.04-5.15-10.04-5.15Z" style="fill:#eb1e40; stroke-width:0px;"/><path d="m70.63,373.9c1.53-.83,3.19-1.42,4.9-1.77,1.97-.4,3.96-.5,5.94-.12.7.13.52,1.22-.16,1.22-3.53-.02-6.93.6-10.01,2.39-.58.34-1.75,1.16-2.18.16-.4-.95.87-1.51,1.52-1.86Z" style="stroke-width:0px;"/><path d="m64.12,373.2c.11-.12.24-.22.37-.3.74-.57,1.7-.99,2.53-1.35.99-.43,2.01-.81,3.05-1.11,2.11-.61,4.29-.9,6.48-.85.87.02.86,1.29,0,1.35-2.04.13-4.08.5-6.03,1.12-.95.3-1.89.67-2.79,1.11-.93.45-1.82,1.09-2.78,1.45-.84.31-1.36-.84-.82-1.42Z" style="stroke-width:0px;"/><path d="m63.27,368.99c.99-.46,2.01-.85,3.06-1.14,2.09-.59,4.19-.67,6.33-.41.52.06.55.81,0,.84-1.99.09-4,.53-5.9,1.14-.93.3-1.83.67-2.7,1.12-.45.23-.9.47-1.34.73-.47.28-.86.42-1.38.17-.19-.09-.28-.31-.29-.51-.05-1.02,1.45-1.57,2.22-1.93Z" style="stroke-width:0px;"/><path d="m34.27,275.8c3.02.98,6.78,1.87,11.14,2.66.22.04.45.08.67.11,26.08,4.59,72.36,5.18,105.56-5.29-3.56-12.02-6.76-27.78-9.65-43.44h0c-.08-.44-.17-.87-.24-1.3-.9-4.9-1.94-9.77-2.8-14.51-.07-.36-.42-.59-.78-.52-1.41.3-2.74.58-4.21.83-.3.06-.6.11-.91.15-4.89.82-9.84,1.37-14.73,1.81-.14.01-.28.03-.42.04-.44.04-.88.08-1.32.12-1.05.09-2.1.17-3.16.23-.27.03-.52.05-.77.06-11.56.79-23.05.79-34.48.17-.35-.01-.7-.04-1.04-.05-2.15-.12-4.31-.27-6.46-.44-2.53-.2-5.06-.42-7.57-.68-.2-.02-.4-.04-.59-.06-2.03-.22-4.03-.45-6.04-.69-.64-.08-1.22.38-1.31,1.02-.75,5.69-1.47,10.37-2.1,12.84-3.89,15.22-14.7,41.12-18.8,46.94Z" style="stroke-width:0px;"/><path d="m45.41,278.46c.22.04.45.08.67.11.47-1.14.92-2.28,1.37-3.4,1.03-2.59,2.03-5.2,2.97-7.81,6.1-16.8,10.42-34.22,12.68-51.6-.2-.02-.4-.04-.59-.06-.51,3.59-1.1,7.16-1.77,10.74-1.78,9.54-4.1,19.04-6.97,28.42-1.43,4.71-2.98,9.4-4.67,14.06-1.15,3.21-2.45,6.37-3.7,9.54Z" style="fill:#424094; stroke-width:0px;"/><path d="m58.43,244.03c2.74-1.69,5.18-3.77,7.43-6.1,3.89-4.04,7.11-8.7,9.5-13.7,1.13-2.36,2.09-4.82,2.81-7.31-.35-.01-.7-.04-1.04-.05-.03.08-.05.15-.07.23-1.57,5.19-4.06,10.19-7.27,14.69-3.26,4.54-7.28,8.36-11.61,11.87-.21.18.01.51.25.37Z" style="fill:#424094; stroke-width:0px;"/><path d="m133.05,214.5c.89,2.42,2,4.73,3.19,6.93,1.62,3,3.54,5.82,5.75,8.4-.08-.43-.17-.86-.24-1.29-1.84-2.38-3.48-4.92-4.91-7.6-1.13-2.13-2.05-4.34-2.88-6.6-.3.06-.6.11-.91.15Z" style="fill:#424094; stroke-width:0px;"/><path d="m112.81,218.21c.42,4.8.3,9.69-.34,14.57-.19,1.5-.44,3.39.58,4.53,1.06,1.2,2.94.68,4.03-.53,1.5-1.63,1.37-4.08,1.44-6.03.11-2.58.13-5.14.08-7.69-.05-2.26-.13-4.51-.26-6.76-.14.01-.28.03-.42.04.13,2.54.21,5.09.18,7.64-.02,2.35-.11,4.71-.25,7.07-.12,1.95-.02,4.95-2.25,5.99-2.26,1.05-2.65-1.62-2.54-3.17.17-2.1.51-4.21.63-6.3.2-3.66.13-7.3-.25-10.89-.27.03-.52.05-.77.06.06.48.12.96.16,1.45Z" style="fill:#424094; stroke-width:0px;"/><path d="m48.02,235.54c6.88.97,54.02,7.44,97.3-.54-.05-3.84-.19-7.85-.41-11.95-.21-4.13-.51-8.37-.88-12.61-.41-4.64-.88-9.29-1.43-13.84-.6-5.06-1.3-9.99-2.04-14.67-.76-4.77-1.57-9.28-2.43-13.39-.91-4.36-1.86-8.28-2.81-11.57-1.32-4.52-2.68-7.87-4.01-9.63-.57-.76-2.42-1.71-5.14-2.72-8.78-3.25-26.59-7.06-39.96-6.77-15.3.34-26.28,3.08-29.76,6.4-.49.45-.82.92-1.01,1.39-.34.84-.96,5.57-1.71,12.52-.34,3.17-.71,6.82-1.08,10.78-.44,4.49-.87,9.38-1.31,14.45-.37,4.45-.75,9.02-1.1,13.58-.4,5.05-.77,10.08-1.08,14.85-.26,4-.49,7.82-.68,11.34-.25,4.82-.42,9.06-.47,12.39Z" style="fill:#4436bc; stroke-width:0px;"/><path d="m112.18,170.5s-.01.01,0,.01c-1.28,2.77-2.31,4.53-2.31,4.53,0,0-1.65-1.3-4.28-3.45-6.09-4.98-17.42-14.59-25.66-23.44-9.15-9.83,3.22-10.32,16.82-8.44,9.41,1.3,17.6,1.07,19.46,6.01,2.89,7.71-1.18,18.67-4.03,24.77Z" style="fill:#e0ecff; stroke-width:0px;"/><path d="m115.05,131.91l-3.87,14.02s-3.04,4.9-17.84.96c-14.09-3.76-12.74-10.57-12.74-10.57l3.32-11.12,31.13,6.7Z" style="fill:#ffa672;"/><g style="clip-path:url(#clippath);"><path d="m108.47,138.95c-3,.71-6.19.58-9.29.19-3.79-.48-7.58-1.37-10.9-3.14-3.32-1.77-6.16-4.51-7.35-7.85-.4-1.13-.59-2.43.04-3.44.58-.93,1.73-1.42,2.85-1.73,2.11-.58,4.35-.67,6.56-.63,6.7.14,13.33,1.57,19.82,3.25,1.58.41,3.28.91,4.23,2.15,1.19,1.55,1.82,5.03.98,6.82-1.08,2.3-4.46,3.79-6.95,4.39Z" style="fill:#c4311d; mix-blend-mode:multiply; stroke-width:0px;"/></g><path d="m75.5,143.54c-.55-1.22,3.52-11.8,6.9-9.16,3.36,2.63,11.21,12.52,25.41,11.37,3.35-.27,4.86-4.28,5.61-6.05.15-.36.62-.43.78-.1,1.07,2.13,3.14,7.58,3.09,8.92-.07,2.26-2.47,9.9-3.78,10.07-1.31.17-6.24-7.95-6.24-7.95,0,0-6.02,10.32-7.76,9.8-2.86-.85-16.96-1.23-24-16.89Z" style="fill:#acceff; mix-blend-mode:multiply; stroke-width:0px;"/><path d="m74.78,141.83c-.56-1.22,3.58-11.88,7.02-9.25,3.43,2.62,11.45,12.5,25.93,11.26,3.42-.29,4.95-4.34,5.72-6.12.16-.37.63-.43.79-.11,1.09,2.13,3.21,7.6,3.17,8.94-.07,2.27-2.51,9.97-3.85,10.14-1.34.18-6.38-7.95-6.38-7.95,0,0-6.13,10.41-7.91,9.9-2.92-.84-17.3-1.12-24.5-16.81Z" style="fill:#e0ecff; stroke-width:0px;"/><path d="m112.18,170.5s-.01.01,0,.01c-1.28,2.77-2.31,4.53-2.31,4.53,0,0-1.65-1.3-4.28-3.45.53-4.35,1.03-8.09,1.46-10.77.44-2.74.81-4.37,1.06-4.37.55.03,1.21,1.55,1.91,4.11.68,2.47,1.41,5.91,2.16,9.93Z" style="fill:#eb1e40; stroke-width:0px;"/><path d="m107.47,148.36c-1.46.08-5.94,8.44-5.3,9.32.64.89,3.69,3.06,6.51,2.74,2.81-.32,4.69-2.6,4.6-3.39-.09-.79-2.99-8.83-5.8-8.67Z" style="fill:#eb1e40; stroke-width:0px;"/><path d="m130.39,145.41c-1.07-1.5-14.38-4.92-14-3.99,22.26,54.65,28.86,92.03,28.86,92.03l12.89-1.65s-16.14-68.5-27.75-86.38Z" style="fill:#90efdc; stroke-width:0px;"/><path d="m42.95,266.69s-7.14,2.07-11.51-2.55c-4.37-4.62,2.31-2.55,2.31-2.55,0,0-3.89-3.14-2.8-4.54,1.09-1.4,5.8,1.27,5.8,1.27l6.2,8.37Z" style="fill:#ffa672; stroke-width:0px;"/><path d="m49.62,241.32s10.09,8.34,9.53,13.21c-.56,4.87-14.08,12.8-16.96,12.34-2.88-.46-9.9-13.89-10.07-15.23-.17-1.34,14.59-13.4,17.5-10.33Z" style="fill:#ffa672; stroke-width:0px;"/><path d="m39.35,263.93c-.23-.24-.45-.49-.67-.74-.45-.51-.87-1.05-1.25-1.62-.76-1.12-1.36-2.34-1.8-3.61-.11-.32-.64-.11-.53.21.44,1.3,1.05,2.54,1.81,3.69.38.57.79,1.11,1.24,1.63.23.27.47.52.73.77.24.22.47.48.8.59.14.05.29-.08.23-.21-.11-.28-.36-.49-.57-.71Z" style="fill:#c4412f; stroke-width:0px;"/><path d="m62.28,175.69c-8.75,5.54-24.4,14.01-24.8,26.12-.28,8.16,6.86,22.21,11.54,30.51.13.26.27.5.4.74,2.07,3.61,3.55,5.96,3.55,5.96l-22.42,19.08c-1.06-1.88-2.1-3.75-3.16-5.61-.11-.21-.24-.42-.36-.63-13.6-24.03-26.04-46.07-16.11-64.46,10.5-19.44,42.89-48.04,49.9-44.68,7.02,3.38,8.4,28.56,1.43,32.96Z" style="fill:#4436bc; stroke-width:0px;"/><path d="m49.42,233.07c-.73.53-1.47,1.06-2.2,1.6-2.71,2.02-5.35,4.13-7.9,6.33-4.23,3.64-8.14,7.51-11.92,11.5-.11-.21-.24-.42-.36-.63,1.13-1.24,2.29-2.45,3.45-3.65,3.67-3.77,7.59-7.33,11.71-10.68,2.09-1.7,4.23-3.34,6.41-4.92.14-.1.27-.2.41-.3.13.26.27.5.4.74Z" style="mix-blend-mode:multiply; stroke-width:0px;"/><path d="m55.25,180.89c-.12.02-.24.05-.36.08.76-.43,1.5-.87,2.24-1.33,1.8-1.17,3.59-2.38,5.15-3.95-2.08.73-3.98,1.75-5.82,2.89-1.82,1.17-3.58,2.45-5.05,4.11,1.44-.18,2.7-.35,4.04-.56,1.32-.23,2.65-.45,4.02-.97-.69-.25-1.4-.35-2.1-.39-.71-.04-1.41,0-2.11.11Z" style="fill:#4436bc; mix-blend-mode:multiply; opacity:.5; stroke-width:0px;"/><path d="m136.06,18.87c14.62,5.21,22.92,19.77,19.93,34.94-.5,2.54-1.32,5.15-2.97,7.46-1.65,2.31-4.26,4.3-7.11,4.86-5.15,1-8.83-2.69-11.52-6.08-4.62-5.82-9.18-11.75-12.11-18.55-2.17-5.03-5.26-13.78-2.44-19.85,2.68-5.74,12.09-4.25,16.22-2.78Z" style="fill:#c05a44; stroke-width:0px;"/><path d="m144.45,120.95c-6.08,6.85-15.79,11.72-31.01,13.84-1.41.2-2.87.37-4.38.52-20.24,2.01-38.61-7.68-49.14-24.22-4.9-7.69-8.12-16.88-9.03-27.1-2.98-33.35,19.97-64.01,51.26-67.32,31.17-3.3,48.41,18.67,51.2,56.34.43,5.83.71,11.46.62,16.78-.2,12.38-2.41,23.15-9.52,31.16Z" style="fill:#ffa672; stroke-width:0px;"/><path d="m117.11,1.87c-7.91-2.34-16.37-2.26-24.66-.98-.45.08-.91.15-1.36.23-12.27,2.09-25.16,5.77-36.5,12.05-3.82,2.11-7.46,4.52-10.84,7.25-5.85,4.73-10.81,10.59-13.88,17.44-3.74,8.35-4.1,17.3-1.89,25.14,2.2,7.83,8.48,20.7,12.3,22.62,3.35,1.71,11.93-1.22,15.29.03,3.89,1.43,6.87,3.59,8.52,6.47.98,1.71,2.21,2.94,5.15,1.64,1.96-.91,3.75-2.48,4.57-4.16,2.6-3.06.62-7.4.29-11.11.23-1.94.64-3.91,1.62-5.89,1.51-3.07,4.19-5.28,7.46-6.55,2.86-1.12,5.72-1.69,8.49-2.5,3.02-.86,16.52-4.43,26.32-11.34,5.91-4.16,11.73-8.92,16.1-14.83,2.87-3.87,4.98-8.58,4.91-13.37-.16-11.55-12.27-19.27-21.89-22.1Z" style="fill:#c05a44; stroke-width:0px;"/><path d="m123.23,35.75c-2.28,2.3-5.4,3.51-8.48,4.5-2.19.69-4.47,1.31-6.76,1.07-2.28-.25-4.58-1.56-5.38-3.71-.21-.55-.35-1.2-.83-1.55-.68-.49-1.62-.13-2.4.2-6.35,2.6-14.35.28-18.33-5.31-.74-1.04-1.37-2.19-2.37-2.99-2.43-1.98-5.95-1.21-9.07-1.32-7.26-.26-13.61-6.35-15.02-13.47,11.34-6.28,24.23-9.96,36.5-12.05.45-.08.91-.15,1.36-.23,1.26,1.46,2.63,2.81,3.77,3.99,6.76,6.97,14.96,12.38,23.37,17.11,2.24,1.26,4.63,2.6,5.72,4.92,1.4,2.91.19,6.55-2.09,8.84Z" style="fill:#bb6142; mix-blend-mode:screen; opacity:.41; stroke-width:0px;"/><path d="m101.29,53.22s-.01-.03-.02-.05c-.06-.09-.08-.13.02.05Z" style="fill:#ff5560; stroke-width:0px;"/><path d="m36.36,81.87c-1.97,1.13-3.59,2.95-4.53,5.65-1.03,2.97-.84,6.12-.07,8.96,1.65,6.12,5.91,10.99,11.46,13.5,4.6,2.08,12.28,3.56,16.48-1.58,1.87-2.29,2.1-5.39,1.83-8.14-.6-5.99-2.35-13.2-7.27-16.51-4.38-2.94-12.47-4.98-17.89-1.87Z" style="fill:#ffa672; stroke-width:0px;"/><path d="m53.23,98.31c-.74-1.97-1.6-3.74-3.06-5.28-1.46-1.54-3.19-2.79-5.13-3.63-2.04-.88-4.4-1.26-6.56-.58-.96.3-1.86.77-2.6,1.46-.68.63-1.61,1.78-1.38,2.77.14.58.7.91,1.27.66.67-.29,1.08-1.08,1.64-1.56.57-.49,1.28-.87,1.99-1.08.44-.13.89-.2,1.34-.22-.69,1.25-1,2.67-.84,4.13.1.88.37,1.76.78,2.54.23.43.51.83.82,1.19.14.16.29.32.45.47.26.24.51.31.85.38.48.09,1-.48.87-.95-.06-.23-.11-.45-.25-.64-.12-.16-.26-.3-.38-.46-.19-.25-.35-.52-.5-.79-.35-.63-.59-1.29-.69-2.02-.17-1.24.07-2.57.65-3.7.86.17,1.7.47,2.48.83,2.94,1.37,5.75,4.06,7.13,7.03.34.73,1.42.21,1.13-.54Z" style="fill:#c4311d; stroke-width:0px;"/><g style="opacity:.2;"><path d="m114.12,132.96c-.19.62-.42,1.23-.68,1.83-1.41.2-2.87.37-4.38.52-20.24,2.01-38.61-7.68-49.14-24.22.63-1.3,1.42-2.52,2.33-3.63,4.2-5.09,10.78-7.85,17.26-8.19,6.47-.34,12.8,1.55,18.43,4.47,5.4,2.8,10.34,6.63,13.53,11.75,3.17,5.09,4.47,11.56,2.64,17.46Z" style="fill:#ec372f; stroke-width:0px;"/><path d="m144.45,120.95c.29-5.4.85-10.83,2.27-16.18,1.42-5.31,3.79-10.59,7.24-14.98-.2,12.38-2.41,23.15-9.52,31.16Z" style="fill:#ec372f; stroke-width:0px;"/></g><path d="m114.48,93.88c3.24-1.79,6.35.45,12.57.21,6.21-.24,9.94-2.31,10.91-1.08,2.24,2.85-2.46,10.82-11.07,11.9-8.62,1.08-15.65-9.24-12.41-11.03Z" style="fill:#b22e2e; stroke-width:0px;"/><path d="m122.59,97.43c3.15,1.35,6.34,3.44,8.71,6.23-1.32.61-2.79,1.05-4.4,1.25-6.73.85-12.49-5.26-13.15-8.83,2.46-1.1,6.54.37,8.85,1.36Z" style="fill:#ff582c; stroke-width:0px;"/><path d="m103.76,64.7c.07-.18.17-.38.25-.53.93-1.78,2.63-2.94,4.36-3.67,1.29-.54,2.82-.88,4.45-.9.94-.01,1.96.07,2.99.28,1.05.22,2.6.51,3.33,1.38.46.54.19,1.62-.92,1.68-1.23.07-2.22-.31-3.2-.51-.93-.19-1.81-.31-2.64-.36-3.3-.19-6.03,1.08-7.87,2.85-.17.17-.35.35-.53.39-.44.12-.38-.24-.22-.62Z" style="fill:#c05a44; stroke-width:0px;"/><path d="m146.6,62.37c-.1-.17-.22-.34-.31-.48-1.11-1.61-2.63-2.52-4.08-3.02-1.07-.37-2.27-.51-3.47-.33-.69.1-1.41.3-2.12.64-.71.34-1.78.81-2.1,1.73-.21.58.25,1.59,1.08,1.51.92-.08,1.55-.57,2.21-.89.63-.3,1.25-.52,1.85-.66,2.37-.58,4.67.31,6.44,1.8.17.14.34.29.48.32.35.06.22-.27.01-.63Z" style="fill:#c05a44; stroke-width:0px;"/><path d="m115.28,80.04c-.53-.68-1.14-1.26-1.84-1.76-1.46-1.03-3.16-1.62-4.95-1.75-1.87-.13-3.72.29-5.39,1.11-.88.43-1.7.96-2.44,1.61-.67.6-1.47,1.36-1.79,2.22-.14.38.22.79.61.55.69-.43,1.24-1.07,1.9-1.55.68-.5,1.41-.97,2.17-1.33,1.45-.7,3.08-1.07,4.69-.98,1.48.08,2.93.61,4.17,1.4.63.4,1.23.91,1.73,1.46.48.53.87,1.2,1.4,1.67.3.27.75.03.75-.36,0-.77-.54-1.7-1.01-2.29Z" style="stroke-width:0px;"/><path d="m137.76,78.85c.28-.72.62-1.35,1.03-1.91.85-1.15,1.89-1.89,3.03-2.17,1.19-.3,2.41-.03,3.56.64.6.35,1.18.81,1.71,1.39.48.54,1.06,1.22,1.35,2.05.12.36-.07.8-.34.6-.48-.37-.89-.96-1.36-1.38-.48-.44-.99-.84-1.51-1.14-.99-.57-2.07-.8-3.1-.57-.94.21-1.83.86-2.56,1.76-.37.45-.71,1.01-.98,1.6-.26.57-.45,1.27-.75,1.78-.17.29-.48.09-.51-.29-.06-.77.2-1.74.45-2.37Z" style="stroke-width:0px;"/><path d="m131.64,82.34c-2.29-1.14-2.06-4.27-1.89-6.4.11-1.38.26-2.77.42-4.14.08-.72.16-1.42.22-2.14.05-.66.2-1.31.08-1.97-.09-.47-.78-.52-1-.13-.3.54-.37,1.16-.5,1.76-.15.66-.27,1.3-.36,1.96-.17,1.19-.31,2.39-.42,3.59-.21,2.27-.5,4.75.64,6.83.44.8,1.09,1.54,1.9,1.98.95.52,1.96.55,3.02.5.28-.01.55-.03.83-.01.44.02.67.04.74.49.07.43-.21,1.08-.39,1.48-.44,1-1.17,1.85-2.06,2.48-.34.24-.14.91.31.73,1.87-.79,3.19-2.48,3.49-4.5.45-3.07-3.41-1.69-5.01-2.49Z" style="fill:#c4311d; stroke-width:0px;"/></g></g></g></svg>