<?xml version="1.0" encoding="UTF-8"?><svg xmlns="http://www.w3.org/2000/svg" width="322.57" height="690" viewBox="0 0 322.57 690"><g style="isolation:isolate;"><g id="_Слой_2"><g id="_Слой_1-2"><polygon points="302.52 10.3 19.93 17.77 33.62 690 303.76 690 302.52 10.3" style="fill:#873d39; stroke-width:0px;"/><polygon points="19.78 675.44 0 9.61 320.43 0 322.57 672.91 303.76 668.84 302.52 10.3 19.93 17.77 52.58 670.07 19.78 675.44" style="fill:#ddbba1; mix-blend-mode:multiply; opacity:.5; stroke-width:0px;"/><polygon points="0 9.61 20.29 18.16 52.58 670.07 19.78 675.44 0 9.61" style="fill:#873d39; opacity:.7; stroke-width:0px;"/><path d="m57.09,301.07c-10.99.49-19.43,11.15-18.87,23.8s9.93,22.51,20.92,22.02,19.44-11.15,18.87-23.8c-.57-12.65-9.93-22.51-20.92-22.02Z" style="fill:#d69774; mix-blend-mode:multiply; opacity:.8; stroke-width:0px;"/><path d="m72.78,323.33c.49,10.99-6.85,20.24-16.39,20.67-9.54.43-17.67-8.14-18.16-19.12-.49-10.99,6.84-20.24,16.39-20.67s17.68,8.14,18.17,19.12Z" style="fill:#f2f2f2; stroke-width:0px;"/><path d="m66.36,323.62c.38,8.49-5.29,15.64-12.66,15.97-7.37.33-13.66-6.29-14.04-14.78-.38-8.49,5.29-15.64,12.66-15.97s13.66,6.29,14.04,14.78Z" style="fill:#fff; stroke-width:0px;"/><polygon points="261.43 52.63 50.28 65.85 66.57 284.22 277.62 281.56 251.54 260.21 75.85 274.65 75.32 77.44 252.72 64.2 261.43 52.63" style="fill:#854c3b; mix-blend-mode:multiply; opacity:.7; stroke-width:0px;"/><polygon points="212.62 55.12 42.12 63.23 66.57 284.22 50.28 65.85 212.62 55.12" style="fill:#854c3b; mix-blend-mode:screen; stroke-width:0px;"/><polygon points="251.49 382.98 64.01 373.29 83.11 654.56 303.11 653.67 92.73 652.61 81.66 404.77 251.48 398.61 251.49 382.98" style="fill:#854c3b; mix-blend-mode:multiply; opacity:.7; stroke-width:0px;"/><polygon points="71.89 283.98 286.33 290.4 277.62 281.68 71.89 283.98" style="fill:#854c3b; mix-blend-mode:screen; stroke-width:0px;"/><polygon points="120.77 376.29 64.01 373.29 80.12 610.47 54.89 366.2 120.77 376.29" style="fill:#854c3b; mix-blend-mode:screen; stroke-width:0px;"/><polygon points="261.43 52.63 277.62 281.68 251.48 260.52 252.72 63.83 261.43 52.63" style="fill:#854c3b; mix-blend-mode:multiply; opacity:.7; stroke-width:0px;"/><polyline points="277.62 281.68 261.48 54.94 286.33 290.4" style="fill:#854c3b; mix-blend-mode:screen; stroke-width:0px;"/><polygon points="320.43 0 302.28 10.68 288.98 674.76 322.57 678.72 320.43 0" style="fill:#873d39; opacity:.7; stroke-width:0px;"/></g></g></g></svg>