<?xml version="1.0" encoding="UTF-8"?><svg xmlns="http://www.w3.org/2000/svg" width="154.72" height="159.7" xmlns:xlink="http://www.w3.org/1999/xlink" viewBox="0 0 154.72 159.7"><defs><clipPath id="clippath"><path d="m154.72,57.54c0,31.77-34.64,57.53-77.36,57.53S0,89.31,0,57.54,34.63,0,77.36,0s77.36,25.76,77.36,57.54Z" style="fill:none; stroke-width:0px;"/></clipPath></defs><g style="isolation:isolate;"><g id="_Слой_2"><g id="_Слой_1-2"><path d="m118.66,146.19l13.55-34.3s18.44-24.23,17.86-34.68c-.58-10.45-3.48-9.79.01-19.67,3.49-9.88,3.98-15.66-9.22-17.18-13.2-1.52-5.08,7.61-15.74,0-10.66-7.61-4.41-5.08-13.88-11.67-9.47-6.6-6.93-13.2-16.07-13.2s-16.49,5.08-15.86,7.61c.63,2.54-2.68,10.39-6.35,13.82-3.68,3.43-9.86,7.09-14.64,2.22-4.78-4.87-3.22-10.46-12.63-5.38-9.41,5.08-11.94,5.74-14.98,9.72-3.05,3.98-7.59,6.09-5.68,13,1.91,6.91,7.2,13.77,11.25,22.73,4.05,8.96-.3,7.99,4.17,20.86,4.47,12.87,9.29,13.89,9.42,19.47.13,5.58,16.88,25.89,16.88,25.89l51.9.76Z" style="fill:#988977; stroke-width:0px;"/><path d="m111.26,111.89c0,2.5-12.62,4.53-28.18,4.53s-28.18-2.03-28.18-4.53,12.62-4.53,28.18-4.53,28.18,2.03,28.18,4.53Z" style="fill:#f8b290; stroke-width:0px;"/><path d="m106.2,111.6c0,1.92-10.48,3.47-23.41,3.47s-23.41-1.55-23.41-3.47,10.48-3.47,23.41-3.47,23.41,1.56,23.41,3.47Z" style="fill:#7c4a37; stroke-width:0px;"/><path d="m83.08,115.8c-18.18,0-28.18-3.91-28.18-3.91l8.85,45.95s7.3,1.86,19.33,1.86,19.33-1.86,19.33-1.86l8.85-45.95s-10,3.91-28.18,3.91Z" style="fill:#f8b290; stroke-width:0px;"/><path d="m67.83,114.8c-8.43-1.16-12.93-2.91-12.93-2.91l8.85,45.95s7.3,1.86,19.33,1.86,19.33-1.86,19.33-1.86l1.36-7.05s-24.49-23.46-35.94-35.99Z" style="fill:#f8b290; mix-blend-mode:multiply; stroke-width:0px;"/><g style="clip-path:url(#clippath);"><path d="m82.99,119.28s1.63-12.36-7.93-14.86c-9.56-2.5-10.44-6.03-8.4-9.07,2.04-3.03-12.84-8.62-9.95-14.11,2.9-5.49,13.44-1.45,6.17-10.65-7.26-9.2-18.26-11.98-9.09-22.98,9.18-11,3.32-23.66,11.16-26.76,7.83-3.1,10.86,13.1,17.63,13.44,6.78.34,12.46,2.74,11.57,12.73-.9,9.99,5.19,10.72,2.87,17.07-2.32,6.35-7.1,6.79-3.24,12.27,3.86,5.48,7.29,6.54-.66,13.91-7.95,7.37-11.64,5.09-8.24,11.83,3.39,6.75,3.03,9.79,2.29,12.5-.74,2.71-4.19,4.68-4.19,4.68Z" style="fill:#4e7728; stroke-width:0px;"/><path d="m93.8,76.36c-3.83-5.44.84-5.92,3.18-12.13-.11-.15-.18-.33-.32-.47-10.74-5.37-5.12-15.18-14.79-19.08-9.67-3.9-6.1-12.2-20.96-18.96-1.63,5.47-.59,14.09-7.1,21.89-9.18,11,1.82,13.77,9.09,22.98,7.26,9.2-3.27,5.16-6.17,10.65-2.9,5.5,11.99,11.08,9.95,14.11-2.04,3.03-1.16,6.57,8.4,9.07,9.56,2.5,7.93,14.86,7.93,14.86,0,0,3.45-1.97,4.19-4.68.74-2.71,1.11-5.75-2.29-12.5-3.39-6.75.29-4.46,8.24-11.83,7.95-7.37,4.52-8.43.66-13.91Z" style="fill:#4e7728; mix-blend-mode:multiply; opacity:.7; stroke-width:0px;"/><g style="mix-blend-mode:multiply;"><path d="m83.93,115.51s-.13-1.42-.64-3.92c-.26-1.24-.63-2.75-1.19-4.41-.57-1.65-1.31-3.51-2.51-5.21-.32-.4-.61-.85-1-1.2l-.64-.67-.59-.67c-.91-1.26-1.21-2.73-1.24-4.1.04-2.78.85-5.41,1.47-8.09.6-2.63,1.19-5.58.02-7.91-1.28-2.56-3.65-4.27-5.78-6.5-1.04-1.11-2-2.58-2.07-4.23-.13-1.64.45-3.13.85-4.5.74-2.77,1.21-5.63,1.52-8.38.59-5.52.58-10.75-.08-15.15-.29-2.2-.76-4.2-1.32-5.91-.24-.88-.57-1.65-.88-2.37-.28-.73-.59-1.38-.94-1.93-.6-1.16-1.21-1.97-1.66-2.51-.43-.55-.65-.85-.65-.85,0,0,.24.29.67.83.46.53,1.1,1.33,1.72,2.48.36.55.69,1.19.99,1.92.33.71.69,1.49.95,2.36.61,1.71,1.13,3.71,1.48,5.92.76,4.42.91,9.68.44,15.27-.26,2.8-.64,5.66-1.35,8.57-.38,1.43-.86,2.8-.71,4.15.09,1.36.89,2.53,1.87,3.55,2,2,4.65,3.85,6.11,6.58,1.58,3.04.84,6.22.34,8.92-.58,2.75-1.28,5.36-1.24,7.73.05,1.17.37,2.2.86,2.91l.61.65c.03.05.41.4.59.58.48.43.84.93,1.22,1.39,1.43,1.92,2.25,3.91,2.91,5.65.64,1.76,1.06,3.32,1.36,4.62.6,2.59.78,4.13.78,4.13v.04c.07.62-.37,1.18-.99,1.25-.62.07-1.18-.37-1.25-1,0,0,0-.02,0-.03Z" style="fill:#588830; stroke-width:0px;"/></g><path d="m83.08,117.47s9.17-6.27,5.15-14.1c-4.03-7.83-2.21-10.52,1.02-10.96,3.23-.45-1.92-13.65,3.45-14.99,5.37-1.34,8.95,8.05,10.74-2.24,1.79-10.29-2.91-19.24,9.85-19.69,12.75-.45,17.68-11.86,24.39-8.5,6.71,3.36-2.24,14.99,1.57,19.69,3.8,4.7,5.59,9.9-1.57,15.24-7.16,5.34-4.03,9.82-9.62,12.06-5.59,2.24-8.73-.67-10.07,5.15-1.34,5.82,0,8.73-9.62,7.83-9.62-.9-10.29-4.7-12.75,1.57-2.46,6.27-4.7,7.83-6.94,8.95-2.24,1.12-5.59,0-5.59,0Z" style="fill:#588830; stroke-width:0px;"/><path d="m126.47,75.8c-3.79-9.2,12.67-18.41,3.74-27.61-4.17,2.58-9.05,7.03-16.93,7.3-12.75.45-8.06,9.4-9.84,19.69-1.79,10.29-5.37.89-10.74,2.24-5.37,1.34-.22,14.54-3.45,14.99-3.23.45-5.05,3.13-1.02,10.96,4.03,7.83-5.15,14.1-5.15,14.1,0,0,3.36,1.12,5.59,0,2.24-1.12,4.47-2.69,6.93-8.95,2.51-6.39,3.16-2.3,13.36-1.51,0,0,.02,0,.03,0,.33-.18.66-.38.99-.6,3.51-2.36,4.85-6.73,4.04-10.89-1.18-6.05,3.27-9.06,9.21-11.98,2.86-1.41,4.44-4.77,3.23-7.73Z" style="fill:#588830; mix-blend-mode:multiply; opacity:.6; stroke-width:0px;"/><g style="mix-blend-mode:multiply;"><path d="m86.14,115.85s.87-.93,2.22-2.76c.67-.91,1.45-2.05,2.22-3.41.76-1.36,1.55-2.96,1.96-4.76.07-.45.2-.91.2-1.38l.06-.82.09-.79c.29-1.36,1.09-2.43,1.99-3.26,1.86-1.63,4.09-2.65,6.24-3.84,2.11-1.16,4.41-2.53,5.26-4.69.93-2.37.66-4.96.87-7.7.12-1.35.52-2.86,1.58-3.89,1.01-1.06,2.34-1.56,3.49-2.11,2.28-1.15,4.45-2.54,6.47-3.97,4.01-2.89,7.47-6,10-9.05,1.29-1.5,2.33-3,3.14-4.39.44-.68.75-1.36,1.05-1.99.32-.62.56-1.21.72-1.77.41-1.09.59-1.98.68-2.6.11-.61.17-.94.17-.94,0,0-.05.33-.15.94-.08.62-.23,1.52-.62,2.62-.15.57-.38,1.17-.68,1.8-.28.64-.58,1.34-1,2.03-.78,1.42-1.79,2.96-3.05,4.5-2.48,3.14-5.89,6.36-9.87,9.37-2.01,1.5-4.14,2.94-6.49,4.19-1.18.6-2.37,1.09-3.17,2-.85.87-1.15,2.09-1.24,3.36-.14,2.52.21,5.38-.74,7.97-1.08,2.85-3.63,4.26-5.72,5.53-2.17,1.25-4.32,2.34-5.87,3.77-.75.73-1.24,1.56-1.42,2.3l-.07.79c-.02.05-.02.51-.04.74,0,.58-.12,1.11-.2,1.64-.43,2.09-1.25,3.82-2.02,5.29-.79,1.47-1.57,2.68-2.26,3.65-1.36,1.93-2.28,2.97-2.28,2.97l-.02.02c-.37.41-1,.45-1.42.08-.41-.37-.45-1.01-.08-1.42,0,0,.01-.01.02-.02Z" style="fill:#588830; stroke-width:0px;"/></g><path d="m83.04,118.22s-6.71-10.46-15.6-6.21c-8.88,4.25-11.83,2.13-12.23-1.5-.4-3.62-15.32,1.71-16.65-4.34-1.33-6.05,9.29-9.75-2.16-12.08-11.45-2.33-21.61,2.63-21.7-11.64-.09-14.27-12.69-20.14-8.72-27.54,3.97-7.4,16.69,2.98,22.07-1.12,5.38-4.1,11.25-5.94,16.99,2.24,5.74,8.18,10.85,4.82,13.17,11.14,2.32,6.33-1.03,9.74,5.43,11.42,6.46,1.69,9.76.28,8.45,11.01-1.31,10.73-5.58,11.36,1.34,14.31,6.93,2.95,8.6,5.5,9.78,8.04,1.18,2.54-.18,6.25-.18,6.25Z" style="fill:#588830; stroke-width:0px;"/><path d="m83.21,111.96c-1.18-2.54-2.86-5.09-9.78-8.04-6.93-2.95-2.65-3.58-1.34-14.31.11-.93.18-1.74.22-2.49-12.59-2.29-16.42-8.46-21.3-20.66-2.41-4.83-19.24-12.98-12.45-15.8-3.6-1.1-7.15.58-10.52,3.14-5.38,4.1-18.1-6.28-22.07,1.12-3.97,7.4,8.63,13.27,8.72,27.54.09,14.27,10.25,9.31,21.7,11.64,11.45,2.33.83,6.03,2.16,12.08,1.33,6.05,16.25.72,16.65,4.34.4,3.62,3.34,5.75,12.23,1.5,8.88-4.25,15.6,6.21,15.6,6.21,0,0,1.36-3.72.18-6.25Z" style="fill:#588830; mix-blend-mode:multiply; opacity:.6; stroke-width:0px;"/><g style="mix-blend-mode:multiply;"><path d="m81.33,114.74s-1.01-1-3.01-2.57c-1-.78-2.25-1.69-3.74-2.59-1.5-.89-3.26-1.83-5.26-2.35-.5-.1-1.01-.25-1.53-.27l-.92-.09-.88-.13c-1.51-.37-2.68-1.3-3.59-2.33-1.76-2.14-2.83-4.66-4.09-7.1-1.23-2.39-2.69-5.01-5.07-6.03-2.62-1.12-5.52-.9-8.58-1.22-1.5-.18-3.18-.68-4.3-1.89-1.15-1.16-1.67-2.67-2.25-3.97-1.22-2.59-2.7-5.06-4.23-7.36-3.1-4.58-6.47-8.55-9.8-11.48-1.64-1.49-3.28-2.7-4.81-3.65-.74-.52-1.5-.89-2.2-1.23-.69-.37-1.34-.67-1.96-.87-1.2-.5-2.19-.72-2.88-.84-.68-.15-1.04-.22-1.04-.22,0,0,.37.07,1.05.2.69.11,1.69.31,2.91.78.63.18,1.29.46,1.99.82.71.33,1.48.69,2.24,1.19,1.56.91,3.25,2.1,4.93,3.56,3.43,2.87,6.92,6.79,10.16,11.34,1.61,2.29,3.15,4.72,4.48,7.39.63,1.34,1.15,2.68,2.13,3.61.94.97,2.3,1.35,3.71,1.5,2.81.24,6.02-.06,8.88,1.08,3.16,1.3,4.64,4.19,6,6.57,1.33,2.46,2.48,4.9,4.03,6.68.79.86,1.7,1.44,2.53,1.67l.88.11c.06.02.57.04.83.06.64.01,1.23.17,1.82.27,2.33.55,4.23,1.52,5.85,2.43,1.62.93,2.95,1.85,4.01,2.64,2.12,1.58,3.25,2.65,3.25,2.65l.03.02c.45.43.47,1.14.05,1.59-.43.45-1.14.47-1.59.05,0,0-.01-.02-.02-.02Z" style="fill:#588830; stroke-width:0px;"/></g></g></g></g></g></svg>