<?xml version="1.0" encoding="UTF-8"?><svg xmlns="http://www.w3.org/2000/svg" width="149.2" height="163.89" xmlns:xlink="http://www.w3.org/1999/xlink" viewBox="0 0 149.2 163.89"><defs><clipPath id="clippath"><circle cx="63.5" cy="60.33" r="51.78" transform="translate(-18.37 29.19) rotate(-22.71)" style="fill:none; stroke-width:0px;"/></clipPath></defs><g style="isolation:isolate;"><g id="_Слой_2"><g id="_Слой_1-2"><path d="m97.65,156.64l38.52-8.86s38.02-89.08-15.85-106.59c-53.87-17.51-102.73,54.82-62.69,106.59l40.01,8.86Z" style="fill:#988977; stroke-width:0px;"/><path d="m97.65,156.64c0,4-14.98,7.25-33.47,7.25s-33.47-3.25-33.47-7.25,14.99-7.25,33.47-7.25,33.47,3.25,33.47,7.25Z" style="fill:#8d5c44; stroke-width:0px;"/><path d="m73.06,149.65c-2.83-.17-5.8-.27-8.88-.27-18.48,0-33.47,3.25-33.47,7.25s14.99,7.25,33.47,7.25c10.29,0,19.49-1.01,25.63-2.59-6.82-.79-12.92-3.37-16.74-11.65Z" style="fill:#af7e62; mix-blend-mode:multiply; opacity:.8; stroke-width:0px;"/><path d="m69.08,152.96s-.22,2.09-5.58,2.09-5.58-2.09-5.58-2.09v-35.48h11.17v35.48Z" style="fill:#8d5c44; stroke-width:0px;"/><path d="m69.08,117.48h-11.17v35.48s.72,2.09,3.87,2.09c1.71.42,1.39-18.85,7.3-27.23v-10.34Z" style="fill:#af7e62; mix-blend-mode:multiply; opacity:.8; stroke-width:0px;"/><path d="m102.36,116.14c-1.15,0-2.27-.56-2.95-1.58L26.85,5.54c-1.09-1.64-.65-3.85.98-4.94,1.63-1.09,3.84-.65,4.92.98l72.56,109.01c1.09,1.64.65,3.85-.98,4.94-.61.41-1.29.6-1.97.6Z" style="fill:#7c4a37; stroke-width:0px;"/><path d="m63.5,123.83C28.48,123.83,0,95.34,0,60.33,0,35.98,14.21,13.47,36.2,2.98c2-.95,4.4-.11,5.35,1.9.95,2,.11,4.4-1.9,5.35-19.21,9.16-31.62,28.82-31.62,50.09,0,30.58,24.88,55.47,55.46,55.47,13.75,0,26.95-5.07,37.15-14.28,1.64-1.49,4.19-1.36,5.67.29,1.49,1.65,1.36,4.19-.29,5.67-11.68,10.54-26.78,16.35-42.53,16.35Z" style="fill:#8d5c44; stroke-width:0px;"/><circle cx="63.5" cy="60.33" r="51.78" transform="translate(-18.37 29.19) rotate(-22.71)" style="fill:#1d5777; stroke-width:0px;"/><g style="clip-path:url(#clippath);"><g style="opacity:.7;"><path d="m39.3,8.54l7.03,8.52s-3.01,2.01-3.51,3.35c-.5,1.34-3.51,1.34-3.51,3.68s-2.01,3.68-2.01,6.03-2.01,2.68,0,6.02c2.01,3.35,1.67,5.36,1.67,5.36,0,0-1.45,2.68-2.57,4.35-1.12,1.67,3.68-.67,4.96,6.69q1.28,7.36,2.29,9.71c1,2.34,4.69,5.02,4.69,6.36s.34,2.01-2.01,4.35c-2.34,2.34-3.68,2.34-8.7,3.68-5.02,1.34-4.02-3.35-5.02,1.34-1,4.69,3.35,8.7,4.02,13.39.67,4.69-14.73,5.36-17.07,5.36s-12.05,3.01-14.39-4.02C2.82,85.68-1.19,12.74,39.3,8.54Z" style="fill:#fff; stroke-width:0px;"/><path d="m63.5,4.35c-1.7.48-8.8,4.35-3.78,8.03,5.02,3.68,4.35,3.35,10.04,6.69,5.69,3.35,8.37,3.01,9.04,5.02.67,2.01-1.34,2.68,0,6.03,1.34,3.35-3.01,3.01,2.01,5.02,5.02,2.01,6.69,2.68,6.69,2.68,0,0,2.01-3.01,4.69-1,2.68,2.01,3.35.34,5.02,2.68,1.67,2.34,7.36,2.01,7.36,2.01,0,0,11.05-6.36,10.71-7.36-.33-1-26.59-36.82-51.78-29.79Z" style="fill:#fff; stroke-width:0px;"/><path d="m80.14,52.96l4.02,5.95s9.04-1.67,9.71,0c.67,1.67,5.69,4.02,6.36,5.69.67,1.67-.67,3.35,0,6.03.67,2.68-3.68,6.69-4.02,8.03-.34,1.34-1,5.36-1,5.36,0,0-4.49,1-4.92.33-.43-.67-3.65-2.68-3.65-2.68l-1.46-10.04-5.02-2.86s-3.01-2.83-3.01-4.84.34-1.84,0-3.6c-.34-1.76,3.01-7.37,3.01-7.37Z" style="fill:#fff; stroke-width:0px;"/><path d="m66.41,116.81s-2.68-2.2,0-4.78c2.68-2.58,6.03-4.59,6.03-6.26s-.67-5.75-.67-8.4.67-7,.67-7l4.66-4.35s1.7-3.01,4.71,0c3.01,3.01,4.19,4.69,6.95,5.69,2.76,1,8.85-.5,11.66.67,2.81,1.17,6.84,0,8.17,2.34,1.34,2.34-15.73,38.83-42.17,22.09Z" style="fill:#fff; stroke-width:0px;"/></g></g></g></g></g></svg>