<?xml version="1.0" encoding="UTF-8"?><svg xmlns="http://www.w3.org/2000/svg" width="818.6" height="525" xmlns:xlink="http://www.w3.org/1999/xlink" viewBox="0 0 818.6 525"><defs><linearGradient id="linear-gradient" x1="60.96" y1="111.52" x2="811.97" y2="484.19" gradientUnits="userSpaceOnUse"><stop offset="0" stop-color="#1d5777"/><stop offset="1" stop-color="#4a94a2"/></linearGradient></defs><g style="isolation:isolate;"><g id="_Слой_2"><g id="_Слой_1-2"><polygon points="775.76 67.72 775.76 494.66 7.6 495 25.6 525 775.76 525 807.39 525 818.6 513.66 813.6 482 807.39 119.08 775.76 67.72" style="fill:#988977; stroke-width:0px;"/><rect x="15.65" y="67.72" width="768.11" height="423.38" style="fill:#fff; stroke-width:0px;"/><rect x="43.37" y="83.23" width="711.83" height="392.36" style="fill:url(#linear-gradient); stroke-width:0px;"/><path d="m750.75,78.36H31.23v402.1h729.5V78.36h-9.97Zm0,381.74H51.17V106.18h699.58v353.93Z" style="fill:#325f7d; mix-blend-mode:multiply; opacity:.7; stroke-width:0px;"/><rect y="491.1" width="799.4" height="22.56" style="fill:#ddbba1; stroke-width:0px;"/><polygon points="648.21 491.1 648.21 507.04 0 507.04 0 513.66 648.21 513.66 799.4 513.66 799.4 507.04 799.4 491.1 648.21 491.1" style="fill:#ddbba1; mix-blend-mode:multiply; stroke-width:0px;"/><rect x="145.12" width="547.69" height="46.06" style="fill:#ddbba1; stroke-width:0px;"/><rect x="146.91" y="3.07" width="541.54" height="39.91" style="fill:#854c3b; mix-blend-mode:multiply; opacity:.3; stroke-width:0px;"/><rect x="150.96" y="5.94" width="536" height="34.17" style="fill:#fff; stroke-width:0px;"/><polygon points="539.76 0 692.8 26.62 692.8 0 539.76 0" style="fill:#f9a04b; mix-blend-mode:multiply; opacity:.4; stroke-width:0px;"/></g></g></g></svg>