<?xml version="1.0" encoding="UTF-8"?><svg xmlns="http://www.w3.org/2000/svg" width="176.53" height="395" xmlns:xlink="http://www.w3.org/1999/xlink" viewBox="0 0 176.53 395"><defs><clipPath id="clippath"><path d="m61.24,132.66l3.87,14.02s3.04,4.9,17.84.96c14.09-3.76,12.74-10.57,12.74-10.57l-3.32-11.12-31.13,6.7Z" style="fill:#ffa672; stroke-width:0px;"/></clipPath></defs><g style="isolation:isolate;"><g id="_Слой_2"><g id="_Слой_1-2"><path d="m24.98,261.49s-6.64,1.13-10.04-3.83c-3.41-4.96,2.36-2.18,2.36-2.18,0,0-3.14-3.48-2.01-4.7,1.14-1.22,5.06,1.92,5.06,1.92l4.63,8.8Z" style="fill:#ffa672; stroke-width:0px;"/><path d="m33.8,237.89s8.12,9.23,7.07,13.85c-1.05,4.62-14.06,10.63-16.59,9.84-2.53-.78-7.34-14.54-7.34-15.85s14.58-11.15,16.85-7.84Z" style="fill:#ffa672; stroke-width:0px;"/><path d="m22.06,258.41c-.18-.26-.35-.52-.52-.79-.35-.55-.67-1.12-.94-1.71-.56-1.17-.96-2.42-1.21-3.69-.06-.32-.56-.19-.5.14.25,1.3.66,2.57,1.21,3.77.27.59.58,1.16.93,1.72.18.29.37.56.57.83.19.24.37.52.65.66.12.06.27-.04.23-.18-.07-.28-.27-.51-.43-.75Z" style="fill:#c4412f; stroke-width:0px;"/><path d="m52.48,176.27c-8.47,4.28-23.46,10.56-25.17,22.16-1.16,7.82,3.67,22.19,6.95,30.73.09.26.18.51.28.76,1.45,3.72,2.52,6.16,2.52,6.16l-22.25,15.67c-.74-1.94-1.47-3.86-2.21-5.77-.08-.21-.17-.44-.25-.65-9.52-24.74-18.23-47.43-7.26-63.93,11.59-17.44,43.84-41.08,49.76-37,5.92,4.09,4.35,28.47-2.39,31.88Z" style="fill:#4436bc; stroke-width:0px;"/><path d="m54.77,171.21c-6.46,2.99-12.77,6.47-18.39,10.87-5.32,4.16-10.02,9.19-13.21,15.18-3.59,6.74-4.73,14.18-4.38,21.75.24,5.28,1.13,10.5,2.38,15.62.87,3.55,1.97,7.02,3.08,10.48l12.81-9.03s-1.07-2.44-2.52-6.16c-.09-.25-.19-.5-.28-.76-3.28-8.54-8.12-22.91-6.95-30.73,1.71-11.6,16.69-17.88,25.17-22.16,1.69-.85,3.05-3.01,4.05-5.84-.59.26-1.18.51-1.76.78Z" style="fill:#4436bc; mix-blend-mode:multiply; opacity:.42; stroke-width:0px;"/><path d="m34.54,229.92c-.71.42-1.44.84-2.15,1.28-2.66,1.62-5.26,3.34-7.8,5.14-4.2,2.99-8.14,6.25-11.98,9.64-.08-.21-.17-.44-.25-.65,1.15-1.05,2.33-2.08,3.5-3.1,3.71-3.19,7.63-6.14,11.7-8.87,2.06-1.38,4.16-2.7,6.3-3.97.13-.08.26-.16.4-.24.09.26.18.51.28.76Z" style="stroke-width:0px;"/><ellipse cx="88.39" cy="384.81" rx="88.15" ry="10.19" style="fill:#acceff; mix-blend-mode:multiply; opacity:.5; stroke-width:0px;"/><path d="m119.81,241.76c-16.83,1.94-33.85,2.14-50.76,1.22-9.8-.54-19.86-1.57-29.46-4.07.27,22.19,1.37,42.2,2.71,51.55,3.55,24.89,9.24,79.38,9.24,79.38h29.17c-.14-23.13-4.16-110.91-2.31-111.28,1.85-.37,4.24-.26,8.31,1.97,5.38,2.94,23.73,109.31,23.73,109.31h28.89c-2.64-25.34-13.92-102.92-17.16-128.36-.79.09-1.57.19-2.36.28Z" style="fill:#ffa672; stroke-width:0px;"/><path d="m128.59,351.52c2.8-.41,5.59-.86,8.38-1.34,1.03,7.99,1.85,14.79,2.36,19.66h-28.89s-1.1-6.35-2.83-15.97c7.01-.58,14.01-1.33,20.97-2.35Z" style="fill:#e0ecff; stroke-width:0px;"/><path d="m64.28,355.06c5.38.13,10.75.18,16.13.11.17,6.04.28,11.12.3,14.67h-29.17s-.65-6.19-1.64-15.34c4.79.25,9.58.45,14.38.56Z" style="fill:#e0ecff; stroke-width:0px;"/><path d="m45.63,316.63c2.66.55,5.34,1.01,8.02,1.4,7.3,1.06,14.67,1.63,22.02,2.2,1.21.09,2.42.16,3.63.24-1.01-30.22-2-61.7-.89-61.92,1.85-.37,4.24-.26,8.31,1.97,2.85,1.56,9.33,32.07,14.79,60.46,10.45-.29,20.85-1.31,31.21-2.62-4.05-29.57-8.66-62.07-10.55-76.88-.79.09-1.57.19-2.36.28-16.83,1.94-33.85,2.14-50.76,1.22-9.8-.54-19.86-1.57-29.46-4.07.27,22.19,1.37,42.2,2.71,51.55,1,7,2.17,16.35,3.33,26.17Z" style="fill:#b22e2e; stroke-width:0px;"/><path d="m51.04,368.49c1.03-.49,28.51-.05,29.84.33,1.33.37,4.14,12.24,2.64,14.84-1.31,2.27-39.72.57-49.25.11-1.12-.05-1.83-1.23-1.33-2.23,1.01-2.03,3.45-4.86,8.06-7.89,7.55-4.94,10.04-5.15,10.04-5.15Z" style="stroke-width:0px;"/><path d="m110.09,368.49c1.03-.49,28.51-.05,29.84.33,1.33.37,4.14,12.24,2.64,14.84-1.31,2.27-39.72.57-49.25.11-1.12-.05-1.83-1.23-1.33-2.23,1.01-2.03,3.45-4.86,8.06-7.89,7.55-4.94,10.04-5.15,10.04-5.15Z" style="stroke-width:0px;"/><path d="m140.68,306.73s-1.66,2.84-6.99,5.2c-.26.13-.54.24-.83.35-3.51,1.42-8.47,2.58-15.32,2.7-18.54.35-28.96-3.02-28.96-3.02,0,0-3.84-19.74-6.34-23.24h0c-.25-.36-.49-.55-.72-.53-.09.01-.18.06-.24.14-1.71,1.99,3.52,24.1,3.52,24.1,0,0-10.27,1.84-23.55.68-13.29-1.17-28.7-3.98-28.7-3.98,0,0-.81-4.24-1.59-20.36-.39-8.27,0-21.46.47-32.35.01-.42.04-.81.05-1.21h0c.44-9.78.92-17.4.92-17.4h1.53c.24,0,2.57.06,6.35.18.29,0,.59.01.89.01,6.57.19,16.9.48,28.16.81.23,0,.45.01.68.01,1.07.04,2.14.06,3.22.1.26,0,.53.01.79.03,9.33.26,19.03.54,27.55.79.33.01.65.01.98.03,8.68.25,16.04.47,20.39.59.4.01.78.03,1.13.04,2,.05,3.12.09,3.12.09,2.57,7.39,13.47,66.23,13.47,66.23Z" style="stroke-width:0px;"/><path d="m133.69,311.93c-.26.13-.54.24-.83.35-.24-1.45-.44-2.91-.68-4.33-.5-3.07-.99-6.14-1.47-9.22-1.5-9.56-2.84-19.15-4.1-28.73-3.65-1.22-7.05-3.07-10.1-5.4-7.95-6.05-13.34-15.12-14.92-24.83.33.01.65.01.98.03,1.13,6.6,3.91,12.87,8.18,18.04,4.25,5.15,9.71,9.03,15.8,11.7-.18-1.31-.36-2.62-.54-3.94-.72-5.56-1.4-11.12-2.05-16.68-.34-2.79-.65-5.57-.97-8.37,0-.05-.01-.11-.03-.16.4.01.78.03,1.13.04.04.35.08.7.11,1.06.35,3.09.7,6.19,1.07,9.28,1.32,11.2,2.77,22.37,4.33,33.53.78,5.56,1.59,11.11,2.42,16.66.4,2.77.83,5.55,1.25,8.32.14.88.29,1.77.43,2.67Z" style="fill:#424094; stroke-width:0px;"/><path d="m73.51,268.77c.03.23-.2.36-.39.39-1.22.15-2.44.3-3.67.47-.23.03-.35-.2-.38-.39-.68-5.91-.94-11.88-.75-17.83.13-4.2.43-8.42,1.02-12.58.23,0,.45.01.68.01-.52,4.28-.91,8.55-1.02,12.87-.14,5.71.14,11.44.79,17.11.97-.13,1.95-.25,2.93-.38-.35-3.06-.59-6.13-.69-9.21-.18-5.62.08-11.27.74-16.86.14-1.14.29-2.29.47-3.43.26,0,.53.01.79.03-1.51,9.85-1.7,19.9-.52,29.8Z" style="fill:#424094; stroke-width:0px;"/><path d="m41.18,238.03c-1.65,6.83-5.01,13.23-9.75,18.42.01-.42.04-.81.05-1.21h0c.45-.52.88-1.04,1.3-1.57,3.45-4.43,5.95-9.57,7.36-15,.05-.21.11-.44.15-.65.29,0,.59.01.89.01Z" style="fill:#424094; stroke-width:0px;"/><path d="m83.35,288.69c-5.41-2.73-11.35-4.62-17.36-5.45-.25-.03-.37.33-.11.39,5.93,1.34,11.67,3.14,17.29,5.48.24.1.41-.31.18-.42Z" style="fill:#424094; stroke-width:0px;"/><path d="m109.43,238.15c-6.92,1.4-13.94,2.33-21,2.69-12.79.65-25.89.49-38.26-2.84-2.61-.71-5.2-1.57-7.71-2.65,3.85-42.59,8.9-81.62,14.01-89.76.74-1.19,4.15-2.9,8.66-4.44.17-.07.36-.12.54-.19,5.87-1.95,13.46-3.57,19.5-3.39,2.18.07,4.24.33,6.13.74.24.04.47.1.7.17,7.29,1.74,12.19,5.63,13.09,8.31,1.2,3.53,1.9,71.25,3.75,86.89.13,1.05.32,2.56.57,4.46Z" style="fill:#e0ecff; stroke-width:0px;"/><path d="m46.94,145.85c1.18-1.33,6.63-3.26,13.84-4.98.28-.08.58-.14.87-.21,9.39-2.19,21.5-4,31.15-3.8,3.48.08,6.77.36,9.8.83.38.05.75.11,1.12.19,11.65,1.95,19.66,6.18,21.11,9.19,1.91,3.96,7.95,92.95,10.91,110.5.2,1.18.52,2.87.92,5.01-11.06,1.57-27.39,2.33-38.67,2.73-5.79.21-11.62.34-17.45.34.03-1.4-.07-2.81-.17-4.22-.42-5.96-.76-24.53-.51-30.51.25-5.92.81-11.84,1.64-17.71.83-5.84,1.91-11.64,3.11-17.41,1.19-5.72,2.44-11.44,3.93-17.09,1.5-5.69,3.18-11.34,4.87-16.98.67-2.23,1.34-4.42,2.22-6.58.79-1.95,1.61-3.93,1.89-6.03.25-1.83-.03-3.56-1.14-5.07-.89-1.2-2.09-2.07-3.47-2.63-3.07-1.27-6.6-1.05-9.81-.57-3.42.51-6.76,1.45-10.04,2.52-3.3,1.07-6.48,2.32-9.18,4.58-5.91,4.94-7.21,13.02-8.03,20.26-1.34,11.74-1.31,23.57-.93,35.36.39,11.99,1.17,36.53,2.03,48.49.31,4.26.61,8.52.9,12.79-7.09-.55-14.11-1.41-20.99-2.71-4.18-.79-8.3-1.76-12.32-2.97,6.15-47.78,14.22-104.16,22.39-113.3Z" style="fill:#4436bc; stroke-width:0px;"/><path d="m61.24,132.66l3.87,14.02s3.04,4.9,17.84.96c14.09-3.76,12.74-10.57,12.74-10.57l-3.32-11.12-31.13,6.7Z" style="fill:#ffa672;"/><g style="clip-path:url(#clippath);"><path d="m67.35,139.83c3.39.33,6.89-.21,10.26-.99,4.12-.96,8.2-2.32,11.66-4.5,3.46-2.18,6.27-5.26,7.2-8.72.31-1.17.38-2.48-.44-3.41-.75-.85-2.07-1.19-3.34-1.36-2.39-.3-4.87-.12-7.3.21-7.37.99-14.51,3.24-21.47,5.73-1.7.61-3.51,1.32-4.42,2.67-1.14,1.69-1.43,5.23-.3,6.89,1.45,2.15,5.35,3.2,8.16,3.47Z" style="fill:#b22e2e; stroke-width:0px;"/></g><path d="m99.36,141.59c.55-1.19-3.45-11.22-6.79-8.68-3.34,2.54-11.26,12.11-25.08,11.13-3.22-.23-4.46-4.03-5.08-5.69-.13-.34-.56-.39-.74-.09-1.13,2.02-3.43,7.22-3.47,8.51-.06,2.18,1.8,9.65,3.08,9.82s6.5-7.84,6.5-7.84c0,0,5.48,10.19,7.24,9.67,2.89-.86,17.11-1.24,24.33-16.83Z" style="fill:#acceff; mix-blend-mode:multiply; stroke-width:0px;"/><path d="m100.09,139.92c.56-1.19-3.51-11.24-6.91-8.72-3.4,2.52-11.46,12.05-25.53,10.99-3.28-.25-4.53-4.05-5.17-5.72-.13-.34-.57-.4-.75-.09-1.15,2.01-3.49,7.2-3.53,8.49-.07,2.18,1.84,9.66,3.13,9.83,1.3.17,6.62-7.8,6.62-7.8,0,0,5.58,10.22,7.37,9.71,2.94-.84,17.41-1.15,24.76-16.7Z" style="fill:#e0ecff; stroke-width:0px;"/><path d="m67.98,154.99c1.56-.06,8.12,66.04,7.03,68.41-1.1,2.37-7.69,11.24-10.37,11.53-2.68.3-8.16-10.82-8.1-13.33.06-2.51,7.83-66.46,11.44-66.61Z" style="fill:#eb1e40; stroke-width:0px;"/><path d="m68.61,147.36c1.46.08,5.94,8.44,5.3,9.32s-3.69,3.06-6.51,2.74c-2.81-.32-4.69-2.6-4.6-3.39.09-.79,2.99-8.83,5.8-8.67Z" style="fill:#eb1e40; stroke-width:0px;"/><path d="m37.7,23.29c-10.9,8.34-15.89,23.71-12,36.9.65,2.21,1.56,4.4,3.09,6.12,1.53,1.72,3.78,2.91,6.07,2.73,4.13-.33,6.63-4.61,8.39-8.38,3.01-6.46,5.97-13.01,7.56-19.96,1.18-5.15,2.7-13.92-.14-18.8-2.68-4.62-9.89-.97-12.98,1.39Z" style="fill:#611b20; stroke-width:0px;"/><path d="m23.09,79.62c-.05,4.73.11,9.31.57,13.65,0,.07.01.15.02.22.13,1.35.32,2.67.51,3.97,1.71,11.22,5.64,20.74,13.1,27.48.04.04.09.08.13.12,1.31,1.17,2.73,2.26,4.27,3.27h0c6.45,4.18,14.99,6.8,26.22,7.4.51.03,1.02.05,1.53.06.57.03,1.14.04,1.73.05,1.3.02,2.57,0,3.86-.1,15.94-1.08,30.21-10.78,38.87-25.52.07-.14.14-.26.21-.38.7-1.21,1.36-2.45,1.98-3.72,3.18-6.49,5.34-13.87,6.21-21.86,3.57-33.06-16.89-63.64-46.4-65.53-30-1.91-52.37,22.01-52.81,60.9Z" style="fill:#ffa672; stroke-width:0px;"/><path d="m19.07,31.78c.19,2.76,1.72,5.23,3.8,6.86,2.09,1.62,4.68,2.45,7.3,2.78,7.11.86,14.88-2.26,19.24-8.43-.64,1.02-.52,2.39.08,3.38.59.99,1.57,1.65,2.59,2.14,2.31,1.07,4.93,1.33,7.51,1.27,5.64-.14,11.13-1.92,16.03-4.93-1.36,1.95-2.33,4.26-1.8,6.48.35,1.47,1.33,2.67,2.4,3.67,3.43,3.2,8.16,4.78,12.87,4.59,4.71-.19,9.36-2.09,13.21-5.1-.84,3.52-3.07,6.58-4.18,10.03-.65,2.01-.92,4.14-.78,6.23.14,1.85.64,3.77,1.95,4.99,1.32,1.21,3.59,1.42,4.87.05-.44,1.72-.63,3.5-.58,5.25.03.96.16,1.98.77,2.68.77.92,2.16,1.03,3.31.63,1.14-.42,2.11-1.26,3.04-2.08-.74,3.06-2.48,5.81-3.28,8.86-.81,3.06-.33,6.86,2.29,8.25,1.99,1.06,4.62.3,6.32-1.35,1.7-1.66,2.59-4.03,3.03-6.37,3.18.29,6.49.62,9.69.15,1.2-.18,2.42-.4,3.52-.96,2.43-1.2,4.03-3.72,5.32-6.19,3.95-7.5,6.48-15.76,7.42-24.16.21-2,.35-3.99.39-5.99.09-3.74-.16-7.52-1.38-10.98-.53-1.5-1.25-2.93-2.19-4.2-1.17-1.66-2.68-3.04-4.48-3.93-2.31-1.13-4.97-1.36-7.56-1.02-.99-4.83-3.79-9.03-7.4-12.29-1.52-1.38-3.2-2.59-4.94-3.61-4.05-2.35-8.68-3.87-13.41-3.62-.24.01-.48.04-.72.05-1.92.2-3.9.82-5.23,2.3-.4.45-.74,1.02-.86,1.61-3.86-3.89-8.73-6.68-14.01-7.99-1.87-.45-3.87-.73-5.74-.05-.97.36-1.95,1.09-2.19,2.15-.15.64-.01,1.32.2,1.92.44,1.23,1.03,2.4,1.84,3.35-2.57-1.69-5.42-2.92-8.32-3.95C58.24.47,46.57-.83,35.07.52c-2.16.25-4.33.59-6.4,1.36-1.45.53-2.97,1.41-3.54,2.91-.81,2.11.69,4.34,2.4,5.61,1.85,1.36,4.05,2.05,6.33,2.18-5.72,2.38-10.69,6.99-13.36,12.82-.92,2.01-1.59,4.21-1.43,6.39Z" style="fill:#611b20; stroke-width:0px;"/><path d="m102.69,9.83c.49,3.99,2.96,7.49,5.81,10.3-2.74,1.51-5.93,3.79-5.47,6.89.19,1.26.98,2.35,1.87,3.25,2.2,2.2,5.23,3.57,8.34,3.77.5.04,1.03.04,1.47.29,1.66.96.2,3.56.65,5.42.53,2.2,3.54,2.63,5.72,2.05,2.19-.58,4.49-1.69,6.6-.87,2.7,1.06,3.33,4.48,4.11,7.27.69,2.44,1.79,4.77,3.22,6.84.39.55.82,1.09,1.4,1.42,1.62.87,3.56-.33,4.88-1.6,1.31-1.26,2.55-2.74,3.69-4.35.21-2,.35-3.99.39-5.99.09-3.74-.16-7.52-1.38-10.98-.53-1.5-1.25-2.93-2.19-4.2-.57.29-1.08.69-1.48,1.18-1.17,1.35-1.67,3.15-1.87,4.92-3.17-1.64-6.68-2.62-10.24-2.86-1.62-.11-3.54-.23-4.37-1.62-1.2-2.01,1.07-4.69.19-6.87-.55-1.41-2.16-2.01-3.41-2.88-.98-.7-1.79-1.64-2.31-2.72-.29-.58-.5-1.21-.45-1.86.15-2.2,2.88-2.97,4.52-4.53-1.52-1.38-3.2-2.59-4.94-3.61-4.05-2.35-8.68-3.87-13.41-3.62-.24.01-.48.04-.72.05-.59,1.55-.82,3.26-.62,4.89Z" style="fill:#bb6142; mix-blend-mode:screen; opacity:.41; stroke-width:0px;"/><path d="m135.06,72.64c2.4.44,4.61,1.72,6.35,4.13,1.92,2.67,2.58,5.99,2.55,9.19-.06,6.95-3.28,13.61-8.57,18.29-3.27,2.9-7.5,5.49-11.98,5.89-5.04.45-9.11-2.68-10.23-7.5-.57-2.44-.42-4.99-.06-7.47,1.54-10.51,8.91-24.95,21.93-22.54Z" style="fill:#ffa672; stroke-width:0px;"/><path d="m133.46,82.4c-2.36-.05-4.45,1.46-5.94,3.16-3.45,3.94-4.93,9-4.38,14.17.08.75,1.24.79,1.2,0-.25-4.12,1.13-8.41,3.61-11.69.55-.73,1.19-1.47,1.91-2.1.72.86,1.22,1.85,1.45,2.94.13.62.16,1.18.12,1.87,0,.17-.02.33-.04.5.02-.12-.03.17-.03.16-.02.08-.03.16-.05.25-.09.39-.19.73-.18,1.14.02.62.77.97,1.24.53.64-.61.77-1.61.86-2.46.08-.8,0-1.64-.21-2.42-.34-1.29-1-2.44-1.93-3.36.39-.22.8-.4,1.24-.52.79-.21,1.63-.18,2.38.16.77.35,1.15,1.1,1.85,1.49.41.23,1.05.06,1.15-.46.42-2.15-2.56-3.33-4.24-3.37Z" style="fill:#c4311d; stroke-width:0px;"/><g style="opacity:.2;"><path d="m67.04,131.66c.59,1.49,1.4,2.88,2.4,4.12.57.03,1.14.04,1.73.05,1.3.02,2.57,0,3.86-.1,15.94-1.08,30.21-10.78,38.87-25.52.07-.14.14-.26.21-.38.7-1.21,1.36-2.45,1.98-3.72-.82-1.59-1.9-3.05-3.2-4.28-4.29-4.11-10.52-5.83-16.45-5.38-5.93.45-11.57,2.91-16.5,6.21-4.76,3.18-9.05,7.29-11.64,12.39-2.59,5.09-3.36,11.29-1.26,16.61Z" style="fill:#ec372f; stroke-width:0px;"/><path d="m23.66,93.27c0,.07.01.15.02.22.13,1.35.32,2.67.51,3.97,1.71,11.22,5.64,20.74,13.1,27.48.04.04.09.08.13.12-.55-5.47-1.35-10.91-3.08-16.11-2.06-6.09-5.55-11.87-10.67-15.68Z" style="fill:#ec372f; stroke-width:0px;"/></g><path d="m76.88,60.53c-3.2-1.88-7.19-3.49-10.82-3.23-1.31.09-2.6.58-3.18,1.71-.48.95-.27,2.08.37,2.93,1.5,2,4.26,1.91,6.66,1.79,1.54-.08,3.07-.05,4.62.03.88.04,6.56,1.07,5.32-1.09-.18-.31-.49-.54-.8-.75-.67-.46-1.4-.93-2.17-1.39Z" style="fill:#611b20; stroke-width:0px;"/><path d="m31.65,60.9c-.21.2-.42.41-.51.71-.64,2.1,3.74,1.37,4.44,1.37,1.22,0,2.44.05,3.69.21,1.94.25,4.17.48,5.04-1.46.37-.82.35-1.94-.19-2.92-.65-1.16-1.77-1.72-2.83-1.88-2.95-.45-5.88.97-8.13,2.69-.55.42-1.05.85-1.51,1.28Z" style="fill:#611b20; stroke-width:0px;"/><path d="m45.51,83.81c1.06-.58,2.34-.66,3.5-.39.24.06.48.17.72.24.01-.07.03-.15.03-.22.05-.78-.02-1.59-.07-2.37-.17-3.2-.73-6.37-1.47-9.49-.15-.64.77-.89.98-.27.87,2.6,1.44,5.27,1.78,7.99.17,1.36.35,2.77.35,4.14,0,.92-.4,1.96-1.49,1.92-.51-.02-.98-.3-1.48-.38-.52-.08-1.08-.05-1.58.12-1.13.39-1.68,1.5-1.71,2.64-.03,1.11.36,2.32,1.22,3.07.92.79,2.01.9,3.17.78.43-.04.64.57.35.84-.87.8-2.29.93-3.37.52-1.2-.45-2.1-1.48-2.6-2.64-.94-2.18-.57-5.25,1.69-6.48Z" style="fill:#c4311d; stroke-width:0px;"/><path d="m63.73,82.23c.5-.71,1.07-1.32,1.75-1.85,1.41-1.11,3.07-1.79,4.85-2.01,1.86-.23,3.73.1,5.44.83.9.38,1.75.87,2.52,1.48.7.56,1.54,1.28,1.91,2.12.16.37-.18.8-.58.58-.71-.39-1.3-1.01-1.98-1.45-.71-.46-1.46-.89-2.24-1.22-1.48-.62-3.14-.91-4.74-.73-1.47.16-2.89.76-4.09,1.62-.61.43-1.18.97-1.65,1.55-.45.55-.81,1.25-1.31,1.74-.28.28-.75.07-.76-.32-.04-.77.45-1.73.88-2.34Z" style="stroke-width:0px;"/><path d="m41.21,82.23c-.32-.71-.69-1.32-1.13-1.85-.91-1.11-1.99-1.79-3.14-2.01-1.2-.23-2.41.1-3.52.83-.58.38-1.13.87-1.63,1.48-.45.56-1,1.28-1.23,2.12-.1.37.12.8.37.58.46-.39.84-1.01,1.28-1.45.46-.46.94-.89,1.45-1.22.96-.62,2.03-.91,3.06-.73.95.16,1.87.76,2.65,1.62.39.43.76.97,1.07,1.55.29.55.52,1.25.85,1.74.18.28.48.07.49-.32.02-.77-.29-1.73-.57-2.34Z" style="stroke-width:0px;"/><path d="m41.75,98.03c.91.79,2.13,1.02,3.29,1.22,1.08.19,2.18.28,3.28.3,2.1.03,4.19-.19,6.23-.72,2.03-.52,3.99-1.31,5.82-2.34.91-.51,1.76-1.1,2.61-1.71.9-.65,1.7-1.42,2.61-2.06.44-.31,1.01.3.73.73-1.23,1.92-3.42,3.4-5.37,4.51-2.01,1.14-4.2,1.97-6.46,2.48-2.26.51-4.58.71-6.89.52-2.21-.18-4.99-.48-6.54-2.25-.41-.47.21-1.1.69-.69Z" style="fill:#c4311d; stroke-width:0px;"/><path d="m131.49,265.42s7.14,2.07,11.51-2.55c4.37-4.62-2.31-2.55-2.31-2.55,0,0,3.89-3.14,2.8-4.54-1.09-1.4-5.8,1.27-5.8,1.27l-6.2,8.37Z" style="fill:#ffa672; stroke-width:0px;"/><path d="m124.81,240.05s-10.09,8.34-9.53,13.21c.56,4.87,14.08,12.8,16.96,12.34,2.88-.46,9.9-13.89,10.07-15.23.17-1.34-14.59-13.4-17.5-10.33Z" style="fill:#ffa672; stroke-width:0px;"/><path d="m135.08,262.66c.23-.24.45-.49.67-.74.45-.51.87-1.05,1.25-1.62.76-1.12,1.36-2.34,1.8-3.61.11-.32.64-.11.53.21-.44,1.3-1.05,2.54-1.81,3.69-.38.57-.79,1.11-1.24,1.63-.23.27-.47.52-.73.77-.24.22-.47.48-.8.59-.14.05-.29-.08-.23-.21.11-.28.36-.49.57-.71Z" style="fill:#c4412f; stroke-width:0px;"/><path d="m125.41,231.05c4.69-8.3,11.83-22.35,11.54-30.51-.14-4.31-2.29-8.19-5.05-11.38-1.51-1.75-3.22-3.34-5.01-4.81-2.5-2.05-4.86-3.7-6.74-6.4-3.49-5-5.61-10.94-6.4-16.97-.79-6.01-2.49-22.95,7.41-17.45,2.16,1.2,5.82,3.4,7.8,4.86,4.03,2.97,7.77,6.3,11.42,9.72,7.51,7.06,14.67,14.79,20.35,23.42.99,1.5,1.83,3.07,2.77,4.6,9.94,18.39-2.51,40.43-16.11,64.46-.11.2-.24.42-.36.63-1.06,1.86-2.1,3.73-3.16,5.61l-22.42-19.08s1.49-2.35,3.55-5.96c.13-.24.27-.49.4-.74Z" style="fill:#4436bc; stroke-width:0px;"/><path d="m125.01,231.8c.73.53,1.47,1.06,2.2,1.6,2.71,2.02,5.35,4.13,7.9,6.33,4.23,3.64,8.14,7.51,11.92,11.5.11-.21.24-.42.36-.63-1.13-1.24-2.29-2.45-3.45-3.65-3.67-3.77-7.59-7.33-11.71-10.68-2.09-1.7-4.23-3.34-6.41-4.92-.13-.1-.27-.2-.41-.3-.13.26-.27.5-.4.74Z" style="stroke-width:0px;"/><path d="m123.9,182.02c-1.84-1.14-3.74-2.16-5.82-2.89,1.56,1.57,3.35,2.79,5.15,3.95.74.46,1.48.9,2.24,1.33-.12-.02-.24-.06-.36-.08-.7-.1-1.4-.15-2.11-.11-.7.04-1.41.13-2.1.39,1.37.52,2.69.74,4.02.97,1.34.21,2.6.37,4.04.56-1.47-1.65-3.23-2.94-5.05-4.11Z" style="fill:#4436bc; mix-blend-mode:multiply; opacity:.5; stroke-width:0px;"/></g></g></g></svg>