<?xml version="1.0" encoding="UTF-8"?><svg xmlns="http://www.w3.org/2000/svg" width="304.11" height="486.41" xmlns:xlink="http://www.w3.org/1999/xlink" viewBox="0 0 304.11 486.41"><defs><linearGradient id="linear-gradient" x1="12.01" y1="433.2" x2="129.6" y2="433.2" gradientUnits="userSpaceOnUse"><stop offset=".21" stop-color="#fff"/><stop offset=".93" stop-color="#fff" stop-opacity="0"/></linearGradient><linearGradient id="linear-gradient-2" x1="147.47" x2="265.06" xlink:href="#linear-gradient"/></defs><g style="isolation:isolate;"><g id="_Слой_2"><g id="_Слой_1-2"><polygon points="255.56 21.94 297.18 30.2 290.08 460.9 304.11 472.64 236.87 486.41 255.56 21.94" style="fill:#988977; stroke-width:0px;"/><polygon points="271.05 486.41 0 486.41 0 21.42 289.74 21.94 271.05 486.41" style="fill:#d69774; stroke-width:0px;"/><polygon points="289.74 21.94 0 21.42 27.82 0 276.8 0 289.74 21.94" style="fill:#af7e62; stroke-width:0px;"/><polygon points="27.82 0 0 21.42 185.17 21.75 103.34 0 27.82 0" style="fill:#af7e62; mix-blend-mode:multiply; opacity:.8; stroke-width:0px;"/><path d="m0,21.42l66.42,135.12s214.56,91.5,214.66,89c.24-6.02,8.66-223.6,8.66-223.6L0,21.42Z" style="fill:#d69774; mix-blend-mode:multiply; opacity:.4; stroke-width:0px;"/><polygon points="147.78 155.34 268.17 155.69 283.4 37.79 10.06 42.38 10.06 157.36 137.97 155.49 137.97 470.04 147.78 155.34" style="fill:#d69774; mix-blend-mode:multiply; opacity:.8; stroke-width:0px;"/><polygon points="265.42 152.18 22.11 152.18 13.1 47 271.97 47 265.42 152.18" style="fill:#854c3b; stroke-width:0px;"/><polygon points="68.11 47 219.44 152.18 265.42 152.18 271.97 47 68.11 47" style="fill:#7c4a37; mix-blend-mode:multiply; stroke-width:0px;"/><rect x="41.46" y="59.03" width="17.54" height="90.24" style="fill:#57bdec; stroke-width:0px;"/><polygon points="59.01 81.47 48.32 149.27 41.46 149.27 41.46 59.03 59.01 59.03 59.01 81.47" style="fill:#7d8e96; mix-blend-mode:multiply; opacity:.3; stroke-width:0px;"/><rect x="25.25" y="59.03" width="13.97" height="90.24" style="fill:#325f7d; stroke-width:0px;"/><polygon points="39.21 123.09 30.7 149.27 25.25 149.27 25.25 59.03 39.21 59.03 39.21 123.09" style="fill:#7d8e96; mix-blend-mode:multiply; opacity:.3; stroke-width:0px;"/><rect x="68.87" y="59.03" width="17.54" height="90.24" transform="translate(-20.07 18.55) rotate(-12.08)" style="fill:#f9a04b; stroke-width:0px;"/><polygon points="78.51 150.11 86.62 104.15 76.78 58.19 59.63 61.86 78.51 150.11" style="fill:#7d8e96; mix-blend-mode:multiply; opacity:.3; stroke-width:0px;"/><rect x="244.37" y="59.65" width="17.54" height="90.24" transform="translate(15.21 -31.05) rotate(7.24)" style="fill:#57bdec; stroke-width:0px;"/><polygon points="246.73 85.67 266.71 67.53 267.53 61.11 250.13 58.9 246.73 85.67" style="fill:#7d8e96; mix-blend-mode:multiply; opacity:.3; stroke-width:0px;"/><rect x="222.71" y="60.12" width="17.54" height="90.24" transform="translate(27.31 -46.33) rotate(12.14)" style="fill:#5a7f33; stroke-width:0px;"/><polygon points="222.77 104.06 248.19 69.3 249.56 62.98 232.4 59.29 222.77 104.06" style="fill:#7d8e96; mix-blend-mode:multiply; opacity:.3; stroke-width:0px;"/><path d="m121.35,261.41c-5.33,0-9.64,4.32-9.64,9.64s4.32,9.64,9.64,9.64,9.64-4.32,9.64-9.64-4.32-9.64-9.64-9.64Z" style="fill:#d69774; mix-blend-mode:multiply; opacity:.8; stroke-width:0px;"/><path d="m128.45,271.05c0,4.63-3.75,8.37-8.37,8.37s-8.38-3.75-8.38-8.37,3.75-8.37,8.38-8.37,8.37,3.75,8.37,8.37Z" style="fill:#f2f2f2; stroke-width:0px;"/><path d="m125.34,271.05c0,3.57-2.9,6.47-6.47,6.47s-6.47-2.9-6.47-6.47,2.9-6.47,6.47-6.47,6.47,2.9,6.47,6.47Z" style="fill:#fff; stroke-width:0px;"/><path d="m68.11,406.72c-3.65,0-6.61,2.96-6.61,6.61s2.96,6.61,6.61,6.61,6.61-2.96,6.61-6.61-2.96-6.61-6.61-6.61Z" style="fill:#d69774; mix-blend-mode:multiply; opacity:.8; stroke-width:0px;"/><circle cx="67.24" cy="413.33" r="5.74" style="fill:#f2f2f2; stroke-width:0px;"/><path d="m70.85,413.33c0,2.45-1.99,4.43-4.44,4.43s-4.44-1.98-4.44-4.43,1.99-4.44,4.44-4.44,4.44,1.99,4.44,4.44Z" style="fill:#fff; stroke-width:0px;"/><path d="m159.67,261.41c-5.33,0-9.64,4.32-9.64,9.64s4.32,9.64,9.64,9.64,9.64-4.32,9.64-9.64-4.32-9.64-9.64-9.64Z" style="fill:#d69774; mix-blend-mode:multiply; opacity:.8; stroke-width:0px;"/><circle cx="158.4" cy="271.05" r="8.37" style="fill:#f2f2f2; stroke-width:0px;"/><path d="m163.67,271.05c0,3.57-2.9,6.47-6.47,6.47s-6.47-2.9-6.47-6.47,2.9-6.47,6.47-6.47,6.47,2.9,6.47,6.47Z" style="fill:#fff; stroke-width:0px;"/><path d="m130.59,416.16c-.12-5.94-.15-11.87-.36-17.81v-.29s-.31-.01-.31-.01c-4.96-.29-9.92-.4-14.87-.58-4.96-.19-9.91-.23-14.87-.35-9.91-.12-19.82-.14-29.72-.08-9.9.11-19.81.19-29.71.59-9.9.37-19.79,1.07-29.69,1.6l-1.63.09.06,1.51c.21,5.72.45,11.43.55,17.15.12,5.72.16,11.43.14,17.15.02,11.43-.37,22.86-.72,34.29l-.05,1.58,1.69.06,14.54.5,14.54.36c9.7.26,19.39.31,29.08.46l14.54.19,14.54.05c4.85.04,9.69-.04,14.54-.09l14.54-.19,2.87-.04.04-2.78c.19-11.86.36-23.71.3-35.58l-.07-17.79Zm-2.56-.09l-1.32,17.75c-.82,10.88-1.43,21.77-2.03,32.66l-11.79-.15c-4.85-.05-9.69-.13-14.54-.1l-14.54.05-14.54.19c-9.69.14-19.39.19-29.08.46l-14.54.36-12.95.44c-.34-10.87-.7-21.74-.67-32.6-.02-5.72.02-11.43.14-17.15.08-5.18.29-10.35.49-15.52,9.41.13,18.82.37,28.22.33,9.91-.01,19.81-.35,29.71-.65,9.9-.35,19.8-.79,29.69-1.33,4.95-.32,9.89-.57,14.84-.97,4.83-.37,9.67-.7,14.5-1.17-.6,5.8-1.05,11.6-1.57,17.4Z" style="fill:#d69774; mix-blend-mode:multiply; opacity:.8; stroke-width:0px;"/><path d="m128.03,416.07l-1.32,17.75c-.82,10.88-1.43,21.77-2.03,32.66l-11.79-.15c-4.85-.05-9.69-.13-14.54-.1l-14.54.05-14.54.19c-9.69.14-19.39.19-29.08.46l-14.54.36-12.95.44c-.34-10.87-.7-21.74-.67-32.6-.02-5.72.02-11.43.14-17.15.08-5.18.29-10.35.49-15.52,9.41.13,18.82.37,28.22.33,9.91-.01,19.81-.35,29.71-.65,9.9-.35,19.8-.79,29.69-1.33,4.95-.32,9.89-.57,14.84-.97,4.83-.37,9.67-.7,14.5-1.17-.6,5.8-1.05,11.6-1.57,17.4Z" style="fill:url(#linear-gradient); mix-blend-mode:screen; opacity:.6; stroke-width:0px;"/><path d="m203.57,406.72c-3.65,0-6.61,2.96-6.61,6.61s2.96,6.61,6.61,6.61,6.61-2.96,6.61-6.61-2.96-6.61-6.61-6.61Z" style="fill:#d69774; mix-blend-mode:multiply; opacity:.8; stroke-width:0px;"/><circle cx="202.7" cy="413.33" r="5.74" style="fill:#f2f2f2; stroke-width:0px;"/><path d="m206.31,413.33c0,2.45-1.99,4.43-4.44,4.43s-4.44-1.98-4.44-4.43,1.99-4.44,4.44-4.44,4.44,1.99,4.44,4.44Z" style="fill:#fff; stroke-width:0px;"/><path d="m266.04,416.16c-.12-5.94-.15-11.87-.36-17.81v-.29s-.31-.01-.31-.01c-4.96-.29-9.92-.4-14.87-.58-4.96-.19-9.91-.23-14.87-.35-9.91-.12-19.82-.14-29.72-.08-9.91.11-19.81.19-29.71.59-9.9.37-19.79,1.07-29.69,1.6l-1.63.09.06,1.51c.21,5.72.45,11.43.55,17.15.13,5.72.16,11.43.14,17.15.02,11.43-.37,22.86-.72,34.29l-.05,1.58,1.69.06,14.54.5,14.54.36c9.69.26,19.39.31,29.08.46l14.54.19,14.54.05c4.85.04,9.7-.04,14.54-.09l14.54-.19,2.87-.04.04-2.78c.19-11.86.36-23.71.3-35.58l-.07-17.79Zm-2.56-.09l-1.32,17.75c-.82,10.88-1.43,21.77-2.03,32.66l-11.79-.15c-4.85-.05-9.69-.13-14.54-.1l-14.54.05-14.54.19c-9.69.14-19.39.19-29.08.46l-14.54.36-12.95.44c-.34-10.87-.7-21.74-.67-32.6-.02-5.72.01-11.43.14-17.15.08-5.18.29-10.35.49-15.52,9.41.13,18.82.37,28.22.33,9.91-.01,19.81-.35,29.71-.65,9.9-.35,19.8-.79,29.69-1.33,4.95-.32,9.89-.57,14.84-.97,4.83-.37,9.67-.7,14.5-1.17-.6,5.8-1.05,11.6-1.57,17.4Z" style="fill:#d69774; mix-blend-mode:multiply; opacity:.8; stroke-width:0px;"/><path d="m263.48,416.07l-1.32,17.75c-.82,10.88-1.43,21.77-2.03,32.66l-11.79-.15c-4.85-.05-9.69-.13-14.54-.1l-14.54.05-14.54.19c-9.69.14-19.39.19-29.08.46l-14.54.36-12.95.44c-.34-10.87-.7-21.74-.67-32.6-.02-5.72.01-11.43.14-17.15.08-5.18.29-10.35.49-15.52,9.41.13,18.82.37,28.22.33,9.91-.01,19.81-.35,29.71-.65,9.9-.35,19.8-.79,29.69-1.33,4.95-.32,9.89-.57,14.84-.97,4.83-.37,9.67-.7,14.5-1.17-.6,5.8-1.05,11.6-1.57,17.4Z" style="fill:url(#linear-gradient-2); mix-blend-mode:screen; opacity:.6; stroke-width:0px;"/><path d="m185.62,149.14l-82.26,1.66c-2.09.04-3.81-1.61-3.85-3.7l-.22-10.64c-.04-2.08,1.62-3.81,3.7-3.85l82.26-1.66c2.08-.04,3.81,1.61,3.85,3.7l.21,10.64c.04,2.09-1.61,3.81-3.7,3.85Z" style="fill:#325f7d; stroke-width:0px;"/><path d="m187.18,147.39l-77.74,1.6c-1.79.04-3.27-1.38-3.3-3.17l-.16-7.97c-.04-2,1.54-3.65,3.54-3.69l77.37-1.59c.78-.02,1.43.61,1.45,1.39l.24,11.99c.02.78-.61,1.43-1.39,1.45Z" style="fill:#fff; stroke-width:0px;"/><g style="mix-blend-mode:multiply;"><path d="m111.17,137.62s4.78-.22,11.94-.54c7.17-.26,16.72-.62,26.28-.97,9.56-.25,19.12-.5,26.29-.68,7.17-.13,11.95-.21,11.95-.21,0,0-4.78.22-11.94.54-7.17.26-16.72.62-26.28.97-9.56.25-19.12.5-26.29.68-7.17.13-11.95.21-11.95.21Z" style="fill:#e6e6e6; stroke-width:0px;"/><path d="m111.98,141.01s4.78-.22,11.94-.54c7.17-.26,16.72-.62,26.28-.97,9.56-.25,19.12-.5,26.29-.68,7.17-.13,11.95-.21,11.95-.21,0,0-4.78.22-11.94.54-7.17.26-16.73.62-26.28.97-9.56.25-19.12.5-26.29.68-7.17.13-11.95.21-11.95.21Z" style="fill:#e6e6e6; stroke-width:0px;"/><path d="m108.7,143.89s4.78-.22,11.94-.54c7.17-.26,16.72-.62,26.28-.97,9.56-.25,19.12-.5,26.29-.68,7.17-.12,11.96-.21,11.96-.21,0,0-4.78.22-11.94.54-7.17.26-16.73.62-26.28.97-9.56.25-19.12.5-26.29.68-7.17.13-11.95.21-11.95.21Z" style="fill:#e6e6e6; stroke-width:0px;"/><path d="m111.34,146.41s4.78-.22,11.94-.54c7.17-.26,16.72-.62,26.28-.97,9.56-.25,19.12-.5,26.29-.68,7.17-.13,11.95-.21,11.95-.21,0,0-4.78.22-11.94.54-7.17.26-16.72.62-26.28.97-9.56.25-19.12.5-26.29.68-7.17.13-11.96.21-11.96.21Z" style="fill:#e6e6e6; stroke-width:0px;"/></g><path d="m102.33,132.61c-1.71.04-3.08,1.32-3.05,2.88l.25,12.56c.03,1.55,1.45,2.79,3.16,2.75l72.96-1.47-33.88-17.19-39.45.47Z" style="fill:#7d8e96; mix-blend-mode:multiply; opacity:.3; stroke-width:0px;"/><path d="m195.04,130.89l-82.26,1.66c-2.09.04-3.81-1.62-3.85-3.7l-.21-10.64c-.04-2.09,1.62-3.81,3.7-3.85l82.26-1.66c2.08-.04,3.81,1.61,3.85,3.7l.22,10.64c.04,2.09-1.62,3.81-3.7,3.85Z" style="fill:#5a7f33; stroke-width:0px;"/><path d="m196.59,129.13l-77.74,1.6c-1.79.04-3.27-1.38-3.3-3.17l-.16-7.97c-.04-2,1.54-3.65,3.54-3.69l77.37-1.59c.78-.02,1.43.61,1.45,1.39l.24,11.99c.02.78-.61,1.43-1.39,1.45Z" style="fill:#fff; stroke-width:0px;"/><g style="mix-blend-mode:multiply;"><path d="m120.58,119.37s4.78-.22,11.94-.54c7.17-.26,16.73-.62,26.28-.97,9.56-.25,19.12-.5,26.29-.68,7.17-.12,11.95-.21,11.95-.21,0,0-4.78.22-11.94.54-7.17.26-16.73.62-26.28.97-9.56.25-19.12.5-26.29.68-7.17.13-11.95.21-11.95.21Z" style="fill:#e6e6e6; stroke-width:0px;"/><path d="m121.39,122.76s4.78-.22,11.94-.54c7.17-.26,16.72-.62,26.28-.97,9.56-.25,19.12-.5,26.29-.68,7.17-.13,11.95-.21,11.95-.21,0,0-4.78.22-11.94.54-7.17.27-16.72.62-26.28.97-9.56.25-19.12.5-26.29.68-7.17.12-11.96.21-11.96.21Z" style="fill:#e6e6e6; stroke-width:0px;"/><path d="m118.11,125.63s4.78-.22,11.94-.54c7.17-.26,16.72-.62,26.28-.97,9.56-.25,19.12-.5,26.29-.68,7.17-.13,11.95-.21,11.95-.21,0,0-4.78.22-11.94.54-7.17.26-16.72.62-26.28.97-9.56.25-19.12.5-26.29.68-7.17.12-11.95.21-11.95.21Z" style="fill:#e6e6e6; stroke-width:0px;"/><path d="m120.76,128.16s4.78-.22,11.94-.54c7.17-.27,16.72-.62,26.28-.97,9.56-.25,19.12-.5,26.29-.68,7.17-.13,11.95-.21,11.95-.21,0,0-4.78.22-11.94.54-7.17.26-16.72.62-26.28.97-9.56.25-19.12.5-26.29.68-7.17.12-11.95.21-11.95.21Z" style="fill:#e6e6e6; stroke-width:0px;"/></g><path d="m111.74,114.36c-1.71.03-3.08,1.32-3.05,2.88l.25,12.56c.03,1.56,1.45,2.79,3.16,2.75l54.46-1.1-31.66-17.56-23.17.47Z" style="fill:#7d8e96; mix-blend-mode:multiply; opacity:.3; stroke-width:0px;"/><path d="m174.37,112.42l-82.25,1.66c-2.09.04-3.81-1.62-3.85-3.7l-.21-10.64c-.04-2.09,1.61-3.81,3.7-3.85l82.26-1.66c2.08-.04,3.81,1.61,3.85,3.7l.22,10.64c.04,2.09-1.62,3.81-3.7,3.85Z" style="fill:#57bdec; stroke-width:0px;"/><path d="m175.93,110.66l-77.74,1.6c-1.79.04-3.27-1.38-3.3-3.17l-.16-7.97c-.04-2,1.54-3.65,3.54-3.69l77.37-1.59c.78-.02,1.43.61,1.45,1.39l.24,11.99c.02.78-.61,1.43-1.39,1.45Z" style="fill:#fff; stroke-width:0px;"/><g style="mix-blend-mode:multiply;"><path d="m99.92,100.9s4.78-.22,11.94-.54c7.17-.26,16.73-.62,26.28-.97,9.56-.25,19.12-.49,26.29-.68,7.17-.13,11.95-.21,11.95-.21,0,0-4.78.22-11.94.54-7.17.26-16.72.62-26.28.97-9.56.25-19.12.5-26.29.68-7.17.12-11.95.21-11.95.21Z" style="fill:#e6e6e6; stroke-width:0px;"/><path d="m100.73,104.29s4.78-.22,11.94-.54c7.17-.26,16.72-.62,26.28-.97,9.56-.25,19.12-.5,26.29-.68,7.17-.13,11.95-.21,11.95-.21,0,0-4.78.22-11.94.54-7.17.27-16.72.62-26.28.97-9.56.25-19.12.5-26.29.68-7.17.12-11.95.21-11.95.21Z" style="fill:#e6e6e6; stroke-width:0px;"/><path d="m97.45,107.17s4.78-.22,11.94-.54c7.17-.26,16.72-.62,26.28-.97,9.56-.25,19.12-.5,26.29-.68,7.17-.13,11.95-.21,11.95-.21,0,0-4.78.22-11.94.54-7.17.26-16.72.62-26.28.97-9.56.25-19.12.5-26.29.68-7.17.13-11.95.21-11.95.21Z" style="fill:#e6e6e6; stroke-width:0px;"/><path d="m100.09,109.69s4.78-.22,11.94-.54c7.17-.26,16.73-.61,26.28-.97,9.56-.25,19.12-.5,26.29-.68,7.17-.13,11.95-.21,11.95-.21,0,0-4.78.22-11.94.54-7.17.26-16.73.62-26.28.97-9.56.25-19.12.5-26.29.68-7.17.13-11.95.21-11.95.21Z" style="fill:#e6e6e6; stroke-width:0px;"/></g><path d="m91.08,95.89c-1.71.03-3.08,1.32-3.05,2.88l.25,12.56c.03,1.56,1.45,2.79,3.16,2.75l84.21-1.77-29.75-17.52-54.82,1.11Z" style="fill:#7d8e96; mix-blend-mode:multiply; opacity:.3; stroke-width:0px;"/><path d="m125.46,77.4l82.26-1.66c2.08-.04,3.81,1.61,3.85,3.7l.22,10.64c.04,2.09-1.62,3.81-3.7,3.85l-82.26,1.66c-2.09.04-3.81-1.62-3.85-3.7l-.22-10.64c-.04-2.09,1.61-3.81,3.7-3.85Z" style="fill:#ddbba1; stroke-width:0px;"/><path d="m123.91,79.15l77.74-1.6c1.79-.04,3.27,1.38,3.3,3.17l.16,7.97c.04,2-1.54,3.65-3.54,3.69l-77.37,1.6c-.78.02-1.43-.61-1.45-1.39l-.24-11.99c-.02-.78.61-1.43,1.39-1.45Z" style="fill:#fff; stroke-width:0px;"/><g style="mix-blend-mode:multiply;"><path d="m199.92,88.92s-4.78.22-11.94.54c-7.17.26-16.72.62-26.28.97-9.56.25-19.12.5-26.29.68-7.17.12-11.95.21-11.95.21,0,0,4.78-.22,11.94-.54,7.17-.26,16.73-.62,26.28-.97,9.56-.25,19.12-.5,26.29-.68,7.17-.13,11.95-.21,11.95-.21Z" style="fill:#e6e6e6; stroke-width:0px;"/><path d="m199.11,85.52s-4.78.22-11.94.54c-7.17.26-16.73.62-26.28.97-9.56.25-19.12.5-26.29.68-7.17.12-11.95.21-11.95.21,0,0,4.78-.22,11.94-.54,7.17-.26,16.73-.61,26.28-.97,9.56-.25,19.12-.5,26.29-.68,7.17-.13,11.95-.21,11.95-.21Z" style="fill:#e6e6e6; stroke-width:0px;"/><path d="m202.39,82.65s-4.78.22-11.94.54c-7.17.26-16.72.62-26.28.97-9.56.25-19.12.5-26.29.68-7.17.12-11.95.21-11.95.21,0,0,4.78-.22,11.94-.54,7.17-.26,16.73-.62,26.28-.97,9.56-.25,19.12-.5,26.29-.68,7.17-.12,11.95-.21,11.95-.21Z" style="fill:#e6e6e6; stroke-width:0px;"/><path d="m199.74,80.12s-4.78.22-11.94.54c-7.17.26-16.72.62-26.28.97-9.56.25-19.12.5-26.29.68-7.17.12-11.96.21-11.96.21,0,0,4.78-.22,11.94-.54,7.17-.26,16.72-.61,26.28-.97,9.56-.25,19.12-.49,26.29-.68,7.17-.13,11.95-.21,11.95-.21Z" style="fill:#e6e6e6; stroke-width:0px;"/></g><path d="m125.19,95.75c-1.71.04-3.13-1.19-3.17-2.75l-.28-12.56c-.03-1.56,1.33-2.85,3.04-2.88l84.21-1.78-28.99,18.76-54.82,1.21Z" style="fill:#7d8e96; mix-blend-mode:multiply; opacity:.3; stroke-width:0px;"/><polygon points="212.61 11.66 251.27 11.66 281.08 7.27 276.8 0 222.77 0 212.61 11.66" style="fill:#af7e62; mix-blend-mode:multiply; opacity:.8; stroke-width:0px;"/></g></g></g></svg>