<?xml version="1.0" encoding="UTF-8"?><svg xmlns="http://www.w3.org/2000/svg" width="187.61" height="393.82" xmlns:xlink="http://www.w3.org/1999/xlink" viewBox="0 0 187.61 393.82"><defs><clipPath id="clippath"><path d="m63.92,131.23l3.87,14.02s3.04,4.9,17.84.96c14.09-3.76,12.74-10.57,12.74-10.57l-3.32-11.12-31.13,6.7Z" style="fill:#ffbb9a; stroke-width:0px;"/></clipPath></defs><g style="isolation:isolate;"><g id="_Слой_2"><g id="_Слой_1-2"><path d="m22.11,162.49c9.1,3.53,20.09.44,28.41-5.62-.66,9.34,7.12,17.46,16.16,18.52,9.02,1.05,18.39-3.99,24.33-11.39.27-.34.55-.69.95-.84.84-.33,1.63.42,2.19,1.09,5.02,6.01,11.31,11.09,18.73,13.56,7.41,2.47,16,2.11,22.98-2,6.96-4.09,11.93-12.18,11.43-20.2,5.5,2.4,11.08,4.82,17.06,5.55,5.97.73,12.47-.42,17.18-4.47,5.57-4.79,7.64-13.44,4.83-20.07-2.8-6.62-10.13-10.09-17.21-9.23-12.26,1.49-24.01-8.32-16.98-35.18,4.33-16.53,2.14-36.27-4.46-51.99-.72-1.72-1.53-3.4-2.42-5.03-5.62-10.3-14.36-18.28-25.66-21.76-12.98-4-27.77-1.82-40.34,2.62-12.4,4.38-24.16,12.59-31.21,24.04-10.33,16.78-11.43,38.17-7.53,56.66.89,4.2,2.07,8.33,2.67,12.61,1.12,7.96-.52,19.3-10.01,22.12-5.76,1.71-12.37-1.33-17.47,2.05-1.7,1.13-2.97,2.85-3.86,4.69-4.5,9.28,1.12,20.71,10.22,24.25Z" style="fill:#ff9240; stroke-width:0px;"/><path d="m22.55,161.73c5.56-1.99,10.77-5.17,15.25-9.01,5.57-4.76,9.95-10.87,12.86-17.58,3.17-7.28,4.4-15,4.43-22.91.03-8.63-1.28-17.18-2.93-25.63-1.62-8.28-3.56-16.48-4.39-24.9-.75-7.63-.73-15.46,1.18-22.92,7.12-10.76,18.43-18.51,30.35-22.72,12.57-4.44,27.35-6.62,40.34-2.62.92.28,1.81.61,2.7.95,6.51,7.05,11.98,15.11,15.5,24.04,2.24,5.68,3.68,11.69,4.11,17.79.5,7.1-.33,14.26-1.87,21.19-1.66,7.46-4.08,14.71-6.42,21.97-1.11,3.44-2.12,6.83-2.51,10.44-.39,3.61-.23,7.31.72,10.82,1.59,5.9,5.04,11.16,8.96,15.77,4.09,4.8,8.93,9.07,14.28,12.42,3.65,2.29,7.43,3.86,11.69,4.58,4.05.68,8.25.78,12.31.08,2.22-.38,4.46-1.03,6.49-2.06-1.01,2-2.37,3.81-4.06,5.26-4.71,4.05-11.21,5.21-17.18,4.47-5.97-.73-11.56-3.15-17.06-5.55.5,8.01-4.47,16.1-11.43,20.2-6.99,4.11-15.58,4.47-22.98,2-7.42-2.47-13.7-7.55-18.73-13.56-.56-.67-1.34-1.42-2.19-1.09-.39.15-.68.51-.95.84-5.94,7.4-15.31,12.44-24.33,11.39-9.04-1.05-16.83-9.17-16.16-18.52-8.32,6.05-19.31,9.15-28.41,5.62-.27-.1-.52-.24-.78-.36.41-.13.82-.27,1.22-.41Z" style="fill:#ff9240; mix-blend-mode:multiply; opacity:.42; stroke-width:0px;"/><path d="m20.9,244.21c-1.37,2.63-3.18,6.14-4.21,8.12-2.58,2.77-12.83,20.13-10.31,21.99,1.73,1.2,6.2-6.2,6.77-6.87-.59,1.11-.66,18.63,2.41,19.13,2.04.36,2.79-11.04,3.14-12.31-.32,1.42,1.28,16.4,4.52,16.14,2.32-.29.58-15.96,1.1-15.94-.36.12,4,13.02,6.35,12.35,1.58-.48-.89-13.9-.48-13.95-.14.07,2.95,7.95,4.56,7.45,1.2-.34-1.82-11.98-1.09-16.66,0-3.87,2.68-11.53,3.71-13.99-5.56-1.63-11.05-3.47-16.47-5.45Zm-2.18,29.96s.02-.04.03-.03c-.01,0-.02.02-.03.03Z" style="fill:#ffbb9a; stroke-width:0px;"/><path d="m63.24,168.23c-.42,13.17-8.66,20.37-15.39,48.49-4.67,19.48-8.5,36.77-10.42,45.57-.07.29-.12.58-.19.85-.74,3.39-1.14,5.3-1.14,5.3-8.11-.55-27.86-4.61-27.18-8.99.26-1.66.51-3.3.79-4.96.04-.25.08-.5.13-.75,9.02-52.89,29.9-99.82,37.21-107.81,8.92-9.74,16.6,9.13,16.18,22.3Z" style="fill:#e0ecff; stroke-width:0px;"/><path d="m55.73,144.8c-.55.76-1.1,1.52-1.63,2.3-5.66,8.26-10.29,17.21-13.99,26.51-3.71,9.34-6.51,19.04-8.58,28.87-1.05,4.98-1.9,10.01-2.6,15.05-.81,5.82-1.25,11.68-1.67,17.54-.75,10.48-1.53,21.09-4.38,31.23,4.9,1.13,9.99,1.91,13.23,2.13,0,0,.4-1.91,1.14-5.3.07-.28.12-.57.19-.85,1.92-8.8,5.75-26.1,10.42-45.57,6.74-28.12,14.98-35.32,15.39-48.49.27-8.52-2.86-19.43-7.51-23.43Z" style="fill:#acceff; mix-blend-mode:multiply; opacity:.52; stroke-width:0px;"/><path d="m37.43,262.3c-.07.29-.12.58-.19.85-4.32-1.18-8.57-2.64-12.82-3.98-4.9-1.55-9.81-3.12-14.71-4.67.04-.25.08-.5.13-.75,4.94,1.51,9.88,3.02,14.82,4.56,4.24,1.32,8.55,2.52,12.75,4Z" style="fill:#acceff; mix-blend-mode:multiply; stroke-width:0px;"/><path d="m73.96,138.57c2.09-3.18,26.87-7.41,50.91-4.75,24.04,2.66,28.95,26.29,28.92,45.4-.03,19.12,3.66,64.11-4.05,70.98-7.71,6.87-73.4,9.14-81.41.69-8-8.45-9.76-88.89,5.63-112.33Z" style="fill:#402fa5; stroke-width:0px;"/><path d="m137.45,137.95c-1.8,1.36-3.37,3.23-4.6,5.43-2.91,5.2-3.88,11.42-4.37,17.53-1.13,14.06-1.64,28.27-1.8,42.36-.08,7.26.04,14.52.38,21.76.2,4.36.48,8.69,1.16,12.97.66,4.16,1.69,8.17,3.67,11.65,1.14,2,2.62,3.5,4.31,4.56,6.71-1.03,11.73-2.39,13.54-4,7.71-6.87,4.01-51.86,4.05-70.98.03-15.16-3.07-33.15-16.34-41.28Z" style="fill:#4436bc; mix-blend-mode:screen; stroke-width:0px;"/><path d="m151.03,205.6c7.74,2.35,9.89-9.13,8.19-13.96-4.97-14.11-15.97-28.11-27.44-39.91-3.4-3.5-6.98-7.35-11.04-9.93-11.81-7.51-11.56,12.36-6.16,24.99,2.49,5.82,6.5,10.61,10.57,15.28,3.57,4.09,16.14,20.58,25.88,23.54Z" style="fill:#e0ecff; stroke-width:0px;"/><ellipse cx="88.15" cy="383.62" rx="88.15" ry="10.19" style="fill:#acceff; mix-blend-mode:multiply; opacity:.5; stroke-width:0px;"/><path d="m37.59,270.95c-.08,0-.08.13,0,.13s.08-.13,0-.13Z" style="stroke-width:0px;"/><path d="m118.56,216.62c-.64.33-1.29.64-1.96.91-6.08,2.46-12.76,2.89-19.22,3.4-7.04.55-14.05,1.38-21.11,1.7-7.45.34-15.03.25-22.28-1.71-6.33-1.71-12.89-3.85-17.3-8.99-1.75-2.04-3.14-4.45-3.65-7.09-.91-4.72,1.01-9.34,1.83-13.91.86-4.78,1.67-9.55,2.73-14.3,1.65-7.39,3.45-14.81,6.07-21.93,1.21-3.29,2.57-6.89,4.94-9.55,1.18-1.33,6.63-3.26,13.84-4.98.28-.08.58-.14.87-.21,9.39-2.19,21.5-4,31.15-3.8,3.48.08,6.77.36,9.8.83.38.05.75.11,1.12.19,11.65,1.95,16.52,3.71,20.92,9.32,1.66,2.12,2.04,31.77,3.22,58.22.06,1.31-1.3,2.62-2,3.62-.95,1.35-1.86,2.67-3.02,3.87-1.72,1.78-3.74,3.28-5.93,4.43Z" style="fill:#e0ecff; stroke-width:0px;"/><path d="m63.92,131.23l3.87,14.02s3.04,4.9,17.84.96c14.09-3.76,12.74-10.57,12.74-10.57l-3.32-11.12-31.13,6.7Z" style="fill:#ffbb9a;"/><g style="clip-path:url(#clippath);"><path d="m67.93,139.02c3.37.49,6.89.13,10.3-.49,4.16-.76,8.3-1.92,11.86-3.92,3.56-2.01,6.52-4.95,7.61-8.36.37-1.16.5-2.46-.27-3.43-.7-.88-2.01-1.29-3.27-1.52-2.37-.42-4.86-.35-7.3-.15-7.41.63-14.65,2.53-21.72,4.68-1.72.52-3.58,1.15-4.54,2.45-1.22,1.63-1.68,5.15-.64,6.87,1.35,2.22,5.19,3.46,7.98,3.87Z" style="fill:#c4311d; mix-blend-mode:multiply; stroke-width:0px;"/></g><path d="m102.37,142.06c.55-1.19-3.45-11.22-6.79-8.68-3.34,2.54-11.26,12.11-25.08,11.13-3.22-.23-4.46-4.03-5.08-5.69-.13-.34-.56-.39-.74-.09-1.13,2.02-3.43,7.22-3.47,8.51-.06,2.18,1.8,9.65,3.08,9.82,1.27.17,6.5-7.84,6.5-7.84,0,0,5.48,10.19,7.24,9.67,2.89-.86,17.11-1.24,24.33-16.83Z" style="fill:#acceff; mix-blend-mode:multiply; stroke-width:0px;"/><path d="m103.1,140.39c.56-1.19-3.51-11.24-6.91-8.72-3.4,2.52-11.46,12.05-25.53,10.99-3.28-.25-4.53-4.05-5.17-5.72-.13-.34-.57-.4-.75-.09-1.15,2.01-3.49,7.2-3.53,8.49-.07,2.18,1.84,9.66,3.13,9.83,1.3.17,6.62-7.8,6.62-7.8,0,0,5.58,10.22,7.37,9.71,2.94-.84,17.41-1.15,24.76-16.7Z" style="fill:#e0ecff; stroke-width:0px;"/><path d="m70.75,147.75c1.46.08,5.94,8.44,5.3,9.32-.64.89-3.69,3.06-6.51,2.74-2.81-.32-4.69-2.6-4.6-3.39s2.99-8.83,5.8-8.67Z" style="fill:#eb1e40; stroke-width:0px;"/><path d="m63.32,195.67c-.81-.38-1.43-1.16-1.92-1.87-.61-.91-1.09-1.9-1.46-2.93-.25-.69-.46-1.4-.63-2.12.97-1.69,1.59-3.57,2.06-5.46,1.25-5.13,1.47-10.45,2.63-15.59.93-4.14,3.88-9.9,7.69-14.49-.28.83-.39,1.7-.38,2.58,0,.28.03.55.05.83,1.56,17.64,13.85,28.77,7.46,40.07-.69.52-1.44.97-2.11,1.36-1.49.87-3.1,1.52-4.78,1.92-1.22.3-2.46.48-3.71.59,1.46-2.34,2.78-4.75,3.59-7.39,1.06-3.41.99-7.08.5-10.62-.48-3.54-1.37-7.01-1.94-10.54-.45-2.83-1.36-6.22-1.38-9.09-4.05,8.96.57,19.12-2.19,27.13-.73,2.12-1.72,4.36-3.48,5.62Z" style="fill:#eb1e40; stroke-width:0px;"/><path d="m108.94,137.45c-.29-.03-.57.13-.73.42-8.52,15.21-9.96,33.67-6.9,48.62,2.92,14.25,11.2,25.77,22.09,31.67,1.26.68,3.07.25,3.91-1.14.99-1.65.09-3.61-.93-5.03-2.81-3.92-10.53-14.94-12.94-30.17-2.61-16.55,3.39-31.07,7.64-39.82.25-.51.23-1.11-.21-1.35-2.9-1.54-8.75-2.83-11.94-3.2Z" style="fill:#4436bc; stroke-width:0px;"/><path d="m55.07,140.7c-4.43,1.93-8.31,4.89-10.89,9.32-16.46,28.23-13.19,56.39-12.35,57.52,1.06,1.42,1.65-2.17,1.76-2.76,5.24-27.42,12.76-42.35,17.17-49.74,1.97-3.31,4.2-6.44,6.7-9.32,1.27-1.46,2.6-2.84,3.92-4.25.41-.44,1.59-1.37,1.59-2.09,0-1.52-5.88.53-6.57.79-.45.16-.9.34-1.33.53Z" style="fill:#4436bc; stroke-width:0px;"/><path d="m116.48,152.87c-1.05,4.57-2.37,3.67-3.52,2.89-1.15-.78-11.87-6.59-14.94-.55-.33.65-.64,1.46-.93,2.37-.17,1.01-.22,2.03-.1,3.05.19,1.52.51,2.89.11,4.43-.34,1.3-.88,2.21-.34,3.5.44,1.05.95,2.03.96,3.23.01,1.52-.61,2.72-.27,4.29.06.26.14.5.22.75.05.04.09.08.14.12.31.23.62.44.93.66,2.92,2.01,6.55,2.65,9.76,3.98,4.95,2.04,9.47,4.91,13.91,7.95l9.12-18.74c-10.23-4.36-7.81-18.24-15.06-17.91Z" style="fill:#ffbb9a; stroke-width:0px;"/><path d="m160.25,204.99c-7.69,14.67-31.67-4.33-42.07-13.6-.23-.2-.45-.4-.67-.6-2-1.79-3.4-3.15-3.96-3.69.79-1.51,10.87-22.54,11.44-24.29.7.33,2.23,1.13,4.25,2.33.14.09.28.18.43.26,11.54,6.89,38.01,25.44,30.58,39.59Z" style="fill:#e0ecff; stroke-width:0px;"/><path d="m129.67,165.4c-1.72,5.46-4,10.72-6.44,15.9-1.4,2.99-2.87,5.95-4.4,8.87-.21.4-.43.82-.64,1.22-.23-.2-.45-.4-.67-.6.39-.72.78-1.45,1.16-2.18,2.93-5.64,5.72-11.36,8.2-17.21.88-2.06,1.69-4.15,2.37-6.27.14.09.28.18.43.26Z" style="fill:#acceff; mix-blend-mode:multiply; stroke-width:0px;"/><path d="m153.43,183.91c-2.16-2.03-4.38-3.99-6.66-5.86-2.28-1.87-4.62-3.68-7.02-5.4-2.36-1.77-4.81-3.44-7.26-5.09-1.23-.83-2.46-1.64-3.71-2.43-1.24-.82-2.5-1.59-3.78-2.33,2.75,1.14,5.33,2.63,7.89,4.14,2.55,1.53,5,3.21,7.43,4.94,2.37,1.79,4.74,3.6,6.94,5.61,2.2,2,4.31,4.11,6.19,6.41Z" style="fill:#acceff; mix-blend-mode:multiply; stroke-width:0px;"/><path d="m78.39,262.22c-5.42.02-10.84-.1-16.25-.39-7.15-.38-14.32-1.1-21.32-2.61-.08-.02-.16-.04-.24-.06.51,13.07,1.29,23.92,2.17,30.11,3.55,24.89,9.24,79.38,9.24,79.38h29.17c-.12-19.91-3.12-87.7-2.77-106.44Z" style="fill:#ffbb9a; stroke-width:0px;"/><path d="m48.34,284.52c7.15,1.05,14.37,1.66,21.58,2.05,2.94.16,5.88.29,8.81.43-.28-10.65-.44-19.59-.35-24.78-5.42.02-10.84-.1-16.25-.39-7.15-.38-14.32-1.1-21.32-2.61-.08-.02-.16-.04-.24-.06.37,9.57.89,17.93,1.49,24.17,2.07.48,4.16.88,6.28,1.19Z" style="fill:#c4311d; mix-blend-mode:multiply; stroke-width:0px;"/><path d="m80.24,334.6c-.01-.44-.03-.89-.04-1.33-10.73-.21-21.45-.74-32.17-.89.04.35.08.71.12,1.05.03.28.06.54.09.81,2.09,18.53,3.75,34.42,3.75,34.42h29.17c-.04-6.77-.42-19.11-.88-33.16-.01-.3-.03-.59-.04-.89Z" style="fill:#e0ecff; stroke-width:0px;"/><path d="m51.48,367.3c1.03-.49,28.51-.05,29.84.33,1.33.37,4.14,12.24,2.64,14.84-1.31,2.27-39.72.57-49.25.11-1.12-.05-1.83-1.23-1.33-2.23,1.01-2.03,3.45-4.86,8.06-7.89,7.55-4.94,10.04-5.15,10.04-5.15Z" style="fill:#4436bc; stroke-width:0px;"/><path d="m51.28,373.94c-1.53-.83-3.19-1.42-4.9-1.77-1.97-.4-3.96-.5-5.94-.12-.7.13-.52,1.22.16,1.22,3.53-.02,6.93.6,10.01,2.39.58.34,1.75,1.16,2.18.16.4-.95-.87-1.51-1.52-1.86Z" style="stroke-width:0px;"/><path d="m57.8,373.24c-.11-.12-.24-.22-.37-.3-.74-.57-1.7-.99-2.53-1.35-.99-.43-2.01-.81-3.05-1.11-2.11-.61-4.29-.9-6.48-.85-.87.02-.86,1.29,0,1.35,2.04.13,4.08.5,6.03,1.12.95.3,1.89.67,2.79,1.11.93.45,1.82,1.09,2.78,1.45.84.31,1.36-.84.82-1.42Z" style="stroke-width:0px;"/><path d="m58.65,369.03c-.99-.46-2.01-.85-3.06-1.14-2.09-.59-4.19-.67-6.33-.41-.52.06-.55.81,0,.84,1.99.09,4,.53,5.9,1.14.93.3,1.83.67,2.7,1.12.45.23.9.47,1.34.73.47.28.86.42,1.38.17.19-.09.28-.31.29-.51.05-1.02-1.45-1.57-2.22-1.93Z" style="stroke-width:0px;"/><path d="m135.85,368.65h-29.17s-11.67-54.49-17.95-79.38c-.19-.78-.39-1.62-.6-2.54-1.45-6.39-3.16-16.14-4.87-27.56.09.01.18.04.25.05,7.17,1.51,14.43,2.24,21.61,2.62,5.44.29,10.87.4,16.29.39.44,4.82,1.45,12.86,2.76,22.51,3.77,27.89,9.98,69.13,11.69,83.93Z" style="fill:#ffbb9a; stroke-width:0px;"/><path d="m124.17,284.73c-9.95,2.55-28.63,2.3-36.04,2-1.45-6.39-3.16-16.14-4.87-27.56.09.01.18.04.25.05,7.17,1.51,14.43,2.24,21.61,2.62,5.44.29,10.87.4,16.29.39.44,4.82,1.45,12.86,2.76,22.51Z" style="fill:#c4311d; mix-blend-mode:multiply; stroke-width:0px;"/><path d="m131.2,334.6c-.16-1.16-.33-2.33-.5-3.5,0-.05-.01-.09-.02-.14-2.97.3-5.95.58-8.92.83-7.59.63-15.22,1.13-22.84,1.38.02.09.04.18.06.26.06.28.12.54.18.81,4.12,18.53,7.52,34.42,7.52,34.42h29.17c-.78-6.77-2.51-19.11-4.52-33.16-.05-.3-.09-.59-.14-.89Z" style="fill:#e0ecff; stroke-width:0px;"/><path d="m106.18,367.3c1.03-.49,28.51-.05,29.84.33,1.33.37,4.14,12.24,2.64,14.84-1.31,2.27-39.72.57-49.25.11-1.12-.05-1.83-1.23-1.33-2.23,1.01-2.03,3.45-4.86,8.06-7.89,7.55-4.94,10.04-5.15,10.04-5.15Z" style="fill:#4436bc; stroke-width:0px;"/><path d="m105.98,373.94c-1.53-.83-3.19-1.42-4.9-1.77-1.97-.4-3.96-.5-5.94-.12-.7.13-.52,1.22.16,1.22,3.53-.02,6.93.6,10.01,2.39.58.34,1.75,1.16,2.18.16.4-.95-.87-1.51-1.52-1.86Z" style="stroke-width:0px;"/><path d="m112.5,373.24c-.11-.12-.24-.22-.37-.3-.74-.57-1.7-.99-2.53-1.35-.99-.43-2.01-.81-3.05-1.11-2.11-.61-4.29-.9-6.48-.85-.87.02-.86,1.29,0,1.35,2.04.13,4.08.5,6.03,1.12.95.3,1.89.67,2.79,1.11.93.45,1.82,1.09,2.78,1.45.84.31,1.36-.84.82-1.42Z" style="stroke-width:0px;"/><path d="m113.35,369.03c-.99-.46-2.01-.85-3.06-1.14-2.09-.59-4.19-.67-6.33-.41-.52.06-.55.81,0,.84,1.99.09,4,.53,5.9,1.14.93.3,1.83.67,2.7,1.12.45.23.9.47,1.34.73.47.28.86.42,1.38.17.19-.09.28-.31.29-.51.05-1.02-1.45-1.57-2.22-1.93Z" style="stroke-width:0px;"/><path d="m142.34,275.84c-3.02.98-6.78,1.87-11.14,2.66-.22.04-.45.08-.67.11-26.08,4.59-72.36,5.18-105.56-5.29,3.56-12.02,6.76-27.78,9.65-43.44h0c.08-.44.17-.87.24-1.3.9-4.9,1.94-9.77,2.8-14.51.07-.36.42-.59.78-.52,1.41.3,2.74.58,4.21.83.3.06.6.11.91.15,4.89.82,9.84,1.37,14.73,1.81.14.01.28.03.42.04.44.04.88.08,1.32.12,1.05.09,2.1.17,3.16.23.27.03.52.05.77.06,11.56.79,23.05.79,34.48.17.35-.01.7-.04,1.04-.05,2.15-.12,4.31-.27,6.46-.44,2.53-.2,5.06-.42,7.57-.68.2-.02.4-.04.59-.06,2.03-.22,4.03-.45,6.04-.69.64-.08,1.22.38,1.31,1.02.75,5.69,1.47,10.37,2.1,12.84,3.89,15.22,14.7,41.12,18.8,46.94Z" style="stroke-width:0px;"/><path d="m131.2,278.5c-.22.04-.45.08-.67.11-.47-1.14-.92-2.28-1.37-3.4-1.03-2.59-2.03-5.2-2.97-7.81-6.1-16.8-10.42-34.22-12.68-51.6.2-.02.4-.04.59-.06.51,3.59,1.1,7.16,1.77,10.74,1.78,9.54,4.1,19.04,6.97,28.42,1.43,4.71,2.98,9.4,4.67,14.06,1.15,3.21,2.45,6.37,3.7,9.54Z" style="fill:#424094; stroke-width:0px;"/><path d="m118.18,244.08c-2.74-1.69-5.18-3.77-7.43-6.1-3.89-4.04-7.11-8.7-9.5-13.7-1.13-2.36-2.09-4.82-2.81-7.31.35-.01.7-.04,1.04-.05.03.08.05.15.07.23,1.57,5.19,4.06,10.19,7.27,14.69,3.26,4.54,7.28,8.36,11.61,11.87.21.18-.01.51-.25.37Z" style="fill:#424094; stroke-width:0px;"/><path d="m43.56,214.54c-.89,2.42-2,4.73-3.19,6.93-1.62,3-3.54,5.82-5.75,8.4.08-.43.17-.86.24-1.29,1.84-2.38,3.48-4.92,4.91-7.6,1.13-2.13,2.05-4.34,2.88-6.6.3.06.6.11.91.15Z" style="fill:#424094; stroke-width:0px;"/><path d="m63.8,218.25c-.42,4.8-.3,9.69.34,14.57.19,1.5.44,3.39-.58,4.53-1.06,1.2-2.94.68-4.03-.53-1.5-1.63-1.37-4.08-1.44-6.03-.11-2.58-.13-5.14-.08-7.69.05-2.26.13-4.51.26-6.76.14.01.28.03.42.04-.13,2.54-.21,5.09-.18,7.64.02,2.35.11,4.71.25,7.07.12,1.95.02,4.95,2.25,5.99,2.26,1.05,2.65-1.62,2.54-3.17-.17-2.1-.51-4.21-.63-6.3-.2-3.66-.13-7.3.25-10.89.27.03.52.05.77.06-.06.48-.12.96-.16,1.45Z" style="fill:#424094; stroke-width:0px;"/><path d="m32.16,120.99c6.08,6.85,15.79,11.72,31.01,13.84,1.41.2,2.87.37,4.38.52,20.24,2.01,38.61-7.68,49.14-24.22,4.9-7.69,8.12-16.88,9.03-27.1,2.98-33.35-19.97-64.01-51.26-67.32-31.17-3.3-48.41,18.67-51.2,56.34-.43,5.83-.71,11.46-.62,16.78.2,12.38,2.41,23.15,9.52,31.16Z" style="fill:#ffbb9a; stroke-width:0px;"/><path d="m24.01,51.82c.77.83,1.94,1.33,3.66,1.35,2.25.01,4.52-.6,6.77-.77,2.45-.18,4.89-.4,7.33-.7,6.98-.84,13.95-2.09,20.7-4,7.15-2.01,14.04-4.78,20.44-8.59.29-.18,1.5-.91,2.91-1.82,2.53-1.65,5.7-3.86,5.49-4.44.6,1.71,1.15,3.42,1.67,5.13,2.29,7.44,4.11,14.85,7.28,21.98,1.01,2.28,2.15,4.53,3.5,6.73,1.71,2.82,3.27,5.94,3.55,9.25.26,3.09-.55,6.24-.65,9.33-.13,3.35-.58,6.59,3.22,6.81,3.71.21,5.71-7.2,12.29-6.98,6.58.23,7.06,7.26,11.16,5.65,2.43-.94,4.25-3.96,5.82-5.79,10.33-11.85,15.05-26.13,10.43-40.9-.43-1.37-.94-2.74-1.53-4.11-.69-1.6-2.42-5.56-3.45-7.54-.13-.23-.24-.43-.34-.6-3.38-5.8-7.98-10.84-13.1-15.1-2.23-1.84-4.57-3.55-6.99-5.07C107.57,1.08,86.91-2.28,67.8,1.5c-8.3,1.65-16.33,4.67-23.56,9.03-.54.33-1.08.65-1.61.99-1.8,1.14-3.5,2.43-5.11,3.81-5.21,4.5-9.33,10.19-11.85,16.64-.53,1.36-.99,2.76-1.37,4.16-.52,1.87-.91,3.77-1.14,5.7-.39,3.09-1.26,7.72.86,9.98Z" style="fill:#ff9240; stroke-width:0px;"/><g style="opacity:.46;"><path d="m92.97,37.97c2.29,7.44,4.11,14.85,7.28,21.98.45.03.91.01,1.37-.05,2.78-.36,5.26-2.25,8.06-2.34,5.81-.19,9.47,7.05,15.25,7.79,5.4.7,9.79-4.73,10.95-10.05.7-3.22.82-6.87,3.12-9.22,2.63-2.69,6.63-2.42,10.57-2.03-.43-1.37-.94-2.74-1.53-4.11-.69-1.6-2.42-5.56-3.45-7.54-1.74.38-3.46.77-5.17,1.16-15.22,3.41-30.94,5.46-46.45,4.42Z" style="fill:#ff9240; mix-blend-mode:screen; stroke-width:0px;"/><path d="m24.3,36.14c.94.33,1.9.65,2.81,1.07,2.84,1.27,5.28,3.33,8.04,4.78,3.74,1.96,8.06,2.78,12.25,2.3,2.38-.26,4.72-.94,7.12-1.06,2.4-.1,4.99.48,6.59,2.26.58.64.98,1.41,1.36,2.19,7.15-2.01,14.04-4.78,20.44-8.59.29-.18,1.5-.91,2.91-1.82-1.55-.2-3.09-.43-4.63-.7-5.41-.94-10.74-2.37-15.91-4.25-9.36-3.42-18.2-8.4-25.66-15.03-.7-.63-1.41-1.27-2.09-1.95-5.21,4.5-9.33,10.19-11.85,16.64-.53,1.36-.99,2.76-1.37,4.16Z" style="fill:#ff9240; mix-blend-mode:screen; stroke-width:0px;"/></g><path d="m75.33,53.26s.01-.03.02-.05c.06-.09.08-.13-.02.05Z" style="fill:#ff5560; stroke-width:0px;"/><path d="m140.25,81.91c1.97,1.13,3.59,2.95,4.53,5.65,1.03,2.97.84,6.12.07,8.96-1.65,6.12-5.91,10.99-11.46,13.5-4.6,2.08-12.28,3.56-16.48-1.58-1.87-2.29-2.1-5.39-1.83-8.14.6-5.99,2.35-13.2,7.27-16.51,4.38-2.94,12.47-4.98,17.89-1.87Z" style="fill:#ffbb9a; stroke-width:0px;"/><path d="m123.38,98.35c.74-1.97,1.6-3.74,3.06-5.28,1.46-1.54,3.19-2.79,5.13-3.63,2.04-.88,4.4-1.26,6.56-.58.96.3,1.86.77,2.6,1.46.68.63,1.61,1.78,1.38,2.77-.14.58-.7.91-1.27.66-.67-.29-1.08-1.08-1.64-1.56-.57-.49-1.28-.87-1.99-1.08-.44-.13-.89-.2-1.34-.22.69,1.25,1,2.67.84,4.13-.1.88-.37,1.76-.78,2.54-.23.43-.51.83-.82,1.19-.14.16-.29.32-.45.47-.26.24-.51.31-.85.38-.48.09-1-.48-.87-.95.06-.23.11-.45.25-.64.12-.16.26-.3.38-.46.19-.25.35-.52.5-.79.35-.63.59-1.29.69-2.02.17-1.24-.07-2.57-.65-3.7-.86.17-1.7.47-2.48.83-2.94,1.37-5.75,4.06-7.13,7.03-.34.73-1.42.21-1.13-.54Z" style="fill:#c4311d; stroke-width:0px;"/><g style="opacity:.2;"><path d="m62.5,133c.19.62.42,1.23.68,1.83,1.41.2,2.87.37,4.38.52,20.24,2.01,38.61-7.68,49.14-24.22-.63-1.3-1.42-2.52-2.33-3.63-4.2-5.09-10.78-7.85-17.26-8.19-6.47-.34-12.8,1.55-18.43,4.47-5.4,2.8-10.34,6.63-13.53,11.75-3.17,5.09-4.47,11.56-2.64,17.46Z" style="fill:#ec372f; stroke-width:0px;"/><path d="m32.16,120.99c-.29-5.4-.85-10.83-2.27-16.18-1.42-5.31-3.79-10.59-7.24-14.98.2,12.38,2.41,23.15,9.52,31.16Z" style="fill:#ec372f; stroke-width:0px;"/></g><path d="m62.13,93.92c-3.24-1.79-6.35.45-12.57.21-6.21-.24-9.94-2.31-10.91-1.08-2.24,2.85,2.46,10.82,11.07,11.9,8.62,1.08,15.65-9.24,12.41-11.03Z" style="fill:#b22e2e; stroke-width:0px;"/><path d="m54.02,97.47c-3.15,1.35-6.34,3.44-8.71,6.23,1.32.61,2.79,1.05,4.4,1.25,6.73.85,12.49-5.26,13.15-8.83-2.46-1.1-6.54.37-8.85,1.36Z" style="fill:#ff582c; stroke-width:0px;"/><path d="m49.21,72.52c-.32-.51-1.13-.51-1.44-.06-.67.99-.5,2.71-.51,3.91,0,1.35,0,2.69,0,4.03,0,.73,0,1.45.01,2.18,0,.41.13,1.21-.15,1.54-.41.47-1.53.07-2.01-.13-1.06-.43-2.13-.96-3.28-.82-.99.12-1.88.73-2.2,1.71-.37,1.1.2,2.31.65,3.34.51,1.17,1.2,2.26,2.12,3.15.35.34.72-.11.62-.47-.35-1.22-.83-2.41-1.2-3.63-.12-.38-.42-1.15-.15-1.48.19-.25.68-.22.95-.17,1.03.17,1.97.87,3.01,1.1.91.2,1.89.18,2.69-.26,2.03-1.12,1.45-4.21,1.45-6.26,0-1.29,0-2.58-.02-3.87-.01-1.19.11-2.77-.55-3.81Z" style="fill:#c4311d; stroke-width:0px;"/><path d="m64.45,79.52c-.1,2.96,1.37,5.41,3.29,5.48,1.92.07,3.56-2.28,3.67-5.23.1-2.96-1.37-5.41-3.29-5.48-1.92-.07-3.56,2.28-3.67,5.23Z" style="stroke-width:0px;"/><path d="m32.16,77.85c-.09,2.48,1.09,4.53,2.62,4.59,1.53.05,2.85-1.91,2.94-4.39.09-2.48-1.09-4.53-2.62-4.59s-2.85,1.91-2.94,4.39Z" style="stroke-width:0px;"/><path d="m71.84,67.16c-.01-.2-.04-.41-.07-.58-.31-1.99-1.55-3.63-2.96-4.88-1.04-.93-2.39-1.74-3.93-2.28-.89-.31-1.87-.56-2.93-.69-1.06-.13-2.63-.35-3.6.23-.61.37-.7,1.47.33,1.89,1.15.46,2.21.42,3.2.54.94.11,1.82.29,2.62.51,3.18.88,5.37,2.96,6.54,5.22.11.21.22.44.38.54.38.25.44-.1.41-.52Z" style="fill:#ff9240; stroke-width:0px;"/><path d="m32.74,64.62c.02-.19.06-.4.09-.57.36-1.92,1.38-3.37,2.5-4.41.83-.77,1.87-1.39,3.04-1.71.67-.19,1.41-.3,2.2-.28.79.02,1.96.02,2.63.73.43.45.42,1.55-.37,1.82-.87.3-1.65.11-2.38.09-.7-.02-1.35.04-1.96.15-2.4.43-4.14,2.19-5.15,4.27-.1.2-.19.4-.31.49-.29.2-.31-.16-.27-.57Z" style="fill:#ff9240; stroke-width:0px;"/></g></g></g></svg>