<?xml version="1.0" encoding="UTF-8"?><svg xmlns="http://www.w3.org/2000/svg" width="182.48" height="396.9" xmlns:xlink="http://www.w3.org/1999/xlink" viewBox="0 0 182.48 396.9"><defs><clipPath id="clippath"><path d="m114.2,133.07l-1.2,14.58s-2.01,5.3-16.63,3.05c-13.92-2.14-13.84-9.16-13.84-9.16l1.19-11.59,30.48,3.12Z" style="fill:#ffbb9a; stroke-width:0px;"/></clipPath></defs><g style="isolation:isolate;"><g id="_Слой_2"><g id="_Слой_1-2"><ellipse cx="88.15" cy="386.7" rx="88.15" ry="10.19" style="fill:#acceff; mix-blend-mode:multiply; opacity:.5; stroke-width:0px;"/><path d="m38.25,371.74h28.89s3.93-22.73,8.68-47.48c.04-.19.08-.38.1-.57,5.51-28.62,12.08-59.68,14.96-61.26.36-.2.7-.38,1.04-.55h.01c2.77-1.37,4.69-1.67,6.22-1.56h.01c.36.03.69.08,1.02.14,1.16.23.05,34.04-.99,65.23-.01.3-.03.6-.04.92-.63,18.78-1.22,36.47-1.27,45.13h29.16s2.37-22.57,4.99-45.29c.03-.25.05-.5.09-.75,1.42-12.33,2.92-24.63,4.16-33.33,1.55-10.88,2.79-36.14,2.77-62.5-2.89.43-5.81.72-8.66,1.08-8.22,1.06-16.51,1.65-24.78,1.85-13.88.33-27.88,0-41.72-1.33-.3-.03-.59-.05-.88-.09-1.89-.18-3.75-.38-5.62-.6,0,2.48-.05,4.47-.18,5.81-.75,8.09-6.83,50.55-11.83,87.15-.04.29-.08.58-.11.86-2.67,19.53-4.99,37.3-6.03,47.15Z" style="stroke-width:0px;"/><path d="m97.01,363.26c-.08,3.34-.13,6.22-.14,8.48h29.16s.44-4.23,1.16-10.87c-10.04,1.24-20.1,2.06-30.18,2.39Z" style="fill:#ffbb9a; stroke-width:0px;"/><path d="m49.72,361.21c-2.2-.24-4.41-.51-6.61-.78-1.16-.15-2.33-.32-3.5-.48-.57,4.61-1.04,8.62-1.37,11.79h28.89s.58-3.36,1.56-8.89c-6.34-.38-12.66-.93-18.97-1.63Z" style="fill:#ffbb9a; stroke-width:0px;"/><path d="m110.38,367.92c-3.04.09-6.08.09-9.12-.03-1.46-.06-2.9-.18-4.33-.33-.03,1.55-.05,2.96-.05,4.17h29.16s.19-1.85.53-5c-5.38.58-10.78,1.03-16.19,1.18Z" style="fill:#e0ecff; stroke-width:0px;"/><path d="m64.26,367.15c-5.38.47-10.79.82-16.18.76-2.68-.03-5.36-.11-8.03-.3-.44-.03-.89-.09-1.33-.12-.18,1.54-.33,2.96-.47,4.24h28.89s.31-1.81.86-4.94c-1.24.13-2.49.25-3.74.36Z" style="fill:#e0ecff; stroke-width:0px;"/><path d="m126.54,370.39c-1.03-.49-28.51-.05-29.84.33-1.33.37-4.14,12.24-2.64,14.84,1.31,2.27,39.72.57,49.25.11,1.12-.05,1.83-1.23,1.33-2.23-1.01-2.03-3.45-4.86-8.06-7.89-7.55-4.94-10.04-5.15-10.04-5.15Z" style="fill:#4436bc; stroke-width:0px;"/><path d="m143.87,382.15c-9.68.83-19.35,1.41-29.07,1.38-6.99-.02-14.17.17-21.15-.74-.02,1.2.1,2.2.42,2.76,1.31,2.27,39.72.57,49.25.11,1.12-.05,1.83-1.23,1.33-2.23-.2-.39-.46-.82-.77-1.27Z" style="stroke-width:0px;"/><path d="m67.5,370.39c-1.03-.49-28.51-.05-29.84.33-1.33.37-4.14,12.24-2.64,14.84,1.31,2.27,39.72.57,49.25.11,1.12-.05,1.83-1.23,1.33-2.23-1.01-2.03-3.45-4.86-8.06-7.89-7.55-4.94-10.04-5.15-10.04-5.15Z" style="fill:#4436bc; stroke-width:0px;"/><path d="m84.8,382.12c-1.02.13-2.04.26-3.07.38-8.92,1.06-17.83,1.82-26.82,1.79-4.54-.02-9.08-.13-13.61-.4-2.23-.13-4.47-.27-6.71-.46.03.91.15,1.67.41,2.12,1.31,2.27,39.72.57,49.25.11,1.12-.05,1.83-1.23,1.33-2.23-.2-.4-.47-.84-.79-1.3Z" style="stroke-width:0px;"/><path d="m174.88,168.11c2.01-5.02,8.85-17.47,7.4-18.29-1.45-.82-6.89,6.99-6.89,6.99,0,0,5.83-14.28,3.77-15.16s-9.21,11.5-9.21,11.5c0,0,4.69-15.86,1.7-16.54-2.99-.67-7.44,14.99-7.44,14.99,0,0,1.78-12.66-.86-12.74-2.64-.08-6.87,16.85-6.87,16.85,0,0-2.44-9.03-4.75-8.5-2.31.53,1.26,19.01,1.23,22.73-.03,3.72-1.89,12.25-1.89,12.25l18.31,3.09s3.48-12.16,5.5-17.17Z" style="fill:#ffbb9a; stroke-width:0px;"/><path d="m148.19,175.88c-.81-2.52-1.73-5.01-2.76-7.46-3.12-7.44-7.29-14.5-15.22-17.58-2.86-1.11-6.37-1.43-8.76.49-1.67,1.35-2.43,3.51-2.9,5.61-2.18,9.75.37,19.94,3.9,29.28,2.15,5.71,4.66,11.33,7.7,16.63,2.68,4.68,5.96,9.55,11.03,11.87,2.13.97,4.7,1.4,6.78.33,2.69-1.39,3.67-4.72,4.07-7.72,1.41-10.47-.64-21.47-3.85-31.44Z" style="fill:#e0ecff; stroke-width:0px;"/><path d="m174.14,176.33c-.55,2.35-1.2,4.93-1.91,7.61-.1.35-.2.7-.3,1.06-4.54,16.38-12.44,36.08-26.36,32.7-13.24-3.22-2.19-32.4,2.73-43.86.08-.2.16-.4.24-.59,1.08-2.49,1.81-4.01,1.81-4.01l23.79,7.1Z" style="fill:#e0ecff; stroke-width:0px;"/><path d="m172.22,183.94c-.1.35-.2.7-.3,1.06-3.82-1.33-7.59-2.84-11.26-4.54-4.27-1.98-8.37-4.2-12.37-6.62.08-.2.16-.4.24-.59,1.69.97,3.4,1.89,5.13,2.77,5.43,2.78,11.02,5.23,16.76,7.3.59.21,1.2.43,1.8.63Z" style="fill:#acceff; stroke-width:0px;"/><path d="m144.22,183.61c.23-.58.27-.79.43-1.16.88-2.37,1.84-4.72,2.94-6.99.11-.22.49-.06.4.17-.8,2.04-1.62,4.08-2.4,6.12,0,.05,0,.09-.04.14-.01.01-.02.03-.03.04-.76,1.99-1.5,4-2.16,6.03-1.36,4.18-2.34,8.47-3.65,12.67-.06.2-.34.12-.31-.09.63-4.38,2.03-8.69,3.42-12.88.45-1.35.92-2.7,1.41-4.05Z" style="fill:#acceff; mix-blend-mode:multiply; stroke-width:0px;"/><path d="m141.43,214.7c-.64-4.09-1.13-8.18-1.61-12.28-.6-4.08-1.14-8.16-1.65-12.25l-.37-3.07-.48-3.05c-.3-2.04-.63-4.07-.89-6.12-.5-4.1-1.26-8.14-1.85-12.24.56,1.99,1.04,4,1.56,6,.52,2,.82,4.05,1.24,6.07.4,2.03.74,4.07,1.11,6.1l.52,3.06.4,3.07c.49,4.1,1,8.21,1.37,12.32.28,4.12.53,8.25.65,12.38Z" style="fill:#acceff; mix-blend-mode:multiply; stroke-width:0px;"/><path d="m49.42,242.57c6.73.83,52.2,6.25,93.12-2.4-.01-3.76-.11-7.7-.29-11.74-.16-4.09-.42-8.29-.73-12.52-.35-4.64-.77-9.31-1.26-13.9-.54-5.12-1.17-10.14-1.85-14.92-.7-4.89-1.46-9.55-2.26-13.8-.86-4.53-1.76-8.62-2.68-12.06-1.27-4.76-2.59-8.29-3.89-10.15-.55-.81-2.38-1.81-5.06-2.88-8.68-3.46-26.43-7.54-39.82-7.22-15.41.36-26.44,3.33-29.87,6.93-.48.49-.81.99-.98,1.5-.31.91-.79,5.99-1.32,13.42-.24,3.37-.49,7.25-.73,11.44-.29,4.73-.57,9.86-.83,15.16-.23,4.63-.45,9.37-.64,14.08-.23,5.2-.43,10.34-.58,15.2-.13,4.06-.23,7.93-.29,11.47-.09,4.84-.11,9.08-.05,12.4Z" style="fill:#e0ecff; stroke-width:0px;"/><path d="m114.2,133.07l-1.2,14.58s-2.01,5.3-16.63,3.05c-13.92-2.14-13.84-9.16-13.84-9.16l1.19-11.59,30.48,3.12Z" style="fill:#ffbb9a;"/><g style="clip-path:url(#clippath);"><path d="m112.28,141.07c-3.06.86-6.37.86-9.6.6-3.95-.32-7.93-1.05-11.49-2.7-3.56-1.65-6.67-4.3-8.12-7.63-.49-1.13-.77-2.43-.18-3.49.54-.97,1.7-1.52,2.84-1.88,2.14-.68,4.45-.87,6.75-.92,6.95-.15,13.9,1,20.73,2.42,1.66.35,3.46.78,4.52,1.99,1.33,1.52,2.21,5.02,1.46,6.87-.97,2.38-4.37,4.04-6.91,4.75Z" style="fill:#b22e2e; stroke-width:0px;"/></g><path d="m76.77,146.01c-.55-1.19,3.45-11.22,6.79-8.68,3.34,2.54,11.26,12.11,25.08,11.13,3.22-.23,4.46-4.03,5.08-5.69.13-.34.56-.39.74-.09,1.13,2.02,3.43,7.22,3.47,8.51.06,2.18-1.8,9.65-3.08,9.82-1.27.17-6.5-7.84-6.5-7.84,0,0-5.48,10.19-7.24,9.67-2.89-.86-17.11-1.24-24.33-16.83Z" style="fill:#acceff; mix-blend-mode:multiply; stroke-width:0px;"/><path d="m76.04,144.34c-.56-1.19,3.51-11.24,6.91-8.72,3.39,2.52,11.46,12.05,25.53,10.99,3.28-.25,4.53-4.05,5.17-5.72.13-.34.57-.4.75-.09,1.15,2.01,3.49,7.2,3.53,8.49.07,2.18-1.84,9.66-3.13,9.83-1.3.17-6.62-7.8-6.62-7.8,0,0-5.58,10.22-7.37,9.71-2.94-.84-17.41-1.15-24.76-16.7Z" style="fill:#e0ecff; stroke-width:0px;"/><path d="m108.15,159.41c-1.55-.06-8.12,66.04-7.03,68.41,1.09,2.37,7.69,11.24,10.37,11.53,2.68.3,8.16-10.82,8.1-13.33-.06-2.51-7.83-66.46-11.44-66.61Z" style="fill:#eb1e40; stroke-width:0px;"/><path d="m107.52,151.78c-1.46.08-5.94,8.44-5.3,9.32.64.89,3.69,3.06,6.51,2.74,2.81-.32,4.69-2.6,4.6-3.39s-2.99-8.83-5.8-8.67Z" style="fill:#eb1e40; stroke-width:0px;"/><path d="m145.08,126.79c-6.67,6.27-16.78,10.24-32.14,10.98-1.43.07-2.89.11-4.41.12-20.34.17-37.76-11.14-46.75-28.56-4.18-8.1-6.56-17.55-6.55-27.81.04-33.48,25.68-61.95,57.14-62.41,31.34-.47,46.53,22.97,45.9,60.74-.1,5.84-.33,11.48-.9,16.77-1.32,12.31-4.5,22.84-12.3,30.17Z" style="fill:#ffbb9a; stroke-width:0px;"/><path d="m108.22,55.44s0-.03-.02-.05c-.05-.1-.07-.14.02.05Z" style="fill:#ff5560; stroke-width:0px;"/><path d="m161.56,41.57c-.99-5.74-4.17-10.86-7.82-15.35-2.03-2.52-4.27-4.87-6.64-7.03-2.21-2.01-4.5-3.86-6.93-5.53-4.39-3.09-9.12-5.68-14.07-7.73-2.51-1.04-5.08-1.94-7.7-2.71C109.71.63,100.56-.41,91.53.15c-10.41.6-20.67,3.33-29.89,8.24-2.51,1.33-4.94,2.84-7.28,4.48-4.04,2.89-7.79,6.25-11,10.11-1.04,1.24-2.01,2.53-2.92,3.88-1.05,1.56-2.03,3.18-2.88,4.87-2.34,4.6-3.79,9.48-4.41,14.47-1.46,11.82,1.74,24.06,8.91,33.72,1.42,1.92,3,5.05,5.3,6.19,3.89,1.93,4.83-4.88,11.25-4.51,6.43.38,7.87,7.81,11.49,7.94,3.73.14,3.5-3.08,3.62-6.37.14-3.51-.66-7.43.81-10.71,2.11-4.7,6.35-6.69,9.5-10.44,8-9.54,6.52-24.42,3.47-35.56-.15-.56.41-1,.9-.98h.04c.54.6,1.07,1.21,1.56,1.85,1.65,2.13,3.07,4.41,4.6,6.62,3.08,4.45,6.9,8.47,11.61,11.21,4.76,2.77,10.25,4.23,15.76,4.36,4.66.11,9.64-.58,13.97-2.48,5.92,4.37,13.51,6.72,20.87,5.89.03,0,.04,0,.05,0,2.41-.27,4.32-2.19,4.69-4.59.37-2.35.33-4.75,0-6.73Z" style="stroke-width:0px;"/><path d="m120.74,10.82c-8.54.45-17.11-2.27-25.63-1.57-3.63.33-7.48,1.44-9.54,4.45-2.09,3.03-2.57,8.02-6.21,8.71-1.26.23-2.55-.21-3.82,0-2.66.36-4.26,3.33-4.38,6.08-.17,2.74.65,5.45.8,8.21.26,5.05-1.96,10.08-5.79,13.18-2.56,2.09-6.24,3.29-9.21,1.7-4.44-2.31-4.97-9.15-9.32-11.56-3.63-2.02-8.16.11-11.06,2.98-1.07,1.07-2.19,2.29-3.42,3.18.62-4.98,2.07-9.87,4.41-14.47.85-1.69,1.83-3.31,2.88-4.87.91-1.35,1.88-2.63,2.92-3.88,2.13,1.31,4.16,2.84,6.53,2.53,2.2-.29,3.85-2.2,4.94-4.18,1.1-1.98,1.86-4.18,3.35-5.87,2.91-3.21,7.76-3.62,12.07-3.16,2.52.25,5.68.47,6.91-1.76.47-.84.51-1.86.73-2.78.66-2.78,3.09-4.96,5.89-5.31,1.69-.21,3.47.23,5.14-.1,1.96-.4,2.57-1.19,2.61-2.19,9.03-.56,18.18.49,26.88,3.07,2.62.77,5.19,1.67,7.7,2.71.09.22.16.47.19.71.37,2.65-2.95,4.01-5.56,4.18Z" style="fill:#4436bc; opacity:.49; stroke-width:0px;"/><path d="m40.97,78.1c-2.07.95-3.84,2.61-5.02,5.22-1.3,2.86-1.39,6.02-.88,8.92,1.09,6.24,4.89,11.48,10.19,14.48,4.4,2.49,11.9,4.66,16.56-.09,2.07-2.11,2.58-5.18,2.56-7.94-.05-6.02-1.15-13.36-5.75-17.1-4.09-3.32-11.97-6.09-17.65-3.48Z" style="fill:#ffbb9a; stroke-width:0px;"/><path d="m56.28,96c-.56-2.03-1.25-3.87-2.57-5.54-1.31-1.66-2.92-3.06-4.78-4.08-1.95-1.07-4.26-1.65-6.48-1.17-.98.21-1.92.6-2.73,1.22-.74.57-1.77,1.63-1.62,2.63.09.59.62.97,1.2.77.7-.23,1.17-.98,1.77-1.4.61-.43,1.35-.75,2.08-.9.45-.09.9-.12,1.35-.1-.8,1.19-1.24,2.57-1.21,4.04.02.88.21,1.79.55,2.6.19.45.43.87.71,1.26.13.18.26.35.41.51.24.26.48.36.81.45.47.14,1.03-.38.95-.87-.04-.23-.07-.46-.19-.67-.1-.17-.23-.33-.33-.49-.17-.27-.3-.55-.43-.84-.29-.66-.47-1.34-.5-2.07-.06-1.25.3-2.56.99-3.62.84.25,1.65.62,2.4,1.05,2.8,1.63,5.35,4.57,6.47,7.64.27.76,1.39.34,1.18-.43Z" style="fill:#c4311d; stroke-width:0px;"/><g style="opacity:.2;"><path d="m113.79,136.01c-.25.6-.53,1.19-.84,1.76-1.43.07-2.89.11-4.41.12-20.34.17-37.76-11.14-46.75-28.56.74-1.23,1.64-2.38,2.65-3.41,4.65-4.69,11.45-6.84,17.93-6.6,6.47.25,12.61,2.71,17.95,6.12,5.12,3.28,9.7,7.54,12.42,12.93,2.7,5.36,3.4,11.91,1.05,17.63Z" style="fill:#ec372f; stroke-width:0px;"/><path d="m145.08,126.79c.78-5.35,1.82-10.71,3.73-15.91,1.89-5.16,4.73-10.21,8.57-14.26-1.32,12.31-4.5,22.84-12.3,30.17Z" style="fill:#ec372f; stroke-width:0px;"/></g><path d="m117.68,97.13c3.39-1.49,6.28,1.02,12.5,1.34,6.21.32,10.11-1.41,10.96-.09,1.97,3.04-3.43,10.55-12.1,10.85-8.68.3-14.75-10.62-11.37-12.11Z" style="fill:#b22e2e; stroke-width:0px;"/><path d="m125.44,101.4c3.02,1.63,6.01,4,8.11,6.99-1.37.48-2.87.79-4.5.85-6.78.23-11.96-6.37-12.3-9.99,2.54-.87,6.48.96,8.69,2.15Z" style="fill:#ff582c; stroke-width:0px;"/><path d="m132.48,76.99c.37-.48,1.17-.41,1.44.07.58,1.05.25,2.74.15,3.94-.11,1.34-.24,2.68-.37,4.01-.07.72-.14,1.45-.21,2.17-.04.41-.24,1.2.01,1.55.37.51,1.51.2,2.01.05,1.1-.33,2.21-.76,3.34-.52.98.21,1.8.9,2.04,1.9.26,1.13-.41,2.28-.95,3.27-.61,1.12-1.4,2.15-2.4,2.95-.38.3-.71-.18-.57-.52.46-1.19,1.05-2.33,1.53-3.51.15-.37.52-1.1.29-1.46-.17-.26-.65-.28-.93-.26-1.04.07-2.04.69-3.09.82-.92.12-1.9,0-2.66-.5-1.92-1.3-1.07-4.32-.88-6.36.12-1.28.24-2.57.37-3.85.12-1.18.14-2.76.89-3.75Z" style="fill:#c4311d; stroke-width:0px;"/><path d="m116.68,82.58c-.16,2.96-1.85,5.26-3.77,5.16-1.92-.11-3.34-2.59-3.18-5.54s1.85-5.26,3.77-5.16c1.92.11,3.34,2.59,3.18,5.54Z" style="stroke-width:0px;"/><path d="m148.98,83.84c-.14,2.48-1.49,4.41-3.02,4.33-1.53-.09-2.66-2.16-2.53-4.64.14-2.48,1.49-4.41,3.02-4.33,1.53.09,2.66,2.16,2.53,4.64Z" style="stroke-width:0px;"/><path d="m120.92,61.96c.24-1.29-.43-2.56-1.45-3.38-1.21-.97-2.82-1.24-4.45-1.07-3.04.33-6.06,1.94-8.27,3.89-2.3,2.04-4.31,4.79-4.47,7.69-.3.84.92,1.78,1.93,1.05,2.58-1.85,5.58-3.17,8.75-3.83,1.64-.34,3.32-.44,4.89-1.07,1.51-.6,2.79-1.81,3.07-3.29Z" style="stroke-width:0px;"/><path d="m141.36,65.07c1.15.57,2.42.7,3.65,1.03,2.36.64,4.54,1.83,6.35,3.45.71.63,1.72-.11,1.57-.83.13-2.44-1.17-4.8-2.74-6.58-1.52-1.7-3.68-3.14-5.98-3.49-1.23-.19-2.49,0-3.49.77-.85.66-1.47,1.7-1.4,2.79.08,1.25.96,2.3,2.06,2.85Z" style="stroke-width:0px;"/><path d="m27.44,250.88c-.44,2.63-2.26,10.53-4.32,13.81-1.88,4.35-10.64,12.59-9.81,13.51,1.1,1.28,7.92-3.73,7.83-3.87.33.26-8.92,10.29-7.84,11.55,1.63,1.82,12.2-6.77,11.96-7.06.45.26-9.38,12.59-7.57,14.07,2.61,1.95,11.95-9.87,12.43-11.24-.38,1.26-5.82,11.3-3.91,12.09,2.85,1.21,12.14-13.64,12.23-14.9.12.87-.05,9.52,2.06,9.43,3.12-.22,3.7-20.38,3-24.1.18-2.22.52-6.15.76-9.11-5.64-1.22-11.26-2.59-16.84-4.17Zm2.69,30.63s.01.02.01.05c0-.02,0-.04-.01-.05Z" style="fill:#ffbb9a; stroke-width:0px;"/><path d="m69.71,170.8c.3,13.17-7.54,20.81-12.74,49.26-3.61,19.7-6.49,37.18-7.93,46.07-.05.29-.09.58-.14.86-.56,3.42-.85,5.35-.85,5.35-8.13-.11-28.07-3.09-27.63-7.5.17-1.67.33-3.33.52-5,.03-.25.05-.51.09-.76,6.14-53.3,24.43-101.3,31.29-109.67,8.38-10.22,17.07,8.22,17.37,21.39Z" style="fill:#e0ecff; stroke-width:0px;"/><path d="m68.88,178.8c-.99,5.38-3.01,10.5-4.66,15.66-1.69,5.16-3.27,10.35-4.49,15.65-1.34,5.26-2.29,10.6-3.33,15.95l-1.6,8.01c-.58,2.66-1.11,5.33-1.73,7.99.34-2.7.75-5.4,1.12-8.1l1.26-8.07c.84-5.38,1.81-10.76,3.06-16.08,1.32-5.3,2.9-10.55,4.8-15.67l2.91-7.64c1-2.53,1.92-5.09,2.66-7.71Z" style="fill:#acceff; mix-blend-mode:multiply; stroke-width:0px;"/><path d="m49.05,266.12c-.05.29-.09.58-.14.86-4.37-.94-8.7-2.17-13.01-3.28-4.98-1.28-9.96-2.59-14.94-3.87.03-.25.05-.51.09-.76,5.02,1.24,10.03,2.48,15.05,3.75,4.3,1.08,8.68,2.05,12.95,3.3Z" style="fill:#acceff; mix-blend-mode:multiply; stroke-width:0px;"/></g></g></g></svg>