<?xml version="1.0" encoding="UTF-8"?><svg id="_Слой_2" xmlns="http://www.w3.org/2000/svg" width="116.98" height="105.96" viewBox="0 0 116.98 105.96"><g id="_Слой_1-2"><path d="m33.35,12.64c-8.7,2.48-15.21,11.2-15.12,20.24.05,4.64,1.47,9.9-1.45,13.5-1.92,2.37-5.17,3.17-7.59,5.04-2.69,2.07-4.24,5.55-3.99,8.93.25,3.39,2.29,6.59,5.26,8.25-2.95,2.18-7.01,2.77-10.46,1.53.36,3.56,2.41,6.92,5.41,8.87,3,1.96,6.89,2.48,10.3,1.37.3,3.57-1.13,7.26-3.78,9.68,5.09-1.59,10.58.25,15.42,2.5,4.83,2.25,9.66,4.99,14.98,5.27,5.61.3,11.07-2.24,15.39-5.83,4.32-3.59,7.67-8.18,10.97-12.73" style="fill:#263238; stroke-width:0px;"/><path d="m29.24,39.03c.54-11.97,13.21-24.13,25.14-23.08l38.76,6.66v6.43s-9.97,59.8-9.97,59.8c-10.68,13.25-22.58,17.11-35,17l.85-5.24s-15.32-2.26-18.84-22.13c-1.75-9.88-1.54-26.14-.94-39.43Z" style="fill:#eda688; stroke-width:0px;"/><path d="m33.93,54.09c-.02,1.35,1.1,2.48,2.51,2.53,1.41.05,2.57-1,2.59-2.35.02-1.35-1.1-2.49-2.51-2.54-1.41-.05-2.57,1-2.6,2.35Z" style="fill:#263238; stroke-width:0px;"/><path d="m32.92,47.42c.32.33,2.23-1.14,4.98-1.18,2.75-.08,4.79,1.3,5.08.96.14-.15-.19-.75-1.08-1.37-.88-.62-2.36-1.22-4.08-1.18-1.71.04-3.14.7-3.96,1.36-.83.66-1.11,1.27-.95,1.42Z" style="fill:#263238; stroke-width:0px;"/><path d="m58.37,54.09c-.02,1.35,1.1,2.48,2.51,2.53,1.41.05,2.57-1,2.59-2.35.02-1.35-1.1-2.49-2.51-2.54-1.41-.05-2.57,1-2.6,2.35Z" style="fill:#263238; stroke-width:0px;"/><path d="m59.96,47.46c.32.33,2.24-1.14,4.98-1.18,2.75-.08,4.79,1.3,5.08.96.14-.15-.19-.75-1.08-1.37-.88-.62-2.36-1.22-4.07-1.18-1.71.04-3.14.7-3.96,1.36-.83.66-1.11,1.27-.95,1.42Z" style="fill:#263238; stroke-width:0px;"/><path d="m50.34,68.03c0-.16-1.7-.42-4.48-.73-.7-.06-1.37-.19-1.5-.66-.17-.5.11-1.27.43-2.09.63-1.71,1.29-3.5,1.98-5.38,2.75-7.66,4.72-13.96,4.41-14.07-.31-.11-2.79,6.02-5.54,13.68-.66,1.89-1.29,3.69-1.89,5.41-.25.8-.69,1.72-.32,2.76.2.52.72.89,1.17,1.01.45.13.85.13,1.2.14,2.79.1,4.52.08,4.53-.07Z" style="fill:#263238; stroke-width:0px;"/><path d="m49.02,100.6s13.42.63,26.56-7.59c0,0-7.43,14.35-27.4,12.84l.85-5.24Z" style="fill:#d68663; stroke-width:0px;"/><path d="m52.26,73.77c-.92.2-1.19,1.68-1,2,.19.32.8.68,1,1,.72,1.18,2.4,1.9,4,2,1.36.08,3.47-1.11,4.2-2.16.64-.94.47-2.32-.28-3.27-.74-.96-1.96-1.51-3.15-1.62-1.72-.15-2.49-.34-2.77,1.06-.16.65-1.28,1.35-2,1Z" style="fill:#d68663; stroke-width:0px;"/><path d="m58.47,69.78c-.45-.02-.4,2.97-2.92,5.13-2.51,2.17-5.7,1.89-5.72,2.31-.04.19.72.57,2.06.58,1.32.02,3.23-.44,4.77-1.76,1.54-1.33,2.17-3.07,2.26-4.3.09-1.25-.25-1.98-.46-1.96Z" style="fill:#263238; stroke-width:0px;"/><path d="m59.06,36.69c.28.74,3.02.34,6.26.67,3.24.27,5.86,1.16,6.27.49.19-.32-.28-1.02-1.35-1.72-1.06-.7-2.73-1.36-4.67-1.54-1.94-.18-3.71.16-4.87.66-1.18.5-1.76,1.1-1.64,1.45Z" style="fill:#263238; stroke-width:0px;"/><path d="m33.79,39.45c.49.62,2.38-.07,4.66-.14,2.27-.15,4.21.34,4.65-.32.19-.32-.13-.94-.98-1.52-.84-.57-2.24-1.03-3.8-.96-1.56.08-2.91.67-3.69,1.32-.79.66-1.05,1.3-.83,1.61Z" style="fill:#263238; stroke-width:0px;"/><path d="m55.7,14.1c-.42-3.66,3.07-6.86,6.72-7.36,3.65-.5,7.26,1.01,10.48,2.79,3.22,1.77,6.35,3.87,9.93,4.72,3.1.73,6.36.48,9.5,1,7.14,1.18,13.37,6.71,15.41,13.65,1.23,4.2,1.04,8.83,2.98,12.76,1.68,3.41,4.86,6.04,5.9,9.7,1.29,4.58-1.12,9.29-3.29,13.53-2.17,4.24-4.18,9.29-2.16,13.6-4.21,1.36-8.66,1.97-13.08,1.78-1.56-.07-3.18-.26-4.47-1.13-2.06-1.38-2.73-4.07-3.18-6.51-2.09-11.2-3.24-22.94-9-32.76-2.22-3.78-5.12-7.29-6.18-11.54-.61-2.43-.65-5.16-2.24-7.09-1.5-1.82-4.01-2.44-6.36-2.61-2.35-.18-4.76-.03-7.01-.75-2.24-.72-4.34-2.65-4.29-5" style="fill:#263238; stroke-width:0px;"/><path d="m21.97,33.56c1.73-2.36,2.11-5.44,2.05-8.36-.06-2.92-.52-5.85-.25-8.76C24.55,8.31,31.46.78,39.6.07c10.25-.9,18.68,7.67,18.68,7.67,0,0,0,0,0,.01.25-.42.52-.83.84-1.2,1.67-1.91,4.07-3.04,6.5-3.75,3.38-.98,7.13-1.23,10.33.24,2.68,1.23,4.77,3.55,7.53,4.56,3.12,1.15,6.59.46,9.9.85,7.19.85,12.91,6.88,15.55,13.62,2.64,6.74,2.77,14.16,2.86,21.4l-4.38-2.66c1.9,4.19,4.06,8.21,8.03,9.96-2.2,1.58-4.09.34-6.38-1.11,2.77,5.01,3.83,10.94,2.99,16.6-.41,2.78-1.28,5.55-1.01,8.36.27,2.8,2.12,5.75,4.92,6.05-4.65,3.88-10.39,6.9-16.41,6.89.56,2.93,2.16,5.68,4.52,7.52-5.75,2.01-12.49.95-17.34-2.73-4.86-3.69-7.69-9.89-7.29-15.97.29-4.55,2.26-9.01,1.62-13.53-.61-4.32-3.49-7.94-5.11-11.99-.91-2.28-1.38-4.72-1.46-7.17-.96-1.54-1.68-3.19-1.97-5.01-.86-5.27,2.1-10.6,1.25-15.87-.17-1.04-.5-2.04-.96-2.99l-3.25-1.97c-2.25.15-4.55.3-6.74-.25-.7-.17-1.38-.44-2.02-.77.03.53.04.75.1,1.38,0,0-2.93,4.54-7.68,4.54s-13.19-.77-14.81,4.11c-1.31,3.94-3.06,8.09-6.17,10.85-3.11,2.76-5.5,4.49-9.65,4.31-4.15-.18-8.58-1.97-8.34-6.12,2.59,1.36,5.97.03,7.7-2.33Z" style="fill:#263238; stroke-width:0px;"/><path d="m114.98,58.01c0-.11-1.19.03-3.28-.23-2.06-.27-5.12-1-8.15-3.19-3-2.14-5.85-5.93-6.68-10.77-.41-2.41-.29-5.02-.12-7.75.15-2.73.35-5.65-.31-8.62-.65-2.98-2.27-5.62-4.35-7.56-2.09-1.97-4.72-3.15-7.23-3.68-2.53-.56-4.94-.7-7.15-.93-2.22-.21-4.24-.57-6.07-1.03-7.33-1.92-11.17-4.91-11.29-4.66-.04.06.87.83,2.71,1.93,1.84,1.1,4.64,2.51,8.35,3.58,1.85.53,3.94.95,6.18,1.21,2.23.28,4.62.46,7.01,1.02,2.39.54,4.75,1.63,6.67,3.45,1.91,1.8,3.38,4.22,3.97,6.94,1.15,5.51-.49,11.15.52,16.3.96,5.16,4.08,9.11,7.3,11.28,3.25,2.22,6.48,2.83,8.61,2.96,1.08.06,1.92,0,2.48-.06.56-.08.85-.15.85-.19Z" style="fill:#455a64; stroke-width:0px;"/><path d="m111.79,71.43c-.03-.12-1.24.25-3.47.38-2.21.11-5.51-.13-9.16-1.72-3.64-1.53-7.58-4.44-10.44-8.85-2.9-4.36-4.71-10.02-5.21-16.07-.51-6.02.58-12-.79-17.4-1.27-5.45-5.19-9.28-8.92-10.99-3.81-1.76-7.33-1.63-9.55-1.21-1.13.21-1.97.5-2.53.72-.55.23-.83.39-.81.42.04.11,1.2-.39,3.41-.67,2.18-.27,5.55-.24,9.09,1.52,3.48,1.72,7.07,5.37,8.19,10.47,1.25,5.09.16,10.98.67,17.23.51,6.22,2.41,12.08,5.49,16.59,3.03,4.56,7.23,7.54,11.05,9.02,3.84,1.54,7.27,1.65,9.53,1.39,1.14-.13,2.01-.33,2.57-.52.57-.18.86-.3.85-.34Z" style="fill:#455a64; stroke-width:0px;"/><path d="m14.27,35.89c-.06,0,.49,1.04,2.26,1.76,1.72.71,4.49,1.31,7.82.54.83-.19,1.68-.53,2.49-1.04.86-.5,1.48-1.35,2.05-2.09,1.18-1.56,2.28-3.39,3.05-5.49,1.57-4.31.96-9.2,2.06-13.94.54-2.34,1.53-4.55,3.03-6.19,1.47-1.68,3.5-2.58,5.54-2.72,4.14-.22,7.84,1.46,10.57,3.03,5.52,3.4,7.48,7.22,7.68,7.02.06-.03-.37-.97-1.48-2.45-1.11-1.47-2.94-3.49-5.74-5.31-1.4-.9-3.03-1.75-4.89-2.4-1.85-.65-3.95-1.16-6.23-1.02-2.27.1-4.7,1.16-6.35,3.03-1.69,1.84-2.76,4.23-3.34,6.73-1.14,4.99-.52,9.91-1.93,13.83-.69,1.98-1.69,3.73-2.8,5.26-.58.78-1.07,1.48-1.76,1.91-.68.46-1.43.79-2.19.99-3.05.83-5.76.4-7.42-.14-1.73-.54-2.35-1.39-2.44-1.31Z" style="fill:#455a64; stroke-width:0px;"/><path d="m17.04,87.64s.7.63,2.28.57c1.51-.06,3.91-1.02,5.23-3.61,1.28-2.57.93-6.22-.82-9.4-1.7-3.23-4.6-5.94-6.8-9.2-1.09-1.64-1.93-3.37-2.25-5.15-.32-1.77-.15-3.56.38-5.14.51-1.59,1.36-2.97,2.37-4.06,1.01-1.09,2.21-1.82,3.35-2.51,1.13-.69,2.18-1.38,2.94-2.19.76-.8,1.22-1.67,1.44-2.41.44-1.54-.11-2.39-.14-2.34-.12.01.21.86-.32,2.18-.26.65-.74,1.4-1.47,2.08-.73.68-1.74,1.29-2.89,1.92-1.15.63-2.49,1.38-3.65,2.56-1.14,1.17-2.12,2.67-2.71,4.41-.61,1.73-.83,3.72-.49,5.71.34,2,1.26,3.9,2.41,5.62,2.33,3.44,5.19,6.07,6.83,9.06,1.68,2.92,2.05,6.2,1.02,8.49-1.03,2.28-3.13,3.31-4.48,3.49-1.42.2-2.2-.2-2.23-.09Z" style="fill:#455a64; stroke-width:0px;"/><path d="m14.8,35.62c-.08.06,1.12,1.14,3.53.85,2.37-.36,5.1-2.67,6.3-5.97.59-1.62.95-3.29.81-4.83-.12-1.5-.45-2.78-.71-3.84-.57-2.11-.88-3.39-1.04-3.38-.18,0-.17,1.41.19,3.56.15,1.07.38,2.35.43,3.72.07,1.34-.29,2.83-.83,4.33-1.08,2.97-3.39,5.06-5.33,5.56-1.97.47-3.3-.22-3.35,0Z" style="fill:#455a64; stroke-width:0px;"/></g></svg>