<?xml version="1.0" encoding="UTF-8"?><svg id="_Слой_2" xmlns="http://www.w3.org/2000/svg" width="129.01" height="137.9" viewBox="0 0 129.01 137.9"><g id="_Слой_1-2"><path d="m112.27,126.79c-6.67,6.27-16.78,10.24-32.14,10.98-1.43.07-2.89.11-4.41.12-20.34.17-37.76-11.14-46.75-28.56-4.18-8.1-6.56-17.55-6.55-27.81.04-33.48,25.68-61.95,57.14-62.41,31.34-.47,46.53,22.97,45.9,60.74-.1,5.84-.33,11.48-.9,16.77-1.32,12.31-4.5,22.84-12.3,30.17Z" style="fill:#ffbb9a; stroke-width:0px;"/><path d="m75.41,55.44s0-.03-.02-.05c-.05-.1-.07-.14.02.05Z" style="fill:#ff5560; stroke-width:0px;"/><path d="m128.75,41.57c-.99-5.74-4.17-10.86-7.82-15.35-2.03-2.52-4.27-4.87-6.64-7.03-2.21-2.01-4.5-3.86-6.93-5.53-4.39-3.09-9.12-5.68-14.07-7.73-2.51-1.04-5.08-1.94-7.7-2.71C76.9.63,67.75-.41,58.72.15c-10.41.6-20.67,3.33-29.89,8.24-2.51,1.33-4.94,2.84-7.28,4.48-4.04,2.89-7.79,6.25-11,10.11-1.04,1.24-2.01,2.53-2.92,3.88-1.05,1.56-2.03,3.18-2.88,4.87-2.34,4.6-3.79,9.48-4.41,14.47-1.46,11.82,1.74,24.06,8.91,33.72,1.42,1.92,3,5.05,5.3,6.19,3.89,1.93,4.83-4.88,11.25-4.51,6.43.38,7.87,7.81,11.49,7.94,3.73.14,3.5-3.08,3.62-6.37.14-3.51-.66-7.43.81-10.71,2.11-4.7,6.35-6.69,9.5-10.44,8-9.54,6.52-24.42,3.47-35.56-.15-.56.41-1,.9-.98h.04c.54.6,1.07,1.21,1.56,1.85,1.65,2.13,3.07,4.41,4.6,6.62,3.08,4.45,6.9,8.47,11.61,11.21,4.76,2.77,10.25,4.23,15.76,4.36,4.66.11,9.64-.58,13.97-2.48,5.92,4.37,13.51,6.72,20.87,5.89.03,0,.04,0,.05,0,2.41-.27,4.32-2.19,4.69-4.59.37-2.35.33-4.75,0-6.73Z" style="stroke-width:0px;"/><path d="m87.93,10.82c-8.54.45-17.11-2.27-25.63-1.57-3.63.33-7.48,1.44-9.54,4.45-2.09,3.03-2.57,8.02-6.21,8.71-1.26.23-2.55-.21-3.82,0-2.66.36-4.26,3.33-4.38,6.08-.17,2.74.65,5.45.8,8.21.26,5.05-1.96,10.08-5.79,13.18-2.56,2.09-6.24,3.29-9.21,1.7-4.44-2.31-4.97-9.15-9.32-11.56-3.63-2.02-8.16.11-11.06,2.98-1.07,1.07-2.19,2.29-3.42,3.18.62-4.98,2.07-9.87,4.41-14.47.85-1.69,1.83-3.31,2.88-4.87.91-1.35,1.88-2.63,2.92-3.88,2.13,1.31,4.16,2.84,6.53,2.53,2.2-.29,3.85-2.2,4.94-4.18,1.1-1.98,1.86-4.18,3.35-5.87,2.91-3.21,7.76-3.62,12.07-3.16,2.52.25,5.68.47,6.91-1.76.47-.84.51-1.86.73-2.78.66-2.78,3.09-4.96,5.89-5.31,1.69-.21,3.47.23,5.14-.1,1.96-.4,2.57-1.19,2.61-2.19,9.03-.56,18.18.49,26.88,3.07,2.62.77,5.19,1.67,7.7,2.71.09.22.16.47.19.71.37,2.65-2.95,4.01-5.56,4.18Z" style="fill:#4436bc; opacity:.49; stroke-width:0px;"/><path d="m8.16,78.1c-2.07.95-3.84,2.61-5.02,5.22-1.3,2.86-1.39,6.02-.88,8.92,1.09,6.24,4.89,11.48,10.19,14.48,4.4,2.49,11.9,4.66,16.56-.09,2.07-2.11,2.58-5.18,2.56-7.94-.05-6.02-1.15-13.36-5.75-17.1-4.09-3.32-11.97-6.09-17.65-3.48Z" style="fill:#ffbb9a; stroke-width:0px;"/><path d="m23.47,96c-.56-2.03-1.25-3.87-2.57-5.54-1.31-1.66-2.92-3.06-4.78-4.08-1.95-1.07-4.26-1.65-6.48-1.17-.98.21-1.92.6-2.73,1.22-.74.57-1.77,1.63-1.62,2.63.09.59.62.97,1.2.77.7-.23,1.17-.98,1.77-1.4.61-.43,1.35-.75,2.08-.9.45-.09.9-.12,1.35-.1-.8,1.19-1.24,2.57-1.21,4.04.02.88.21,1.79.55,2.6.19.45.43.87.71,1.26.13.18.26.35.41.51.24.26.48.36.81.45.47.14,1.03-.38.95-.87-.04-.23-.07-.46-.19-.67-.1-.17-.23-.33-.33-.49-.17-.27-.3-.55-.43-.84-.29-.66-.47-1.34-.5-2.07-.06-1.25.3-2.56.99-3.62.84.25,1.65.62,2.4,1.05,2.8,1.63,5.35,4.57,6.47,7.64.27.76,1.39.34,1.18-.43Z" style="fill:#c4311d; stroke-width:0px;"/><g style="opacity:.2;"><path d="m80.98,136.01c-.25.6-.53,1.19-.84,1.76-1.43.07-2.89.11-4.41.12-20.34.17-37.76-11.14-46.75-28.56.74-1.23,1.64-2.38,2.65-3.41,4.65-4.69,11.45-6.84,17.93-6.6,6.47.25,12.61,2.71,17.95,6.12,5.12,3.28,9.7,7.54,12.42,12.93,2.7,5.36,3.4,11.91,1.05,17.63Z" style="fill:#ec372f; stroke-width:0px;"/><path d="m112.27,126.79c.78-5.35,1.82-10.71,3.73-15.91,1.89-5.16,4.73-10.21,8.57-14.26-1.32,12.31-4.5,22.84-12.3,30.17Z" style="fill:#ec372f; stroke-width:0px;"/></g><path d="m84.87,97.13c3.39-1.49,6.28,1.02,12.5,1.34,6.21.32,10.11-1.41,10.96-.09,1.97,3.04-3.43,10.55-12.1,10.85-8.68.3-14.75-10.62-11.37-12.11Z" style="fill:#b22e2e; stroke-width:0px;"/><path d="m92.63,101.4c3.02,1.63,6.01,4,8.11,6.99-1.37.48-2.87.79-4.5.85-6.78.23-11.96-6.37-12.3-9.99,2.54-.87,6.48.96,8.69,2.15Z" style="fill:#ff582c; stroke-width:0px;"/><path d="m99.67,76.99c.37-.48,1.17-.41,1.44.07.58,1.05.25,2.74.15,3.94-.11,1.34-.24,2.68-.37,4.01-.07.72-.14,1.45-.21,2.17-.04.41-.24,1.2.01,1.55.37.51,1.51.2,2.01.05,1.1-.33,2.21-.76,3.34-.52.98.21,1.8.9,2.04,1.9.26,1.13-.41,2.28-.95,3.27-.61,1.12-1.4,2.15-2.4,2.95-.38.3-.71-.18-.57-.52.46-1.19,1.05-2.33,1.53-3.51.15-.37.52-1.1.29-1.46-.17-.26-.65-.28-.93-.26-1.04.07-2.04.69-3.09.82-.92.12-1.9,0-2.66-.5-1.92-1.3-1.07-4.32-.88-6.36.12-1.28.24-2.57.37-3.85.12-1.18.14-2.76.89-3.75Z" style="fill:#c4311d; stroke-width:0px;"/><path d="m83.87,82.58c-.16,2.96-1.85,5.26-3.77,5.16-1.92-.11-3.34-2.59-3.18-5.54s1.85-5.26,3.77-5.16c1.92.11,3.34,2.59,3.18,5.54Z" style="stroke-width:0px;"/><path d="m116.17,83.84c-.14,2.48-1.49,4.41-3.02,4.33-1.53-.09-2.66-2.16-2.53-4.64.14-2.48,1.49-4.41,3.02-4.33,1.53.09,2.66,2.16,2.53,4.64Z" style="stroke-width:0px;"/><path d="m88.11,61.96c.24-1.29-.43-2.56-1.45-3.38-1.21-.97-2.82-1.24-4.45-1.07-3.04.33-6.06,1.94-8.27,3.89-2.3,2.04-4.31,4.79-4.47,7.69-.3.84.92,1.78,1.93,1.05,2.58-1.85,5.58-3.17,8.75-3.83,1.64-.34,3.32-.44,4.89-1.07,1.51-.6,2.79-1.81,3.07-3.29Z" style="stroke-width:0px;"/><path d="m108.55,65.07c1.15.57,2.42.7,3.65,1.03,2.36.64,4.54,1.83,6.35,3.45.71.63,1.72-.11,1.57-.83.13-2.44-1.17-4.8-2.74-6.58-1.52-1.7-3.68-3.14-5.98-3.49-1.23-.19-2.49,0-3.49.77-.85.66-1.47,1.7-1.4,2.79.08,1.25.96,2.3,2.06,2.85Z" style="stroke-width:0px;"/></g></svg>