<?xml version="1.0" encoding="UTF-8"?><svg xmlns="http://www.w3.org/2000/svg" width="126.36" height="135.84" viewBox="0 0 126.36 135.84"><g style="isolation:isolate;"><g id="_Слой_2"><g id="_Слой_1-2"><path d="m18.66,23.29C7.76,31.62,2.76,47,6.66,60.19c.65,2.21,1.56,4.4,3.09,6.12,1.53,1.72,3.78,2.91,6.07,2.73,4.13-.33,6.63-4.61,8.39-8.38,3.01-6.46,5.97-13.01,7.56-19.96,1.18-5.15,2.7-13.92-.14-18.8-2.68-4.62-9.89-.97-12.98,1.39Z" style="fill:#611b20; stroke-width:0px;"/><path d="m4.04,79.62c-.05,4.73.11,9.31.57,13.65,0,.07.01.15.02.22.13,1.35.32,2.67.51,3.97,1.71,11.22,5.64,20.74,13.1,27.48.04.04.09.08.13.12,1.31,1.17,2.73,2.26,4.27,3.27h0c6.45,4.18,14.99,6.8,26.22,7.4.51.03,1.02.05,1.53.06.57.03,1.14.04,1.73.05,1.3.02,2.57,0,3.86-.1,15.94-1.08,30.21-10.78,38.87-25.52.07-.14.14-.26.21-.38.7-1.21,1.36-2.45,1.98-3.72,3.18-6.49,5.34-13.87,6.21-21.86,3.57-33.06-16.89-63.64-46.4-65.53-30-1.91-52.37,22.01-52.81,60.9Z" style="fill:#ffa672; stroke-width:0px;"/><path d="m.02,31.78c.19,2.76,1.72,5.23,3.8,6.86,2.09,1.62,4.68,2.45,7.3,2.78,7.11.86,14.88-2.26,19.24-8.43-.64,1.02-.52,2.39.08,3.38.59.99,1.57,1.65,2.59,2.14,2.31,1.07,4.93,1.33,7.51,1.27,5.64-.14,11.13-1.92,16.03-4.93-1.36,1.95-2.33,4.26-1.8,6.48.35,1.47,1.33,2.67,2.4,3.67,3.43,3.2,8.16,4.78,12.87,4.59,4.71-.19,9.36-2.09,13.21-5.1-.84,3.52-3.07,6.58-4.18,10.03-.65,2.01-.92,4.14-.78,6.23.14,1.85.64,3.77,1.95,4.99,1.32,1.21,3.59,1.42,4.87.05-.44,1.72-.63,3.5-.58,5.25.03.96.16,1.98.77,2.68.77.92,2.16,1.03,3.31.63,1.14-.42,2.11-1.26,3.04-2.08-.74,3.06-2.48,5.81-3.28,8.86-.81,3.06-.33,6.86,2.29,8.25,1.99,1.06,4.62.3,6.32-1.35,1.7-1.66,2.59-4.03,3.03-6.37,3.18.29,6.49.62,9.69.15,1.2-.18,2.42-.4,3.52-.96,2.43-1.2,4.03-3.72,5.32-6.19,3.95-7.5,6.48-15.76,7.42-24.16.21-2,.35-3.99.39-5.99.09-3.74-.16-7.52-1.38-10.98-.53-1.5-1.25-2.93-2.19-4.2-1.17-1.66-2.68-3.04-4.48-3.93-2.31-1.13-4.97-1.36-7.56-1.02-.99-4.83-3.79-9.03-7.4-12.29-1.52-1.38-3.2-2.59-4.94-3.61-4.05-2.35-8.68-3.87-13.41-3.62-.24.01-.48.04-.72.05-1.92.2-3.9.82-5.23,2.3-.4.45-.74,1.02-.86,1.61-3.86-3.89-8.73-6.68-14.01-7.99-1.87-.45-3.87-.73-5.74-.05-.97.36-1.95,1.09-2.19,2.15-.15.64-.01,1.32.2,1.92.44,1.23,1.03,2.4,1.84,3.35-2.57-1.69-5.42-2.92-8.32-3.95C39.2.47,27.52-.83,16.02.52c-2.16.25-4.33.59-6.4,1.36-1.45.53-2.97,1.41-3.54,2.91-.81,2.11.69,4.34,2.4,5.61,1.85,1.36,4.05,2.05,6.33,2.18-5.72,2.38-10.69,6.99-13.36,12.82C.54,27.4-.13,29.6.02,31.78Z" style="fill:#611b20; stroke-width:0px;"/><path d="m83.65,9.83c.49,3.99,2.96,7.49,5.81,10.3-2.74,1.51-5.93,3.79-5.47,6.89.19,1.26.98,2.35,1.87,3.25,2.2,2.2,5.23,3.57,8.34,3.77.5.04,1.03.04,1.47.29,1.66.96.2,3.56.65,5.42.53,2.2,3.54,2.63,5.72,2.05,2.19-.58,4.49-1.69,6.6-.87,2.7,1.06,3.33,4.48,4.11,7.27.69,2.44,1.79,4.77,3.22,6.84.39.55.82,1.09,1.4,1.42,1.62.87,3.56-.33,4.88-1.6,1.31-1.26,2.55-2.74,3.69-4.35.21-2,.35-3.99.39-5.99.09-3.74-.16-7.52-1.38-10.98-.53-1.5-1.25-2.93-2.19-4.2-.57.29-1.08.69-1.48,1.18-1.17,1.35-1.67,3.15-1.87,4.92-3.17-1.64-6.68-2.62-10.24-2.86-1.62-.11-3.54-.23-4.37-1.62-1.2-2.01,1.07-4.69.19-6.87-.55-1.41-2.16-2.01-3.41-2.88-.98-.7-1.79-1.64-2.31-2.72-.29-.58-.5-1.21-.45-1.86.15-2.2,2.88-2.97,4.52-4.53-1.52-1.38-3.2-2.59-4.94-3.61-4.05-2.35-8.68-3.87-13.41-3.62-.24.01-.48.04-.72.05-.59,1.55-.82,3.26-.62,4.89Z" style="fill:#bb6142; mix-blend-mode:screen; opacity:.41; stroke-width:0px;"/><path d="m116.02,72.64c2.4.44,4.61,1.72,6.35,4.13,1.92,2.67,2.58,5.99,2.55,9.19-.06,6.95-3.28,13.61-8.57,18.29-3.27,2.9-7.5,5.49-11.98,5.89-5.04.45-9.11-2.68-10.23-7.5-.57-2.44-.42-4.99-.06-7.47,1.54-10.51,8.91-24.95,21.93-22.54Z" style="fill:#ffa672; stroke-width:0px;"/><path d="m114.41,82.4c-2.36-.05-4.45,1.46-5.94,3.16-3.45,3.94-4.93,9-4.38,14.17.08.75,1.24.79,1.2,0-.25-4.12,1.13-8.41,3.61-11.69.55-.73,1.19-1.47,1.91-2.1.72.86,1.22,1.85,1.45,2.94.13.62.16,1.18.12,1.87,0,.17-.02.33-.04.5.02-.12-.03.17-.03.16-.02.08-.03.16-.05.25-.09.39-.19.73-.18,1.14.02.62.77.97,1.24.53.64-.61.77-1.61.86-2.46.08-.8,0-1.64-.21-2.42-.34-1.29-1-2.44-1.93-3.36.39-.22.8-.4,1.24-.52.79-.21,1.63-.18,2.38.16.77.35,1.15,1.1,1.85,1.49.41.23,1.05.06,1.15-.46.42-2.15-2.56-3.33-4.24-3.37Z" style="fill:#c4311d; stroke-width:0px;"/><g style="opacity:.2;"><path d="m48,131.66c.59,1.49,1.4,2.88,2.4,4.12.57.03,1.14.04,1.73.05,1.3.02,2.57,0,3.86-.1,15.94-1.08,30.21-10.78,38.87-25.52.07-.14.14-.26.21-.38.7-1.21,1.36-2.45,1.98-3.72-.82-1.59-1.9-3.05-3.2-4.28-4.29-4.11-10.52-5.83-16.45-5.38-5.93.45-11.57,2.91-16.5,6.21-4.76,3.18-9.05,7.29-11.64,12.39-2.59,5.09-3.36,11.29-1.26,16.61Z" style="fill:#ec372f; stroke-width:0px;"/><path d="m4.61,93.27c0,.07.01.15.02.22.13,1.35.32,2.67.51,3.97,1.71,11.22,5.64,20.74,13.1,27.48.04.04.09.08.13.12-.55-5.47-1.35-10.91-3.08-16.11-2.06-6.09-5.55-11.87-10.67-15.68Z" style="fill:#ec372f; stroke-width:0px;"/></g><path d="m57.84,60.53c-3.2-1.88-7.19-3.49-10.82-3.23-1.31.09-2.6.58-3.18,1.71-.48.95-.27,2.08.37,2.93,1.5,2,4.26,1.91,6.66,1.79,1.54-.08,3.07-.05,4.62.03.88.04,6.56,1.07,5.32-1.09-.18-.31-.49-.54-.8-.75-.67-.46-1.4-.93-2.17-1.39Z" style="fill:#611b20; stroke-width:0px;"/><path d="m12.61,60.9c-.21.2-.42.41-.51.71-.64,2.1,3.74,1.37,4.44,1.37,1.22,0,2.44.05,3.69.21,1.94.25,4.17.48,5.04-1.46.37-.82.35-1.94-.19-2.92-.65-1.16-1.77-1.72-2.83-1.88-2.95-.45-5.88.97-8.13,2.69-.55.42-1.05.85-1.51,1.28Z" style="fill:#611b20; stroke-width:0px;"/><path d="m26.47,83.81c1.06-.58,2.34-.66,3.5-.39.24.06.48.17.72.24.01-.07.03-.15.03-.22.05-.78-.02-1.59-.07-2.37-.17-3.2-.73-6.37-1.47-9.49-.15-.64.77-.89.98-.27.87,2.6,1.44,5.27,1.78,7.99.17,1.36.35,2.77.35,4.14,0,.92-.4,1.96-1.49,1.92-.51-.02-.98-.3-1.48-.38-.52-.08-1.08-.05-1.58.12-1.13.39-1.68,1.5-1.71,2.64-.03,1.11.36,2.32,1.22,3.07.92.79,2.01.9,3.17.78.43-.04.64.57.35.84-.87.8-2.29.93-3.37.52-1.2-.45-2.1-1.48-2.6-2.64-.94-2.18-.57-5.25,1.69-6.48Z" style="fill:#c4311d; stroke-width:0px;"/><path d="m44.69,82.23c.5-.71,1.07-1.32,1.75-1.85,1.41-1.11,3.07-1.79,4.85-2.01,1.86-.23,3.73.1,5.44.83.9.38,1.75.87,2.52,1.48.7.56,1.54,1.28,1.91,2.12.16.37-.18.8-.58.58-.71-.39-1.3-1.01-1.98-1.45-.71-.46-1.46-.89-2.24-1.22-1.48-.62-3.14-.91-4.74-.73-1.47.16-2.89.76-4.09,1.62-.61.43-1.18.97-1.65,1.55-.45.55-.81,1.25-1.31,1.74-.28.28-.75.07-.76-.32-.04-.77.45-1.73.88-2.34Z" style="stroke-width:0px;"/><path d="m22.17,82.23c-.32-.71-.69-1.32-1.13-1.85-.91-1.11-1.99-1.79-3.14-2.01-1.2-.23-2.41.1-3.52.83-.58.38-1.13.87-1.63,1.48-.45.56-1,1.28-1.23,2.12-.1.37.12.8.37.58.46-.39.84-1.01,1.28-1.45.46-.46.94-.89,1.45-1.22.96-.62,2.03-.91,3.06-.73.95.16,1.87.76,2.65,1.62.39.43.76.97,1.07,1.55.29.55.52,1.25.85,1.74.18.28.48.07.49-.32.02-.77-.29-1.73-.57-2.34Z" style="stroke-width:0px;"/><path d="m22.71,98.03c.91.79,2.13,1.02,3.29,1.22,1.08.19,2.18.28,3.28.3,2.1.03,4.19-.19,6.23-.72,2.03-.52,3.99-1.31,5.82-2.34.91-.51,1.76-1.1,2.61-1.71.9-.65,1.7-1.42,2.61-2.06.44-.31,1.01.3.73.73-1.23,1.92-3.42,3.4-5.37,4.51-2.01,1.14-4.2,1.97-6.46,2.48-2.26.51-4.58.71-6.89.52-2.21-.18-4.99-.48-6.54-2.25-.41-.47.21-1.1.69-.69Z" style="fill:#c4311d; stroke-width:0px;"/></g></g></g></svg>