<?xml version="1.0" encoding="UTF-8"?><svg xmlns="http://www.w3.org/2000/svg" width="122.83" height="170.95" viewBox="0 0 122.83 170.95"><g style="isolation:isolate;"><g id="_Слой_2"><g id="_Слой_1-2"><path d="m17.13,34.74c-2.98,2.43-4.9,5.95-6.1,9.61-1.82,5.55-2.09,11.76.09,17.18,1.87,4.64,5.35,8.4,8.07,12.59,2.72,4.19,4.73,9.39,3.16,14.14-.89,2.68-2.82,4.87-4.82,6.86-3.78,3.76-8.07,7.19-10.54,11.91-2.47,4.72-2.49,11.3,1.66,14.65,1.99,1.61,4.87,2.5,5.7,4.91.71,2.07-.45,4.29-1.78,6.03-2.69,3.52-6.18,6.38-8.87,9.9-2.69,3.53-4.57,8.13-3.29,12.38,1.28,4.26,5.36,7.06,9.5,8.68,4.25,1.67,9.05,2.44,13.38.98,1.1-.37,2.23-.9,3.38-.71,1.49.24,2.51,1.56,3.56,2.63,4.01,4.06,10.35,5.33,15.87,3.92,5.53-1.42,10.24-5.23,13.54-9.88,4.02-5.66,6.14-12.9,4.66-19.68s-6.95-12.81-13.81-13.91c3.5.59,6.99-1.22,9.67-3.54,6-5.21,9.25-14.26,5.79-21.42-3.66-7.57-12.84-10.35-21-12.35,3.03-2.47,6.11-5,8.27-8.26,5.59-8.47,3.59-20.22-2.08-28.64-3.26-4.85-7.55-8.88-12.12-12.47-2.33-1.83-4.75-3.55-7.19-5.25-1.92-1.33-3.61-2.91-6-3.1-3.14-.25-6.29.88-8.71,2.85Z" style="fill:#c05a44; stroke-width:0px;"/><path d="m50.5,126.92c3.5.59,6.99-1.22,9.67-3.54,6-5.21,9.25-14.26,5.79-21.42-3.66-7.57-12.84-10.35-21-12.35,3.03-2.47,6.11-5,8.27-8.26,5.59-8.47,3.59-20.22-2.08-28.64-3.26-4.85-7.55-8.88-12.12-12.47-2.34-1.83-4.75-3.55-7.19-5.25-1.92-1.33-3.61-2.91-6-3.1-1.61-.13-3.22.11-4.73.63-.29.43-.57.85-.84,1.28-3.27,5.24-4.67,11.64-4.91,17.75-.23,5.97,1.82,11.92,4.68,17.08,1.31,2.37,2.8,4.64,4.53,6.72,1.37,1.65,2.85,3.21,4.11,4.94,1.19,1.63,2.13,3.46,2.48,5.47.43,2.46.04,4.95-.64,7.33-1.59,5.57-4.79,10.56-6.07,16.23-1.25,5.55-.84,12.18,2.65,16.87,1.42,1.91,3.27,3.62,3.57,6.1.34,2.73-1.1,5.37-2.4,7.67-1.45,2.58-2.92,5.14-3.84,7.97-.9,2.78-1.18,5.67-.91,8.58.24,2.55.92,5.07,2.06,7.33.36-.05.71-.07,1.07-.01,1.49.24,2.51,1.56,3.56,2.63,4.01,4.06,10.35,5.33,15.87,3.92,5.53-1.42,10.24-5.23,13.54-9.88,4.02-5.66,6.14-12.9,4.66-19.68-1.47-6.78-6.95-12.81-13.81-13.91Z" style="fill:#c05a44; mix-blend-mode:multiply; opacity:.44; stroke-width:0px;"/><path d="m106.72,14.8c11.46,4.09,17.98,15.51,15.63,27.41-.39,1.99-1.03,4.04-2.33,5.85-1.3,1.81-3.34,3.38-5.58,3.81-4.04.79-6.92-2.11-9.04-4.77-3.62-4.56-7.2-9.21-9.5-14.55-1.7-3.95-4.13-10.81-1.91-15.57,2.1-4.5,9.48-3.34,12.72-2.18Z" style="fill:#c05a44; stroke-width:0px;"/><path d="m113.31,94.87c-4.77,5.37-12.38,9.19-24.33,10.86-1.11.16-2.25.29-3.44.41-15.87,1.57-30.29-6.02-38.55-19-3.84-6.03-6.37-13.24-7.09-21.26-2.34-26.16,15.67-50.21,40.21-52.8,24.45-2.59,37.97,14.64,40.16,44.19.34,4.57.56,8.99.49,13.16-.16,9.71-1.89,18.16-7.47,24.44Z" style="fill:#ffa672; stroke-width:0px;"/><path d="m91.86,1.47c-6.21-1.84-12.84-1.78-19.34-.77-.36.06-.71.12-1.07.18-9.62,1.64-19.74,4.53-28.63,9.45-3,1.66-5.85,3.54-8.51,5.68-4.59,3.71-8.48,8.31-10.88,13.68-2.93,6.55-3.22,13.57-1.48,19.72,1.73,6.14,6.65,16.23,9.65,17.74,2.63,1.34,9.36-.96,11.99.02,3.05,1.12,5.39,2.81,6.68,5.07.77,1.34,1.74,2.31,4.04,1.28,1.54-.71,2.94-1.94,3.58-3.27,2.04-2.4.48-5.8.23-8.71.18-1.52.5-3.07,1.27-4.62,1.18-2.41,3.29-4.14,5.85-5.14,2.24-.88,4.49-1.32,6.66-1.96,2.37-.67,12.96-3.47,20.64-8.89,4.64-3.27,9.2-7,12.63-11.63,2.25-3.04,3.91-6.73,3.85-10.49-.13-9.06-9.62-15.12-17.17-17.34Z" style="fill:#c05a44; stroke-width:0px;"/><path d="m96.66,28.04c-1.79,1.81-4.23,2.75-6.65,3.53-1.72.54-3.5,1.03-5.3.84-1.79-.2-3.59-1.22-4.22-2.91-.17-.43-.28-.94-.65-1.21-.53-.38-1.27-.1-1.88.16-4.98,2.04-11.26.22-14.38-4.16-.58-.82-1.08-1.72-1.86-2.35-1.9-1.55-4.67-.95-7.11-1.04-5.69-.21-10.68-4.98-11.78-10.57,8.89-4.92,19.01-7.82,28.63-9.45.36-.06.71-.12,1.07-.18.99,1.14,2.06,2.2,2.96,3.13,5.3,5.47,11.73,9.71,18.33,13.42,1.76.99,3.63,2.04,4.49,3.86,1.1,2.28.15,5.14-1.64,6.94Z" style="fill:#bb6142; mix-blend-mode:screen; opacity:.41; stroke-width:0px;"/><path d="m79.45,41.74s0-.03-.02-.04c-.05-.07-.07-.1.02.04Z" style="fill:#ff5560; stroke-width:0px;"/><path d="m28.52,64.22c-1.55.89-2.81,2.31-3.55,4.43-.81,2.33-.66,4.8-.06,7.03,1.29,4.8,4.63,8.62,8.99,10.59,3.61,1.63,9.63,2.79,12.93-1.24,1.47-1.79,1.65-4.23,1.43-6.39-.47-4.7-1.84-10.35-5.71-12.95-3.43-2.31-9.78-3.91-14.03-1.47Z" style="fill:#ffa672; stroke-width:0px;"/><path d="m41.75,77.11c-.58-1.54-1.25-2.93-2.4-4.14-1.14-1.21-2.5-2.19-4.02-2.85-1.6-.69-3.45-.99-5.15-.45-.75.24-1.46.6-2.04,1.15-.54.5-1.27,1.4-1.08,2.17.11.46.55.71.99.52.53-.23.85-.85,1.29-1.22.45-.38,1-.68,1.56-.85.35-.1.7-.16,1.05-.17-.54.98-.79,2.1-.66,3.24.08.69.29,1.38.61,1.99.18.33.4.65.64.93.11.13.23.25.36.37.2.19.4.24.67.3.37.07.78-.37.68-.74-.05-.18-.09-.35-.2-.51-.09-.13-.2-.24-.29-.36-.15-.2-.28-.4-.4-.62-.27-.5-.46-1.02-.54-1.58-.14-.97.05-2.02.51-2.9.67.13,1.33.37,1.95.65,2.31,1.07,4.51,3.19,5.59,5.51.27.57,1.11.16.89-.42Z" style="fill:#c4311d; stroke-width:0px;"/><g style="opacity:.2;"><path d="m89.51,104.29c-.15.49-.33.97-.53,1.44-1.11.16-2.25.29-3.44.41-15.87,1.57-30.29-6.02-38.55-19,.49-1.02,1.11-1.97,1.83-2.85,3.3-3.99,8.46-6.16,13.54-6.43,5.07-.27,10.04,1.22,14.46,3.51,4.24,2.2,8.11,5.2,10.62,9.22,2.49,4,3.5,9.07,2.07,13.7Z" style="fill:#ec372f; stroke-width:0px;"/><path d="m113.31,94.87c.23-4.24.66-8.5,1.78-12.69,1.11-4.17,2.97-8.31,5.68-11.75-.16,9.71-1.89,18.16-7.47,24.44Z" style="fill:#ec372f; stroke-width:0px;"/></g><path d="m89.8,73.64c2.54-1.4,4.98.36,9.86.16,4.87-.19,7.8-1.81,8.56-.85,1.76,2.24-1.93,8.49-8.68,9.33-6.76.85-12.28-7.25-9.74-8.65Z" style="fill:#b22e2e; stroke-width:0px;"/><path d="m96.16,76.42c2.47,1.06,4.98,2.7,6.83,4.89-1.03.47-2.19.82-3.46.98-5.28.66-9.79-4.13-10.32-6.93,1.93-.86,5.13.29,6.94,1.06Z" style="fill:#ff582c; stroke-width:0px;"/><path d="m81.39,50.75c.06-.14.14-.3.2-.42.73-1.4,2.06-2.3,3.42-2.88,1.01-.42,2.21-.69,3.49-.7.74,0,1.53.05,2.35.22.82.17,2.04.4,2.61,1.08.36.43.15,1.27-.72,1.32-.97.05-1.75-.24-2.51-.4-.73-.15-1.42-.24-2.07-.28-2.59-.15-4.73.85-6.17,2.24-.14.13-.27.27-.42.31-.34.09-.3-.18-.18-.49Z" style="fill:#c05a44; stroke-width:0px;"/><path d="m114.99,48.92c-.08-.13-.17-.27-.25-.38-.87-1.26-2.06-1.98-3.2-2.37-.84-.29-1.78-.4-2.72-.26-.54.08-1.11.24-1.66.5-.56.26-1.4.64-1.65,1.36-.16.46.2,1.25.85,1.19.72-.07,1.22-.45,1.74-.69.5-.24.98-.41,1.45-.52,1.86-.46,3.67.25,5.05,1.41.13.11.27.23.38.25.27.05.17-.21.01-.49Z" style="fill:#c05a44; stroke-width:0px;"/><path d="m90.42,62.78c-.42-.53-.89-.99-1.44-1.38-1.15-.81-2.48-1.27-3.88-1.37-1.46-.1-2.92.23-4.23.87-.69.34-1.33.75-1.91,1.27-.53.47-1.16,1.06-1.41,1.74-.11.3.17.62.48.43.54-.34.97-.84,1.49-1.22.54-.39,1.1-.76,1.7-1.05,1.13-.55,2.42-.84,3.68-.77,1.16.07,2.3.48,3.27,1.1.49.31.96.71,1.36,1.14.38.41.68.94,1.1,1.31.23.21.59.02.58-.28,0-.61-.43-1.34-.79-1.8Z" style="stroke-width:0px;"/><path d="m108.06,61.85c.22-.57.49-1.06.81-1.5.67-.9,1.48-1.48,2.37-1.7.93-.23,1.89-.03,2.79.5.47.28.92.63,1.34,1.09.38.42.84.96,1.06,1.61.1.29-.06.63-.27.47-.38-.29-.7-.75-1.06-1.08-.38-.34-.77-.66-1.18-.89-.78-.44-1.63-.63-2.43-.45-.74.17-1.43.67-2.01,1.38-.29.36-.56.79-.77,1.26-.21.44-.36,1-.59,1.4-.13.23-.38.07-.4-.23-.05-.6.16-1.37.35-1.86Z" style="stroke-width:0px;"/><path d="m103.25,64.59c-1.8-.9-1.62-3.35-1.48-5.02.09-1.09.21-2.17.33-3.25.06-.56.13-1.12.17-1.68.04-.52.16-1.03.06-1.55-.07-.37-.61-.4-.78-.1-.24.42-.29.91-.39,1.38-.12.51-.21,1.02-.28,1.54-.13.94-.24,1.88-.33,2.82-.17,1.78-.39,3.73.51,5.36.34.63.86,1.21,1.49,1.55.75.41,1.54.43,2.37.39.22-.01.43-.02.65-.01.35.02.52.03.58.38.05.34-.17.85-.3,1.16-.35.78-.92,1.45-1.62,1.95-.27.19-.11.72.24.57,1.47-.62,2.5-1.95,2.73-3.53.35-2.41-2.67-1.33-3.93-1.96Z" style="fill:#c4311d; stroke-width:0px;"/></g></g></g></svg>