<?xml version="1.0" encoding="UTF-8"?><svg id="_Слой_2" xmlns="http://www.w3.org/2000/svg" width="87.63" height="29.85" viewBox="0 0 87.63 29.85"><g id="_Слой_1-2"><path d="m2.66,26.58c23.14-33.48,59.96-33.41,82.34-.03" style="fill:none; stroke:#93278f; stroke-linecap:round; stroke-miterlimit:10; stroke-width:3px;"/><path d="m26,17.47c-.33-.76-1.22-1.1-1.98-.76L3.04,26.02l.44-22.94c.02-.83-.64-1.52-1.47-1.53S.5,2.2.48,3.02L0,28.32c0,.51.24.99.67,1.28s.97.33,1.44.12l23.13-10.26c.27-.12.49-.31.64-.54.27-.41.34-.95.12-1.44Z" style="fill:#93278f; stroke-width:0px;"/><path d="m61.79,17.09c.35-.75,1.24-1.08,1.99-.73l20.83,9.62-.09-22.95c0-.83.67-1.51,1.49-1.51.83,0,1.5.67,1.51,1.5l.1,25.3c0,.51-.26.99-.69,1.27s-.98.31-1.44.1l-22.97-10.61c-.27-.13-.48-.32-.63-.55-.27-.42-.32-.96-.1-1.44Z" style="fill:#93278f; stroke-width:0px;"/></g></svg>