<?xml version="1.0" encoding="UTF-8"?><svg id="_Слой_2" xmlns="http://www.w3.org/2000/svg" width="168.7" height="266.6" viewBox="0 0 168.7 266.6"><g id="_Слой_1-2"><rect width="168.7" height="266.6" style="fill:#e8505b; stroke-width:0px;"/><rect x="4.54" y="5.01" width="159.03" height="257.21" style="fill:#455a64; stroke-width:0px;"/><rect x="84.06" y="19.99" width="63.41" height="98.4" style="fill:#fff; stroke-width:0px;"/><path d="m119.14,28.69c0,1.31-1.06,2.37-2.37,2.37s-2.37-1.06-2.37-2.37,1.06-2.37,2.37-2.37,2.37,1.06,2.37,2.37Z" style="fill:#1a1a1a; stroke-width:0px;"/><rect x="20.15" y="145.78" width="63.41" height="98.4" style="fill:#fff; stroke-width:0px;"/><path d="m55.23,154.48c0,1.31-1.06,2.37-2.37,2.37s-2.37-1.06-2.37-2.37,1.06-2.37,2.37-2.37,2.37,1.06,2.37,2.37Z" style="fill:#1a1a1a; stroke-width:0px;"/><rect x="19.29" y="19.99" width="54.16" height="76.84" style="fill:#fff; stroke-width:0px;"/><path d="m48.34,26.97c0,1.09-.88,1.97-1.97,1.97s-1.97-.88-1.97-1.97.88-1.97,1.97-1.97,1.97.88,1.97,1.97Z" style="fill:#1a1a1a; stroke-width:0px;"/><rect x="93.27" y="150.3" width="58.29" height="32.29" transform="translate(-17.89 14.77) rotate(-6.44)" style="fill:#fff; stroke-width:0px;"/><circle cx="121.29" cy="156.48" r="2.01" style="fill:#1a1a1a; stroke-width:0px;"/><path d="m75.11,168.22c0,.26-9.96.47-22.24.47s-22.24-.21-22.24-.47,9.96-.47,22.24-.47,22.24.21,22.24.47Z" style="fill:#1a1a1a; stroke-width:0px;"/><path d="m75.11,175.26c0,.26-9.96.47-22.24.47s-22.24-.21-22.24-.47,9.96-.47,22.24-.47,22.24.21,22.24.47Z" style="fill:#1a1a1a; stroke-width:0px;"/><path d="m75.11,182.3c0,.26-9.96.47-22.24.47s-22.24-.21-22.24-.47,9.96-.47,22.24-.47,22.24.21,22.24.47Z" style="fill:#1a1a1a; stroke-width:0px;"/><path d="m75.11,189.34c0,.26-9.96.47-22.24.47s-22.24-.21-22.24-.47,9.96-.47,22.24-.47,22.24.21,22.24.47Z" style="fill:#1a1a1a; stroke-width:0px;"/><path d="m75.11,196.38c0,.26-9.96.47-22.24.47s-22.24-.21-22.24-.47,9.96-.47,22.24-.47,22.24.21,22.24.47Z" style="fill:#1a1a1a; stroke-width:0px;"/><path d="m75.11,203.42c0,.26-9.96.47-22.24.47s-22.24-.21-22.24-.47,9.96-.47,22.24-.47,22.24.21,22.24.47Z" style="fill:#1a1a1a; stroke-width:0px;"/><path d="m75.11,210.46c0,.26-9.96.47-22.24.47s-22.24-.21-22.24-.47,9.96-.47,22.24-.47,22.24.21,22.24.47Z" style="fill:#1a1a1a; stroke-width:0px;"/><path d="m144.13,160.68c.04.26-9.79,1.86-21.95,3.58-12.16,1.72-22.05,2.9-22.09,2.64-.04-.26,9.79-1.86,21.96-3.58,12.16-1.72,22.05-2.9,22.09-2.64Z" style="fill:#1a1a1a; stroke-width:0px;"/><path d="m145.01,165.08c.04.26-9.79,1.86-21.95,3.58-12.16,1.72-22.05,2.9-22.09,2.64s9.79-1.86,21.96-3.58c12.16-1.72,22.05-2.9,22.09-2.64Z" style="fill:#1a1a1a; stroke-width:0px;"/><path d="m145.82,169.15c.04.26-9.79,1.86-21.95,3.58-12.16,1.72-22.05,2.9-22.09,2.64-.04-.26,9.79-1.86,21.96-3.58,12.16-1.72,22.05-2.9,22.09-2.64Z" style="fill:#1a1a1a; stroke-width:0px;"/><path d="m141.9,40.58c0,.26-11.25.47-25.12.47s-25.13-.21-25.13-.47,11.25-.47,25.13-.47,25.12.21,25.12.47Z" style="fill:#1a1a1a; stroke-width:0px;"/><path d="m141.9,44.76c0,.26-11.25.47-25.12.47s-25.13-.21-25.13-.47,11.25-.47,25.13-.47,25.12.21,25.12.47Z" style="fill:#1a1a1a; stroke-width:0px;"/><path d="m141.9,48.95c0,.26-11.25.47-25.12.47s-25.13-.21-25.13-.47,11.25-.47,25.13-.47,25.12.21,25.12.47Z" style="fill:#1a1a1a; stroke-width:0px;"/><path d="m141.9,53.13c0,.26-11.25.47-25.12.47s-25.13-.21-25.13-.47,11.25-.47,25.13-.47,25.12.21,25.12.47Z" style="fill:#1a1a1a; stroke-width:0px;"/><path d="m141.9,57.32c0,.26-11.25.47-25.12.47s-25.13-.21-25.13-.47,11.25-.47,25.13-.47,25.12.21,25.12.47Z" style="fill:#1a1a1a; stroke-width:0px;"/><path d="m141.9,61.51c0,.26-11.25.47-25.12.47s-25.13-.21-25.13-.47,11.25-.47,25.13-.47,25.12.21,25.12.47Z" style="fill:#1a1a1a; stroke-width:0px;"/><path d="m141.9,65.69c0,.26-11.25.47-25.12.47s-25.13-.21-25.13-.47,11.25-.47,25.13-.47,25.12.21,25.12.47Z" style="fill:#1a1a1a; stroke-width:0px;"/><path d="m141.9,78.11c0,.26-11.25.47-25.12.47s-25.13-.21-25.13-.47,11.25-.47,25.13-.47,25.12.21,25.12.47Z" style="fill:#1a1a1a; stroke-width:0px;"/><path d="m142.25,82.54c0,.26-11.25.47-25.12.47s-25.13-.21-25.13-.47,11.25-.47,25.13-.47,25.12.21,25.12.47Z" style="fill:#1a1a1a; stroke-width:0px;"/><path d="m142.61,86.96c0,.26-11.25.47-25.12.47s-25.13-.21-25.13-.47,11.25-.47,25.13-.47,25.12.21,25.12.47Z" style="fill:#1a1a1a; stroke-width:0px;"/><path d="m142.96,91.38c0,.26-11.25.47-25.12.47s-25.13-.21-25.13-.47,11.25-.47,25.13-.47,25.12.21,25.12.47Z" style="fill:#1a1a1a; stroke-width:0px;"/><path d="m143.31,95.8c0,.26-11.25.47-25.12.47s-25.13-.21-25.13-.47,11.25-.47,25.13-.47,25.12.21,25.12.47Z" style="fill:#1a1a1a; stroke-width:0px;"/><path d="m143.67,100.22c0,.26-11.25.47-25.12.47s-25.13-.21-25.13-.47,11.25-.47,25.13-.47,25.12.21,25.12.47Z" style="fill:#1a1a1a; stroke-width:0px;"/></g></svg>