<?xml version="1.0" encoding="UTF-8"?><svg id="_Слой_2" xmlns="http://www.w3.org/2000/svg" width="156.65" height="164.4" viewBox="0 0 156.65 164.4"><g id="_Слой_1-2"><path d="m116.05,25.66c8.75,11.75,9.67,27.37,10.27,42.01.6,14.64,1.56,30.27,10.36,41.98,4.17,5.54,9.85,9.83,13.86,15.48,3.49,4.93,5.6,10.83,6.03,16.86.34,4.83-.46,9.89-3.15,13.92-4.08,6.08-12.03,8.81-19.31,7.98-7.28-.83-13.9-4.75-19.39-9.6,1.45-2.04,2.91-4.09,4.36-6.13,2.86,4.53,8.88,6.79,14.02,5.27,5.14-1.53,8.95-6.71,8.87-12.06-.11-7.57-6.71-13.13-11.83-18.71-8.48-9.24-13.98-21.18-15.5-33.64" style="fill:#6e4e74; stroke-width:0px;"/><path d="m91.18,164.4c15.12,0,27.32-12.38,27.09-27.5-.47-31.49-.94-62.97-1.41-94.46-.12-7.85-.58-16.56-6.15-22.09-3.99-3.96-9.77-5.39-15.29-6.45-14.04-2.7-28.67-4.03-42.52-.52-13.86,3.51-26.9,12.52-32.35,25.73-6.63,16.07-1.22,35.12-7.55,51.31-2.82,7.22-7.84,13.43-10.56,20.69-4.4,11.71-2.33,24.31,2.42,36.18,4.13,10.31,14.08,17.11,25.19,17.11h61.15Z" style="fill:#9a6ca4; stroke-width:0px;"/><path d="m84.93,12.78s.46-.39,1.54-.68c1.06-.28,2.82-.32,4.76.58,1.93.85,4.01,2.73,5.15,5.54,1.21,2.78,1.59,6.21,1.92,9.89,1.43,14.79,2.63,35.28,3.45,57.92.39,11.32.77,22.1,1.11,31.92.16,4.9.31,9.56.45,13.93.11,4.36.35,8.42.22,12.16-.13,3.73-.7,7.14-1.85,9.91-1.14,2.78-2.74,4.87-4.29,6.29-1.56,1.43-3.05,2.16-4.09,2.54-1.04.38-1.62.41-1.62.41-.09-.15,2.42-.38,5.43-3.25,1.46-1.42,2.97-3.49,4.02-6.21,1.06-2.71,1.57-6.04,1.65-9.71.08-3.68-.2-7.75-.35-12.11-.17-4.37-.36-9.03-.55-13.93-.37-9.82-.77-20.6-1.2-31.91-.82-22.63-1.9-43.11-3.14-57.89-.28-3.69-.6-7.04-1.72-9.73-1.04-2.72-2.95-4.52-4.78-5.4-1.83-.92-3.49-.94-4.53-.74-1.06.21-1.55.53-1.58.47Z" style="fill:#e0e0e0; stroke-width:0px;"/><path d="m53.35,13.91s-2.95-7.46,1.72-10.03c4.67-2.57,17.74-5.72,20.07-2.57,2.33,3.15,3.05,10.07,3.05,10.07l-4.1-.12s-1.05-6.45-3.74-6.45-12.72,1.17-13.54,2.92c-.82,1.75-.08,5.3-.08,5.3l-3.42,1.36" style="fill:#9a6ca4; stroke-width:0px;"/><path d="m10.08,100.7l76.59,1.36v52.56H11.61s-9.1-10.7-9.19-28.55c-.09-17.85,7.67-25.38,7.67-25.38Z" style="fill:#ff7bac; stroke-width:0px;"/><path d="m85.05,119.59c0,.29-18.45.53-41.2.53s-41.21-.24-41.21-.53,18.44-.53,41.21-.53,41.2.24,41.2.53Z" style="fill:#ebebeb; stroke-width:0px;"/><path d="m81.65,119.87c.15-.03.41.84.96,2.15.28.67.63,1.39,1.1,2.27.22.45.47,1.07.32,1.78-.07.34-.24.71-.57.98-.33.27-.78.37-1.16.32-.81-.08-1.37-.69-1.64-1.21-.29-.54-.43-1.09-.49-1.62-.11-1.06.1-1.98.34-2.69.51-1.42,1.03-2.17,1.15-2.12.15.05-.13.94-.42,2.32-.13.69-.24,1.51-.1,2.37.12.82.59,1.86,1.27,1.9.64.11.83-.82.41-1.61-.39-.85-.73-1.72-.92-2.43-.39-1.44-.38-2.38-.25-2.4Z" style="fill:#ebebeb; stroke-width:0px;"/><path d="m58.76,15.56s.53-.17,1.56-.38c1.03-.21,2.55-.5,4.54-.77,1.98-.25,4.43-.53,7.29-.37,2.84.15,6.17.76,9.32,2.64,3.15,1.84,5.91,4.95,7.77,8.78,1.87,3.83,2.93,8.36,3.11,13.12.24,4.76-.25,9.73-.68,14.83-.47,5.1-.56,10.38-.44,15.8.41,10.85,1.77,21.13,2.86,30.5,1.1,9.37,1.88,17.85,1.95,25.01.1,7.16-.49,12.93-1.07,16.88-.31,1.97-.67,3.49-.88,4.52-.22,1.03-.35,1.56-.39,1.55-.04,0,.03-.56.18-1.6.14-1.04.43-2.56.68-4.53.45-3.95.92-9.7.73-16.81-.16-7.11-1.02-15.55-2.17-24.91-1.14-9.35-2.53-19.66-2.95-30.58-.12-5.45-.03-10.81.46-15.93.45-5.11.95-10.03.74-14.7-.15-4.66-1.14-9.05-2.92-12.78-1.77-3.72-4.38-6.72-7.37-8.52-2.99-1.83-6.19-2.49-8.97-2.69-2.8-.21-5.23,0-7.21.19-1.98.21-3.51.43-4.55.57-1.04.14-1.59.2-1.6.17Z" style="fill:#e0e0e0; stroke-width:0px;"/></g></svg>