<?xml version="1.0" encoding="UTF-8"?><svg id="_Слой_2" xmlns="http://www.w3.org/2000/svg" width="778.46" height="431.99" viewBox="0 0 778.46 431.99"><g id="_Слой_1-2"><rect x="15.62" y="1.41" width="741.81" height="429.17" style="fill:#263238; stroke-width:0px;"/><path d="m758.84,431.99H14.21V0h744.62v431.99Zm-741.81-2.82h738.99V2.82H17.03v426.35Z" style="fill:#263238; stroke-width:0px;"/><rect x="26.51" y="13.39" width="718.76" height="402.46" style="fill:#455a64; stroke-width:0px;"/><path d="m747.67,417.26H26.1V11.98h721.57v405.28Zm-718.76-2.82h715.94V14.8H28.91v399.64Z" style="fill:#263238; stroke-width:0px;"/><rect x="1.41" y="411.29" width="775.65" height="19.29" style="fill:#263238; stroke-width:0px;"/><path d="m778.46,431.99H0v-22.1h778.46v22.1ZM2.82,429.17h772.83v-16.47H2.82v16.47Z" style="fill:#263238; stroke-width:0px;"/><path d="m552.07,251.67s-.02-.21-.03-.6c0-.43-.02-.99-.03-1.72-.01-1.55-.03-3.78-.06-6.65-.03-5.84-.08-14.33-.13-25.12-.06-21.59-.15-52.36-.26-89.25l.51.51c-35.86.02-78.18.05-123.33.08h-.01l.59-.59c-.03,45.16-.06,87.48-.08,123.34l-.51-.51c36.9.11,67.67.2,89.26.26,10.78.06,19.27.1,25.11.13,2.88.03,5.1.04,6.65.06.73.01,1.29.02,1.72.03.39.01.59.02.6.03,0,0-.17.02-.54.03-.41,0-.96.02-1.67.03-1.53.01-3.72.03-6.55.06-5.82.03-14.27.08-25,.13-21.67.06-52.55.15-89.58.26h-.51s0-.51,0-.51c-.02-35.86-.05-78.18-.08-123.34v-.59s.59,0,.59,0h.01c45.15.03,87.47.06,123.33.08h.51s0,.51,0,.51c-.11,37.03-.2,67.91-.26,89.58-.06,10.73-.1,19.19-.13,25-.03,2.83-.05,5.03-.06,6.55-.01.71-.02,1.25-.03,1.67,0,.37-.02.55-.03.54Z" style="fill:#fff; stroke-width:0px;"/><path d="m552.07,251.67s.31-.24.94-.66c.68-.44,1.62-1.04,2.83-1.82,2.55-1.61,6.22-3.92,10.92-6.88,9.56-5.95,23.28-14.5,40.16-25.01l-.21.38c-.04-32.19-.09-74.83-.14-121.49l.59.59h-.34c-46.68-.05-89.34-.1-121.58-.14l.22-.06c-17.4,9.8-31.54,17.77-41.4,23.33-4.87,2.71-8.68,4.83-11.33,6.31-1.26.69-2.25,1.22-2.97,1.62-.67.36-1.03.51-1.03.51,0,0,.32-.23.97-.63.7-.42,1.67-.99,2.9-1.72,2.62-1.52,6.39-3.71,11.21-6.52,9.81-5.63,23.89-13.72,41.2-23.67l.1-.06h.12c32.23-.04,74.9-.09,121.58-.14h.93v.59c-.06,46.66-.11,89.3-.14,121.49v.25s-.21.13-.21.13c-16.97,10.37-30.76,18.81-40.37,24.68-4.75,2.87-8.47,5.12-11.05,6.68-1.23.73-2.19,1.3-2.89,1.71-.66.38-1.01.55-1.01.55Z" style="fill:#fff; stroke-width:0px;"/><path d="m607.15,96.18c.16.28-12.04,7.7-27.25,16.58-15.21,8.88-27.68,15.85-27.84,15.57-.16-.28,12.03-7.7,27.25-16.58,15.21-8.88,27.67-15.85,27.84-15.57Z" style="fill:#fff; stroke-width:0px;"/><path d="m434.57,246.61c.16.28-1.02,1.26-2.63,2.19-1.62.93-3.06,1.45-3.22,1.17-.16-.28,1.02-1.26,2.63-2.19,1.62-.93,3.06-1.45,3.22-1.17Z" style="fill:#fff; stroke-width:0px;"/><path d="m446.28,239.89c.16.28-1.02,1.26-2.63,2.19-1.62.93-3.06,1.45-3.22,1.17s1.02-1.26,2.63-2.19c1.62-.93,3.06-1.45,3.22-1.17Z" style="fill:#fff; stroke-width:0px;"/><path d="m457.98,233.17c.16.28-1.02,1.26-2.63,2.19-1.62.93-3.06,1.45-3.22,1.17-.16-.28,1.02-1.26,2.63-2.19,1.62-.93,3.06-1.45,3.22-1.17Z" style="fill:#fff; stroke-width:0px;"/><path d="m469.68,226.45c.16.28-1.02,1.26-2.63,2.19s-3.06,1.45-3.22,1.17c-.16-.28,1.02-1.26,2.63-2.19,1.62-.93,3.06-1.45,3.22-1.17Z" style="fill:#fff; stroke-width:0px;"/><path d="m481.39,219.73c.16.28-1.02,1.26-2.63,2.19-1.62.93-3.06,1.45-3.22,1.17-.16-.28,1.02-1.26,2.63-2.19,1.62-.93,3.06-1.45,3.22-1.17Z" style="fill:#fff; stroke-width:0px;"/><path d="m484.35,207.91c.32,0,.57,1.52.56,3.38-.01,1.86-.29,3.37-.61,3.37-.32,0-.57-1.51-.56-3.38.01-1.86.29-3.37.61-3.37Z" style="fill:#fff; stroke-width:0px;"/><path d="m484.46,194.42c.32,0,.57,1.52.56,3.38-.01,1.86-.29,3.37-.61,3.37-.32,0-.57-1.51-.56-3.38.01-1.86.29-3.37.61-3.37Z" style="fill:#fff; stroke-width:0px;"/><path d="m484.56,180.92c.32,0,.57,1.52.56,3.38-.01,1.86-.29,3.37-.61,3.37-.32,0-.57-1.51-.56-3.38.01-1.86.29-3.37.61-3.37Z" style="fill:#fff; stroke-width:0px;"/><path d="m484.67,167.43c.32,0,.57,1.51.56,3.38-.01,1.86-.29,3.37-.61,3.37-.32,0-.57-1.51-.56-3.38.01-1.86.29-3.37.61-3.37Z" style="fill:#fff; stroke-width:0px;"/><path d="m484.78,153.93c.32,0,.57,1.51.56,3.38-.01,1.86-.29,3.37-.61,3.37-.32,0-.57-1.51-.56-3.38.01-1.86.29-3.37.61-3.37Z" style="fill:#fff; stroke-width:0px;"/><path d="m484.88,140.44c.32,0,.57,1.51.56,3.38-.01,1.86-.29,3.37-.61,3.37-.32,0-.57-1.51-.56-3.38.01-1.86.29-3.37.61-3.37Z" style="fill:#fff; stroke-width:0px;"/><path d="m484.99,126.95c.32,0,.57,1.51.56,3.38-.01,1.86-.29,3.37-.61,3.37-.32,0-.57-1.51-.56-3.38.01-1.86.29-3.37.61-3.37Z" style="fill:#fff; stroke-width:0px;"/><path d="m485.09,113.45c.32,0,.57,1.52.56,3.38-.01,1.86-.29,3.37-.61,3.37-.32,0-.57-1.51-.56-3.38.01-1.86.29-3.37.61-3.37Z" style="fill:#fff; stroke-width:0px;"/><path d="m485.2,99.96c.32,0,.57,1.52.56,3.38-.01,1.86-.29,3.37-.61,3.37-.32,0-.57-1.51-.56-3.38.01-1.86.29-3.37.61-3.37Z" style="fill:#fff; stroke-width:0px;"/><path d="m600.4,217.67c0-.32,1.51-.59,3.37-.59s3.37.26,3.37.59-1.51.59-3.37.59-3.37-.26-3.37-.59Z" style="fill:#fff; stroke-width:0px;"/><path d="m586.91,217.67c0-.32,1.51-.59,3.37-.59s3.37.26,3.37.59-1.51.59-3.37.59-3.37-.26-3.37-.59Z" style="fill:#fff; stroke-width:0px;"/><path d="m573.41,217.67c0-.32,1.51-.59,3.37-.59s3.37.26,3.37.59-1.51.59-3.37.59-3.37-.26-3.37-.59Z" style="fill:#fff; stroke-width:0px;"/><path d="m559.92,217.67c0-.32,1.51-.59,3.37-.59s3.37.26,3.37.59-1.51.59-3.37.59-3.37-.26-3.37-.59Z" style="fill:#fff; stroke-width:0px;"/><path d="m546.43,217.67c0-.32,1.51-.59,3.37-.59s3.37.26,3.37.59-1.51.59-3.37.59-3.37-.26-3.37-.59Z" style="fill:#fff; stroke-width:0px;"/><path d="m532.93,217.67c0-.32,1.51-.59,3.37-.59s3.37.26,3.37.59-1.51.59-3.37.59-3.37-.26-3.37-.59Z" style="fill:#fff; stroke-width:0px;"/><path d="m519.44,217.67c0-.32,1.51-.59,3.37-.59s3.37.26,3.37.59-1.51.59-3.37.59-3.37-.26-3.37-.59Z" style="fill:#fff; stroke-width:0px;"/><path d="m505.94,217.67c0-.32,1.51-.59,3.37-.59s3.37.26,3.37.59-1.51.59-3.37.59-3.37-.26-3.37-.59Z" style="fill:#fff; stroke-width:0px;"/><path d="m492.45,217.67c0-.32,1.51-.59,3.37-.59s3.37.26,3.37.59-1.51.59-3.37.59-3.37-.26-3.37-.59Z" style="fill:#fff; stroke-width:0px;"/><path d="m484.27,217.67c0-.32.32-.59.71-.59s.71.26.71.59-.32.59-.71.59-.71-.26-.71-.59Z" style="fill:#fff; stroke-width:0px;"/><path d="m622.08,176.59c.02-.12,1.13.24,3.08-.14,1.88-.37,4.72-1.73,6.39-4.82,1.65-3.03,1.79-7.69-.35-11.74-.55-.96-1.36-1.77-2.4-1.94-1.04-.19-2.23.16-3.16.85-1.89,1.44-2.94,4.05-3.9,6.54-1.01,2.78-1.58,5.63-1.75,8.37l-1.14-.02c-.13-8.93-.2-16.73-.19-22.3.02-2.62.04-4.8.05-6.54.03-1.53.09-2.36.16-2.37.07,0,.15.83.24,2.36.08,1.74.17,3.92.29,6.53.2,5.56.41,13.36.6,22.29l-1.14-.02c.16-2.85.74-5.81,1.79-8.7.48-1.32,1.04-2.59,1.69-3.81.66-1.21,1.48-2.4,2.64-3.25,1.16-.84,2.62-1.29,4.05-1.02,1.48.26,2.54,1.41,3.13,2.5,2.29,4.47,2.02,9.41.14,12.67-1.93,3.32-5.03,4.62-7.04,4.87-1.03.14-1.84.05-2.37-.05-.53-.12-.79-.22-.78-.26Z" style="fill:#fff; stroke-width:0px;"/><path d="m562.28,82.1s-.06.17-.28.43c-.23.25-.61.6-1.2.9-.59.3-1.4.53-2.37.5-.95-.04-2.11-.38-3.03-1.27-.92-.87-1.53-2.12-2.03-3.44-.51-1.32-.99-2.77-1.43-4.33-.87-3.12-1.52-6.72-1.71-10.63l1.1-.07c.37,4.27.9,9.12-.4,14.07-.79,2.73-1.97,5.47-4.37,7.17-1.2.81-2.69,1.21-4.12.91-1.45-.3-2.56-1.35-3.22-2.46-2.44-4.63-1.5-9.57.26-12.83,1.85-3.34,4.53-5.1,6.4-5.93.95-.43,1.73-.65,2.26-.77.53-.11.82-.13.83-.1.03.1-1.1.33-2.89,1.27-1.75.93-4.23,2.73-5.87,5.91-.8,1.58-1.36,3.48-1.46,5.56-.07,2.05.22,4.39,1.38,6.32.59.94,1.46,1.72,2.53,1.93,1.07.21,2.28-.1,3.25-.77,1.98-1.39,3.16-3.97,3.88-6.53,1.23-4.65.77-9.41.44-13.67l1.1-.07c.14,3.83.73,7.36,1.51,10.44.39,1.54.83,2.97,1.29,4.28.45,1.3.98,2.45,1.75,3.24,1.57,1.6,3.71,1.37,4.77.92,1.15-.46,1.57-1.07,1.63-1Z" style="fill:#fff; stroke-width:0px;"/><path d="m224.44,120.46s.05.22.11.65c.05.49.12,1.12.2,1.9.15,1.75.37,4.21.64,7.33.48,6.37,1.23,15.59,1.28,27.04,0,11.41-.67,25.17-4.56,39.86-1.91,7.33-4.73,14.84-8.62,22.14-3.91,7.29-9.18,14.17-15.38,20.34-6.14,6.22-12.51,11.87-17.84,18.07-5.36,6.17-9.37,13.04-12.25,19.96-5.77,13.92-7.38,27.62-7.91,38.95-.48,11.39.02,20.63.29,27,.15,3.13.26,5.59.34,7.34.03.79.05,1.42.07,1.91,0,.43,0,.65-.02.65-.02,0-.05-.22-.1-.65-.05-.49-.1-1.12-.18-1.9-.13-1.75-.32-4.21-.55-7.33-.4-6.37-1.03-15.62-.65-27.06.44-11.39,1.97-25.2,7.75-39.31,2.89-7.02,6.95-14.02,12.37-20.28,5.38-6.29,11.77-11.96,17.87-18.15,6.15-6.13,11.33-12.88,15.21-20.07,3.86-7.2,6.67-14.62,8.59-21.88,3.91-14.55,4.66-28.22,4.76-39.59.06-11.4-.57-20.63-.92-27-.18-3.13-.33-5.59-.43-7.34-.04-.79-.07-1.42-.09-1.91-.01-.43-.01-.65,0-.65Z" style="fill:#fff; stroke-width:0px;"/><path d="m200.37,157.18c-.14.06-1.16-2.15-2.68-5.76-1.52-3.61-3.56-8.62-5.74-14.19-.12-.3-.23-.6-.34-.87l1.01.07c-2.75,5.01-4.43,9.89-5.38,13.48-.95,3.59-1.29,5.86-1.46,5.84-.13-.01-.06-2.33.71-6.02.76-3.68,2.35-8.71,5.15-13.83l.57-1.05.44,1.12c.11.28.23.57.34.87,2.18,5.56,4.1,10.62,5.43,14.31,1.33,3.68,2.09,5.99,1.94,6.05Z" style="fill:#fff; stroke-width:0px;"/><path d="m189.41,361.05c-.31,0,.32-50.36,1.41-112.47,1.09-62.12,2.23-112.46,2.54-112.46s-.32,50.35-1.41,112.48c-1.09,62.1-2.23,112.45-2.54,112.45Z" style="fill:#fff; stroke-width:0px;"/><path d="m237.28,244.64c0,.31-17.6.56-39.31.56s-39.32-.25-39.32-.56,17.6-.56,39.32-.56,39.31.25,39.31.56Z" style="fill:#fff; stroke-width:0px;"/><path d="m228.55,253.29c-.06-.14,2.18-1.22,5.86-2.87,3.68-1.65,8.81-3.86,14.53-6.25l.04,1.05c-.21-.07-.43-.14-.66-.22-6.04-2-11.48-3.87-15.4-5.28-3.92-1.41-6.32-2.35-6.28-2.5.05-.15,2.54.53,6.53,1.75,3.99,1.22,9.47,2.97,15.51,4.97.22.07.45.15.66.22l1.42.47-1.38.58c-5.72,2.38-10.9,4.48-14.66,5.94-3.76,1.46-6.1,2.29-6.16,2.15Z" style="fill:#fff; stroke-width:0px;"/><path d="m237.49,229.07c.06.06-.13.33-.52.79l-1.28,1.48.93-1.78c.74-1.4,2.64-4.39,4.99-7.78,3.19-4.61,5.98-8.2,6.24-8.02.25.18-2.13,4.05-5.32,8.66-2.34,3.38-4.47,6.22-5.53,7.4l-.34-.3c.49-.35.77-.51.83-.45Z" style="fill:#fff; stroke-width:0px;"/><path d="m250.97,227.56c-.22.21-3.39-2.73-7.07-6.57-3.68-3.85-6.49-7.14-6.26-7.35.22-.21,3.39,2.73,7.07,6.58,3.68,3.84,6.49,7.14,6.26,7.35Z" style="fill:#fff; stroke-width:0px;"/><path d="m179.44,224.49s.54-.47,1.68-.24c1.08.22,2.69,1.33,3.06,3.42.39,2.05-.25,4.36-1.2,6.74-.52,1.19-1.28,2.43-2.49,3.34-1.17.89-2.82,1.47-4.46,1.01-1.62-.47-2.76-1.76-3.33-3.13-.57-1.41-.57-2.88-.35-4.17.48-2.57,1.64-4.77,3.22-6.05,1.59-1.31,3.39-1.44,4.46-1.21,1.1.25,1.54.74,1.51.78-.05.09-.56-.25-1.57-.35-.99-.09-2.56.16-3.88,1.38-1.33,1.19-2.33,3.25-2.72,5.62-.18,1.17-.14,2.45.34,3.58.48,1.12,1.43,2.14,2.62,2.48,1.2.34,2.51-.07,3.5-.81,1-.73,1.7-1.8,2.2-2.89.95-2.22,1.62-4.44,1.36-6.18-.21-1.77-1.49-2.82-2.4-3.14-.95-.34-1.54-.08-1.56-.18Z" style="fill:#fff; stroke-width:0px;"/><path d="m168.55,151.38c-.25.18-1.9-1.66-3.67-4.11-1.78-2.45-3.02-4.59-2.76-4.77.25-.18,1.89,1.66,3.67,4.11,1.78,2.45,3.01,4.59,2.76,4.77Z" style="fill:#fff; stroke-width:0px;"/><path d="m163.85,162.86c-.29-.11,1.38-5.29,3.73-11.58,2.35-6.29,4.49-11.3,4.78-11.19.29.11-1.38,5.29-3.73,11.58-2.35,6.29-4.49,11.3-4.78,11.19Z" style="fill:#fff; stroke-width:0px;"/><path d="m290.35,72.27c0,.41-44.83.73-100.12.73s-100.13-.33-100.13-.73,44.82-.73,100.13-.73,100.12.33,100.12.73Z" style="fill:#fff; stroke-width:0px;"/><path d="m290.35,83.92c0,.41-44.83.73-100.12.73s-100.13-.33-100.13-.73,44.82-.73,100.13-.73,100.12.33,100.12.73Z" style="fill:#fff; stroke-width:0px;"/><path d="m156.77,51.55c0,.4-14.93.73-33.34.73s-33.34-.33-33.34-.73,14.93-.73,33.34-.73,33.34.33,33.34.73Z" style="fill:#fff; stroke-width:0px;"/><path d="m635.33,291.24c.07.4-26.3,5.12-58.89,10.55-32.6,5.43-59.07,9.5-59.14,9.1-.07-.4,26.3-5.12,58.9-10.55,32.59-5.43,59.07-9.5,59.13-9.1Z" style="fill:#fff; stroke-width:0px;"/><path d="m641.22,305.2c.07.4-26.3,5.12-58.89,10.55-32.6,5.43-59.07,9.5-59.14,9.1-.07-.4,26.3-5.12,58.9-10.55,32.59-5.43,59.07-9.5,59.13-9.1Z" style="fill:#fff; stroke-width:0px;"/><path d="m647.1,319.16c.07.4-26.3,5.12-58.89,10.55-32.6,5.43-59.07,9.5-59.14,9.1-.07-.4,26.3-5.12,58.9-10.55,32.59-5.43,59.07-9.5,59.13-9.1Z" style="fill:#fff; stroke-width:0px;"/></g></svg>