<?xml version="1.0" encoding="UTF-8"?><svg id="_Слой_2" xmlns="http://www.w3.org/2000/svg" width="125.7" height="70.53" viewBox="0 0 125.7 70.53"><g id="_Слой_1-2"><path d="m22.58.91s-11.22,8.55-.47,19.85c.18.19.44.3.71.3l98.07-.57s8.37-9.39,1.43-20.22L22.58.91Z" style="fill:#455a64; stroke-width:0px;"/><path d="m99.21,9.84c0,.11-12.21.2-27.27.2s-27.27-.09-27.27-.2,12.21-.2,27.27-.2,27.27.09,27.27.2Z" style="fill:#e0e0e0; stroke-width:0px;"/><path d="m83.96,13.38c0,.11-5.74.2-12.82.2s-12.82-.09-12.82-.2,5.74-.2,12.82-.2,12.82.09,12.82.2Z" style="fill:#e0e0e0; stroke-width:0px;"/><path d="m109.24,20.17c-.06-.02.22-1.13.52-2.94.31-1.81.59-4.35.57-7.15-.03-2.81-.36-5.34-.7-7.14-.34-1.81-.64-2.91-.58-2.93.03,0,.13.26.28.75.16.49.36,1.22.56,2.12.41,1.81.79,4.36.82,7.2.02,2.84-.31,5.39-.69,7.21-.19.91-.37,1.64-.52,2.13-.15.5-.24.77-.27.76Z" style="fill:#e0e0e0; stroke-width:0px;"/><path d="m116.56.15s.18.24.44.71c.13.23.29.53.44.88.15.35.35.74.5,1.2.35.9.67,2,.93,3.25.24,1.25.41,2.65.43,4.13,0,1.48-.14,2.88-.36,4.13-.24,1.25-.54,2.37-.88,3.27-.15.46-.33.85-.48,1.21-.14.35-.29.65-.42.89-.25.48-.4.73-.43.72-.07-.03.48-1.09,1.06-2.9.3-.9.57-2.01.79-3.24.2-1.24.33-2.62.32-4.07-.02-1.45-.17-2.82-.39-4.06-.24-1.23-.53-2.33-.84-3.23-.61-1.8-1.18-2.85-1.11-2.88Z" style="fill:#e0e0e0; stroke-width:0px;"/><path d="m38.05,20.3s-.18-.22-.46-.66c-.14-.22-.3-.49-.46-.82-.16-.33-.36-.69-.52-1.13-.37-.85-.7-1.9-.96-3.09-.24-1.2-.39-2.54-.38-3.95.03-1.41.22-2.75.49-3.94.29-1.19.65-2.23,1.04-3.07.17-.43.38-.79.55-1.11.17-.33.33-.59.48-.81.28-.43.45-.66.47-.64.07.04-.56.99-1.25,2.67-.35.84-.67,1.87-.94,3.04-.24,1.17-.42,2.48-.45,3.86,0,1.38.13,2.7.34,3.87.24,1.17.53,2.22.86,3.06.64,1.7,1.25,2.66,1.18,2.7Z" style="fill:#e0e0e0; stroke-width:0px;"/><path d="m27.46,22.7s-.2-.25-.5-.74c-.16-.24-.34-.55-.51-.92-.18-.37-.41-.78-.59-1.27-.42-.95-.8-2.13-1.12-3.46-.29-1.34-.51-2.84-.55-4.42-.03-1.59.12-3.09.36-4.45.26-1.35.59-2.54.97-3.51.16-.49.37-.91.54-1.29.16-.38.33-.69.47-.94.28-.51.45-.78.47-.76.07.04-.56,1.15-1.21,3.09-.34.97-.64,2.15-.87,3.48-.21,1.33-.34,2.82-.32,4.37.04,1.56.24,3.03.51,4.35.3,1.32.65,2.49,1.03,3.44.74,1.91,1.42,2.99,1.35,3.03Z" style="fill:#e0e0e0; stroke-width:0px;"/><path d="m117.29,50.35v18.77h-36.31v-18.77h36.31Z" style="fill:#ebebeb; stroke-width:0px;"/><path d="m0,59.91c0,.17.01.33.02.5.29,5.68,5.12,10.07,10.8,10.07h108.15v-1.36h-25.67c-5.18,0-9.38-4.2-9.38-9.38h0c0-5.18,4.2-9.38,9.38-9.38h25.67v-1.99l-108.18.37C4.69,48.75-.22,53.81,0,59.91Z" style="fill:#5a7f33; stroke-width:0px;"/><path d="m117.29,59.99c0,.11-7.47.2-16.67.2s-16.68-.09-16.68-.2,7.46-.2,16.68-.2,16.67.09,16.67.2Z" style="fill:#e0e0e0; stroke-width:0px;"/><path d="m116.76,64.22c0,.11-7.07.2-15.78.2s-15.78-.09-15.78-.2,7.06-.2,15.78-.2,15.78.09,15.78.2Z" style="fill:#e0e0e0; stroke-width:0px;"/><path d="m117.29,68.08c0,.11-6.35.2-14.19.2s-14.19-.09-14.19-.2,6.35-.2,14.19-.2,14.19.09,14.19.2Z" style="fill:#e0e0e0; stroke-width:0px;"/><path d="m117.29,56.19c0,.11-7.31.2-16.33.2s-16.34-.09-16.34-.2,7.31-.2,16.34-.2,16.33.09,16.33.2Z" style="fill:#e0e0e0; stroke-width:0px;"/><path d="m116.76,52.39c0,.11-6.51.2-14.54.2s-14.54-.09-14.54-.2,6.51-.2,14.54-.2,14.54.09,14.54.2Z" style="fill:#e0e0e0; stroke-width:0px;"/><path d="m13.11,49.04c.06.06-1.06.91-2.3,2.73-1.24,1.79-2.5,4.71-2.47,8.07.04,3.37,1.38,6.25,2.66,8.01,1.28,1.8,2.42,2.61,2.36,2.68-.01.02-.3-.17-.78-.58-.48-.4-1.12-1.04-1.81-1.94-1.36-1.76-2.78-4.7-2.83-8.17-.04-3.47,1.31-6.45,2.63-8.24.66-.91,1.29-1.56,1.76-1.98.47-.42.75-.61.77-.59Z" style="fill:#f5f5f5; stroke-width:0px;"/><path d="m9.45,48.64c.06.06-1.06.91-2.3,2.73-1.24,1.79-2.5,4.71-2.47,8.07.04,3.37,1.38,6.25,2.66,8.01,1.28,1.8,2.42,2.61,2.36,2.68-.01.02-.3-.17-.78-.58-.48-.4-1.12-1.04-1.81-1.94-1.36-1.76-2.78-4.7-2.83-8.17-.04-3.47,1.31-6.45,2.63-8.24.66-.91,1.29-1.56,1.76-1.98.47-.42.75-.61.77-.59Z" style="fill:#f5f5f5; stroke-width:0px;"/><path d="m82.94,49.04c.06.06-1.06.91-2.3,2.73-1.24,1.79-2.5,4.71-2.47,8.07.04,3.37,1.38,6.25,2.66,8.01,1.28,1.8,2.42,2.61,2.36,2.68-.01.02-.3-.17-.78-.58-.48-.4-1.12-1.04-1.81-1.94-1.36-1.76-2.78-4.7-2.83-8.17-.04-3.47,1.31-6.45,2.63-8.24.66-.91,1.29-1.56,1.76-1.98.47-.42.75-.61.77-.59Z" style="fill:#f5f5f5; stroke-width:0px;"/><path d="m79.28,48.64c.06.06-1.06.91-2.3,2.73-1.24,1.79-2.5,4.71-2.47,8.07.04,3.37,1.38,6.25,2.66,8.01,1.28,1.8,2.42,2.61,2.36,2.68-.01.02-.3-.17-.78-.58-.48-.4-1.12-1.04-1.81-1.94-1.36-1.76-2.78-4.7-2.83-8.17-.04-3.47,1.31-6.45,2.63-8.24.66-.91,1.29-1.56,1.76-1.98.47-.42.75-.61.77-.59Z" style="fill:#f5f5f5; stroke-width:0px;"/><path d="m25.42,62.55c-.03-2.54-.07-5.09-.1-7.63,0-.67-.02-1.35-.27-1.97-.25-.62-.79-1.16-1.45-1.22-.96-.42-2.45.37-3.11,1.47-.67,1.1-.74,2.45-.75,3.74-.01,2.01.08,4.03.29,6.03.1.95.23,1.93.71,2.76.48.83,1.38,1.49,2.33,1.4.95-.09,1.7-.88,2.04-1.77.33-.89.33-1.86.31-2.81Z" style="fill:#b2873a; stroke-width:0px;"/><path d="m67.42,60.36c0,.11-7.82.2-17.46.2s-17.46-.09-17.46-.2,7.82-.2,17.46-.2,17.46.09,17.46.2Z" style="fill:#f5f5f5; stroke-width:0px;"/><polygon points="18.17 48.29 17.97 30.5 27.66 30.5 27.99 48.29 18.17 48.29" style="fill:#f5f5f5; stroke-width:0px;"/><path d="m27.08,33.67c0,.11-2.01.2-4.5.2s-4.5-.09-4.5-.2,2.01-.2,4.5-.2,4.5.09,4.5.2Z" style="fill:#e0e0e0; stroke-width:0px;"/><path d="m27.08,36.41c0,.11-2.01.2-4.5.2s-4.5-.09-4.5-.2,2.01-.2,4.5-.2,4.5.09,4.5.2Z" style="fill:#e0e0e0; stroke-width:0px;"/><path d="m27.08,39.16c0,.11-2.01.2-4.5.2s-4.5-.09-4.5-.2,2.01-.2,4.5-.2,4.5.09,4.5.2Z" style="fill:#e0e0e0; stroke-width:0px;"/><path d="m27.08,41.9c0,.11-2.01.2-4.5.2s-4.5-.09-4.5-.2,2.01-.2,4.5-.2,4.5.09,4.5.2Z" style="fill:#e0e0e0; stroke-width:0px;"/><path d="m27.08,44.65c0,.11-2.01.2-4.5.2s-4.5-.09-4.5-.2,2.01-.2,4.5-.2,4.5.09,4.5.2Z" style="fill:#e0e0e0; stroke-width:0px;"/><path d="m17.46,30.03h107.32c1.32,5.89,1.14,12.37,0,19.23H17.92v-1.31h6.53c1.7,0,3.08-1.38,3.08-3.08v-10.64c0-1.7-1.38-3.08-3.08-3.08h-6.99v-1.11Z" style="fill:#5a7f33; stroke-width:0px;"/><path d="m42.83,39.66h1.79c.07,0,.13.02.19.05.13.07.19.19.19.34,0,.04,0,.08-.01.12-.04.15-.08.3-.12.46-.25.82-.62,1.49-1.12,2.03-.49.53-1,.79-1.53.79-.07,0-.14,0-.22-.01-.49-.07-.89-.37-1.22-.88-.36-.57-.53-1.29-.53-2.16,0-.51.07-1.02.21-1.54.23-.83.58-1.53,1.06-2.08.5-.57,1.04-.86,1.61-.86.24,0,.47.05.68.15.46.23.81.66,1.05,1.31.03.06.04.12.04.18,0,.07-.02.13-.05.19-.08.13-.19.19-.33.19-.04,0-.08,0-.12-.02-.13-.04-.21-.12-.25-.24l-.02-.03c-.06-.16-.13-.3-.22-.42-.23-.34-.52-.51-.86-.51-.2,0-.39.07-.59.22-.38.27-.7.74-.98,1.41-.28.69-.42,1.36-.42,2.02s.1,1.16.31,1.59c.23.47.54.7.93.7.27,0,.55-.18.87-.52.38-.43.69-.98.92-1.66-.82,0-1.25,0-1.28-.01-.28-.04-.42-.19-.43-.43,0-.05.02-.09.04-.13.07-.14.21-.22.4-.22Z" style="fill:#fafafa; stroke-width:0px;"/><path d="m48.92,36.16s.03.08.05.13c.08.26.5,2.48,1.26,6.65.01.03.02.06.02.1,0,.07-.02.13-.05.2-.08.13-.18.2-.32.2-.02,0-.04,0-.06,0-.15-.03-.25-.11-.3-.27l-.43-2.21h-2.2l-1.06,2.22s-.02.05-.03.07c-.1.13-.21.19-.33.19-.08,0-.14-.02-.21-.06-.12-.08-.18-.19-.18-.32,0-.04,0-.08.02-.11.07-.15.18-.4.33-.73,1.54-3.37,2.47-5.36,2.77-5.96.09-.18.21-.27.37-.27.15,0,.27.07.35.19Zm-.48,1.49l-1.19,2.51h1.68l-.49-2.51Z" style="fill:#fafafa; stroke-width:0px;"/><path d="m54.91,43.43h-3.23c-.07,0-.14-.02-.21-.06-.09-.07-.15-.2-.18-.4h0c0-.14.3-2.34.89-6.63,0-.05,0-.1.02-.14.07-.16.18-.24.35-.24.06,0,.12.01.18.04.14.07.2.18.2.34-.03.29-.1.9-.22,1.82-.37,2.83-.56,4.32-.58,4.48h2.75c.07,0,.14.01.21.04.16.07.25.19.25.36,0,.04,0,.08-.02.13-.05.15-.19.24-.4.27Z" style="fill:#fafafa; stroke-width:0px;"/><path d="m59.33,36.16s.03.08.05.13c.08.26.5,2.48,1.26,6.65.01.03.02.06.02.1,0,.07-.02.13-.05.2-.08.13-.18.2-.32.2-.02,0-.04,0-.06,0-.15-.03-.25-.11-.3-.27l-.43-2.21h-2.2l-1.06,2.22s-.02.05-.03.07c-.1.13-.21.19-.33.19-.07,0-.14-.02-.21-.06-.12-.08-.18-.19-.18-.32,0-.04,0-.08.02-.11.07-.15.18-.4.33-.73,1.54-3.37,2.47-5.36,2.77-5.96.09-.18.21-.27.37-.27.15,0,.27.07.35.19Zm-.48,1.49l-1.19,2.51h1.68l-.49-2.51Z" style="fill:#fafafa; stroke-width:0px;"/><path d="m64.49,39.98c.25.7.45,1.24.58,1.62.33.92.5,1.41.5,1.46,0,.07-.02.14-.06.2-.08.12-.18.18-.32.18-.14,0-.25-.09-.32-.26-.02-.07-.05-.12-.06-.16-.18-.4-.46-1.16-.87-2.28l-1.83,2.5c-.1.13-.22.2-.34.2-.07,0-.14-.02-.2-.05-.12-.07-.18-.18-.18-.32,0-.03,0-.06,0-.08,0-.06.07-.16.19-.31.61-.79,1.29-1.74,2.03-2.83-.08-.21-.15-.42-.22-.61-.69-1.84-1.03-2.8-1.03-2.86,0-.07.02-.14.05-.2.07-.13.17-.19.31-.19.17,0,.29.08.36.21l1.08,2.91,2.16-2.94c.09-.12.21-.18.34-.18.06,0,.12.01.18.04.12.07.19.18.19.34,0,.05-.01.11-.04.18l-2.5,3.44Z" style="fill:#fafafa; stroke-width:0px;"/><path d="m72.49,35.99c.06,0,.12.01.18.04.13.07.2.18.21.33-.53,4.18-.82,6.44-.88,6.78-.12.71-.35,1.3-.69,1.77-.52.7-1.23,1.05-2.15,1.05-.3,0-.64-.09-1.04-.27-.55-.26-.93-.59-1.14-1-.03-.06-.04-.12-.04-.19s.02-.13.05-.19c.08-.13.19-.19.33-.19.12,0,.21.06.29.16.48.63,1.03.94,1.66.94.5,0,.93-.22,1.28-.65.41-.5.65-1.17.71-2.03-.13.19-.28.36-.48.51-.35.25-.74.38-1.16.38-.07,0-.14,0-.22-.01-.49-.07-.9-.36-1.23-.88-.36-.57-.54-1.29-.54-2.16,0-.39.02-.8.05-1.21.06-.65.21-1.58.44-2.79,0-.04.02-.07.03-.11.07-.18.18-.26.35-.26.06,0,.13.02.19.05.13.07.19.18.19.31,0,.2-.06.69-.18,1.48-.17,1.15-.26,1.91-.26,2.26,0,.72.1,1.3.29,1.75.22.53.54.79.96.79.04,0,.08,0,.13-.01.31-.06.64-.32.97-.77.38-.52.64-1.11.8-1.78l.49-3.69c0-.06.02-.11.05-.16.07-.14.18-.21.34-.21Z" style="fill:#fafafa; stroke-width:0px;"/><path d="m120.75,49.51c-.11,0-.2-4.42-.2-9.86s.09-9.86.2-9.86.2,4.42.2,9.86-.09,9.86-.2,9.86Z" style="fill:#f5f5f5; stroke-width:0px;"/><path d="m32.93,49.51c-.11,0-.2-4.42-.2-9.86s.09-9.86.2-9.86.2,4.42.2,9.86-.09,9.86-.2,9.86Z" style="fill:#e0e0e0; stroke-width:0px;"/><path d="m122.63,49.51c-.11,0-.2-4.42-.2-9.86s.09-9.86.2-9.86.2,4.42.2,9.86-.09,9.86-.2,9.86Z" style="fill:#f5f5f5; stroke-width:0px;"/><path d="m31.17,49.51c-.11,0-.2-4.42-.2-9.86s.09-9.86.2-9.86.2,4.42.2,9.86-.09,9.86-.2,9.86Z" style="fill:#e0e0e0; stroke-width:0px;"/><path d="m94.73,33.03l-.02-.03c2.93,2.36,6.91,5.58,11.34,9.15l.1.08-.12.03c-.48.13-.99.26-1.51.4-3.44.9-6.71,1.76-9.58,2.51h-.02s-.02,0-.02,0c-3.56-1.51-6.56-2.78-8.68-3.68-1.05-.45-1.88-.81-2.46-1.05-.28-.12-.5-.22-.65-.28-.07-.03-.12-.06-.17-.07-.04-.02-.06-.03-.05-.03,0,0,.02,0,.06.02.04.02.1.04.17.07.15.06.37.15.66.27.58.24,1.41.58,2.47,1.02,2.12.89,5.13,2.15,8.7,3.64h-.04c2.87-.76,6.13-1.62,9.57-2.53.52-.14,1.03-.27,1.51-.4l-.02.11c-4.42-3.58-8.39-6.81-11.32-9.18h-.02s0-.03,0-.03" style="fill:#e0e0e0; stroke-width:0px;"/><polygon points="105.03 40.72 105.64 41.3 106.47 41.13 106.11 41.89 106.54 42.63 105.7 42.52 105.13 43.15 104.97 42.32 104.2 41.98 104.94 41.57 105.03 40.72" style="fill:#e0e0e0; stroke-width:0px;"/><polygon points="94.15 44.33 94.57 44.68 95.1 44.53 94.89 45.04 95.2 45.5 94.65 45.46 94.31 45.89 94.17 45.36 93.66 45.17 94.12 44.88 94.15 44.33" style="fill:#e0e0e0; stroke-width:0px;"/><polygon points="82.13 39.4 82.8 39.44 83.22 38.91 83.39 39.56 84.02 39.79 83.45 40.16 83.42 40.83 82.9 40.4 82.26 40.59 82.5 39.96 82.13 39.4" style="fill:#e0e0e0; stroke-width:0px;"/><polygon points="110.11 33.17 110.78 33.22 111.2 32.69 111.37 33.34 112 33.57 111.43 33.93 111.41 34.61 110.89 34.18 110.24 34.36 110.49 33.73 110.11 33.17" style="fill:#e0e0e0; stroke-width:0px;"/><polygon points="94.18 32.73 94.61 32.76 94.87 32.42 94.98 32.84 95.38 32.99 95.02 33.22 95 33.65 94.67 33.37 94.26 33.49 94.42 33.09 94.18 32.73" style="fill:#e0e0e0; stroke-width:0px;"/><path d="m111.06,33.65s-3.67-.08-8.19-.27c-4.52-.19-8.19-.39-8.19-.43,0-.04,3.67.08,8.2.27,4.52.19,8.19.39,8.19.43Z" style="fill:#e0e0e0; stroke-width:0px;"/><path d="m115.18,29.86H6.33c-1.43-3.23-1.78-6.31,0-9.06h108.84c1.43,3.3,1.31,6.29,0,9.06Z" style="fill:#455a64; stroke-width:0px;"/><rect x="28.87" y="23.39" width="58.97" height="3.3" style="fill:#b2873a; stroke-width:0px;"/><path d="m10.51,29.91s-.42-.35-.86-1.1c-.44-.74-.87-1.89-.99-3.22-.11-1.33.12-2.53.42-3.34.3-.81.62-1.25.65-1.23.06.03-.17.51-.39,1.31-.22.8-.4,1.95-.29,3.22.11,1.27.49,2.37.85,3.12.36.76.66,1.19.61,1.23Z" style="fill:#e0e0e0; stroke-width:0px;"/><path d="m12.87,29.91s-.42-.35-.86-1.1c-.44-.74-.87-1.89-.99-3.22-.11-1.33.12-2.53.42-3.34.3-.81.62-1.25.65-1.23.06.03-.17.51-.39,1.31-.22.8-.4,1.95-.29,3.22.11,1.27.49,2.37.85,3.12.36.76.66,1.19.61,1.23Z" style="fill:#e0e0e0; stroke-width:0px;"/><path d="m110.77,29.7c-.12-.04.77-1.93.77-4.43.03-2.5-.84-4.4-.71-4.44.07-.06,1.14,1.83,1.11,4.44,0,2.61-1.09,4.49-1.16,4.43Z" style="fill:#f5f5f5; stroke-width:0px;"/><path d="m108.75,29.68c-.12-.03.34-1.94.33-4.34,0-2.4-.46-4.31-.34-4.34.09-.04.74,1.88.73,4.34.01,2.46-.63,4.37-.72,4.34Z" style="fill:#f5f5f5; stroke-width:0px;"/></g></svg>