<?xml version="1.0" encoding="UTF-8"?><svg id="_Слой_2" xmlns="http://www.w3.org/2000/svg" width="109.07" height="76.55" viewBox="0 0 109.07 76.55"><g id="_Слой_1-2"><rect x="85.74" y="1.4" width="18.02" height="21.43" style="fill:#f5f5f5; stroke-width:0px;"/><rect x="4.91" width="81.45" height="24.17" style="fill:#d9e021; stroke-width:0px;"/><path d="m104.31,2.03h-20.13V0h20.13c.56,0,1.02.46,1.02,1.02h0c0,.56-.46,1.02-1.02,1.02Z" style="fill:#d9e021; stroke-width:0px;"/><path d="m104.31,24.17h-20.13v-2.03h20.13c.56,0,1.02.46,1.02,1.02h0c0,.56-.46,1.02-1.02,1.02Z" style="fill:#d9e021; stroke-width:0px;"/><rect x="70.34" width="9.62" height="24.17" style="fill:#006837; stroke-width:0px;"/><rect x="12.66" y=".27" width="9.62" height="24.17" style="fill:#006837; stroke-width:0px;"/><path d="m103.77,4.94c0,.06-3.9.11-8.71.11s-8.71-.05-8.71-.11,3.9-.11,8.71-.11,8.71.05,8.71.11Z" style="fill:#e0e0e0; stroke-width:0px;"/><path d="m103.77,8.15c0,.06-3.9.11-8.71.11s-8.71-.05-8.71-.11,3.9-.11,8.71-.11,8.71.05,8.71.11Z" style="fill:#e0e0e0; stroke-width:0px;"/><path d="m103.77,12.11c0,.06-3.9.11-8.71.11s-8.71-.05-8.71-.11,3.9-.11,8.71-.11,8.71.05,8.71.11Z" style="fill:#e0e0e0; stroke-width:0px;"/><path d="m103.77,16.07c0,.06-3.9.11-8.71.11s-8.71-.05-8.71-.11,3.9-.11,8.71-.11,8.71.05,8.71.11Z" style="fill:#e0e0e0; stroke-width:0px;"/><path d="m103.77,20.02c0,.06-3.9.11-8.71.11s-8.71-.05-8.71-.11,3.9-.11,8.71-.11,8.71.05,8.71.11Z" style="fill:#e0e0e0; stroke-width:0px;"/><rect x="28.52" y="9.93" width="36.65" height="4.35" style="fill:#006837; stroke-width:0px;"/><rect x="85.28" y="24.65" width="18.3" height="13.06" style="fill:#fafafa; stroke-width:0px;"/><rect x="7.61" y="24.17" width="77.88" height="14" style="fill:#455a64; stroke-width:0px;"/><path d="m84.92,25.12h19.67c.26,0,.47-.21.47-.47h0c0-.26-.21-.47-.47-.47h-19.67v.95Z" style="fill:#455a64; stroke-width:0px;"/><path d="m84.92,37.23h19.71c.24,0,.44.2.44.44v.08c0,.24-.2.44-.44.44h-19.71v-.95h0Z" style="fill:#455a64; stroke-width:0px;"/><path d="m103.58,27.13c0,.06-4.05.11-9.05.11s-9.05-.05-9.05-.11,4.05-.11,9.05-.11,9.05.05,9.05.11Z" style="fill:#e0e0e0; stroke-width:0px;"/><path d="m103.58,29.6c0,.06-4.05.11-9.05.11s-9.05-.05-9.05-.11,4.05-.11,9.05-.11,9.05.05,9.05.11Z" style="fill:#e0e0e0; stroke-width:0px;"/><path d="m103.58,32.07c0,.06-4.05.11-9.05.11s-9.05-.05-9.05-.11,4.05-.11,9.05-.11,9.05.05,9.05.11Z" style="fill:#e0e0e0; stroke-width:0px;"/><path d="m103.58,34.54c0,.06-4.05.11-9.05.11s-9.05-.05-9.05-.11,4.05-.11,9.05-.11,9.05.05,9.05.11Z" style="fill:#e0e0e0; stroke-width:0px;"/><rect x="87.68" y="39.42" width="18.68" height="35.39" style="fill:#ebebeb; stroke-width:0px;"/><rect y="38.18" width="87.68" height="38.38" style="fill:#d9e021; stroke-width:0px;"/><path d="m107.82,76.55h-22.54v-2.49h22.54c.69,0,1.24.56,1.24,1.24h0c0,.69-.56,1.24-1.24,1.24Z" style="fill:#e0e0e0; stroke-width:0px;"/><path d="m85.28,38.18h22.64c.63,0,1.14.51,1.14,1.14v.2c0,.63-.51,1.14-1.14,1.14h-22.64v-2.49h0Z" style="fill:#d9e021; stroke-width:0px;"/><path d="m106.36,44.16c0,.06-4.18.11-9.34.11s-9.34-.05-9.34-.11,4.18-.11,9.34-.11,9.34.05,9.34.11Z" style="fill:#e0e0e0; stroke-width:0px;"/><path d="m106.36,48.7c0,.06-4.18.11-9.34.11s-9.34-.05-9.34-.11,4.18-.11,9.34-.11,9.34.05,9.34.11Z" style="fill:#e0e0e0; stroke-width:0px;"/><path d="m106.36,53.24c0,.06-4.18.11-9.34.11s-9.34-.05-9.34-.11,4.18-.11,9.34-.11,9.34.05,9.34.11Z" style="fill:#e0e0e0; stroke-width:0px;"/><path d="m106.36,57.78c0,.06-4.18.11-9.34.11s-9.34-.05-9.34-.11,4.18-.11,9.34-.11,9.34.05,9.34.11Z" style="fill:#e0e0e0; stroke-width:0px;"/><path d="m106.36,62.32c0,.06-4.18.11-9.34.11s-9.34-.05-9.34-.11,4.18-.11,9.34-.11,9.34.05,9.34.11Z" style="fill:#e0e0e0; stroke-width:0px;"/><path d="m106.36,66.86c0,.06-4.18.11-9.34.11s-9.34-.05-9.34-.11,4.18-.11,9.34-.11,9.34.05,9.34.11Z" style="fill:#e0e0e0; stroke-width:0px;"/><path d="m106.36,71.4c0,.06-4.18.11-9.34.11s-9.34-.05-9.34-.11,4.18-.11,9.34-.11,9.34.05,9.34.11Z" style="fill:#e0e0e0; stroke-width:0px;"/><path d="m30,59.46v2.14c0,2.57-1.29,4.04-3.77,4.04s-3.77-1.47-3.77-4.04v-8.36c0-2.57,1.29-4.04,3.77-4.04s3.77,1.47,3.77,4.04v1.56h-2.39v-1.72c0-1.15-.51-1.58-1.31-1.58s-1.31.44-1.31,1.58v8.68c0,1.15.51,1.56,1.31,1.56s1.31-.41,1.31-1.56v-2.3h2.39Z" style="fill:#ebebeb; stroke-width:0px;"/><path d="m31.33,53.24c0-2.57,1.35-4.04,3.83-4.04s3.83,1.47,3.83,4.04v8.36c0,2.57-1.35,4.04-3.83,4.04s-3.83-1.47-3.83-4.04v-8.36Zm2.53,8.52c0,1.15.5,1.58,1.31,1.58s1.31-.44,1.31-1.58v-8.68c0-1.15-.51-1.58-1.31-1.58s-1.31.44-1.31,1.58v8.68Z" style="fill:#ebebeb; stroke-width:0px;"/><path d="m40.63,49.38h2.53v13.78h4.16v2.3h-6.68v-16.07Z" style="fill:#ebebeb; stroke-width:0px;"/><path d="m48.2,53.24c0-2.57,1.35-4.04,3.83-4.04s3.83,1.47,3.83,4.04v8.36c0,2.57-1.35,4.04-3.83,4.04s-3.83-1.47-3.83-4.04v-8.36Zm2.53,8.52c0,1.15.51,1.58,1.31,1.58s1.31-.44,1.31-1.58v-8.68c0-1.15-.51-1.58-1.31-1.58s-1.31.44-1.31,1.58v8.68Z" style="fill:#ebebeb; stroke-width:0px;"/><path d="m59.91,49.38v12.4c0,1.15.51,1.56,1.31,1.56s1.31-.41,1.31-1.56v-12.4h2.39v12.24c0,2.57-1.29,4.04-3.77,4.04s-3.77-1.47-3.77-4.04v-12.24h2.53Z" style="fill:#ebebeb; stroke-width:0px;"/><path d="m71.92,65.46c-.14-.41-.23-.67-.23-1.97v-2.53c0-1.49-.51-2.04-1.65-2.04h-.87v6.54h-2.53v-16.07h3.81c2.62,0,3.74,1.22,3.74,3.7v1.26c0,1.65-.53,2.73-1.65,3.26,1.26.53,1.68,1.74,1.68,3.42v2.48c0,.78.02,1.35.28,1.95h-2.57Zm-2.76-13.78v4.94h.99c.94,0,1.52-.41,1.52-1.7v-1.58c0-1.15-.39-1.65-1.29-1.65h-1.22Z" style="fill:#ebebeb; stroke-width:0px;"/><path d="m29.46,29.69h-1.84l.1-.48h4.23l-.1.48h-1.83l-.95,4.74h-.54l.95-4.74Z" style="fill:#e0e0e0; stroke-width:0px;"/><path d="m35.49,30.51l-2.86,4.43c-.48.75-.85.98-1.42.98-.37,0-.74-.13-.93-.35l.28-.39c.17.18.4.28.69.28.34,0,.6-.16.9-.63l.28-.42-.98-3.9h.54l.81,3.34,2.14-3.34h.54Z" style="fill:#e0e0e0; stroke-width:0px;"/><path d="m39.85,32.13c0,1.35-.94,2.33-2.22,2.33-.75,0-1.27-.31-1.49-.86l-.45,2.27h-.53l1.07-5.37h.51l-.13.63c.37-.42.89-.66,1.53-.66,1.01,0,1.71.63,1.71,1.65Zm-.54.03c0-.77-.47-1.22-1.29-1.22-.98,0-1.69.77-1.69,1.84,0,.77.47,1.22,1.29,1.22.98,0,1.69-.77,1.69-1.83Z" style="fill:#e0e0e0; stroke-width:0px;"/><path d="m40.46,32.8c0-1.33.95-2.33,2.27-2.33,1.09,0,1.78.64,1.78,1.65,0,1.34-.95,2.33-2.27,2.33-1.09,0-1.78-.66-1.78-1.66Zm3.52-.64c0-.77-.47-1.22-1.29-1.22-.98,0-1.7.77-1.7,1.84,0,.77.47,1.22,1.29,1.22.98,0,1.7-.77,1.7-1.83Z" style="fill:#e0e0e0; stroke-width:0px;"/><path d="m49.59,30.51l-.69,3.44c-.28,1.39-1.01,1.96-2.28,1.96-.74,0-1.34-.21-1.74-.59l.31-.4c.31.32.84.52,1.47.52.99,0,1.51-.46,1.7-1.4l.09-.43c-.37.42-.9.67-1.57.67-1.04,0-1.73-.6-1.73-1.58,0-1.26.93-2.22,2.24-2.22.72,0,1.3.3,1.53.89l.16-.87h.51Zm-.89,1.57c0-.72-.48-1.14-1.3-1.14-.99,0-1.71.73-1.71,1.73,0,.72.48,1.14,1.3,1.14.98,0,1.71-.73,1.71-1.73Z" style="fill:#e0e0e0; stroke-width:0px;"/><path d="m53.04,30.48l-.1.51c-.05,0-.09,0-.15,0-.84,0-1.39.48-1.59,1.45l-.39,1.99h-.53l.78-3.92h.51l-.13.72c.35-.51.86-.74,1.61-.74Z" style="fill:#e0e0e0; stroke-width:0px;"/><path d="m57.54,30.51l-.78,3.92h-.51l.13-.62c-.37.41-.89.66-1.53.66-1.01,0-1.71-.63-1.71-1.66,0-1.34.94-2.33,2.21-2.33.75,0,1.27.31,1.49.85l.16-.82h.53Zm-.88,1.66c0-.77-.47-1.22-1.29-1.22-.98,0-1.7.77-1.7,1.84,0,.77.47,1.22,1.29,1.22.98,0,1.7-.77,1.7-1.83Z" style="fill:#e0e0e0; stroke-width:0px;"/><path d="m62.63,32.13c0,1.35-.94,2.33-2.22,2.33-.75,0-1.27-.31-1.49-.86l-.45,2.27h-.53l1.07-5.37h.51l-.13.63c.37-.42.9-.66,1.53-.66,1.01,0,1.71.63,1.71,1.65Zm-.54.03c0-.77-.47-1.22-1.29-1.22-.98,0-1.69.77-1.69,1.84,0,.77.47,1.22,1.29,1.22.98,0,1.69-.77,1.69-1.83Z" style="fill:#e0e0e0; stroke-width:0px;"/><path d="m67.37,31.75c0,.14-.01.29-.04.45l-.45,2.23h-.53l.45-2.24c.02-.13.04-.25.04-.36,0-.56-.34-.88-1.01-.88-.84,0-1.41.45-1.6,1.37l-.42,2.1h-.53l1.1-5.53h.53l-.44,2.2c.37-.42.89-.62,1.5-.62.89,0,1.4.48,1.4,1.27Z" style="fill:#e0e0e0; stroke-width:0px;"/><path d="m72.33,30.51l-2.86,4.43c-.48.75-.85.98-1.42.98-.37,0-.74-.13-.93-.35l.28-.39c.17.18.4.28.69.28.34,0,.6-.16.9-.63l.28-.42-.98-3.9h.54l.81,3.34,2.14-3.34h.54Z" style="fill:#e0e0e0; stroke-width:0px;"/></g></svg>