<?xml version="1.0" encoding="UTF-8"?><svg id="_Слой_2" xmlns="http://www.w3.org/2000/svg" width="116.8" height="116.71" viewBox="0 0 116.8 116.71"><g id="_Слой_1-2"><path d="m16.16,77.93s-10.32,7.86-.43,18.25c.17.18.41.28.65.28l90.14-.53s7.7-8.63,1.31-18.58l-91.67.59Z" style="fill:#006837; stroke-width:0px;"/><path d="m20.23,96.63s-.06,0-.17,0c-.11-.01-.27-.05-.47-.12-.4-.14-.98-.42-1.51-1-.53-.57-1.02-1.48-.97-2.57.03-1.07.57-2.3,1.66-3.05l.04.28c-1.16-.32-2.17-1.47-2.25-2.84-.07-1.65,1.27-3,2.65-3.18l-.05.29c-1.08-.61-1.67-1.71-1.79-2.7-.12-1.01.25-1.89.69-2.46.45-.58.95-.89,1.31-1.05.18-.08.32-.13.42-.15.1-.02.15-.03.15-.02,0,.02-.19.08-.53.26-.33.18-.8.5-1.2,1.07-.4.56-.72,1.38-.59,2.31.12.92.69,1.93,1.68,2.47l.41.22-.46.06c-1.23.16-2.44,1.41-2.37,2.86.06,1.22.98,2.27,2,2.56l.32.09-.28.19c-1,.67-1.52,1.8-1.57,2.8-.06,1.02.37,1.87.85,2.43.49.57,1.03.87,1.41,1.03.38.16.61.2.6.22Z" style="fill:#e0e0e0; stroke-width:0px;"/><path d="m20.25,93.53s-.07.01-.16-.07c-.09-.09-.15-.27-.13-.5h0s0-.02,0-.02c.07-.22.27-.47.58-.61.3-.15.67-.23,1.07-.25.4-.02.83-.01,1.29.04.23.03.46.06.7.11.23.05.5.1.74.28.17.13.3.32.32.56.02.24-.11.46-.28.58-.33.24-.69.26-1,.3-.62.08-1.2.08-1.67.03-.96-.11-1.48-.42-1.46-.45.02-.05.56.18,1.48.22.46.02,1.01,0,1.61-.09.3-.05.62-.09.84-.26.22-.15.19-.45-.05-.63-.16-.12-.38-.18-.6-.22-.23-.05-.45-.08-.67-.11-.44-.06-.86-.08-1.24-.07-.76,0-1.36.26-1.51.64v-.02c-.03.18,0,.34.05.42.05.08.11.11.1.12Z" style="fill:#e0e0e0; stroke-width:0px;"/><path d="m20.01,87.44s-.07.01-.16-.07c-.09-.09-.15-.27-.13-.5h0s0-.02,0-.02c.07-.22.27-.47.58-.61.3-.15.67-.23,1.07-.25.4-.02.83-.01,1.29.04.23.03.46.06.7.11.23.05.5.1.74.28.17.13.3.32.32.56.02.24-.11.46-.28.58-.33.24-.69.26-1,.3-.62.08-1.2.08-1.67.03-.96-.11-1.48-.42-1.46-.45.02-.05.56.18,1.48.22.46.02,1.01,0,1.61-.09.3-.05.62-.09.84-.26.22-.15.19-.45-.05-.63-.16-.12-.38-.18-.6-.22-.23-.05-.45-.08-.67-.11-.44-.06-.86-.08-1.24-.07-.76,0-1.36.26-1.51.64v-.02c-.03.18,0,.34.05.42.05.08.11.11.1.12Z" style="fill:#e0e0e0; stroke-width:0px;"/><path d="m20.14,81.54s-.07.01-.16-.07c-.09-.09-.15-.27-.13-.5h0s0-.02,0-.02c.07-.22.27-.47.58-.61.3-.15.67-.23,1.07-.25.4-.02.83-.01,1.29.04.23.03.46.06.7.11.23.05.5.1.74.28.17.13.3.32.32.56.02.24-.11.46-.28.58-.33.24-.69.26-1,.3-.62.08-1.2.08-1.67.03-.96-.11-1.48-.42-1.46-.45.02-.05.56.18,1.48.22.46.02,1.01,0,1.61-.09.3-.05.62-.09.84-.26.22-.15.19-.45-.05-.63-.16-.12-.38-.18-.6-.22-.23-.05-.45-.08-.67-.11-.44-.06-.86-.08-1.24-.07-.76,0-1.36.26-1.51.64v-.02c-.03.18,0,.34.05.42.05.08.11.11.1.12Z" style="fill:#e0e0e0; stroke-width:0px;"/><path d="m101.2,77.59s.06,0,.17,0c.11.01.27.05.47.12.4.14.98.42,1.51,1,.53.57,1.02,1.48.97,2.57-.03,1.07-.57,2.3-1.66,3.05l-.04-.28c1.16.32,2.17,1.47,2.25,2.84.07,1.65-1.27,3-2.65,3.18l.05-.28c1.08.61,1.67,1.71,1.79,2.7.12,1.01-.25,1.89-.69,2.46-.45.58-.95.89-1.31,1.05-.18.08-.32.13-.42.15-.1.02-.15.03-.15.02,0-.02.19-.08.53-.26.33-.18.8-.5,1.2-1.07.4-.56.72-1.38.59-2.31-.12-.92-.69-1.93-1.68-2.47l-.41-.22.46-.06c1.23-.16,2.44-1.41,2.37-2.86-.06-1.22-.98-2.27-2.01-2.56l-.32-.09.28-.19c1-.67,1.52-1.8,1.57-2.8.06-1.01-.37-1.87-.85-2.43-.49-.57-1.03-.87-1.41-1.03-.38-.16-.61-.2-.6-.22Z" style="fill:#e0e0e0; stroke-width:0px;"/><path d="m101.18,80.69s.07-.01.16.07c.09.09.15.27.13.5h0s0,.02,0,.02c-.07.22-.27.47-.58.61-.3.15-.67.23-1.07.25-.4.02-.83.01-1.29-.04-.23-.03-.46-.06-.7-.11-.23-.05-.5-.1-.74-.28-.17-.13-.3-.32-.32-.56-.02-.24.11-.46.28-.58.33-.24.69-.26,1-.3.62-.08,1.2-.08,1.67-.03.96.11,1.48.42,1.46.45-.02.05-.56-.18-1.48-.22-.46-.02-1.01,0-1.61.09-.3.05-.62.09-.84.26-.22.15-.19.45.05.63.16.12.38.18.6.22.23.05.45.08.67.11.44.06.86.08,1.24.07.76,0,1.36-.26,1.51-.64v.02c.03-.18,0-.34-.05-.42-.05-.08-.11-.11-.1-.12Z" style="fill:#e0e0e0; stroke-width:0px;"/><path d="m101.42,86.78s.07-.01.16.07c.09.09.15.27.13.5h0s0,.02,0,.02c-.07.22-.27.47-.58.61-.3.15-.67.23-1.07.25-.4.02-.83.01-1.29-.04-.23-.03-.46-.06-.7-.11-.23-.05-.5-.1-.74-.28-.17-.13-.3-.32-.32-.56-.02-.24.11-.46.28-.58.33-.24.69-.26,1-.3.62-.08,1.2-.08,1.67-.03.96.11,1.48.42,1.46.45-.02.05-.56-.18-1.48-.22-.46-.02-1.01,0-1.61.09-.3.05-.62.09-.84.26-.22.15-.19.45.05.63.16.12.38.18.6.22.23.05.45.08.67.11.44.06.86.08,1.24.07.76,0,1.36-.26,1.51-.64v.02c.03-.18,0-.34-.05-.42-.05-.08-.11-.11-.1-.12Z" style="fill:#e0e0e0; stroke-width:0px;"/><path d="m101.3,92.68s.07-.01.16.07c.09.09.15.27.13.5h0s0,.02,0,.02c-.07.22-.27.47-.58.61-.3.15-.67.23-1.07.25-.4.02-.83.01-1.29-.04-.23-.03-.46-.06-.7-.11-.23-.05-.5-.1-.74-.28-.17-.13-.3-.32-.32-.56-.02-.24.11-.46.28-.58.33-.24.69-.26,1-.3.62-.08,1.2-.08,1.67-.03.96.11,1.48.42,1.46.45-.02.05-.56-.18-1.48-.22-.46-.02-1.01,0-1.61.09-.3.05-.62.09-.84.26-.22.15-.19.45.05.63.16.12.38.18.6.22.23.05.45.08.67.11.44.06.86.08,1.24.07.76,0,1.36-.26,1.51-.64v.02c.03-.18,0-.34-.05-.42-.05-.08-.11-.11-.1-.12Z" style="fill:#e0e0e0; stroke-width:0px;"/><path d="m86.72,86.14c0,.09-11.22.16-25.07.16s-25.07-.07-25.07-.16,11.22-.16,25.07-.16,25.07.07,25.07.16Z" style="fill:#e0e0e0; stroke-width:0px;"/><path d="m72.7,89.4c0,.09-5.28.16-11.79.16s-11.79-.07-11.79-.16,5.28-.16,11.79-.16,11.79.07,11.79.16Z" style="fill:#e0e0e0; stroke-width:0px;"/><path d="m30.02.54s-9.5,7.24-.4,16.81c.16.16.38.26.6.25l83.04-.48s7.09-7.95,1.21-17.12L30.02.54Z" style="fill:#006837; stroke-width:0px;"/><path d="m94.33,8.37c0,.09-10.34.16-23.09.16s-23.09-.07-23.09-.16,10.34-.16,23.09-.16,23.09.07,23.09.16Z" style="fill:#e0e0e0; stroke-width:0px;"/><path d="m81.41,11.38c0,.09-4.86.16-10.86.16s-10.86-.07-10.86-.16,4.86-.16,10.86-.16,10.86.07,10.86.16Z" style="fill:#e0e0e0; stroke-width:0px;"/><path d="m102.82,17.13c-.05-.01.18-.95.44-2.49.26-1.54.5-3.68.48-6.06-.03-2.38-.31-4.52-.6-6.05-.29-1.53-.54-2.47-.49-2.48.02,0,.11.22.24.64.14.42.3,1.03.48,1.8.35,1.53.67,3.69.7,6.09.02,2.4-.26,4.57-.58,6.1-.16.77-.31,1.39-.44,1.81-.13.42-.21.65-.23.64Z" style="fill:#e0e0e0; stroke-width:0px;"/><path d="m109.02.17s.15.2.37.6c.11.2.24.45.37.74.13.3.29.63.42,1.02.3.76.57,1.7.79,2.76.2,1.06.34,2.24.36,3.49,0,1.25-.12,2.44-.3,3.5-.2,1.06-.46,2-.74,2.77-.12.39-.28.72-.41,1.02-.12.3-.25.55-.36.75-.21.4-.34.62-.36.61-.06-.03.41-.92.9-2.46.25-.77.48-1.7.67-2.75.17-1.05.28-2.22.27-3.44-.02-1.23-.15-2.39-.33-3.44-.2-1.04-.45-1.97-.71-2.73-.52-1.53-1-2.41-.94-2.44Z" style="fill:#e0e0e0; stroke-width:0px;"/><path d="m42.54,17.24s-.15-.19-.39-.56c-.12-.18-.25-.41-.39-.69-.14-.28-.31-.59-.44-.95-.31-.72-.59-1.61-.81-2.62-.2-1.01-.33-2.15-.32-3.34.02-1.2.18-2.33.41-3.33.25-1,.55-1.89.88-2.6.14-.36.33-.67.47-.94.14-.28.28-.5.41-.68.24-.36.38-.56.4-.55.06.03-.48.84-1.06,2.26-.3.71-.57,1.58-.8,2.57-.21.99-.36,2.1-.38,3.27,0,1.17.11,2.28.29,3.28.2.99.45,1.88.73,2.59.54,1.44,1.06,2.26,1,2.29Z" style="fill:#e0e0e0; stroke-width:0px;"/><path d="m33.58,19.26s-.17-.21-.43-.63c-.13-.21-.28-.47-.43-.78-.15-.31-.35-.66-.5-1.07-.35-.8-.68-1.8-.95-2.93-.25-1.13-.43-2.4-.47-3.75-.02-1.34.1-2.62.3-3.76.22-1.14.5-2.15.82-2.97.14-.42.31-.77.45-1.09.14-.32.28-.59.4-.8.24-.43.38-.66.4-.65.06.03-.47.97-1.03,2.62-.28.82-.54,1.82-.74,2.95-.18,1.13-.29,2.38-.27,3.7.04,1.32.21,2.57.43,3.69.25,1.12.55,2.1.87,2.91.63,1.62,1.2,2.54,1.15,2.57Z" style="fill:#e0e0e0; stroke-width:0px;"/><polygon points="1.11 115.41 .9 96.39 11.25 96.39 11.61 115.41 1.11 115.41" style="fill:#f5f5f5; stroke-width:0px;"/><path d="m10.64,99.77c0,.09-2.15.16-4.81.16s-4.81-.07-4.81-.16,2.15-.16,4.81-.16,4.81.07,4.81.16Z" style="fill:#e0e0e0; stroke-width:0px;"/><path d="m10.64,102.71c0,.09-2.15.16-4.81.16s-4.81-.07-4.81-.16,2.15-.16,4.81-.16,4.81.07,4.81.16Z" style="fill:#e0e0e0; stroke-width:0px;"/><path d="m10.64,105.64c0,.09-2.15.16-4.81.16s-4.81-.07-4.81-.16,2.15-.16,4.81-.16,4.81.07,4.81.16Z" style="fill:#e0e0e0; stroke-width:0px;"/><path d="m10.64,108.58c0,.09-2.15.16-4.81.16s-4.81-.07-4.81-.16,2.15-.16,4.81-.16,4.81.07,4.81.16Z" style="fill:#e0e0e0; stroke-width:0px;"/><path d="m10.64,111.52c0,.09-2.15.16-4.81.16s-4.81-.07-4.81-.16,2.15-.16,4.81-.16,4.81.07,4.81.16Z" style="fill:#e0e0e0; stroke-width:0px;"/><path d="m0,95.76h114.74c1.42,6.3,1.22,13.23,0,20.56H.49v-1.4h6.98c1.82,0,3.3-1.48,3.3-3.3v-11.38c0-1.82-1.48-3.3-3.3-3.3H0v-1.19Z" style="fill:#455a64; stroke-width:0px;"/><path d="m28.03,102.44s.03.08.05.14c.08.28.53,2.65,1.35,7.11.01.03.02.07.02.1,0,.07-.02.14-.06.21-.08.14-.2.21-.34.21-.02,0-.04,0-.07,0-.16-.03-.27-.12-.32-.28l-.46-2.36h-2.36l-1.13,2.37s-.02.05-.04.08c-.11.13-.23.2-.35.2-.08,0-.16-.02-.22-.07-.12-.09-.19-.2-.19-.34,0-.04,0-.08.03-.12.07-.16.19-.42.35-.78,1.65-3.6,2.64-5.73,2.96-6.37.09-.19.23-.29.4-.29.17,0,.29.07.38.21Zm-.51,1.59l-1.27,2.68h1.8l-.53-2.68Z" style="fill:#263238; stroke-width:0px;"/><path d="m30.19,108.78c-.02-.05-.03-.11-.03-.18,0-.06.01-.12.04-.17.06-.13.16-.2.3-.2.13,0,.26.08.38.23.04.05.07.09.11.13.48.59.94.89,1.38.89s.81-.16,1.12-.47c.3-.31.45-.68.45-1.1,0-.37-.1-.68-.29-.94-.15-.21-.42-.43-.81-.65-.41-.24-.65-.38-.73-.44-.18-.12-.32-.25-.45-.38-.31-.33-.46-.74-.46-1.22,0-.06,0-.13.01-.2.05-.52.26-.96.64-1.32.39-.36.85-.54,1.38-.54.23,0,.45.04.66.11.45.15.8.42,1.04.8.04.1.06.18.06.23,0,.06-.02.12-.05.18-.08.13-.18.19-.32.19-.12,0-.21-.03-.26-.1-.35-.42-.73-.64-1.14-.64-.32,0-.6.11-.85.34-.27.26-.41.57-.41.94,0,.23.07.44.21.62.13.16.38.36.75.58.41.24.71.44.91.6.64.51.96,1.12.96,1.81,0,.15-.02.31-.05.46-.11.54-.4,1-.85,1.36-.46.37-.98.55-1.55.55-.37,0-.72-.1-1.07-.29-.47-.27-.84-.67-1.11-1.2Z" style="fill:#263238; stroke-width:0px;"/><path d="m42.07,102.65c0,.07-.02.14-.06.2-.09.12-.21.19-.39.19h-2.35c-.55,4.34-.84,6.59-.87,6.75,0,.02,0,.04-.01.06-.06.24-.2.36-.42.36-.08,0-.16-.02-.22-.07-.13-.09-.2-.23-.2-.43,0-.04.21-1.61.62-4.69.14-1.05.23-1.71.26-1.98h-2.2c-.08,0-.15-.01-.23-.04-.18-.06-.27-.17-.27-.33,0-.08.02-.16.06-.23.08-.14.21-.2.39-.2h5.44s.1.01.15.03c.19.07.28.2.28.38Z" style="fill:#263238; stroke-width:0px;"/><path d="m42.85,109.79c-.05.28-.19.42-.42.42-.08,0-.15-.02-.21-.06-.14-.09-.21-.24-.21-.44.15-1.29.47-3.65.93-7.09,0-.07.05-.13.11-.19.12-.11.26-.16.43-.16.31-.06.64-.09,1.01-.09.26,0,.5.02.72.06.96.17,1.45.71,1.45,1.6,0,.35-.06.67-.17.97-.35.93-1.2,1.61-2.56,2.03l2.84,2.59c.11.12.17.24.18.37,0,.07-.02.14-.06.21-.08.13-.19.2-.33.2-.11,0-.22-.04-.33-.11-.08-.05-1.09-.98-3.04-2.77-.17,1.37-.28,2.19-.32,2.47Zm.89-6.76l-.4,3.08c.49-.07.95-.23,1.38-.48.75-.44,1.13-1.03,1.13-1.77,0-.59-.45-.89-1.35-.9-.07,0-.32.02-.76.07Z" style="fill:#263238; stroke-width:0px;"/><path d="m47.5,106.95c0-.56.08-1.12.24-1.69.25-.88.63-1.61,1.15-2.19.54-.6,1.1-.9,1.69-.9.56,0,1.03.26,1.42.77.41.54.65,1.26.7,2.16.11-.04.28-.12.5-.22.28-.14.49-.21.63-.21.07,0,.13.02.19.05.13.08.19.18.19.33,0,.13-.06.25-.18.37-.25.25-.7.43-1.34.55-.03.38-.1.75-.2,1.12-.24.91-.62,1.65-1.15,2.24-.54.59-1.11.88-1.72.88-.08,0-.15,0-.23-.02-.53-.08-.97-.39-1.31-.94-.38-.61-.58-1.38-.58-2.31Zm.87-.15c0,.62.09,1.17.27,1.63.24.62.59.93,1.06.93.12,0,.24-.03.37-.09.37-.17.73-.55,1.06-1.13.37-.65.61-1.35.7-2.09-.51,0-.98-.15-1.39-.43-.56-.37-.95-.92-1.19-1.65-.56.84-.85,1.79-.86,2.83Zm2.37-3.69c-.09,0-.17.02-.24.06-.19.11-.28.32-.28.65,0,.06,0,.12.02.18.06.38.3.7.71.96.32.19.62.29.9.3-.02-.3-.06-.58-.12-.84-.19-.84-.51-1.27-.98-1.3Z" style="fill:#263238; stroke-width:0px;"/><path d="m59.16,109.81c-.04.27-.17.4-.41.4-.17,0-.32-.1-.44-.3l-2.6-5.95c-.03.28-.07.6-.12.95-.34,2.86-.55,4.48-.62,4.88-.05.28-.19.42-.42.42-.08,0-.15-.02-.22-.07-.13-.09-.2-.23-.2-.43.62-4.71.93-7.07.94-7.09.01-.06.03-.11.06-.16.09-.14.21-.21.38-.21.22,0,.37.07.43.2l2.59,5.82.75-5.63c0-.06.02-.12.05-.18.07-.15.18-.23.34-.23.07,0,.14.02.2.06.13.08.19.2.19.35-.01.12-.03.24-.05.38-.5,4.07-.79,6.33-.87,6.78Z" style="fill:#263238; stroke-width:0px;"/><path d="m60.97,106.95c0-.56.08-1.12.24-1.69.25-.88.63-1.61,1.15-2.19.54-.6,1.1-.9,1.69-.9.56,0,1.03.26,1.42.77.41.54.65,1.26.7,2.16.11-.04.28-.12.5-.22.28-.14.49-.21.63-.21.07,0,.13.02.19.05.13.08.19.18.19.33,0,.13-.06.25-.18.37-.25.25-.7.43-1.34.55-.03.38-.1.75-.2,1.12-.24.91-.62,1.65-1.15,2.24-.54.59-1.11.88-1.72.88-.08,0-.15,0-.23-.02-.53-.08-.97-.39-1.31-.94-.38-.61-.58-1.38-.58-2.31Zm.87-.15c0,.62.09,1.17.27,1.63.24.62.59.93,1.06.93.12,0,.24-.03.37-.09.37-.17.73-.55,1.06-1.13.37-.65.61-1.35.7-2.09-.51,0-.98-.15-1.39-.43-.56-.37-.95-.92-1.19-1.65-.56.84-.85,1.79-.86,2.83Zm2.37-3.69c-.09,0-.17.02-.24.06-.19.11-.28.32-.28.65,0,.06,0,.12.02.18.06.38.3.7.71.96.32.19.62.29.9.3-.02-.3-.06-.58-.12-.84-.19-.84-.51-1.27-.98-1.3Z" style="fill:#263238; stroke-width:0px;"/><path d="m73.35,109.79s0,.01,0,.02c-.04.27-.17.4-.41.4-.08,0-.15-.02-.21-.06-.14-.09-.2-.23-.2-.44,0-.06.16-1.47.49-4.22-.82,1.72-1.46,3.08-1.93,4.07-.1.21-.15.33-.17.35-.1.19-.24.29-.41.3-.03,0-.07,0-.1-.01-.14-.03-.25-.15-.33-.36l-.89-4.37c-.2,1.57-.41,3.01-.62,4.31,0,0,0,.01,0,.02-.04.27-.17.4-.41.4-.08,0-.15-.02-.21-.06-.14-.09-.2-.24-.2-.44,0-.03.24-1.89.73-5.55.13-.95.2-1.46.21-1.53.01-.06.03-.12.06-.17.09-.14.21-.21.37-.21.04,0,.08,0,.12.02.15.04.23.12.25.23.07.38.29,1.5.67,3.36.27,1.34.44,2.21.52,2.6l2.78-5.9s.03-.07.06-.11c.1-.13.22-.19.37-.19.07,0,.13.02.19.05.14.08.21.19.23.35-.01.1-.03.21-.04.35-.5,4.02-.8,6.29-.89,6.79Z" style="fill:#263238; stroke-width:0px;"/><path d="m80.67,102.26c.07,0,.13.02.19.05.14.08.21.19.22.36-.57,4.47-.88,6.89-.94,7.25-.13.76-.38,1.39-.74,1.89-.55.75-1.32,1.13-2.3,1.13-.32,0-.68-.1-1.11-.29-.59-.27-1-.63-1.22-1.07-.03-.06-.05-.13-.05-.2s.02-.14.06-.21c.08-.14.2-.21.36-.21.12,0,.23.06.31.17.51.67,1.1,1.01,1.77,1.01.53,0,.99-.24,1.37-.7.44-.53.69-1.26.76-2.17-.13.21-.3.39-.51.54-.37.27-.79.41-1.24.41-.08,0-.15,0-.23-.02-.53-.08-.97-.39-1.31-.94-.38-.61-.58-1.38-.58-2.31,0-.42.02-.85.06-1.3.07-.7.22-1.69.47-2.98,0-.04.02-.08.04-.12.07-.19.2-.28.37-.28.07,0,.14.02.2.06.14.08.21.19.21.33,0,.21-.06.74-.19,1.58-.18,1.23-.27,2.04-.27,2.41,0,.77.1,1.39.31,1.88.24.56.58.84,1.02.84.04,0,.09,0,.14-.02.34-.07.68-.34,1.03-.83.4-.56.69-1.19.85-1.91l.53-3.94c0-.06.02-.12.05-.17.08-.15.2-.23.36-.23Z" style="fill:#263238; stroke-width:0px;"/><path d="m102.81,106.12c0,3.33-2.7,6.03-6.03,6.03s-6.03-2.7-6.03-6.03,2.7-6.03,6.03-6.03,6.03,2.7,6.03,6.03Z" style="fill:#263238; stroke-width:0px;"/><path d="m95.99,108c0,.54-.44.98-.98.98s-.98-.44-.98-.98.44-.98.98-.98.98.44.98.98Z" style="fill:#455a64; stroke-width:0px;"/><path d="m94.6,105.16c0,.32-.26.57-.57.57s-.57-.26-.57-.57.26-.57.57-.57.57.26.57.57Z" style="fill:#455a64; stroke-width:0px;"/><path d="m90.92,107.59c.03.1-5.16,5.09-3.83,6.15,1.34,1.06,6.97-1.66,11.76-5.54,4.8-3.88,9.18-8.58,7.98-9.83-1.2-1.25-7.2,2.44-7.2,2.44l.72.46s3.63-2.33,4.77-1.42-2.12,4.43-6.74,7.8c-4.61,3.37-9.07,5.73-9.76,4.81-.69-.92,2.57-4,2.57-4l-.29-.87Z" style="fill:#263238; stroke-width:0px;"/><g style="opacity:.3;"><path d="m93.45,101.87c.05.06-.36.41-.82,1.1-.46.69-.95,1.77-.97,3.03-.02,1.26.42,2.37.85,3.07.43.71.83,1.08.78,1.13-.03.04-.52-.24-1.05-.95-.27-.35-.53-.82-.73-1.37-.2-.55-.32-1.2-.31-1.89.02-.69.17-1.33.39-1.88.22-.55.51-1,.79-1.34.56-.69,1.06-.95,1.09-.91Z" style="fill:#455a64; stroke-width:0px;"/></g><path d="m110.78,116.71c-.09,0-.16-4.72-.16-10.54s.07-10.55.16-10.55.16,4.72.16,10.55-.07,10.54-.16,10.54Z" style="fill:#263238; stroke-width:0px;"/><path d="m16.89,116.71c-.09,0-.16-4.72-.16-10.54s.07-10.55.16-10.55.16,4.72.16,10.55-.07,10.54-.16,10.54Z" style="fill:#263238; stroke-width:0px;"/><path d="m112.79,116.71c-.09,0-.16-4.72-.16-10.54s.07-10.55.16-10.55.16,4.72.16,10.55-.07,10.54-.16,10.54Z" style="fill:#263238; stroke-width:0px;"/><path d="m15,116.71c-.09,0-.16-4.72-.16-10.54s.07-10.55.16-10.55.16,4.72.16,10.55-.07,10.54-.16,10.54Z" style="fill:#263238; stroke-width:0px;"/><path d="m101.36,61.15v15.89h-14.91v-15.89h14.91Z" style="fill:#ebebeb; stroke-width:0px;"/><path d="m19.5,59.8c-2.33,5.61-1.99,11.82,0,18.39h82.66v-1.15h-5.27c-4.39,0-7.95-3.56-7.95-7.95h0c0-4.39,3.56-7.95,7.95-7.95h5.56v-1.69l-82.96.34Z" style="fill:#f9a04b; stroke-width:0px;"/><path d="m92.57,62.36c0,.09-16.55.16-36.97.16s-36.97-.07-36.97-.16,16.55-.16,36.97-.16,36.97.07,36.97.16Z" style="fill:#e0e0e0; stroke-width:0px;"/><path d="m93.28,76.17c0,.09-16.64.16-37.17.16s-37.17-.07-37.17-.16,16.64-.16,37.17-.16,37.17.07,37.17.16Z" style="fill:#e0e0e0; stroke-width:0px;"/><g style="opacity:.3;"><path d="m49.83,65.13c1.28,0,1.93.49,1.96,1.44,0,.81-.28,1.43-.82,1.85.83.24,1.24.78,1.24,1.61-.02.34-.09.63-.21.9-.41.88-1.36,1.33-2.86,1.33-.18,0-.45-.01-.82-.03-.07,0-.14-.02-.2-.06-.12-.08-.18-.21-.18-.38l.81-6.25c0-.05.01-.1.04-.15.06-.14.17-.2.33-.2.25-.04.49-.05.71-.05Zm-.77,3.83l-.34,2.6c.17.01.31.02.4.02.48,0,.89-.06,1.25-.17.74-.24,1.11-.69,1.11-1.36,0-.45-.3-.76-.89-.93-.32-.09-.83-.14-1.53-.16Zm.4-3.14l-.32,2.4c.1,0,.19,0,.28,0,1.1-.06,1.66-.6,1.66-1.62,0-.25-.1-.44-.3-.58-.21-.14-.58-.21-1.1-.21-.07,0-.14,0-.22.01Z" style="stroke-width:0px;"/><path d="m53.01,69.35c0-.49.07-.99.21-1.49.22-.78.56-1.42,1.02-1.93.47-.53.97-.79,1.49-.79.49,0,.91.23,1.25.68.36.48.57,1.11.62,1.9.1-.04.25-.1.44-.2.24-.12.43-.18.56-.18.06,0,.11.01.16.05.11.07.17.16.17.29,0,.11-.06.22-.16.33-.22.22-.62.38-1.18.49-.03.33-.08.66-.17.98-.21.8-.55,1.46-1.02,1.97-.47.52-.98.78-1.52.78-.07,0-.13,0-.2-.01-.47-.07-.85-.34-1.16-.83-.34-.54-.51-1.22-.51-2.03Zm.77-.13c0,.55.08,1.03.24,1.44.21.55.52.82.93.82.1,0,.21-.03.32-.08.33-.15.64-.48.93-1,.33-.58.54-1.19.62-1.85-.45,0-.86-.13-1.23-.38-.49-.33-.84-.81-1.05-1.46-.5.74-.75,1.57-.76,2.5Zm2.09-3.25c-.08,0-.15.02-.21.05-.17.1-.25.29-.25.57,0,.05,0,.1.01.16.05.34.26.62.63.84.28.17.54.26.79.27-.02-.26-.05-.51-.11-.74-.17-.74-.45-1.12-.86-1.15Z" style="stroke-width:0px;"/><path d="m63.75,65.56c0,.06-.02.12-.05.17-.08.11-.19.16-.34.16h-2.07c-.48,3.83-.74,5.81-.77,5.95,0,.02,0,.04,0,.05-.05.21-.17.32-.37.32-.07,0-.14-.02-.19-.06-.12-.08-.17-.21-.17-.38,0-.04.18-1.42.55-4.14.12-.92.2-1.51.23-1.75h-1.94c-.07,0-.14-.01-.2-.03-.16-.05-.24-.15-.24-.29,0-.07.02-.14.05-.2.07-.12.19-.18.34-.18h4.8s.09,0,.14.03c.17.06.25.17.25.34Z" style="stroke-width:0px;"/><path d="m65.65,65.37s.03.07.05.12c.07.25.47,2.34,1.19,6.27.01.03.02.06.02.09,0,.06-.02.13-.05.19-.07.12-.17.19-.3.19-.02,0-.04,0-.06,0-.14-.02-.24-.11-.28-.25l-.4-2.08h-2.08l-1,2.09s-.02.05-.03.07c-.1.12-.2.18-.31.18-.07,0-.14-.02-.2-.06-.11-.08-.17-.18-.17-.3,0-.04,0-.07.02-.11.06-.15.17-.37.31-.69,1.45-3.18,2.32-5.05,2.61-5.62.08-.17.2-.25.35-.25.15,0,.26.06.33.18Zm-.45,1.4l-1.12,2.37h1.59l-.46-2.37Z" style="stroke-width:0px;"/><path d="m72.26,71.87c-.03.23-.15.35-.36.36-.15,0-.28-.09-.39-.27l-2.3-5.25c-.03.25-.06.53-.11.83-.3,2.52-.48,3.95-.54,4.31-.04.25-.17.37-.37.37-.07,0-.13-.02-.2-.06-.12-.08-.18-.21-.18-.38.55-4.15.82-6.24.83-6.25,0-.05.03-.1.05-.15.08-.12.19-.19.34-.19.2,0,.32.06.38.18l2.29,5.13.67-4.96c0-.05.02-.11.04-.16.06-.13.16-.2.3-.2.06,0,.12.02.18.05.11.07.17.18.17.31-.01.1-.03.21-.04.33-.44,3.59-.7,5.58-.77,5.98Z" style="stroke-width:0px;"/><path d="m78.71,65.21c.06,0,.11.01.17.04.12.07.19.17.2.31-.5,3.94-.77,6.07-.83,6.39-.12.67-.33,1.23-.65,1.67-.49.66-1.16.99-2.02.99-.28,0-.6-.09-.98-.26-.52-.24-.88-.56-1.08-.94-.03-.05-.04-.11-.04-.18s.02-.12.05-.18c.07-.12.18-.18.31-.18.11,0,.2.05.28.15.45.59.97.89,1.56.89.47,0,.87-.21,1.21-.61.38-.47.61-1.11.67-1.92-.12.18-.27.34-.45.48-.33.24-.69.36-1.09.36-.07,0-.13,0-.2-.01-.47-.07-.85-.34-1.16-.83-.34-.54-.51-1.22-.51-2.03,0-.37.02-.75.05-1.14.06-.62.2-1.49.41-2.63,0-.04.02-.07.03-.1.06-.17.17-.25.33-.25.06,0,.12.02.18.05.12.07.18.17.18.29,0,.19-.06.65-.17,1.39-.16,1.09-.24,1.8-.24,2.12,0,.68.09,1.23.27,1.65.21.5.51.74.9.74.04,0,.08,0,.12-.01.3-.06.6-.3.91-.73.36-.49.61-1.05.75-1.68l.46-3.48c0-.05.02-.11.05-.15.07-.13.17-.2.32-.2Z" style="stroke-width:0px;"/></g><g style="opacity:.3;"><path d="m31.28,72.71c1.04-.37,2.01-1.69,1.98-2.72-.04-1.03-.63-1.97-1.39-2.66-.76-.69-1.7-1.16-2.62-1.62-.76-.38-1.53-.77-2.29-1.15-.25-.12-.54-.25-.79-.13-.25.12-.34.43-.39.71-.33,1.96-.08,4.02.71,5.84.49,1.12,1.15,2.14,2.28,2.52.26.09,1.76-.05,2.5-.78" style="stroke-width:0px;"/></g><path d="m32.42,74.16c-.07.05-1.32-1.68-2.79-3.86-1.47-2.18-2.6-3.99-2.52-4.05s1.32,1.68,2.79,3.86c1.47,2.18,2.6,3.99,2.52,4.04Z" style="fill:#e8505b; stroke-width:0px;"/><path d="m29.44,69.73c-.02.09-.57.04-1.22-.11-.65-.15-1.17-.34-1.15-.43.02-.09.57-.04,1.22.11.65.15,1.17.34,1.15.43Z" style="fill:#e8505b; stroke-width:0px;"/><path d="m30.81,71.64c-.02.09-.57.04-1.22-.11-.66-.15-1.17-.34-1.15-.43.02-.09.57-.04,1.22.11.65.15,1.17.34,1.15.43Z" style="fill:#e8505b; stroke-width:0px;"/><path d="m30.26,70.86c-.09,0-.17-.62-.17-1.4,0-.77.07-1.4.16-1.4.09,0,.17.62.17,1.4,0,.77-.07,1.4-.16,1.4Z" style="fill:#e8505b; stroke-width:0px;"/><g style="opacity:.3;"><path d="m36.34,71.35c.52.69,1.73,1.11,2.49.84.76-.27,1.33-.93,1.66-1.66.34-.73.47-1.54.6-2.33.11-.66.22-1.32.32-1.98.03-.21.06-.46-.09-.62-.15-.16-.4-.15-.62-.12-1.54.21-3.02.88-4.2,1.9-.72.63-1.33,1.36-1.35,2.3,0,.22.45,1.31,1.17,1.69" style="stroke-width:0px;"/></g><path d="m35.52,72.54c-.07-.06.92-1.41,2.21-3.01,1.29-1.61,2.39-2.87,2.46-2.81.07.06-.92,1.41-2.21,3.01-1.29,1.61-2.39,2.87-2.46,2.81Z" style="fill:#e8505b; stroke-width:0px;"/><path d="m38.14,69.27c-.09,0-.2-.41-.24-.94-.04-.52,0-.96.09-.96.09,0,.2.41.24.94.04.52,0,.96-.09.96Z" style="fill:#e8505b; stroke-width:0px;"/><path d="m37.03,70.75c-.09,0-.2-.41-.24-.94-.04-.52,0-.96.09-.96.09,0,.2.41.24.94.04.52,0,.96-.09.96Z" style="fill:#e8505b; stroke-width:0px;"/><path d="m37.48,70.15c-.03-.09.42-.3.99-.49.58-.18,1.07-.26,1.09-.18.03.09-.42.3-.99.49-.58.18-1.07.26-1.09.18Z" style="fill:#e8505b; stroke-width:0px;"/><path d="m101.36,69.31c0,.09-2.78.16-6.2.16s-6.2-.07-6.2-.16,2.77-.16,6.2-.16,6.2.07,6.2.16Z" style="fill:#e0e0e0; stroke-width:0px;"/><path d="m101.36,72.89c0,.09-2.54.16-5.66.16s-5.66-.07-5.66-.16,2.53-.16,5.66-.16,5.66.07,5.66.16Z" style="fill:#e0e0e0; stroke-width:0px;"/><path d="m101.45,76.16c0,.09-1.85.16-4.13.16s-4.13-.07-4.13-.16,1.85-.16,4.13-.16,4.13.07,4.13.16Z" style="fill:#e0e0e0; stroke-width:0px;"/><path d="m101.47,66.09c0,.09-2.67.16-5.96.16s-5.96-.07-5.96-.16,2.67-.16,5.96-.16,5.96.07,5.96.16Z" style="fill:#e0e0e0; stroke-width:0px;"/><path d="m101.36,62.87c0,.09-2.07.16-4.61.16s-4.61-.07-4.61-.16,2.06-.16,4.61-.16,4.61.07,4.61.16Z" style="fill:#e0e0e0; stroke-width:0px;"/><path d="m109.64,42.68v15.89h-30.75v-15.89h30.75Z" style="fill:#ebebeb; stroke-width:0px;"/><path d="m10.33,50.77c0,.14.01.28.02.42.25,4.81,4.33,8.53,9.15,8.53h91.57v-1.15h-21.74c-4.39,0-7.95-3.56-7.95-7.95h0c0-4.39,3.56-7.95,7.95-7.95h21.74v-1.69l-91.6.31c-5.17.02-9.33,4.3-9.14,9.47Z" style="fill:#e8505b; stroke-width:0px;"/><path d="m109.64,50.84c0,.09-6.32.16-14.12.16s-14.12-.07-14.12-.16,6.32-.16,14.12-.16,14.12.07,14.12.16Z" style="fill:#e0e0e0; stroke-width:0px;"/><path d="m109.19,54.42c0,.09-5.98.16-13.36.16s-13.36-.07-13.36-.16,5.98-.16,13.36-.16,13.36.07,13.36.16Z" style="fill:#e0e0e0; stroke-width:0px;"/><path d="m109.64,57.69c0,.09-5.38.16-12.01.16s-12.01-.07-12.01-.16,5.38-.16,12.01-.16,12.01.07,12.01.16Z" style="fill:#e0e0e0; stroke-width:0px;"/><path d="m109.64,47.62c0,.09-6.19.16-13.83.16s-13.83-.07-13.83-.16,6.19-.16,13.83-.16,13.83.07,13.83.16Z" style="fill:#e0e0e0; stroke-width:0px;"/><path d="m109.19,44.4c0,.09-5.51.16-12.31.16s-12.31-.07-12.31-.16,5.51-.16,12.31-.16,12.31.07,12.31.16Z" style="fill:#e0e0e0; stroke-width:0px;"/><g style="opacity:.3;"><path d="m10.33,50.77c0,.14.01.28.02.42.25,4.81,4.33,8.53,9.15,8.53h91.57v-1.15h-21.74c-4.39,0-7.95-3.56-7.95-7.95h0c0-4.39,3.56-7.95,7.95-7.95h21.74v-1.69l-91.6.31c-5.17.02-9.33,4.3-9.14,9.47Z" style="fill:#57bdec; stroke-width:0px;"/></g><path d="m21.43,41.57c.05.05-.9.77-1.95,2.31-1.05,1.52-2.12,3.98-2.09,6.84.04,2.85,1.17,5.29,2.25,6.79,1.09,1.52,2.05,2.21,2,2.26-.01.01-.26-.15-.66-.49-.4-.34-.95-.88-1.53-1.64-1.15-1.49-2.35-3.98-2.39-6.92-.03-2.94,1.11-5.46,2.23-6.97.56-.77,1.09-1.33,1.49-1.68.4-.35.64-.52.65-.5Z" style="fill:#e0e0e0; stroke-width:0px;"/><path d="m18.33,41.23c.05.05-.9.77-1.95,2.31-1.05,1.52-2.12,3.99-2.09,6.84.04,2.85,1.17,5.29,2.25,6.79,1.09,1.52,2.05,2.21,2,2.26-.01.01-.26-.15-.66-.49-.4-.34-.95-.88-1.53-1.64-1.15-1.49-2.35-3.98-2.39-6.92-.03-2.94,1.11-5.46,2.23-6.97.56-.77,1.09-1.33,1.49-1.68.4-.35.64-.52.65-.5Z" style="fill:#e0e0e0; stroke-width:0px;"/><path d="m80.55,41.57c.05.05-.9.77-1.95,2.31-1.05,1.52-2.12,3.98-2.09,6.84.04,2.85,1.17,5.29,2.25,6.79,1.09,1.52,2.05,2.21,2,2.26-.01.01-.26-.15-.66-.49-.4-.34-.95-.88-1.53-1.64-1.15-1.49-2.35-3.98-2.39-6.92-.03-2.94,1.11-5.46,2.23-6.97.56-.77,1.09-1.33,1.49-1.68.4-.35.64-.52.65-.5Z" style="fill:#e0e0e0; stroke-width:0px;"/><path d="m77.45,41.23c.05.05-.9.77-1.95,2.31-1.05,1.52-2.12,3.99-2.09,6.84.04,2.85,1.17,5.29,2.25,6.79,1.09,1.52,2.05,2.21,2,2.26-.01.01-.26-.15-.66-.49-.4-.34-.95-.88-1.53-1.64-1.15-1.49-2.35-3.98-2.39-6.92-.03-2.94,1.11-5.46,2.23-6.97.56-.77,1.09-1.33,1.49-1.68.4-.35.64-.52.65-.5Z" style="fill:#e0e0e0; stroke-width:0px;"/><path d="m31.85,53.01c-.03-2.15-.06-4.31-.09-6.46,0-.56-.02-1.14-.23-1.66-.21-.52-.67-.99-1.23-1.04-.81-.36-2.07.32-2.64,1.25-.57.93-.63,2.08-.64,3.17-.01,1.7.07,3.41.25,5.1.08.81.2,1.63.6,2.34.4.7,1.16,1.26,1.97,1.18.8-.07,1.44-.75,1.73-1.5.28-.75.28-1.58.26-2.38Z" style="fill:#e0e0e0; stroke-width:0px;"/><path d="m67.41,51.15c0,.09-6.62.16-14.78.16s-14.79-.07-14.79-.16,6.62-.16,14.79-.16,14.78.07,14.78.16Z" style="fill:#e0e0e0; stroke-width:0px;"/><polygon points="25.71 40.93 25.54 25.87 33.74 25.87 34.02 40.93 25.71 40.93" style="fill:#f5f5f5; stroke-width:0px;"/><path d="m33.26,28.55c0,.09-1.71.16-3.81.16s-3.81-.07-3.81-.16,1.71-.16,3.81-.16,3.81.07,3.81.16Z" style="fill:#e0e0e0; stroke-width:0px;"/><path d="m33.26,30.88c0,.09-1.71.16-3.81.16s-3.81-.07-3.81-.16,1.71-.16,3.81-.16,3.81.07,3.81.16Z" style="fill:#e0e0e0; stroke-width:0px;"/><path d="m33.26,33.2c0,.09-1.71.16-3.81.16s-3.81-.07-3.81-.16,1.71-.16,3.81-.16,3.81.07,3.81.16Z" style="fill:#e0e0e0; stroke-width:0px;"/><path d="m33.26,35.53c0,.09-1.71.16-3.81.16s-3.81-.07-3.81-.16,1.71-.16,3.81-.16,3.81.07,3.81.16Z" style="fill:#e0e0e0; stroke-width:0px;"/><path d="m33.26,37.85c0,.09-1.71.16-3.81.16s-3.81-.07-3.81-.16,1.71-.16,3.81-.16,3.81.07,3.81.16Z" style="fill:#e0e0e0; stroke-width:0px;"/><path d="m24.83,25.37h90.87c1.12,4.99.96,10.48,0,16.28H25.22v-1.11h5.53c1.44,0,2.61-1.17,2.61-2.61v-9.01c0-1.44-1.17-2.61-2.61-2.61h-5.92v-.94Z" style="fill:#f9a04b; stroke-width:0px;"/><path d="m46.59,33.62h1.52c.06,0,.11.01.16.04.11.06.16.16.16.29,0,.04,0,.07-.01.1-.03.13-.06.26-.1.39-.21.69-.53,1.27-.95,1.72-.42.45-.85.67-1.29.67-.06,0-.12,0-.18-.01-.41-.06-.76-.31-1.03-.75-.3-.49-.45-1.09-.45-1.83,0-.43.06-.86.18-1.3.19-.71.49-1.29.9-1.76.43-.48.88-.73,1.37-.73.2,0,.4.04.57.13.39.19.69.56.88,1.11.02.05.04.1.04.15,0,.06-.01.11-.04.16-.07.11-.16.16-.28.16-.03,0-.07,0-.1-.02-.11-.04-.17-.1-.21-.2l-.02-.03c-.05-.13-.11-.25-.18-.36-.2-.29-.44-.43-.73-.43-.17,0-.33.06-.5.18-.32.23-.59.62-.83,1.19-.24.58-.36,1.15-.36,1.71s.09.99.26,1.34c.19.4.46.59.79.59.23,0,.47-.15.73-.44.32-.36.58-.83.78-1.41-.7,0-1.06,0-1.09-.01-.24-.04-.36-.16-.36-.37,0-.04.02-.08.03-.11.06-.12.17-.18.34-.18Z" style="fill:#fafafa; stroke-width:0px;"/><path d="m51.75,30.66s.03.07.04.11c.06.22.42,2.1,1.07,5.63,0,.03.02.05.02.08,0,.06-.01.11-.04.17-.06.11-.16.17-.27.17-.02,0-.03,0-.05,0-.13-.02-.21-.1-.25-.22l-.36-1.87h-1.87l-.9,1.88s-.02.04-.03.06c-.09.11-.18.16-.28.16-.06,0-.12-.02-.18-.05-.1-.07-.15-.16-.15-.27,0-.03,0-.06.02-.1.06-.13.15-.34.28-.62,1.31-2.85,2.09-4.54,2.34-5.05.07-.15.18-.23.32-.23.13,0,.23.06.3.16Zm-.41,1.26l-1.01,2.12h1.43l-.42-2.12Z" style="fill:#fafafa; stroke-width:0px;"/><path d="m56.82,36.82h-2.74c-.06,0-.12-.02-.17-.05-.08-.06-.13-.17-.15-.34h0c0-.12.25-1.98.76-5.61,0-.04,0-.08.02-.12.06-.13.16-.2.29-.2.05,0,.1.01.15.04.11.06.17.16.17.29-.02.25-.09.76-.19,1.54-.31,2.39-.48,3.66-.49,3.79h2.33c.06,0,.12.01.18.03.14.06.21.16.21.31,0,.04,0,.07-.02.11-.05.13-.16.2-.34.23Z" style="fill:#fafafa; stroke-width:0px;"/><path d="m60.56,30.66s.03.07.04.11c.06.22.42,2.1,1.07,5.63,0,.03.02.05.02.08,0,.06-.01.11-.04.17-.06.11-.16.17-.27.17-.02,0-.03,0-.05,0-.13-.02-.21-.1-.25-.22l-.36-1.87h-1.87l-.9,1.88s-.02.04-.03.06c-.09.11-.18.16-.28.16-.06,0-.12-.02-.18-.05-.1-.07-.15-.16-.15-.27,0-.03,0-.06.02-.1.06-.13.15-.34.28-.62,1.31-2.85,2.09-4.54,2.34-5.05.07-.15.18-.23.31-.23.13,0,.23.06.3.16Zm-.41,1.26l-1.01,2.12h1.43l-.42-2.12Z" style="fill:#fafafa; stroke-width:0px;"/><path d="m64.93,33.9c.21.59.38,1.05.49,1.37.28.78.42,1.19.42,1.24,0,.06-.02.11-.05.17-.07.1-.16.15-.27.15-.12,0-.21-.08-.27-.22-.02-.06-.04-.1-.05-.14-.15-.34-.39-.98-.73-1.93l-1.55,2.12c-.09.11-.18.17-.29.17-.06,0-.11-.01-.17-.04-.1-.06-.16-.15-.16-.27,0-.03,0-.05,0-.07,0-.05.06-.14.16-.26.52-.67,1.09-1.47,1.72-2.4-.07-.18-.13-.35-.19-.52-.58-1.56-.87-2.37-.87-2.42,0-.06.01-.12.04-.17.06-.11.15-.16.26-.16.14,0,.24.06.31.18l.91,2.47,1.83-2.49c.08-.1.18-.15.29-.15.05,0,.1.01.15.04.11.06.16.16.16.29,0,.05-.01.1-.03.15l-2.12,2.91Z" style="fill:#fafafa; stroke-width:0px;"/><path d="m71.7,30.52c.05,0,.1.01.15.04.11.06.17.15.17.28-.45,3.54-.7,5.45-.74,5.74-.1.6-.3,1.1-.59,1.5-.44.6-1.04.89-1.82.89-.25,0-.54-.08-.88-.23-.47-.22-.79-.5-.97-.85-.02-.05-.04-.1-.04-.16s.01-.11.05-.16c.06-.11.16-.16.28-.16.1,0,.18.05.25.13.41.53.87.8,1.4.8.42,0,.78-.19,1.09-.55.35-.42.55-.99.6-1.72-.11.16-.24.31-.4.43-.3.21-.62.32-.98.32-.06,0-.12,0-.18-.01-.42-.06-.76-.31-1.04-.75-.3-.49-.46-1.1-.46-1.83,0-.33.01-.67.04-1.03.05-.55.18-1.34.37-2.36,0-.03.01-.06.03-.09.06-.15.15-.22.29-.22.05,0,.11.02.16.04.11.06.16.15.16.26,0,.17-.05.58-.15,1.25-.14.98-.22,1.61-.22,1.91,0,.61.08,1.1.24,1.49.19.45.46.67.81.67.04,0,.07,0,.11-.01.27-.05.54-.27.82-.66.32-.44.55-.94.68-1.51l.42-3.12s.02-.1.04-.14c.06-.12.16-.18.29-.18Z" style="fill:#fafafa; stroke-width:0px;"/><path d="m112.57,41.96c-.09,0-.16-3.74-.16-8.35s.07-8.35.16-8.35.16,3.74.16,8.35-.07,8.35-.16,8.35Z" style="fill:#263238; stroke-width:0px;"/><path d="m38.21,41.96c-.09,0-.16-3.74-.16-8.35s.07-8.35.16-8.35.16,3.74.16,8.35-.07,8.35-.16,8.35Z" style="fill:#263238; stroke-width:0px;"/><path d="m114.16,41.96c-.09,0-.16-3.74-.16-8.35s.07-8.35.16-8.35.16,3.74.16,8.35-.07,8.35-.16,8.35Z" style="fill:#263238; stroke-width:0px;"/><path d="m36.72,41.96c-.09,0-.16-3.74-.16-8.35s.07-8.35.16-8.35.16,3.74.16,8.35-.07,8.35-.16,8.35Z" style="fill:#263238; stroke-width:0px;"/><path d="m90.53,28.01v-.03c2.47,2,5.84,4.72,9.59,7.75l.08.07-.11.03c-.41.11-.84.22-1.28.34-2.92.77-5.68,1.49-8.11,2.13h-.02s-.02,0-.02,0c-3.01-1.28-5.56-2.36-7.35-3.12-.89-.38-1.59-.68-2.08-.89-.24-.1-.42-.18-.55-.24-.06-.03-.1-.05-.14-.06-.03-.01-.05-.02-.05-.02,0,0,.02,0,.05.02.04.01.08.03.14.06.13.05.32.13.56.23.49.2,1.2.5,2.09.87,1.8.75,4.35,1.82,7.37,3.08h-.03c2.43-.64,5.19-1.37,8.11-2.14.44-.12.87-.23,1.28-.34l-.02.1c-3.74-3.04-7.11-5.76-9.58-7.77h-.01s0-.03,0-.03" style="fill:#e0e0e0; stroke-width:0px;"/><polygon points="99.25 34.53 99.78 35.02 100.48 34.87 100.17 35.52 100.53 36.14 99.82 36.05 99.34 36.58 99.21 35.88 98.55 35.59 99.18 35.24 99.25 34.53" style="fill:#e0e0e0; stroke-width:0px;"/><polygon points="90.04 37.58 90.4 37.88 90.85 37.75 90.67 38.18 90.93 38.57 90.47 38.54 90.18 38.91 90.06 38.45 89.63 38.29 90.02 38.04 90.04 37.58" style="fill:#e0e0e0; stroke-width:0px;"/><polygon points="79.87 33.4 80.44 33.44 80.79 32.99 80.93 33.54 81.47 33.74 80.98 34.05 80.96 34.62 80.52 34.25 79.97 34.41 80.18 33.88 79.87 33.4" style="fill:#e0e0e0; stroke-width:0px;"/><polygon points="103.56 28.13 104.13 28.17 104.48 27.72 104.62 28.27 105.16 28.47 104.68 28.78 104.66 29.35 104.22 28.98 103.67 29.14 103.88 28.61 103.56 28.13" style="fill:#e0e0e0; stroke-width:0px;"/><polygon points="90.07 27.76 90.43 27.78 90.66 27.5 90.75 27.85 91.09 27.97 90.78 28.17 90.77 28.53 90.49 28.3 90.14 28.4 90.27 28.06 90.07 27.76" style="fill:#e0e0e0; stroke-width:0px;"/><path d="m104.36,28.53s-3.11-.07-6.94-.23c-3.83-.16-6.94-.33-6.93-.36,0-.04,3.11.07,6.94.23,3.83.16,6.93.33,6.93.36Z" style="fill:#e0e0e0; stroke-width:0px;"/><path d="m107.85,25.33H15.69c-1.21-2.74-1.5-5.34,0-7.67h92.16c1.21,2.79,1.11,5.33,0,7.67Z" style="fill:#455a64; stroke-width:0px;"/><rect x="34.77" y="19.85" width="49.93" height="2.79" style="fill:#ebebeb; stroke-width:0px;"/><path d="m19.23,25.37s-.36-.29-.72-.93c-.37-.63-.74-1.6-.84-2.72-.1-1.12.1-2.14.35-2.83.25-.69.52-1.06.55-1.04.05.02-.14.43-.33,1.11-.19.68-.34,1.66-.25,2.73.1,1.07.41,2.01.72,2.64.3.64.56,1,.52,1.04Z" style="fill:#e0e0e0; stroke-width:0px;"/><path d="m21.22,25.37s-.36-.29-.72-.93c-.37-.63-.74-1.6-.84-2.72-.1-1.12.1-2.14.35-2.83.25-.69.52-1.06.55-1.04.05.02-.14.43-.33,1.11-.19.68-.34,1.66-.25,2.73.1,1.07.41,2.01.72,2.64.3.64.56,1,.52,1.04Z" style="fill:#e0e0e0; stroke-width:0px;"/><path d="m104.12,25.19c-.1-.03.66-1.63.65-3.75.03-2.12-.71-3.72-.61-3.76.06-.05.96,1.55.94,3.76,0,2.21-.92,3.8-.98,3.75Z" style="fill:#e0e0e0; stroke-width:0px;"/><path d="m102.41,25.18c-.1-.02.29-1.64.28-3.67,0-2.03-.39-3.65-.29-3.67.07-.03.62,1.59.62,3.67,0,2.08-.53,3.7-.61,3.67Z" style="fill:#e0e0e0; stroke-width:0px;"/></g></svg>