<?xml version="1.0" encoding="UTF-8"?><svg id="_Слой_2" xmlns="http://www.w3.org/2000/svg" width="134.85" height="92.59" viewBox="0 0 134.85 92.59"><g id="_Слой_1-2"><polygon points="5.21 52.18 5.21 92.59 64.31 92.59 129.49 92.59 129.49 52.18 5.21 52.18" style="fill:#d69774; stroke-width:0px;"/><polygon points="0 40.88 0 52.18 133.84 52.18 133.84 40.88 64.31 40.88 0 40.88" style="fill:#d69774; stroke-width:0px;"/><polygon points="66.92 92.59 129.49 92.59 129.49 52.18 133.84 52.18 133.84 40.88 64.31 40.88 64.31 51.13 66.92 92.59" style="fill:#d69774; stroke-width:0px;"/><rect x="22.6" y="58.69" width="25.2" height="6.08" style="fill:#4d4d4d; stroke-width:0px;"/><rect x="19.35" y="72.38" width="32.36" height="12.85" style="fill:#4d4d4d; stroke-width:0px;"/><path d="m134.85,52.06c0,.34-30.05.62-67.11.62S.62,52.4.62,52.06s30.05-.62,67.12-.62,67.11.28,67.11.62Z" style="fill:#263238; stroke-width:0px;"/><path d="m68.6,92.44c-.34,0-.62-8.96-.62-20.01s.28-20.02.62-20.02.62,8.96.62,20.02-.28,20.01-.62,20.01Z" style="fill:#263238; stroke-width:0px;"/><polygon points="16.68 8.93 16.68 40.88 63.39 40.88 114.92 40.88 114.92 8.93 16.68 8.93" style="fill:#455a64; stroke-width:0px;"/><polygon points="12.55 0 12.55 8.93 118.36 8.93 118.36 0 63.39 0 12.55 0" style="fill:#455a64; stroke-width:0px;"/><polygon points="65.46 40.88 114.92 40.88 114.92 8.93 118.36 8.93 118.36 0 63.39 0 63.39 8.11 65.46 40.88" style="fill:#455a64; stroke-width:0px;"/><rect x="30.42" y="14.08" width="19.92" height="4.81" style="fill:#4d4d4d; stroke-width:0px;"/><rect x="27.85" y="24.9" width="25.58" height="10.15" style="fill:#4d4d4d; stroke-width:0px;"/><path d="m119.16,8.84c0,.34-23.76.62-53.06.62s-53.06-.28-53.06-.62,23.75-.62,53.06-.62,53.06.28,53.06.62Z" style="fill:#263238; stroke-width:0px;"/><path d="m66.78,40.76c-.34,0-.62-7.08-.62-15.82s.28-15.82.62-15.82.62,7.08.62,15.82-.28,15.82-.62,15.82Z" style="fill:#263238; stroke-width:0px;"/><path d="m118.87,40.61c0,.34-22.87.62-51.07.62s-51.08-.28-51.08-.62,22.86-.62,51.08-.62,51.07.28,51.07.62Z" style="fill:#263238; stroke-width:0px;"/></g></svg>