<?xml version="1.0" encoding="UTF-8"?><svg id="_Слой_2" xmlns="http://www.w3.org/2000/svg" width="53.56" height="80.99" viewBox="0 0 53.56 80.99"><g id="_Слой_1-2"><path d="m15.77,53.41c-7.86-4.55-12.06-15.15-12.37-23.82-.31-8.67,3.3-17.72,10.41-22.69,7.49-5.24,18.16-5.14,25.85-.21,7.7,4.93,12.2,14.23,11.86,23.36s-5.33,17.85-12.69,23.27" style="fill:#486950; stroke-width:0px;"/><path d="m28.31,54.25c-.05,0-.1-.71-.15-1.98-.04-1.42-.09-3.23-.15-5.41-.12-4.57-.3-10.87-.6-17.83-.31-6.96-.68-13.26-.97-17.82-.13-2.17-.24-3.98-.32-5.4-.07-1.28-.08-1.98-.03-1.99.05,0,.16.69.32,1.96.16,1.27.35,3.11.56,5.39.42,4.55.88,10.85,1.18,17.83.31,6.97.4,13.29.39,17.86,0,2.29-.04,4.14-.08,5.41-.04,1.28-.09,1.98-.14,1.98Z" style="fill:#fff; stroke-width:0px;"/><path d="m5.73,27.62c-.02.2-1.27.27-2.8.14-1.53-.13-2.75-.39-2.74-.59.02-.2,1.27-.26,2.8-.14,1.53.13,2.75.39,2.74.59Z" style="fill:#263238; stroke-width:0px;"/><path d="m6.16,19.85c-.08.19-1.16-.11-2.41-.67-1.25-.55-2.2-1.16-2.12-1.34.08-.19,1.16.11,2.41.67,1.25.55,2.2,1.16,2.12,1.34Z" style="fill:#263238; stroke-width:0px;"/><path d="m10.16,14.07c-.11.17-1.32-.4-2.58-1.45-1.27-1.04-2.06-2.13-1.91-2.27.15-.14,1.15.69,2.38,1.7,1.22,1.01,2.22,1.84,2.11,2.02Z" style="fill:#263238; stroke-width:0px;"/><path d="m14.19,8.62c-.19.08-.77-.83-1.3-2.03-.53-1.2-.81-2.25-.63-2.33.19-.08.77.83,1.3,2.03.53,1.2.81,2.25.63,2.33Z" style="fill:#263238; stroke-width:0px;"/><path d="m20.5,4.76c-.18.08-.81-.88-1.22-2.23-.42-1.34-.45-2.49-.26-2.53.2-.04.55,1.02.96,2.31.4,1.29.71,2.36.52,2.44Z" style="fill:#263238; stroke-width:0px;"/><path d="m31.04.4c.19.07.07.89-.26,1.85-.34.95-.76,1.67-.96,1.6-.19-.07-.07-.89.26-1.85.34-.95.76-1.67.96-1.6Z" style="fill:#263238; stroke-width:0px;"/><path d="m38.86,3.75c.14.15-.36.84-1.12,1.54-.76.7-1.48,1.15-1.62,1-.14-.15.36-.84,1.12-1.54.76-.7,1.48-1.15,1.62-1Z" style="fill:#263238; stroke-width:0px;"/><path d="m45.74,8.2c.11.17-.5.78-1.37,1.37-.87.59-1.66.93-1.78.76-.11-.17.5-.78,1.37-1.37.87-.59,1.66-.93,1.78-.76Z" style="fill:#263238; stroke-width:0px;"/><path d="m50.63,14.82c.08.19-.88.78-2.15,1.32-1.27.54-2.36.83-2.44.64-.08-.19.88-.78,2.15-1.32,1.27-.54,2.36-.83,2.44-.64Z" style="fill:#263238; stroke-width:0px;"/><path d="m52.55,22.05c.03.2-.96.49-2.19.64-1.23.15-2.26.11-2.28-.09-.03-.2.96-.49,2.19-.64,1.23-.15,2.26-.11,2.28.09Z" style="fill:#263238; stroke-width:0px;"/><path d="m53.55,30.95c-.08.19-1.13-.09-2.33-.61-1.21-.53-2.12-1.1-2.04-1.29.08-.19,1.13.09,2.33.61,1.21.53,2.12,1.1,2.04,1.29Z" style="fill:#263238; stroke-width:0px;"/><path d="m52.67,38.58c-.06.19-1.39-.13-2.77-1.04-1.38-.9-2.2-1.98-2.06-2.12.15-.15,1.15.65,2.46,1.5,1.3.86,2.44,1.46,2.36,1.65Z" style="fill:#263238; stroke-width:0px;"/><path d="m48.7,45.53c-.12.16-1.17-.46-2.18-1.55-1.01-1.09-1.55-2.18-1.39-2.29.17-.12.95.75,1.92,1.79.96,1.04,1.77,1.89,1.64,2.05Z" style="fill:#263238; stroke-width:0px;"/><path d="m10.95,46.35c.09.18-1.01.94-2.47,1.7-1.46.76-2.71,1.23-2.81,1.05-.09-.18,1.01-.94,2.47-1.7,1.46-.76,2.71-1.23,2.81-1.05Z" style="fill:#263238; stroke-width:0px;"/><path d="m7.51,40.06c.08.19-.8.77-1.98,1.3-1.18.53-2.2.82-2.28.63-.08-.18.8-.77,1.98-1.3,1.18-.53,2.2-.82,2.28-.63Z" style="fill:#263238; stroke-width:0px;"/><path d="m4.97,34.49c.03.2-1.06.52-2.43.72-1.37.19-2.51.19-2.54-.01-.03-.2,1.06-.52,2.43-.72,1.37-.19,2.51-.19,2.54.01Z" style="fill:#263238; stroke-width:0px;"/><path d="m13.28,31.43c.06.19-1,.69-2.42.84-1.42.16-2.56-.08-2.55-.28.01-.21,1.12-.29,2.47-.45,1.34-.15,2.44-.31,2.5-.11Z" style="fill:#263238; stroke-width:0px;"/><path d="m20.19,24.55c.06.19-.79.62-1.93.73-1.14.11-2.05-.14-2.03-.34.02-.21.9-.29,1.96-.39,1.06-.1,1.94-.19,2,0Z" style="fill:#263238; stroke-width:0px;"/><path d="m21.51,19.05c-.07.19-.98.05-2.05-.32-1.06-.37-1.87-.82-1.81-1.01.07-.19.98-.05,2.05.32,1.06.37,1.87.82,1.8,1.01Z" style="fill:#263238; stroke-width:0px;"/><path d="m24.04,13.48c-.14.14-.77-.27-1.22-1.05-.45-.78-.5-1.53-.3-1.58.2-.06.54.52.94,1.22.4.69.73,1.28.58,1.42Z" style="fill:#263238; stroke-width:0px;"/><path d="m20.99,36.27c.05.2-.74.56-1.77.81-.59.14-1.13.22-1.49.22l-.15-.43c.27-.05.44-.04.47.04.03.08-.07.21-.29.37l-.15-.43c.31-.16.83-.35,1.42-.49,1.03-.25,1.9-.29,1.95-.1Z" style="fill:#263238; stroke-width:0px;"/><path d="m22.41,46.03c.07.19-.94.76-2.26,1.28-1.32.52-2.45.79-2.53.6-.07-.19.94-.76,2.26-1.28,1.32-.52,2.45-.79,2.53-.6Z" style="fill:#263238; stroke-width:0px;"/><path d="m14.61,41.7c.07.19-.61.6-1.51.9-.9.31-1.68.4-1.74.2-.07-.19.61-.6,1.51-.9.9-.31,1.68-.4,1.74-.2Z" style="fill:#263238; stroke-width:0px;"/><path d="m15.21,21.83c-.05.2-1.22.08-2.58-.4-1.36-.48-2.34-1.13-2.26-1.31.09-.19,1.18.15,2.5.62,1.32.47,2.38.9,2.33,1.1Z" style="fill:#263238; stroke-width:0px;"/><path d="m34.09,19.67c.11.17-.55.8-1.48,1.41-.93.61-1.77.97-1.88.8s.55-.8,1.48-1.41c.93-.61,1.77-.97,1.88-.8Z" style="fill:#263238; stroke-width:0px;"/><path d="m35.11,29.47c.04.2-.65.51-1.55.7-.9.19-1.66.18-1.7-.02s.65-.51,1.55-.7c.9-.19,1.66-.18,1.7.02Z" style="fill:#263238; stroke-width:0px;"/><path d="m36.3,40.49c-.09.18-1.09-.1-2.23-.63-1.15-.53-2.01-1.11-1.93-1.3.09-.18,1.09.1,2.23.63,1.15.53,2.01,1.11,1.93,1.3Z" style="fill:#263238; stroke-width:0px;"/><path d="m33.78,51.22c-.16.13-.81-.4-1.45-1.19-.64-.78-1.04-1.52-.88-1.65.16-.13.81.4,1.45,1.19.64.78,1.04,1.52.88,1.65Z" style="fill:#263238; stroke-width:0px;"/><path d="m33.26,12.46c.12.16-.3.7-1.04,1.07-.73.37-1.42.39-1.48.2-.06-.2.48-.52,1.15-.86.66-.33,1.24-.57,1.37-.41Z" style="fill:#263238; stroke-width:0px;"/><path d="m42.51,22.34c.07.19-.79.66-1.96.82-1.17.16-2.12-.05-2.11-.25.01-.21.92-.32,2.01-.48,1.09-.15,1.99-.29,2.06-.09Z" style="fill:#263238; stroke-width:0px;"/><path d="m40.67,13.47c.09.18-.76.78-1.97,1.17-1.21.39-2.25.39-2.28.19-.03-.2.91-.52,2.06-.89,1.15-.36,2.1-.65,2.19-.47Z" style="fill:#263238; stroke-width:0px;"/><path d="m44.53,36.08c0,.2-1.46.33-3.21,0-1.75-.31-3.07-.95-3-1.13.07-.2,1.44.1,3.13.41,1.69.31,3.08.51,3.08.72Z" style="fill:#263238; stroke-width:0px;"/><path d="m41.1,48.97c-.12.16-1.19-.47-2.26-1.55-1.07-1.07-1.7-2.15-1.54-2.27.16-.13,1.02.71,2.06,1.75,1.03,1.04,1.87,1.9,1.74,2.07Z" style="fill:#263238; stroke-width:0px;"/><path d="m25.98,2.98c.11.16-2.93,1.39-6.45,5.1-3.52,3.63-7.14,10.03-8.04,17.77-.43,3.85-.06,7.57.48,10.89.57,3.32,1.34,6.28,2.04,8.74.71,2.46,1.36,4.43,1.79,5.8.44,1.37.67,2.13.62,2.14-.05.02-.37-.71-.89-2.05-.52-1.34-1.25-3.29-2.02-5.74-.77-2.45-1.59-5.41-2.21-8.77-.59-3.35-.99-7.13-.55-11.09.91-7.91,4.71-14.44,8.39-18.04,1.83-1.83,3.56-3.05,4.81-3.76.61-.39,1.14-.59,1.47-.77.34-.16.53-.23.54-.21Z" style="fill:#fff; stroke-width:0px;"/><path d="m36.02,53.88c-.16-.08,1.65-2.87,3.31-7.91,1.7-4.97,3.11-12.33,1.98-20.33-.53-3.99-1.68-7.68-3.13-10.84-1.51-3.11-3.45-5.67-5.35-7.44-1.96-1.74-3.89-2.73-5.24-3.31-1.36-.57-2.18-.7-2.17-.76,0-.02.21-.01.6.05.39.07.96.2,1.67.45,1.41.51,3.4,1.45,5.48,3.19,2.02,1.8,4.02,4.35,5.61,7.54,1.52,3.21,2.71,6.97,3.25,11.03,1.16,8.14-.37,15.62-2.22,20.6-.42,1.27-.95,2.36-1.35,3.34-.47.95-.87,1.77-1.22,2.43-.75,1.29-1.18,1.99-1.23,1.96Z" style="fill:#fff; stroke-width:0px;"/><polygon points="7.51 52.14 48.08 52.14 48.33 60.26 7.51 60.26 7.51 52.14" style="fill:#263238; stroke-width:0px;"/><polygon points="10.95 56.2 13.28 80.99 42.95 80.99 45.33 56.47 10.95 56.2" style="fill:#263238; stroke-width:0px;"/><path d="m48.33,60.36c0,.2-9.14.37-20.41.37s-20.41-.16-20.41-.37,9.14-.37,20.41-.37,20.41.16,20.41.37Z" style="fill:#455a64; stroke-width:0px;"/><path d="m44.21,67.91s-.23.59-.87,1.55c-.64.95-1.65,2.28-3.15,3.72l-.19.18-.18-.19c-1.95-2.05-4.64-4.56-7.95-6.96l.45-.02c-1.13.99-2.31,2.03-3.53,3.09-1.44,1.25-2.84,2.47-4.17,3.63l-.23.2-.23-.19c-2.53-2.12-4.82-4.06-6.78-5.7l.39-.04c-1.4,1.71-2.57,3.14-3.5,4.28-.84,1-1.33,1.54-1.38,1.51-.04-.03.36-.64,1.13-1.7.88-1.17,1.99-2.66,3.31-4.43l.17-.23.23.18c1.98,1.6,4.31,3.5,6.88,5.57h-.46c1.33-1.16,2.72-2.38,4.15-3.64,1.22-1.06,2.4-2.09,3.54-3.08l.22-.19.23.17c3.34,2.46,6.01,5.05,7.91,7.19h-.37c3.01-2.75,4.26-4.98,4.37-4.89Z" style="fill:#455a64; stroke-width:0px;"/></g></svg>