<?xml version="1.0" encoding="UTF-8"?><svg id="_Слой_2" xmlns="http://www.w3.org/2000/svg" width="153.15" height="153.15" viewBox="0 0 153.15 153.15"><g id="_Слой_1-2"><circle cx="76.57" cy="76.57" r="76.57" transform="translate(-11.28 139.89) rotate(-80.78)" style="fill:#515ee8; stroke-width:0px;"/><circle cx="77.37" cy="75.81" r="69.3" style="fill:#515ee8; stroke-width:0px;"/><circle cx="76.93" cy="76.21" r="69.71" transform="translate(-7.23 144.36) rotate(-83.73)" style="fill:#fafafa; stroke-width:0px;"/><path d="m7.38,71.65s.02.38.02,1.13c0,.77,0,1.87-.01,3.32,0,.73-.01,1.54-.02,2.44.03.9.16,1.87.25,2.93.1,1.06.2,2.2.31,3.42.06,1.23.43,2.49.66,3.85.87,5.46,2.96,11.97,6.48,18.97,3.56,6.97,8.86,14.35,16.33,20.82.94.8,1.89,1.61,2.85,2.43,1.01.76,2.07,1.46,3.13,2.21,1.08.71,2.09,1.55,3.25,2.18,1.15.65,2.31,1.3,3.48,1.96.59.33,1.18.66,1.77.99.62.27,1.25.55,1.87.83,1.26.55,2.52,1.11,3.8,1.68,1.29.52,2.66.9,4.01,1.36,1.36.4,2.69.98,4.13,1.22,2.84.59,5.69,1.37,8.69,1.59,1.49.15,2.98.39,4.5.47,1.52.02,3.05.04,4.6.06.77,0,1.55.05,2.32,0,.77-.07,1.55-.14,2.33-.2,1.56-.15,3.14-.23,4.71-.45,3.11-.63,6.31-1.04,9.41-2.1l2.35-.69c.39-.12.79-.22,1.18-.36l1.14-.46c1.53-.62,3.07-1.24,4.61-1.86,1.51-.7,2.97-1.53,4.48-2.29.74-.41,1.52-.74,2.23-1.21l2.14-1.39c2.94-1.75,5.56-4,8.29-6.15,1.25-1.21,2.51-2.42,3.77-3.64l.95-.92.86-1,1.72-2.02,1.73-2.02,1.54-2.18,1.54-2.2.77-1.1c.24-.38.45-.78.67-1.17.89-1.57,1.78-3.14,2.67-4.72.74-1.66,1.47-3.33,2.21-5,2.71-6.8,4.41-14.09,5-21.59.39-7.51-.33-14.97-2.13-22.07-.52-1.76-1.03-3.51-1.54-5.25-.68-1.69-1.36-3.36-2.03-5.03l-.51-1.25-.62-1.19-1.24-2.38-1.24-2.37-1.45-2.23-1.44-2.22-.73-1.1-.82-1.03c-1.09-1.37-2.18-2.74-3.26-4.11-2.42-2.5-4.73-5.07-7.41-7.19l-1.94-1.66c-.64-.56-1.37-.99-2.05-1.49-1.39-.95-2.73-1.97-4.14-2.86-1.45-.82-2.89-1.64-4.33-2.45l-1.07-.61c-.37-.18-.75-.34-1.12-.51l-2.24-.99c-2.93-1.45-6.05-2.28-9.05-3.31-1.53-.42-3.08-.71-4.61-1.06-.76-.17-1.53-.34-2.28-.51-.76-.15-1.54-.2-2.3-.3-1.53-.18-3.06-.36-4.57-.54-1.51-.12-3.03-.08-4.52-.12-3-.18-5.93.22-8.82.44-1.45.05-2.85.45-4.25.67-1.4.28-2.8.47-4.15.82-1.34.39-2.67.78-3.99,1.16-.66.19-1.31.38-1.97.57-.63.25-1.26.5-1.89.75-1.25.5-2.49,1-3.71,1.49-1.24.47-2.35,1.17-3.51,1.73-1.14.6-2.29,1.16-3.39,1.78-1.06.69-2.11,1.36-3.14,2.04-8.25,5.43-14.47,12.06-18.91,18.51-4.41,6.47-7.33,12.66-8.91,17.96-.4,1.32-.93,2.53-1.15,3.73-.27,1.19-.52,2.31-.76,3.35-.22,1.04-.48,1.99-.63,2.88-.11.89-.21,1.7-.3,2.42-.18,1.43-.32,2.52-.42,3.29-.1.74-.17,1.12-.17,1.12,0,0,.02-.38.09-1.13.08-.77.2-1.87.35-3.3.08-.73.17-1.54.26-2.43.14-.89.38-1.85.59-2.89.22-1.04.47-2.17.72-3.37.21-1.22.74-2.43,1.13-3.76,1.54-5.33,4.44-11.57,8.84-18.11,4.43-6.51,10.67-13.21,18.96-18.72,1.04-.68,2.09-1.37,3.16-2.06,1.1-.63,2.26-1.2,3.41-1.81,1.17-.57,2.29-1.28,3.53-1.76,1.23-.5,2.48-1,3.74-1.51.63-.25,1.26-.51,1.9-.76.66-.19,1.32-.39,1.98-.58,1.33-.39,2.67-.79,4.02-1.19,1.36-.36,2.78-.55,4.19-.84,1.42-.23,2.82-.63,4.29-.69,2.91-.23,5.87-.64,8.9-.46,1.51.04,3.04,0,4.57.11,1.53.18,3.06.35,4.61.53.77.1,1.56.15,2.33.3.77.17,1.54.34,2.31.51,1.54.36,3.11.64,4.66,1.06,3.03,1.03,6.19,1.87,9.15,3.33l2.27,1c.38.17.76.33,1.13.51l1.09.61c1.45.82,2.91,1.64,4.38,2.47,1.43.9,2.78,1.92,4.19,2.88.69.5,1.43.94,2.07,1.51l1.96,1.67c2.72,2.14,5.05,4.74,7.5,7.26,1.1,1.38,2.2,2.76,3.3,4.15l.83,1.04.73,1.12,1.46,2.25,1.47,2.26,1.26,2.39,1.26,2.41.63,1.21.52,1.26c.68,1.69,1.37,3.39,2.05,5.09.52,1.76,1.04,3.53,1.56,5.31,1.82,7.17,2.56,14.72,2.16,22.31-.6,7.58-2.32,14.96-5.06,21.83-.75,1.69-1.5,3.38-2.24,5.05-.9,1.6-1.8,3.19-2.7,4.78-.23.39-.44.8-.68,1.18l-.78,1.12-1.56,2.22-1.56,2.21-1.75,2.05-1.74,2.04-.87,1.01-.96.93c-1.28,1.23-2.55,2.46-3.81,3.68-2.76,2.18-5.41,4.45-8.38,6.21l-2.16,1.4c-.72.47-1.51.81-2.25,1.22-1.52.77-3,1.61-4.53,2.31-1.56.63-3.12,1.25-4.66,1.88l-1.16.47c-.39.13-.79.24-1.19.36l-2.38.7c-3.12,1.06-6.36,1.48-9.51,2.11-1.59.22-3.18.29-4.75.45-.79.07-1.57.13-2.35.2-.78.05-1.57,0-2.35,0-1.56-.03-3.1-.05-4.64-.07-1.53-.08-3.04-.33-4.54-.48-3.02-.22-5.9-1.02-8.76-1.62-1.45-.25-2.79-.83-4.16-1.25-1.36-.47-2.74-.85-4.04-1.38-1.29-.57-2.57-1.14-3.83-1.7-.63-.28-1.26-.56-1.89-.84-.6-.33-1.19-.67-1.78-1-1.18-.67-2.35-1.33-3.51-1.99-1.17-.63-2.19-1.48-3.27-2.2-1.06-.76-2.13-1.47-3.14-2.24-.97-.83-1.92-1.65-2.86-2.46-7.5-6.54-12.81-14-16.36-21.04-3.51-7.06-5.57-13.62-6.39-19.11-.21-1.37-.57-2.64-.62-3.87-.1-1.22-.19-2.37-.28-3.44-.07-1.06-.19-2.05-.21-2.95.02-.9.04-1.72.06-2.45.04-1.44.07-2.55.09-3.32.02-.75.06-1.13.06-1.13Z" style="fill:#263238; stroke-width:0px;"/><path d="m15.32,76.49C15.32,39.6,44.15,9.45,80.5,7.32c-1.36-.08-2.74-.13-4.12-.13C38.11,7.19,7.09,38.21,7.09,76.49s31.03,69.3,69.3,69.3c1.38,0,2.76-.05,4.12-.13-36.35-2.13-65.18-32.28-65.18-69.16Z" style="fill:#e0e0e0; stroke-width:0px;"/><path d="m76.61,76.75l.21.37-.11.45-.17.44c-4.95,8.2-12.08,20.09-15.39,25.43-1.61,2.56-2.94,4.68-3.95,6.29-.95,1.48-1.5,2.28-1.55,2.25s.4-.89,1.26-2.42c.95-1.65,2.21-3.81,3.72-6.43,3.17-5.41,10.23-17.36,15.17-25.56l.02-.49.32-.24.46-.09Z" style="fill:#d11818; stroke-width:0px;"/><path d="m101.41,77.73c0,.05-.83.11-2.34.15-1.65.03,2.03.08-.58.13-5.45.08-13.05.13-21.62.14h-.42s-.33-.32-.33-.32l-.29-.37c-4.59-8.4-11.27-20.56-14.21-26.1-1.4-2.68-2.56-4.9-3.44-6.58-.8-1.56-1.21-2.44-1.16-2.47s.57.8,1.45,2.31c.94,1.65,2.18,3.83,3.68,6.45,3.07,5.47,9.84,17.58,14.43,25.98l-.02.4.32-.15c8.57.01,16.17.06,21.62.14,2.61.05-1.07.1.58.13,1.51.05,2.34.1,2.34.15Z" style="fill:#263238; stroke:#000; stroke-miterlimit:10; stroke-width:1.5px;"/><path d="m76.3,23.55h.21l-.89,3.47-.74,3.22c-.07.27-.11.45-.11.55,0,.07.04.13.11.18s.24.08.5.11c.19.02.38.04.57.08l-.13.32c-.92-.1-1.57-.15-1.93-.15-.53,0-1.11.05-1.73.15l.11-.32c.22-.06.48-.12.77-.18.28-.06.48-.14.58-.26.14-.15.29-.51.44-1.08l.69-2.66c.23-1.01.34-1.58.34-1.72,0-.15-.06-.23-.19-.23-.09,0-.53.17-1.29.51l-.13-.32c1.12-.53,1.8-.88,2.05-1.06s.51-.38.78-.62Z" style="stroke-width:0px;"/><path d="m79.18,25.55l-.33-.16c.34-.67.69-1.14,1.05-1.4s.77-.39,1.22-.39c.54,0,.97.17,1.29.51.32.34.48.74.48,1.2,0,.28-.06.57-.17.86s-.31.6-.57.91c-.17.21-.64.65-1.42,1.31-1.04.9-1.77,1.63-2.19,2.18.56-.03,1.14-.04,1.74-.04.19,0,.36,0,.5,0,.31.01.53-.02.64-.09s.31-.32.57-.73h.44c-.35.48-.65,1.07-.91,1.77-.3-.06-.63-.1-.96-.13s-.69-.04-1.07-.04c-.44,0-1.09.03-1.95.08l.13-.41c.39-.58.97-1.23,1.75-1.96.77-.72,1.26-1.23,1.49-1.51.32-.42.56-.81.7-1.18.11-.27.17-.54.17-.8,0-.39-.11-.7-.32-.93-.21-.23-.47-.35-.78-.35-.26,0-.51.09-.76.28-.25.18-.5.52-.76,1Z" style="stroke-width:0px;"/><path d="m50.24,29.12h.21s-.8,3.49-.8,3.49l-.66,3.24c-.07.27-.1.46-.1.55,0,.07.04.13.11.17s.24.07.5.09c.19.01.38.03.57.06l-.12.32c-.92-.07-1.57-.11-1.93-.1-.53.01-1.11.08-1.73.19l.1-.32c.22-.07.47-.13.76-.2.28-.06.47-.15.57-.27.14-.15.28-.52.42-1.09l.63-2.67c.2-1.02.3-1.59.29-1.73,0-.15-.07-.22-.19-.22-.09,0-.52.18-1.28.55l-.14-.32c1.1-.56,1.78-.93,2.02-1.11.24-.18.5-.39.76-.64Z" style="stroke-width:0px;"/><path d="m56.03,28.96h.21s-.8,3.49-.8,3.49l-.66,3.24c-.07.27-.1.46-.1.55,0,.07.04.13.11.17s.24.07.5.09c.19.01.38.03.57.06l-.12.32c-.92-.07-1.57-.11-1.93-.1-.53.01-1.11.08-1.73.19l.1-.32c.22-.07.47-.13.76-.2.28-.06.47-.15.57-.27.14-.15.28-.52.42-1.09l.63-2.67c.2-1.02.3-1.59.3-1.72,0-.15-.07-.22-.19-.22-.1,0-.52.18-1.28.55l-.14-.32c1.1-.56,1.77-.93,2.02-1.11s.5-.39.76-.64Z" style="stroke-width:0px;"/><path d="m31.75,47.83h.21s-.92,3.47-.92,3.47l-.77,3.22c-.08.27-.11.45-.11.55,0,.07.03.13.11.18.07.05.24.08.49.11.19.02.38.05.57.08l-.13.32c-.92-.11-1.56-.16-1.93-.16-.53,0-1.11.04-1.73.13l.11-.32c.22-.06.48-.12.77-.17.28-.05.48-.14.58-.25.14-.15.29-.51.45-1.08l.72-2.65c.24-1.01.35-1.58.36-1.71,0-.15-.06-.23-.18-.23-.09,0-.53.17-1.3.5l-.13-.32c1.12-.52,1.8-.87,2.05-1.04.25-.17.51-.38.78-.61Z" style="stroke-width:0px;"/><path d="m36.57,47.94c.61,0,1.1.23,1.47.69.37.45.55,1.13.54,2.03-.01,1.27-.34,2.46-.99,3.55-.65,1.09-1.43,1.63-2.35,1.63-.54,0-.99-.24-1.36-.72-.37-.47-.55-1.11-.54-1.92,0-.95.2-1.87.58-2.78.38-.9.8-1.54,1.26-1.92.47-.38.93-.56,1.38-.56Zm-.12.38c-.27,0-.54.17-.82.52s-.54,1-.78,1.94-.37,1.84-.37,2.69c0,.69.09,1.19.29,1.5s.42.47.68.48c.23,0,.45-.11.68-.33.33-.34.64-.97.91-1.91.27-.94.41-1.88.42-2.83,0-.73-.1-1.28-.32-1.65-.17-.27-.39-.41-.69-.41Z" style="stroke-width:0px;"/><path d="m22.74,80.75l.08-.39c.71-.03,1.32-.16,1.81-.4s.92-.56,1.27-.99c.35-.42.63-.99.85-1.7-.24.2-.48.34-.72.44s-.49.15-.75.15c-.49,0-.88-.17-1.18-.52s-.45-.84-.45-1.48c0-.88.26-1.62.78-2.22.45-.52,1.03-.78,1.72-.78.59,0,1.08.23,1.46.67s.57,1.07.57,1.88c0,.95-.25,1.84-.74,2.69s-1.14,1.5-1.95,1.96-1.72.68-2.75.68Zm4.13-3.96c.12-.67.17-1.22.17-1.65,0-.68-.1-1.17-.31-1.47s-.46-.44-.77-.44c-.33,0-.6.16-.8.48-.26.42-.39,1.03-.39,1.84,0,.66.09,1.13.27,1.41s.4.41.66.41c.17,0,.35-.05.54-.14s.4-.24.62-.43Z" style="stroke-width:0px;"/><path d="m29.86,101.01c.87.55,1.38,1.14,1.52,1.76.14.61,0,1.21-.39,1.82-.4.6-.97.99-1.7,1.16-.6.14-1.1.08-1.48-.18s-.62-.58-.71-.97c-.06-.26-.05-.54.01-.84.07-.3.21-.61.43-.93.17-.25.58-.7,1.24-1.34-.56-.4-.9-.87-1.03-1.4-.12-.54-.02-1.05.3-1.54s.79-.8,1.39-.93c.44-.1.83-.06,1.16.12.34.18.54.43.61.76.08.33.02.68-.16,1.06-.24.49-.63.98-1.19,1.45Zm-.36-.27c.49-.54.8-.95.92-1.24.12-.29.16-.53.11-.75-.06-.25-.19-.44-.42-.57s-.47-.17-.74-.11c-.32.07-.57.25-.74.53-.17.28-.22.58-.15.89.1.44.44.86,1.02,1.25Zm-.4.98c-.56.62-.92,1.13-1.07,1.53-.15.4-.18.77-.1,1.13.08.34.26.61.56.79.29.18.61.23.97.15.26-.06.48-.19.69-.38.21-.2.35-.44.44-.73.09-.29.1-.56.04-.83-.05-.24-.18-.48-.39-.73-.2-.25-.58-.56-1.14-.94Z" style="stroke-width:0px;"/><path d="m50.89,117.74l-.33.02c.01-.06.05-.23.12-.5.13-.53.21-.94.26-1.23.46.04,1.21.02,2.25-.05.71-.05,1.39-.11,2.06-.17-1.3,1.92-2.11,3.16-2.44,3.73-.57.99-.94,1.75-1.13,2.28-.09.26-.15.61-.18,1.06-.03.45-.09.74-.17.88-.09.13-.2.2-.35.21-.13,0-.25-.04-.36-.14s-.17-.24-.18-.4c-.03-.4.09-.89.35-1.45.37-.81,1.25-2.2,2.63-4.16l.76-1.09-2.41.17c-.29.02-.48.07-.57.15s-.2.31-.32.7Z" style="stroke-width:0px;"/><path d="m80.24,124.87l-.08.39c-.71.03-1.32.16-1.81.4s-.92.56-1.27.99-.63.99-.85,1.7c.24-.2.48-.34.73-.44s.49-.14.74-.14c.49,0,.88.17,1.18.51s.45.84.45,1.48c0,.88-.26,1.62-.78,2.22-.45.52-1.03.78-1.72.78-.59,0-1.08-.23-1.46-.68s-.57-1.08-.57-1.88c0-.95.25-1.85.74-2.7s1.14-1.5,1.95-1.96,1.72-.68,2.75-.67Zm-4.13,3.97c-.12.67-.17,1.22-.17,1.65,0,.68.1,1.16.31,1.46s.46.45.77.45c.33,0,.6-.16.8-.48.26-.42.39-1.03.39-1.83,0-.66-.09-1.13-.27-1.41-.18-.28-.4-.41-.66-.41-.16,0-.34.05-.54.14s-.4.24-.63.43Z" style="stroke-width:0px;"/><path d="m102.99,117.28l.35-.04-.34,1c-.03.07-.09.13-.18.17s-.28.09-.59.13c-.91.11-1.53.21-1.84.29-.05.19-.09.35-.11.48-.02.13-.03.22-.03.29.02.16.16.28.42.36.47.13.82.28,1.02.43.21.15.38.36.53.61.14.26.23.56.28.91.11.91-.15,1.76-.78,2.55s-1.38,1.24-2.26,1.35c-.41.05-.73.02-.96-.09-.17-.08-.26-.2-.28-.37-.01-.11,0-.21.07-.29s.14-.13.23-.14c.06,0,.11,0,.14,0,.04,0,.13.05.27.12.19.1.34.16.45.18.11.02.25.02.4,0,.59-.07,1.08-.38,1.49-.93.41-.55.57-1.13.5-1.73-.05-.4-.21-.75-.48-1.05s-.63-.51-1.08-.63c-.19-.06-.32-.11-.38-.18s-.11-.15-.12-.26c-.01-.12.02-.41.11-.87l.27-1.41c.15-.1.36-.18.64-.23l1.36-.19c.31-.05.51-.11.62-.17.1-.06.19-.16.27-.3Z" style="stroke-width:0px;"/><path d="m124.13,102.61l-.09.68-1,.05-.34,2.16-.91.05.34-2.16c-1.39.07-2.28.12-2.66.16-.05,0-.09.01-.12.01-.12,0-.19-.03-.19-.12,0-.03.04-.14.14-.32.44-.86,1.09-1.8,1.95-2.82.86-1.02,1.76-1.96,2.71-2.81h.18s-.21,1.04-.21,1.04l-.44,2.28-.33,1.85.97-.05Zm-1.88.1c.03-.21.09-.59.19-1.13l.48-2.54c-.79.84-1.37,1.49-1.73,1.95s-.79,1.08-1.28,1.85l2.34-.13Z" style="stroke-width:0px;"/><path d="m127.9,74.36l-.26-.19c.44-.5.76-.81.96-.95.37-.24.75-.36,1.14-.36s.71.1.93.3.34.46.34.78c0,.67-.51,1.38-1.52,2.13.35.02.61.08.79.19s.33.27.44.49.17.48.17.79c0,.83-.42,1.6-1.25,2.31-.72.61-1.45.91-2.21.91-.34,0-.64-.08-.92-.23s-.41-.34-.41-.57c0-.09.04-.18.11-.25s.15-.11.25-.11c.13,0,.28.08.44.24.22.21.38.34.49.39.15.07.28.11.4.11.33,0,.71-.2,1.12-.59.61-.57.91-1.21.91-1.9,0-.35-.1-.62-.29-.83s-.44-.31-.74-.31c-.22,0-.47.05-.75.15l.05-.4c.55-.19,1.04-.53,1.48-1.02.31-.34.46-.69.46-1.04,0-.27-.07-.47-.2-.62s-.32-.23-.55-.23c-.49,0-.95.27-1.4.82Z" style="stroke-width:0px;"/><path d="m120.15,50.31l-.33-.16c.33-.68.68-1.15,1.04-1.41.36-.26.76-.4,1.21-.4.54,0,.97.16,1.3.5s.49.74.49,1.2c0,.28-.05.57-.17.86-.11.29-.3.6-.56.92-.17.21-.64.65-1.4,1.32-1.03.91-1.75,1.65-2.17,2.2.56-.03,1.14-.05,1.74-.06.19,0,.36,0,.5,0,.31,0,.53-.02.64-.1.12-.07.3-.32.57-.74h.44c-.34.48-.64,1.07-.89,1.77-.3-.05-.63-.09-.97-.12-.34-.03-.7-.04-1.07-.03-.44,0-1.09.04-1.95.1l.12-.41c.38-.58.96-1.24,1.73-1.98.76-.73,1.25-1.24,1.47-1.53.32-.42.55-.82.69-1.19.11-.28.16-.54.16-.8,0-.39-.11-.69-.32-.92-.21-.23-.47-.34-.78-.34-.26,0-.51.1-.75.29-.25.19-.5.52-.75,1Z" style="stroke-width:0px;"/><path d="m104.24,29.46h.21s-.82,3.49-.82,3.49l-.68,3.24c-.07.27-.1.45-.1.55,0,.07.04.13.11.18s.24.08.5.1c.19.01.38.03.57.07l-.12.33c-.92-.08-1.57-.12-1.93-.11-.53.01-1.11.07-1.73.18l.1-.32c.22-.06.48-.13.76-.19.28-.06.47-.15.57-.27.14-.15.28-.52.42-1.09l.64-2.67c.21-1.02.31-1.59.31-1.72,0-.15-.07-.22-.19-.22-.09,0-.52.18-1.28.54l-.14-.32c1.1-.55,1.78-.92,2.02-1.1.24-.18.5-.39.77-.64Z" style="stroke-width:0px;"/><circle cx="77.41" cy="15.75" r="2.36" style="fill:#263238; stroke-width:0px;"/><circle cx="45.56" cy="24.28" r="2.36" style="fill:#263238; stroke-width:0px;"/><circle cx="22.97" cy="47.18" r="2.36" style="fill:#263238; stroke-width:0px;"/><circle cx="14.86" cy="78.3" r="2.36" style="fill:#263238; stroke-width:0px;"/><circle cx="23.39" cy="109.31" r="2.36" style="fill:#263238; stroke-width:0px;"/><circle cx="46.29" cy="131.9" r="2.36" style="fill:#263238; stroke-width:0px;"/><circle cx="77.41" cy="140.01" r="2.36" style="fill:#263238; stroke-width:0px;"/><circle cx="108.42" cy="131.48" r="2.36" style="fill:#263238; stroke-width:0px;"/><circle cx="131.01" cy="108.59" r="2.36" style="fill:#263238; stroke-width:0px;"/><circle cx="139.13" cy="77.46" r="2.36" style="fill:#263238; stroke-width:0px;"/><circle cx="130.59" cy="46.45" r="2.36" style="fill:#263238; stroke-width:0px;"/><circle cx="107.7" cy="23.86" r="2.36" style="fill:#263238; stroke-width:0px;"/></g></svg>