<?xml version="1.0" encoding="UTF-8"?><svg id="_Слой_2" xmlns="http://www.w3.org/2000/svg" width="81.31" height="161.19" viewBox="0 0 81.31 161.19"><g id="_Слой_1-2"><polygon points="6.46 108.3 14.51 161.19 61.27 161.19 72.13 109.06 6.46 108.3" style="fill:#999; stroke-width:0px;"/><path d="m65.59,142.19c0,.15-11.98.27-26.76.27s-26.76-.12-26.76-.27,11.98-.27,26.76-.27,26.76.12,26.76.27Z" style="fill:#fafafa; stroke-width:0px;"/><path d="m65.77,139.59c0,.15-12.06.27-26.94.27s-26.94-.12-26.94-.27,12.06-.27,26.94-.27,26.94.12,26.94.27Z" style="fill:#fafafa; stroke-width:0px;"/><path d="m65.68,136.65c0,.15-12.06.27-26.94.27s-26.94-.12-26.94-.27,12.06-.27,26.94-.27,26.94.12,26.94.27Z" style="fill:#fafafa; stroke-width:0px;"/><path d="m19.88,158.17c-.15.03-.79-2.96-1.43-6.66-.64-3.71-1.04-6.73-.89-6.75.15-.03.79,2.96,1.43,6.66.64,3.7,1.04,6.73.89,6.75Z" style="fill:#fafafa; stroke-width:0px;"/><path d="m23.07,157.61c-.16,0-.33-2.91-.58-6.5-.24-3.59-.46-6.5-.31-6.52.15-.02.61,2.88.85,6.48.25,3.6.18,6.53.03,6.53Z" style="fill:#fafafa; stroke-width:0px;"/><path d="m28.86,157.61c-.15.03-.78-2.94-1.22-6.66-.44-3.72-.5-6.76-.36-6.76.16,0,.46,3,.9,6.7.43,3.7.82,6.7.67,6.73Z" style="fill:#fafafa; stroke-width:0px;"/><path d="m32.93,157.89c-.15.01-.53-3.01-.65-6.77-.12-3.76.06-6.8.21-6.8.16,0,.22,3.04.34,6.78.12,3.74.25,6.77.1,6.79Z" style="fill:#fafafa; stroke-width:0px;"/><path d="m40.14,157.61c-.15,0-.37-2.87-.49-6.42-.12-3.55-.1-6.44.06-6.44.15,0,.37,2.87.49,6.43.12,3.55.1,6.44-.06,6.44Z" style="fill:#fafafa; stroke-width:0px;"/><path d="m45.4,157.89c-.15,0-.25-2.98-.22-6.65.03-3.67.18-6.64.33-6.64.15,0,.25,2.98.22,6.65-.03,3.67-.18,6.64-.33,6.64Z" style="fill:#fafafa; stroke-width:0px;"/><path d="m50.33,157.18c-.15-.01.03-3.13.4-6.95.37-3.82.79-6.91.95-6.89.15.01-.03,3.12-.4,6.95-.37,3.82-.79,6.91-.94,6.89Z" style="fill:#fafafa; stroke-width:0px;"/><path d="m56.7,156.49c-.14-.02.08-2.69.79-5.91.7-3.22,1.6-5.74,1.74-5.7.15.05-.51,2.62-1.2,5.82-.7,3.2-1.17,5.81-1.32,5.79Z" style="fill:#fafafa; stroke-width:0px;"/><path d="m52.19,3.93s-.01.09-.06.26c-.06.2-.13.44-.22.75-.22.69-.51,1.65-.89,2.85-.4,1.23-.88,2.75-1.37,4.53-.5,1.77-1.13,3.78-1.69,6.03-.59,2.24-1.24,4.7-1.82,7.37-.65,2.65-1.19,5.51-1.8,8.52-1.12,6.03-2.14,12.7-2.86,19.74-.68,7.05-1,13.79-1.09,19.92,0,3.07-.03,5.98.08,8.71.05,2.73.19,5.26.33,7.58.1,2.32.32,4.41.46,6.24.13,1.84.3,3.42.45,4.71.13,1.26.23,2.25.31,2.97.03.31.05.57.07.78.01.18.01.27,0,.27,0,0-.03-.09-.06-.26-.03-.21-.07-.46-.12-.77-.1-.72-.24-1.71-.41-2.96-.18-1.29-.38-2.86-.55-4.7-.17-1.84-.42-3.93-.54-6.25-.16-2.32-.33-4.86-.4-7.59-.13-2.73-.12-5.65-.14-8.73.07-6.15.37-12.91,1.05-19.97.72-7.06,1.76-13.74,2.91-19.78.62-3.01,1.19-5.88,1.86-8.53.61-2.67,1.27-5.12,1.89-7.36.58-2.25,1.23-4.25,1.77-6.02.52-1.77,1.03-3.28,1.46-4.5.42-1.19.75-2.14.99-2.82.11-.3.2-.54.27-.73.06-.16.1-.25.11-.24Z" style="fill:#006837; stroke-width:0px;"/><path d="m43.75,36.68c1.26-3.78,3.88-7.09,7.27-9.18,1.16-.72,2.62-1.3,3.85-.71,1.63.79,1.76,3.08,1.28,4.83-.82,2.94-2.74,5.55-5.29,7.21-2.55,1.66-4.93,2.44-7.94,2" style="fill:#22b573; stroke-width:0px;"/><path d="m40.91,58.79c1.21-4.56,4.85-11.05,8.63-13.88.6-.45,1.24-.87,1.96-1.05.73-.18,1.56-.06,2.1.45.77.74.7,1.98.47,3.03-1.45,6.66-6.99,12.24-13.64,13.73" style="fill:#22b573; stroke-width:0px;"/><path d="m40.13,78.26c1.86-4.34,4.9-8.16,8.71-10.95.89-.65,1.95-1.28,3.04-1.08,1.65.3,2.4,2.32,2.26,3.99-.3,3.44-2.93,6.2-5.65,8.34-2.92,2.3-8.06,4.14-8.06,4.14" style="fill:#22b573; stroke-width:0px;"/><path d="m40.57,92.25c1.91-3.25,4.29-6.31,7.41-8.44.68-.46,1.41-.88,2.22-1,.81-.11,1.72.15,2.18.83.74,1.09.03,2.57-.76,3.62-2.75,3.64-6.22,6.39-10.57,7.76" style="fill:#22b573; stroke-width:0px;"/><path d="m40.2,86.57c-3.19-3.91-6.74-7.53-10.6-10.79-.6-.51-1.36-1.04-2.11-.8-.58.19-.93.82-.97,1.42-.04.61.17,1.2.4,1.77,2.32,5.6,7.77,9.98,13.64,11.48" style="fill:#22b573; stroke-width:0px;"/><path d="m40.54,68.36c-2.77-3.38-5.55-6.76-8.32-10.15-.79-.97-1.61-1.95-2.7-2.56s-2.53-.76-3.55-.04c-1.02.72-1.36,2.12-1.14,3.35.22,1.23.91,2.31,1.62,3.33,1.69,2.44,3.62,4.76,6.06,6.44,2.44,1.68,4.66,2.77,7.6,2.34" style="fill:#22b573; stroke-width:0px;"/><path d="m41.7,47.85c-1.62-4.83-4.54-9.22-8.38-12.57-.64-.56-1.35-1.11-2.18-1.27-1.67-.32-3.28,1.07-3.82,2.68-.61,1.81-.19,3.85.76,5.51.95,1.66,2.39,2.98,3.91,4.14,2.8,2.14,5.94,3.83,9.26,5" style="fill:#22b573; stroke-width:0px;"/><path d="m45.02,29.57c-.81-5.88-3.87-10.78-7.42-15.54-.75-1-1.79-2.07-3.03-1.88-.79.12-1.43.76-1.74,1.49-.31.73-.35,1.55-.33,2.35.19,7.11,5.09,13.86,11.79,16.23" style="fill:#22b573; stroke-width:0px;"/><path d="m47.35,20.24c-.29-3.02-.58-6.07-.3-9.1.28-3.03,1.17-6.06,3.02-8.47.8-1.04,1.8-1.96,3.02-2.41,1.23-.45,2.71-.35,3.71.49.93.78,1.32,2.06,1.27,3.26-.05,1.21-.47,2.37-.94,3.48-2.22,5.34-5.92,11.24-9.78,12.74" style="fill:#22b573; stroke-width:0px;"/><path d="m11.09,27.25s.03.26.05.75c0,.54.01,1.25.02,2.13,0,.93,0,2.06.05,3.38.04,1.32.05,2.81.16,4.47.14,3.31.47,7.24.97,11.59.54,4.34,1.28,9.1,2.3,14.05,1.05,4.94,2.28,9.6,3.54,13.79,1.29,4.18,2.57,7.91,3.77,11,.56,1.56,1.16,2.93,1.65,4.16.48,1.22.93,2.26,1.31,3.11.35.81.62,1.46.84,1.96.19.45.28.69.26.7-.02,0-.14-.22-.36-.65-.24-.49-.55-1.13-.93-1.92-.41-.84-.88-1.86-1.4-3.08-.52-1.21-1.14-2.58-1.73-4.13-1.25-3.08-2.57-6.8-3.89-10.99-1.28-4.2-2.54-8.87-3.59-13.83-1.03-4.96-1.76-9.74-2.27-14.1-.48-4.37-.76-8.31-.85-11.63-.08-1.66-.07-3.16-.08-4.48-.02-1.32,0-2.45.04-3.38.03-.88.06-1.59.08-2.14.02-.49.05-.74.06-.74Z" style="fill:#006837; stroke-width:0px;"/><path d="m12.4,51.36c.05-2.84,1.12-5.66,2.97-7.82.63-.74,1.5-1.45,2.47-1.31,1.28.19,1.86,1.72,1.91,3.01.07,2.17-.67,4.37-2.05,6.05-1.38,1.68-2.83,2.72-4.98,3.07" style="fill:#22b573; stroke-width:0px;"/><path d="m15.22,67.03c-.16-3.37.92-8.57,2.89-11.31.31-.43.66-.86,1.11-1.13.46-.28,1.05-.38,1.53-.14.69.34.9,1.2.97,1.96.45,4.84-2.13,9.84-6.33,12.29" style="fill:#22b573; stroke-width:0px;"/><path d="m18.88,80.45c.33-3.35,1.58-6.61,3.57-9.33.47-.64,1.05-1.29,1.84-1.39,1.19-.15,2.13,1.06,2.39,2.23.54,2.41-.66,4.85-2.05,6.9-1.49,2.2-4.59,4.55-4.59,4.55" style="fill:#22b573; stroke-width:0px;"/><path d="m22.19,89.89c.6-2.63,1.56-5.22,3.23-7.34.36-.46.77-.91,1.3-1.16s1.2-.27,1.66.1c.74.58.58,1.74.26,2.63-1.09,3.07-2.86,5.69-5.53,7.56" style="fill:#22b573; stroke-width:0px;"/><path d="m20.72,86.1c-3.01-1.98-6.21-3.67-9.54-5.07-.52-.22-1.15-.42-1.61-.09-.35.25-.46.76-.35,1.18.1.42.37.78.66,1.12,2.78,3.31,7.44,5.12,11.76,4.88" style="fill:#22b573; stroke-width:0px;"/><path d="m17.03,73.62c-2.62-1.71-5.23-3.41-7.85-5.12-.75-.49-1.52-.98-2.39-1.16-.87-.18-1.89.03-2.43.74-.54.71-.47,1.74-.05,2.53s1.12,1.38,1.82,1.92c1.68,1.29,3.49,2.46,5.52,3.08,2.03.62,3.77.88,5.68-.04" style="fill:#22b573; stroke-width:0px;"/><path d="m13.4,59.42c-2.14-2.94-5.08-5.3-8.41-6.76-.56-.24-1.16-.47-1.76-.4-1.21.14-2,1.43-2.02,2.65-.02,1.36.7,2.67,1.7,3.59,1,.92,2.27,1.51,3.55,1.97,2.37.85,4.87,1.33,7.38,1.41" style="fill:#22b573; stroke-width:0px;"/><path d="m11.73,46.25c-1.81-3.83-4.95-6.5-8.39-8.98-.73-.52-1.66-1.02-2.47-.63-.51.25-.81.82-.86,1.39-.05.57.1,1.13.28,1.67,1.66,4.8,6.45,8.34,11.52,8.51" style="fill:#22b573; stroke-width:0px;"/><path d="m11.31,39.4c-.85-2-1.7-4.01-2.16-6.13-.46-2.12-.51-4.38.23-6.42.32-.88.8-1.72,1.54-2.29.74-.57,1.77-.82,2.63-.46.8.33,1.34,1.12,1.57,1.95.23.83.19,1.71.11,2.57-.36,4.11-1.61,8.93-3.92,10.78" style="fill:#22b573; stroke-width:0px;"/><path d="m70.21,26.74s.04.26.06.74c.02.54.05,1.25.08,2.14.04.93.06,2.06.04,3.38-.01,1.32,0,2.82-.08,4.48-.1,3.32-.38,7.27-.85,11.63-.51,4.36-1.24,9.14-2.27,14.1-1.05,4.96-2.31,9.63-3.59,13.83-1.32,4.19-2.65,7.92-3.89,10.99-.59,1.55-1.21,2.92-1.73,4.13-.51,1.22-.99,2.24-1.4,3.08-.38.8-.69,1.43-.93,1.92-.22.44-.34.66-.36.65-.02,0,.07-.25.26-.7.21-.5.49-1.15.84-1.96.37-.85.82-1.89,1.31-3.11.49-1.22,1.08-2.6,1.65-4.16,1.2-3.09,2.48-6.82,3.77-11,1.25-4.19,2.49-8.85,3.54-13.79,1.02-4.95,1.76-9.7,2.3-14.05.5-4.35.82-8.28.97-11.59.11-1.65.12-3.15.16-4.47.05-1.32.05-2.45.05-3.38,0-.88.02-1.59.02-2.14.01-.49.03-.75.05-.75Z" style="fill:#006837; stroke-width:0px;"/><path d="m68.91,50.85c-.05-2.84-1.12-5.66-2.97-7.82-.63-.74-1.5-1.45-2.47-1.31-1.28.19-1.86,1.72-1.91,3.01-.07,2.18.67,4.37,2.05,6.05s2.83,2.72,4.98,3.07" style="fill:#22b573; stroke-width:0px;"/><path d="m66.08,66.52c.16-3.37-.92-8.57-2.89-11.31-.31-.43-.66-.86-1.11-1.13-.46-.28-1.05-.38-1.53-.14-.69.34-.9,1.2-.97,1.96-.45,4.84,2.13,9.84,6.33,12.29" style="fill:#22b573; stroke-width:0px;"/><path d="m62.43,79.94c-.33-3.35-1.58-6.61-3.57-9.33-.47-.64-1.05-1.29-1.84-1.39-1.19-.15-2.13,1.06-2.39,2.23-.54,2.41.66,4.86,2.05,6.9,1.49,2.2,4.59,4.55,4.59,4.55" style="fill:#22b573; stroke-width:0px;"/><path d="m59.12,89.37c-.6-2.63-1.56-5.22-3.23-7.34-.36-.46-.77-.91-1.3-1.16-.53-.25-1.2-.27-1.66.1-.74.58-.58,1.74-.26,2.63,1.09,3.07,2.86,5.69,5.53,7.56" style="fill:#22b573; stroke-width:0px;"/><path d="m60.59,85.58c3.01-1.98,6.21-3.67,9.54-5.07.52-.22,1.15-.42,1.61-.09.35.25.46.76.36,1.18-.1.42-.37.78-.66,1.12-2.78,3.31-7.44,5.12-11.76,4.88" style="fill:#22b573; stroke-width:0px;"/><path d="m64.28,73.11c2.62-1.71,5.23-3.41,7.85-5.12.75-.49,1.52-.98,2.39-1.16.87-.18,1.89.03,2.43.74.54.71.47,1.74.05,2.53-.42.79-1.12,1.38-1.82,1.92-1.68,1.29-3.49,2.46-5.52,3.08-2.03.62-3.77.88-5.68-.04" style="fill:#22b573; stroke-width:0px;"/><path d="m67.9,58.9c2.14-2.94,5.08-5.3,8.41-6.76.56-.24,1.16-.47,1.76-.4,1.21.14,2,1.43,2.02,2.65.02,1.36-.7,2.67-1.7,3.59-1.01.92-2.27,1.51-3.55,1.97-2.37.85-4.87,1.33-7.38,1.41" style="fill:#22b573; stroke-width:0px;"/><path d="m69.57,45.74c1.81-3.83,4.95-6.51,8.39-8.98.73-.52,1.66-1.02,2.47-.63.51.25.81.82.86,1.39.05.57-.1,1.13-.28,1.67-1.66,4.8-6.45,8.34-11.52,8.51" style="fill:#22b573; stroke-width:0px;"/><path d="m70,38.88c.85-2,1.7-4.01,2.17-6.13.46-2.12.51-4.38-.23-6.42-.32-.88-.8-1.72-1.54-2.29-.74-.57-1.77-.82-2.63-.46-.8.33-1.34,1.12-1.57,1.95s-.19,1.71-.11,2.57c.36,4.11,1.61,8.93,3.92,10.77" style="fill:#22b573; stroke-width:0px;"/><path d="m1.1,97.82v9.9c0,2.15,1.74,3.9,3.9,3.9h67.71c2.15,0,3.9-1.74,3.9-3.9v-9.9H1.1Z" style="fill:#999; stroke-width:0px;"/><polygon points="6.97 111.62 7.53 114.77 70.01 119.22 71.6 111.62 6.97 111.62" style="fill:#e0e0e0; stroke-width:0px;"/></g></svg>