<?xml version="1.0" encoding="UTF-8"?><svg id="_Слой_2" xmlns="http://www.w3.org/2000/svg" width="156.8" height="191.09" viewBox="0 0 156.8 191.09"><g id="_Слой_1-2"><path d="m156.44,66.03c-.08-.84-.18-1.66-.29-2.48-.11-.87-.24-1.74-.39-2.6.15.86.28,1.73.39,2.6.12.82.21,1.65.29,2.48Z" style="fill:#263238; stroke-width:0px;"/><path d="m149.71,76.31c-.73-1.62-.89-3.42-1.37-5.13-.26-.92-.69-1.89-1.56-2.3-.57-.27-1.25-.23-1.86-.42-2.19-.65-2.79-3.68-4.87-4.62-.66-.29-1.38-.35-2.09-.43-2.78-.32-5.65-1.28-7.4-3.43-.57-.7-1.01-1.52-1.71-2.09-.72-.57-1.82-.81-2.51-.23.59,1.16,1.16,2.32,1.74,3.47.53,1.04,1.07,2.12,1.95,2.89.89.78,2.2,1.18,3.27.7.35-.16.7-.43,1.1-.38.28.03.53.23.72.45,1.51,1.66,1.02,4.41-.46,6.1-1.47,1.68-3.65,2.56-5.75,3.39-.75.29-1.55.59-2.35.45-1.45-.27-2.23-1.83-2.65-3.24-.95-3.11-1.41-6.48-3.35-9.11-.62-.82-1.4-1.58-1.77-2.54-.4-1.04-.31-2.26-.94-3.18-.66-.96-2.05-1.52-2.15-2.68-.06-.81.62-1.53,1.37-1.88.75-.36,1.59-.46,2.37-.78.31-.13.64-.35.66-.67,0-.49-.68-.68-.86-1.14-.19-.51.34-.99.56-1.48.48-1.14-.72-2.28-1.88-2.75-1.15-.46-2.54-.8-3.08-1.91-.25-.51-.27-1.1-.37-1.66-.27-1.4-1.31-2.76-2.74-2.99-1.44-.23-3.04,1.03-2.8,2.45.14.78.73,1.38,1.04,2.1.33.72.23,1.79-.52,2.02-1.23.37-2.42-1.86-3.45-1.09.42,1.43.83,2.85,1.25,4.29-1.62.81-3.55-.66-4.24-2.33-.69-1.66-.72-3.56-1.54-5.16-.82-1.61-3.04-2.81-4.44-1.67-.07,2.06,2.69,2.9,3.91,4.57.88,1.21.75,3.17-.55,3.93-1.29.77-3.34-.57-2.85-1.97.18-.49.59-.89.63-1.42.05-.65-.5-1.17-1.01-1.59-.79-.66-1.57-1.31-2.36-1.96-.5-.42-1.04-.86-1.68-1.04-1.62-.46-3.24.84-4.09,2.26-.86,1.44-1.34,3.12-2.52,4.32-1.7,1.74-4.92,1.84-6.52.02-1.61-1.82-.79-5.23,1.57-5.89.89-.24,2.02-.22,2.49-1,.82-1.38-1.52-3.14-.72-4.54.62-1.07,2.26-.58,3.46-.94,1.18-.36,1.85-1.54,2.56-2.56.69-1.01,1.78-2.03,3-1.76-.09-.71-.19-1.47.13-2.11.32-.65,1.21-1.07,1.79-.65-.6.97.12,2.33,1.16,2.82s2.26.37,3.41.24c1.15-.14,2.59-.56,2.69-1.69.04-.37-.11-.77.04-1.11.5-1.36,3.04.51,4.01-.58.56-.57-.06-1.58-.84-1.76-.77-.2-1.58.09-2.38.12-.8.03-1.77-.38-1.81-1.17-.03-.78.84-1.33.94-2.1.15-1.3-2.08-1.64-2.86-.58-.77,1.06-.5,2.51-.27,3.79.25,1.29.36,2.81-.6,3.71-.41.61-1.48.29-1.83-.36-.36-.65-.28-1.44-.34-2.17-.06-.74-.39-1.58-1.11-1.77-.5-.14-1.04.1-1.56.17-2.04.24-3.46-2.37-2.81-4.29.63-1.94,2.49-3.18,4.28-4.16,1.31-.72,2.94-1.39,4.24-.66.61.34,1.03.92,1.63,1.26,1.03.6,2.31.38,3.49.41,1.86.05,3.71.75,5.1,1.96.53.48,1.02,1.26.61,1.83-.45.6-1.72.73-1.5,1.44,1.38.45,3.04-.6,3.19-2.03.68.3,1.17.99,1.23,1.72,1.49-1.5,4.35-1.28,5.57.45.33.45.56,1,1.03,1.31.47.3,1.29.15,1.35-.39.02-.17-.04-.35-.09-.51-.28-.79-.57-1.57-.86-2.34,1.09-.58,2.38.32,3.12,1.3,2.74,3.63,4.7,1.45,8.57,2.04,2.61.39,3.76,2.05,5.24,4.06,4.53,6.17,10.51,11.23,14.62,17.68.43.67.83,1.36,1.21,2.05-.07-.17-.13-.35-.2-.52-1.62-4.21-3.62-8.24-5.98-12.03-.5-.81-1.02-1.61-1.55-2.4-.33-.49-.67-.99-1.01-1.46-.43-.63-.89-1.23-1.35-1.83-.36-.49-.73-.96-1.1-1.43-.26-.32-.53-.65-.8-.97-.28-.37-.59-.73-.91-1.09l-.99-1.12c-.09-.12-.2-.23-.32-.35-.34-.39-.7-.78-1.07-1.16-.02-.05-.06-.08-.11-.12-.09-.1-.2-.21-.3-.31-.29-.32-.61-.64-.91-.95-.5-.51-1.02-1.02-1.55-1.51-.43-.43-.88-.84-1.34-1.24-.4-.36-.8-.72-1.21-1.07-.4-.35-.8-.68-1.21-1.02-.49-.42-1-.82-1.51-1.23h-.01c-1.42-1.13-2.88-2.19-4.39-3.19-.38-.26-.74-.5-1.11-.74-.37-.26-.76-.49-1.14-.72-.39-.23-.76-.48-1.15-.7-.39-.24-.77-.46-1.16-.68-.32-.19-.62-.36-.94-.52-.16-.1-.32-.19-.48-.27-.67-.37-1.35-.73-2.03-1.07-.34-.17-.68-.35-1.03-.51-.43-.22-.88-.43-1.32-.63-.06-.03-.13-.07-.2-.09-.4-.19-.8-.37-1.21-.55-.57-.24-1.15-.49-1.72-.72-.66-.27-1.31-.53-1.98-.78-.74-.28-1.48-.55-2.23-.79-.75-.26-1.51-.5-2.28-.73s-1.52-.44-2.3-.65c-1.52-.41-3.07-.77-4.63-1.08-.02-.01-.06-.01-.08-.02-.6-.12-1.2-.23-1.79-.32-.05-.01-.08-.02-.12-.02-.26-.05-.53-.09-.8-.13-1.11-.19-2.24-.34-3.38-.46-.13-.02-.27-.03-.41-.05-.33-.05-.66-.07-1-.1-.75-.07-1.5-.13-2.26-.17-.79-.06-1.58-.09-2.38-.12-.83-.04-1.67-.05-2.5-.05-2.2,0-4.39.09-6.54.29-.52.03-1.02.08-1.52.14-.53.06-1.06.12-1.58.19s-1.06.14-1.57.22c-.53.08-1.04.16-1.57.26-.45.07-.9.15-1.35.24-1.1.21-2.19.44-3.27.7-.5.12-1.01.24-1.51.38-.5.13-1.01.27-1.5.41-.83.23-1.64.49-2.45.74h-.01c-.66.22-1.32.44-1.97.66-.01,0-.04.01-.05.02-.67.23-1.31.48-1.97.73-.04.01-.07.02-.11.03-.6.23-1.2.48-1.78.72-.74.3-1.47.63-2.18.95-.61.28-1.21.56-1.79.85-.63.31-1.27.63-1.89.95-.02.01-.05.02-.07.03-.6.31-1.2.64-1.78.97-.61.34-1.21.68-1.81,1.06h-.01c-.56.34-1.11.67-1.66,1.02-.21.13-.41.27-.62.41-.59.37-1.15.75-1.72,1.15-.7.48-1.38.97-2.06,1.47-.6.44-1.18.89-1.76,1.35-3.32,2.62-6.41,5.51-9.22,8.64-1,1.09-1.93,2.2-2.85,3.34-.77.97-1.52,1.96-2.24,2.98-.64.89-1.27,1.79-1.87,2.71.6-.92,1.22-1.82,1.87-2.71.19-.02.38-.05.56-.06,1.06-.08,2.17-.05,3.12-.5.88-.43,1.5-1.21,2.3-1.76,2.04-1.44,5.38-1.71,5.93-4.12.19-.81-.04-1.69.27-2.47.57-1.45,2.53-1.66,4.1-1.64.67,0,1.45.09,1.76.67.22.41.09.92-.07,1.35-.96,2.71-2.91,5.06-5.38,6.54-2.04,1.23-4.7,2.18-5.27,4.48.28.78,1.71.72,1.83,1.53.08.65-.76.99-1.07,1.57-.45.85.57,1.88,1.55,1.83s1.78-.74,2.5-1.39c2.13-1.96,4.37-4.07,5.15-6.86.33-1.15.45-2.49,1.38-3.26,1.11-.9,3.11-.28,3.48,1.1.93-.51,2.37-.89,2.85.06.16.34.12.73.2,1.09.31,1.48,2.36,2.16,2.57,3.65.25,1.73-1.99,2.62-3.74,2.89-1.58.24-3.17.49-4.75.74-.69.1-1.41.22-1.97.63-.56.42-.91,1.21-.59,1.82.19.34.55.56.82.84,1.31,1.3.23,3.98-1.62,4.04-.63.02-1.25-.21-1.89-.23-1.88-.08-3.37,1.55-4.26,3.19-.89,1.64-1.56,3.5-3.06,4.62-2.42,1.8-6.58,1.38-7.75,4.14-.47,1.11-.22,2.37-.04,3.56.19,1.18.27,2.51-.43,3.49-.69.97-2.5,1.18-3.01.09-.22-.48-.15-1.03-.07-1.54.28-1.72.55-3.43.82-5.15.2-1.28.38-2.7-.39-3.75-1.07-1.46-3.46-1.32-4.84-.15-1.37,1.17-1.95,3-2.33,4.76-.28,1.3-.61,3.13-1.34,4.62h0c-.25,1.44-.45,2.9-.6,4.37-.15,1.51-.26,3-.32,4.54.19-.15.39-.34.6-.56.74-.75,2.23-3.94,3.56-2.38.34.39.35,1.03.02,1.45-.41.52-1.23.64-1.55,1.21-.39.67.15,1.51.79,1.95.63.45,1.41.73,1.85,1.37.86,1.22.04,3.06.87,4.3.72,1.07,2.24,1.14,3.54,1.28.15.02.29.05.45.07.36-2.55,1.57-4.63,5.09-5.42,4.85-1.09,11.23,2.89,13.97,6.51,3.05,4.05,4.49,9.78,9.16,11.81,3.34,1.45,8.09.93,9.72,4.16,1.45,2.9-1.08,6.16-1.47,9.37-.25,2.12.46,4.23.62,6.36.15,2.13-.48,4.62-2.44,5.51-1.09.49-2.46.43-3.34,1.24-1.56,1.46-.28,4.48-1.84,5.94-.55.51-1.31.7-1.98,1.03-3.51,1.75-3.41,6.86-1.78,10.39.06.13.12.24.18.37,5.18,3.07,10.76,5.53,16.66,7.27,6.75,2.03,13.92,3.11,21.34,3.11,12.56,0,24.4-3.1,34.77-8.56h.01c2.25-1.19,4.44-2.49,6.56-3.91,3.27-2.17,6.34-4.59,9.21-7.24,1.98-1.83,3.87-3.77,5.63-5.81,1.24-1.42,2.42-2.89,3.54-4.4.57-.78,1.14-1.55,1.67-2.35,1.62-2.34,3.1-4.79,4.42-7.32,1.92-3.64,3.53-7.47,4.8-11.44,1.3-4,2.25-8.15,2.83-12.42.22-1.65.4-3.32.52-5-.81.78-1.86,1.33-2.98,1.31-1.78-.02-3.25-1.5-3.96-3.12Z" style="fill:#5996b8; stroke-width:0px;"/><path d="m65.02,19.18c-1.47.87-2.25,2.51-3.38,3.77-1.13,1.27-3.16,2.17-4.5,1.12-.64-.51-.93-1.35-1.01-2.16-.11-1.17.18-2.36.8-3.36.64-1.03,1.61-1.84,2.15-2.92.54-1.08.43-2.67-.68-3.17-.6-.27-1.35-.17-1.88-.55-.95-.7-.27-2.34.84-2.76s2.34-.09,3.53-.02c4.3.27,7.45-2.51,10.68-4.82,2.51-1.8,7.86-3.92,10.77-2.08,1.16.73,1.61,2.62.52,3.44-.49.37-1.16.45-1.62.86-.55.49-.62,1.3-.94,1.96-.81,1.72-3.16,2.34-3.91,4.09-.45,1.05-.25,2.36-.95,3.27-.56.72-1.52.97-2.41,1.18-1.87.44-3.73.88-5.6,1.32-.83.2-1.68.4-2.41.83Z" style="fill:#263238; stroke-width:0px;"/><path d="m115.09,109.4c-1.86,2.77-2.2,6.23-2.71,9.52-.52,3.28-1.4,6.78-3.95,8.94-2.55,2.16-7.24,2.04-8.64-.98-.76-1.64-.37-3.57-.79-5.33-.54-2.29-2.38-4.06-3.26-6.24-.75-1.86-.75-3.92-.81-5.93-.33-10.95-3.03-22.39-10.57-30.41-.93-.99-1.98-1.95-3.29-2.29-1.56-.41-3.35.2-4.33,1.48-.61.79-.92,1.8-1.66,2.47-1.61,1.46-4.42.41-5.5-1.46-1.08-1.88-.93-4.18-.75-6.33.22-2.67.45-5.33.67-8,.12-1.39.27-2.89,1.2-3.95,1.32-1.51,3.68-1.58,5.29-2.77,2.11-1.56,2.39-4.55,3.72-6.8,1.33-2.25,5.5-3.21,6.11-.67,4.41-9.33,14.15,4.53,19.94,3.49,1.68-.3,3.33-1.1,5.02-.87,2.99.41,4.53,3.67,5.55,6.48,1.69,4.67,3.38,9.33,5.07,14,.64,1.78,1.47,3.75,3.25,4.44,1.36.52,2.95.12,4.32.62,3.63,1.31,2.45,6.97-.47,9.47-2.92,2.5-7.03,4.08-8.42,7.65-1.05,2.69-.21,5.84-1.34,8.5-.81,1.9-2.5,3.28-3.66,4.99Z" style="fill:#263238; stroke-width:0px;"/><path d="m128.89,112.45c-1.19.17-2.6-.42-3.51.37-.53.46-.65,1.21-.86,1.87-.29.92-.85,1.79-1.69,2.29-.84.49-1.98.53-2.76-.05-.78-.58-1.02-1.83-.38-2.56.29-.33.71-.53,1.03-.83,1.59-1.48.5-4.23,1.71-5.99.71-1.04,1.83-2.09,2.61-3.15.6-.81.82-1.45,1.92-1.67,4.83-.94,7.01,9.01,1.93,9.72Z" style="fill:#263238; stroke-width:0px;"/><path d="m18.3,92.55c-.23-2.1.47-4.2.5-6.32.02-1.46-.08-3-.11-4.48-1.27-.06-2.53-.23-3.76-.52-.26-.06-.54-.14-.69-.35-.16-.22-.14-.51-.15-.78-.09-1.65-1.7-2.74-3.14-3.56-.74-.43-1.49-.85-2.29-1.11,0,.17,0,.34.01.51.29,8.15,1.93,15.98,4.71,23.26,1.27,3.32,2.78,6.53,4.53,9.6.73,1.33,1.52,2.64,2.36,3.93,1.03,1.59,2.11,3.14,3.27,4.64,1.08,1.44,2.23,2.84,3.44,4.19,1.65,1.87,3.4,3.64,5.24,5.34,1.63,1.51,3.33,2.93,5.1,4.29-4.05-10.74-7.86-21.7-14.78-30.84-1.82-2.39-3.9-4.83-4.24-7.79Z" style="fill:#e8505b; stroke-width:0px;"/><path d="m8.65,71.96c0,.44-.02.88-.02,1.32,0,.36.01.71.02,1.07,0-.36-.02-.71-.02-1.07,0-.44.02-.88.02-1.32Z" style="fill:#263238; stroke-width:0px;"/><g style="opacity:.6;"><path d="m41.47,134.16c.62.42,1.25.82,1.89,1.22.45.28.89.54,1.35.81-.46-.27-.9-.53-1.35-.81-.64-.39-1.27-.8-1.89-1.22Z" style="fill:#263238; stroke-width:0px;"/></g><path d="m128.51,88.26c2.92-2.5,4.11-8.16.47-9.47-1.37-.49-2.96-.1-4.32-.62-1.78-.68-2.61-2.66-3.25-4.44-1.69-4.67-3.38-9.33-5.07-14-1.02-2.81-2.56-6.07-5.55-6.48-1.69-.23-3.34.56-5.02.87-5.79,1.04-15.53-12.82-19.94-3.49-.62-2.54-4.78-1.58-6.11.67-1.33,2.25-1.61,5.24-3.72,6.8-1.61,1.19-3.97,1.26-5.29,2.77-.93,1.06-1.08,2.56-1.2,3.95-.22,2.67-.45,5.33-.67,8-.18,2.15-.33,4.45.75,6.33,1.08,1.88,3.89,2.92,5.5,1.46.74-.67,1.05-1.68,1.66-2.47.98-1.28,2.76-1.89,4.33-1.48,1.32.35,2.37,1.31,3.29,2.29,7.54,8.03,10.24,19.46,10.57,30.41.06,2,.06,4.06.81,5.93.87,2.19,2.72,3.95,3.26,6.24.42,1.76.02,3.69.79,5.33,1.4,3.02,6.09,3.15,8.64.98,2.55-2.16,3.44-5.65,3.95-8.94.52-3.28.85-6.75,2.71-9.52,1.15-1.72,2.85-3.09,3.66-4.99,1.13-2.66.29-5.81,1.34-8.5,1.39-3.57,5.49-5.15,8.42-7.65Z" style="fill:#e8505b; stroke-width:0px;"/><g style="opacity:.6;"><path d="m8.7,70.24h0s0,0,0,0c-.01.14-.02.27-.02.41-.02.43-.02.88-.02,1.32,0-.44,0-.89.02-1.32,0-.14.01-.27.02-.41Z" style="fill:#263238; stroke-width:0px;"/></g><g style="opacity:.6;"><path d="m8.65,74.36c0,.36,0,.72.02,1.07h0c-.01-.35-.01-.71-.02-1.07Z" style="fill:#263238; stroke-width:0px;"/></g><path d="m18.83,78.91c-.15-.02-.29-.05-.45-.07-1.3-.14-2.83-.21-3.54-1.28-.83-1.24-.01-3.09-.87-4.3-.45-.64-1.22-.92-1.85-1.37-.63-.44-1.17-1.28-.79-1.95.32-.57,1.14-.68,1.55-1.21.33-.42.32-1.06-.02-1.45-1.34-1.57-2.83,1.62-3.56,2.38-.21.22-.41.41-.6.56h0c-.01.15-.02.28-.02.42-.02.43-.02.88-.02,1.32,0,.44-.02.88-.02,1.32,0,.36.01.71.02,1.07,0,.36,0,.72.02,1.07.8.27,1.55.68,2.29,1.11,1.44.82,3.05,1.91,3.14,3.56.01.27-.01.56.15.78.15.21.43.29.69.35,1.23.29,2.5.46,3.76.52" style="fill:#e8505b; stroke-width:0px;"/><path d="m18.7,81.75c.02,1.47.13,3.02.11,4.48-.04,2.12-.74,4.22-.5,6.32.34,2.97,2.43,5.41,4.24,7.79,6.92,9.14,10.73,20.1,14.78,30.84h.01c.75.59,1.51,1.15,2.29,1.69.61.43,1.23.86,1.85,1.28.62.42,1.25.82,1.89,1.22.45.28.89.55,1.35.81-.06-.13-.12-.24-.18-.37-1.63-3.54-1.72-8.64,1.78-10.39.67-.34,1.43-.52,1.98-1.03,1.56-1.46.28-4.48,1.84-5.94.88-.81,2.25-.75,3.34-1.24,1.96-.89,2.59-3.38,2.44-5.51-.16-2.12-.87-4.23-.62-6.36.39-3.21,2.92-6.47,1.47-9.37-1.63-3.24-6.38-2.71-9.72-4.16-4.67-2.03-6.11-7.76-9.16-11.81-2.73-3.62-9.11-7.6-13.97-6.51-3.52.79-4.73,2.87-5.09,5.42" style="fill:#e8505b; stroke-width:0px;"/><path d="m13.28,51.94c1.38-1.17,3.78-1.31,4.84.15.76,1.04.59,2.47.39,3.75-.27,1.72-.54,3.43-.82,5.15-.08.51-.15,1.07.07,1.54.52,1.09,2.32.88,3.01-.09.7-.99.62-2.31.43-3.49-.19-1.19-.43-2.45.04-3.56,1.17-2.76,5.34-2.34,7.75-4.14,1.5-1.11,2.17-2.98,3.06-4.62.89-1.64,2.38-3.27,4.26-3.19.63.02,1.25.26,1.89.23,1.85-.06,2.93-2.74,1.62-4.04-.27-.28-.63-.5-.82-.84-.33-.61.02-1.4.59-1.82.56-.41,1.28-.52,1.97-.63,1.58-.26,3.17-.5,4.75-.74,1.75-.27,3.99-1.16,3.74-2.89-.21-1.5-2.26-2.17-2.57-3.65-.08-.36-.04-.75-.2-1.09-.48-.95-1.92-.57-2.85-.06-.38-1.38-2.37-2.01-3.48-1.1-.94.77-1.06,2.11-1.38,3.26-.77,2.78-3.01,4.89-5.15,6.86-.72.65-1.52,1.35-2.5,1.39s-1.99-.99-1.55-1.83c.3-.58,1.15-.92,1.07-1.57-.12-.81-1.55-.75-1.83-1.53.56-2.3,3.22-3.25,5.27-4.48,2.47-1.48,4.42-3.83,5.38-6.54.16-.43.29-.94.07-1.35-.31-.58-1.09-.67-1.76-.67-1.57-.02-3.53.19-4.1,1.64-.3.78-.08,1.66-.27,2.47-.55,2.41-3.89,2.68-5.93,4.12-.8.56-1.42,1.33-2.3,1.76-.95.45-2.06.42-3.12.5-.19.01-.38.03-.56.06-.64.89-1.27,1.79-1.87,2.71-.6.92-1.18,1.85-1.73,2.8-2.63,4.44-4.78,9.19-6.43,14.17-.57,1.73-1.08,3.5-1.52,5.29-.44,1.79-.81,3.6-1.12,5.44.73-1.48,1.06-3.32,1.34-4.62.39-1.75.96-3.58,2.33-4.76Z" style="fill:#e8505b; stroke-width:0px;"/><path d="m75.44,15.85c.7-.91.5-2.22.95-3.27.75-1.75,3.1-2.37,3.91-4.09.31-.66.39-1.47.94-1.96.46-.41,1.13-.49,1.62-.86,1.09-.83.64-2.71-.52-3.44-2.91-1.84-8.26.29-10.77,2.08-3.23,2.31-6.39,5.09-10.68,4.82-1.18-.07-2.42-.4-3.53.02s-1.79,2.06-.84,2.76c.53.39,1.28.28,1.88.55,1.11.51,1.22,2.09.68,3.17-.54,1.08-1.51,1.89-2.15,2.92-.62,1-.9,2.19-.8,3.36.07.81.36,1.65,1.01,2.16,1.34,1.06,3.37.15,4.5-1.12,1.13-1.27,1.91-2.91,3.38-3.77.73-.43,1.58-.63,2.41-.83,1.87-.44,3.73-.88,5.6-1.32.89-.21,1.85-.46,2.41-1.18Z" style="fill:#e8505b; stroke-width:0px;"/><g style="opacity:.6;"><path d="m156.78,72.28c0-1.06-.04-2.1-.1-3.14.06,1.04.09,2.09.1,3.14.02.34.02.67.02,1.01,0,1.62-.06,3.22-.15,4.83.09-1.6.15-3.2.15-4.83,0-.34,0-.67-.02-1.01Z" style="fill:#263238; stroke-width:0px;"/></g><g style="opacity:.6;"><path d="m152.15,47.69c.35.93.68,1.86,1,2.8-.31-.94-.64-1.87-1-2.8,0,0,.01-.01,0-.01h0Z" style="fill:#263238; stroke-width:0px;"/></g><path d="m156.78,72.28c0-1.06-.04-2.1-.1-3.14s-.14-2.08-.24-3.11c-.08-.84-.18-1.66-.29-2.48-.11-.87-.24-1.74-.39-2.6-.44-2.58-1.02-5.12-1.73-7.61-.28-.96-.57-1.91-.88-2.85-.31-.94-.64-1.87-1-2.8h0c-.38-.71-.77-1.39-1.21-2.06-4.12-6.45-10.1-11.51-14.62-17.68-1.48-2.01-2.63-3.67-5.24-4.06-3.87-.59-5.83,1.59-8.57-2.04-.74-.97-2.03-1.88-3.12-1.3.28.78.57,1.55.86,2.34.06.16.12.34.09.51-.06.55-.88.7-1.35.39-.47-.31-.7-.86-1.03-1.31-1.22-1.73-4.08-1.95-5.57-.45-.06-.73-.55-1.42-1.23-1.72-.15,1.43-1.81,2.48-3.19,2.03-.22-.71,1.06-.84,1.5-1.44.41-.57-.08-1.36-.61-1.83-1.4-1.21-3.24-1.91-5.1-1.96-1.18-.02-2.46.2-3.49-.41-.6-.35-1.02-.93-1.63-1.26-1.3-.73-2.93-.06-4.24.66-1.79.99-3.65,2.23-4.28,4.16-.64,1.93.77,4.54,2.81,4.29.52-.07,1.06-.31,1.56-.17.73.2,1.06,1.03,1.11,1.77.06.73-.02,1.52.34,2.17.35.65,1.42.97,1.83.36.96-.9.84-2.42.6-3.71-.23-1.29-.5-2.74.27-3.79.79-1.06,3.01-.72,2.86.58-.09.77-.97,1.32-.94,2.1.04.79,1.01,1.21,1.81,1.17.8-.02,1.61-.31,2.38-.12.79.19,1.41,1.19.84,1.76-.97,1.09-3.51-.78-4.01.58-.14.35,0,.74-.04,1.11-.09,1.14-1.54,1.55-2.69,1.69-1.15.13-2.37.24-3.41-.24s-1.76-1.84-1.16-2.82c-.59-.42-1.48,0-1.79.65-.32.64-.22,1.4-.13,2.11-1.22-.27-2.31.75-3,1.76-.7,1.02-1.37,2.2-2.56,2.56-1.2.36-2.84-.13-3.46.94-.81,1.39,1.54,3.16.72,4.54-.47.78-1.59.75-2.49,1-2.36.66-3.18,4.07-1.57,5.89,1.59,1.82,4.82,1.72,6.52-.02,1.18-1.19,1.67-2.88,2.52-4.32.86-1.43,2.47-2.73,4.09-2.26.63.19,1.17.63,1.68,1.04.79.65,1.57,1.3,2.36,1.96.5.42,1.06.94,1.01,1.59-.05.52-.46.93-.63,1.42-.49,1.4,1.56,2.74,2.85,1.97,1.3-.77,1.43-2.73.55-3.93-1.22-1.67-3.98-2.51-3.91-4.57,1.41-1.14,3.62.06,4.44,1.67.82,1.6.84,3.5,1.54,5.16.69,1.67,2.63,3.14,4.24,2.33-.42-1.44-.83-2.87-1.25-4.29,1.03-.77,2.22,1.46,3.45,1.09.75-.23.84-1.3.52-2.02-.32-.72-.9-1.32-1.04-2.1-.23-1.42,1.36-2.68,2.8-2.45,1.43.23,2.47,1.59,2.74,2.99.11.56.13,1.15.37,1.66.54,1.11,1.93,1.45,3.08,1.91,1.16.46,2.36,1.61,1.88,2.75-.22.5-.75.97-.56,1.48.18.45.86.65.86,1.14-.01.32-.35.54-.66.67-.77.31-1.62.42-2.37.78-.75.35-1.43,1.07-1.37,1.88.09,1.16,1.49,1.72,2.15,2.68.63.92.54,2.13.94,3.18.38.96,1.15,1.72,1.77,2.54,1.95,2.62,2.4,6,3.35,9.11.42,1.4,1.2,2.97,2.65,3.24.8.14,1.59-.16,2.35-.45,2.1-.82,4.28-1.71,5.75-3.39,1.48-1.69,1.97-4.44.46-6.1-.19-.22-.43-.42-.72-.45-.4-.05-.75.22-1.1.38-1.07.49-2.38.08-3.27-.7-.88-.77-1.42-1.84-1.95-2.89-.57-1.15-1.15-2.31-1.74-3.47.69-.58,1.79-.34,2.51.23.7.57,1.14,1.39,1.71,2.09,1.75,2.16,4.62,3.11,7.4,3.43.7.08,1.43.14,2.09.43,2.08.94,2.67,3.97,4.87,4.62.61.19,1.29.15,1.86.42.87.41,1.3,1.38,1.56,2.3.48,1.71.64,3.5,1.37,5.13.72,1.62,2.18,3.1,3.96,3.12,1.11.02,2.17-.53,2.98-1.31h0c.09-1.61.15-3.21.15-4.84,0-.34,0-.67-.02-1.01Z" style="fill:#e8505b; stroke-width:0px;"/><path d="m126.96,102.73c-1.1.21-1.32.86-1.92,1.67-.78,1.05-1.9,2.11-2.61,3.15-1.21,1.76-.12,4.51-1.71,5.99-.32.3-.74.5-1.03.83-.64.73-.4,1.98.38,2.56.78.58,1.92.54,2.76.05.84-.49,1.4-1.36,1.69-2.29.21-.66.33-1.42.86-1.87.91-.79,2.32-.2,3.51-.37,5.08-.7,2.9-10.66-1.93-9.72Z" style="fill:#e8505b; stroke-width:0px;"/><path d="m128.51,88.26c2.92-2.5,4.11-8.16.47-9.47-1.37-.49-2.96-.1-4.32-.62-1.78-.68-2.61-2.66-3.25-4.44-1.69-4.67-3.38-9.33-5.07-14-1.02-2.81-2.56-6.07-5.55-6.48-1.69-.23-3.34.56-5.02.87-5.79,1.04-15.53-12.82-19.94-3.49-.62-2.54-4.78-1.58-6.11.67-1.33,2.25-1.61,5.24-3.72,6.8-1.61,1.19-3.97,1.26-5.29,2.77-.93,1.06-1.08,2.56-1.2,3.95-.22,2.67-.45,5.33-.67,8-.18,2.15-.33,4.45.75,6.33,1.08,1.88,3.89,2.92,5.5,1.46.74-.67,1.05-1.68,1.66-2.47.98-1.28,2.76-1.89,4.33-1.48,1.32.35,2.37,1.31,3.29,2.29,7.54,8.03,10.24,19.46,10.57,30.41.06,2,.06,4.06.81,5.93.87,2.19,2.72,3.95,3.26,6.24.42,1.76.02,3.69.79,5.33,1.4,3.02,6.09,3.15,8.64.98,2.55-2.16,3.44-5.65,3.95-8.94.52-3.28.85-6.75,2.71-9.52,1.15-1.72,2.85-3.09,3.66-4.99,1.13-2.66.29-5.81,1.34-8.5,1.39-3.57,5.49-5.15,8.42-7.65Z" style="fill:#006837; stroke-width:0px;"/><path d="m37.32,131.19h.01c.75.59,1.51,1.15,2.29,1.69.61.43,1.23.86,1.85,1.28.62.42,1.25.82,1.89,1.22.45.28.89.55,1.35.81-.06-.13-.12-.24-.18-.37-1.63-3.54-1.72-8.64,1.78-10.39.67-.34,1.43-.52,1.98-1.03,1.56-1.46.28-4.48,1.84-5.94.88-.81,2.25-.75,3.34-1.24,1.96-.89,2.59-3.38,2.44-5.51-.16-2.12-.87-4.23-.62-6.36.39-3.21,2.92-6.47,1.47-9.37-1.63-3.24-6.38-2.71-9.72-4.16-4.67-2.03-6.11-7.76-9.16-11.81-2.73-3.62-9.11-7.6-13.97-6.51-3.52.79-4.73,2.87-5.09,5.42-.15-.02-.29-.05-.45-.07-1.3-.14-2.83-.21-3.54-1.28-.83-1.24-.01-3.09-.87-4.3-.45-.64-1.22-.92-1.85-1.37-.63-.44-1.17-1.28-.79-1.95.32-.57,1.14-.68,1.55-1.21.33-.42.32-1.06-.02-1.45-1.34-1.57-2.83,1.62-3.56,2.38-.21.22-.41.41-.6.56h0c-.01.15-.02.28-.02.42-.02.43-.02.88-.02,1.32,0,.44-.02.88-.02,1.32,0,.36.01.71.02,1.07,0,.36,0,.72.02,1.07,0,.17,0,.34.01.51.29,8.15,1.93,15.98,4.71,23.26,1.27,3.32,2.78,6.53,4.53,9.6.73,1.33,1.52,2.64,2.36,3.93,1.03,1.59,2.11,3.14,3.27,4.64,1.08,1.44,2.23,2.84,3.44,4.19,1.65,1.87,3.4,3.64,5.24,5.34,1.63,1.51,3.33,2.93,5.1,4.29" style="fill:#006837; stroke-width:0px;"/><path d="m13.28,51.94c1.38-1.17,3.78-1.31,4.84.15.76,1.04.59,2.47.39,3.75-.27,1.72-.54,3.43-.82,5.15-.08.51-.15,1.07.07,1.54.52,1.09,2.32.88,3.01-.09.7-.99.62-2.31.43-3.49-.19-1.19-.43-2.45.04-3.56,1.17-2.76,5.34-2.34,7.75-4.14,1.5-1.11,2.17-2.98,3.06-4.62.89-1.64,2.38-3.27,4.26-3.19.63.02,1.25.26,1.89.23,1.85-.06,2.93-2.74,1.62-4.04-.27-.28-.63-.5-.82-.84-.33-.61.02-1.4.59-1.82.56-.41,1.28-.52,1.97-.63,1.58-.26,3.17-.5,4.75-.74,1.75-.27,3.99-1.16,3.74-2.89-.21-1.5-2.26-2.17-2.57-3.65-.08-.36-.04-.75-.2-1.09-.48-.95-1.92-.57-2.85-.06-.38-1.38-2.37-2.01-3.48-1.1-.94.77-1.06,2.11-1.38,3.26-.77,2.78-3.01,4.89-5.15,6.86-.72.65-1.52,1.35-2.5,1.39s-1.99-.99-1.55-1.83c.3-.58,1.15-.92,1.07-1.57-.12-.81-1.55-.75-1.83-1.53.56-2.3,3.22-3.25,5.27-4.48,2.47-1.48,4.42-3.83,5.38-6.54.16-.43.29-.94.07-1.35-.31-.58-1.09-.67-1.76-.67-1.57-.02-3.53.19-4.1,1.64-.3.78-.08,1.66-.27,2.47-.55,2.41-3.89,2.68-5.93,4.12-.8.56-1.42,1.33-2.3,1.76-.95.45-2.06.42-3.12.5-.19.01-.38.03-.56.06-.64.89-1.27,1.79-1.87,2.71-.6.92-1.18,1.85-1.73,2.8-2.63,4.44-4.78,9.19-6.43,14.17-.57,1.73-1.08,3.5-1.52,5.29-.44,1.79-.81,3.6-1.12,5.44.73-1.48,1.06-3.32,1.34-4.62.39-1.75.96-3.58,2.33-4.76Z" style="fill:#006837; stroke-width:0px;"/><path d="m75.44,15.85c.7-.91.5-2.22.95-3.27.75-1.75,3.1-2.37,3.91-4.09.31-.66.39-1.47.94-1.96.46-.41,1.13-.49,1.62-.86,1.09-.83.64-2.71-.52-3.44-2.91-1.84-8.26.29-10.77,2.08-3.23,2.31-6.39,5.09-10.68,4.82-1.18-.07-2.42-.4-3.53.02s-1.79,2.06-.84,2.76c.53.39,1.28.28,1.88.55,1.11.51,1.22,2.09.68,3.17-.54,1.08-1.51,1.89-2.15,2.92-.62,1-.9,2.19-.8,3.36.07.81.36,1.65,1.01,2.16,1.34,1.06,3.37.15,4.5-1.12,1.13-1.27,1.91-2.91,3.38-3.77.73-.43,1.58-.63,2.41-.83,1.87-.44,3.73-.88,5.6-1.32.89-.21,1.85-.46,2.41-1.18Z" style="fill:#006837; stroke-width:0px;"/><path d="m156.78,72.28c0-1.06-.04-2.1-.1-3.14s-.14-2.08-.24-3.11c-.08-.84-.18-1.66-.29-2.48-.11-.87-.24-1.74-.39-2.6-.44-2.58-1.02-5.12-1.73-7.61-.28-.96-.57-1.91-.88-2.85-.31-.94-.64-1.87-1-2.8h0c-.38-.71-.77-1.39-1.21-2.06-4.12-6.45-10.1-11.51-14.62-17.68-1.48-2.01-2.63-3.67-5.24-4.06-3.87-.59-5.83,1.59-8.57-2.04-.74-.97-2.03-1.88-3.12-1.3.28.78.57,1.55.86,2.34.06.16.12.34.09.51-.06.55-.88.7-1.35.39-.47-.31-.7-.86-1.03-1.31-1.22-1.73-4.08-1.95-5.57-.45-.06-.73-.55-1.42-1.23-1.72-.15,1.43-1.81,2.48-3.19,2.03-.22-.71,1.06-.84,1.5-1.44.41-.57-.08-1.36-.61-1.83-1.4-1.21-3.24-1.91-5.1-1.96-1.18-.02-2.46.2-3.49-.41-.6-.35-1.02-.93-1.63-1.26-1.3-.73-2.93-.06-4.24.66-1.79.99-3.65,2.23-4.28,4.16-.64,1.93.77,4.54,2.81,4.29.52-.07,1.06-.31,1.56-.17.73.2,1.06,1.03,1.11,1.77.06.73-.02,1.52.34,2.17.35.65,1.42.97,1.83.36.96-.9.84-2.42.6-3.71-.23-1.29-.5-2.74.27-3.79.79-1.06,3.01-.72,2.86.58-.09.77-.97,1.32-.94,2.1.04.79,1.01,1.21,1.81,1.17.8-.02,1.61-.31,2.38-.12.79.19,1.41,1.19.84,1.76-.97,1.09-3.51-.78-4.01.58-.14.35,0,.74-.04,1.11-.09,1.14-1.54,1.55-2.69,1.69-1.15.13-2.37.24-3.41-.24s-1.76-1.84-1.16-2.82c-.59-.42-1.48,0-1.79.65-.32.64-.22,1.4-.13,2.11-1.22-.27-2.31.75-3,1.76-.7,1.02-1.37,2.2-2.56,2.56-1.2.36-2.84-.13-3.46.94-.81,1.39,1.54,3.16.72,4.54-.47.78-1.59.75-2.49,1-2.36.66-3.18,4.07-1.57,5.89,1.59,1.82,4.82,1.72,6.52-.02,1.18-1.19,1.67-2.88,2.52-4.32.86-1.43,2.47-2.73,4.09-2.26.63.19,1.17.63,1.68,1.04.79.65,1.57,1.3,2.36,1.96.5.42,1.06.94,1.01,1.59-.05.52-.46.93-.63,1.42-.49,1.4,1.56,2.74,2.85,1.97,1.3-.77,1.43-2.73.55-3.93-1.22-1.67-3.98-2.51-3.91-4.57,1.41-1.14,3.62.06,4.44,1.67.82,1.6.84,3.5,1.54,5.16.69,1.67,2.63,3.14,4.24,2.33-.42-1.44-.83-2.87-1.25-4.29,1.03-.77,2.22,1.46,3.45,1.09.75-.23.84-1.3.52-2.02-.32-.72-.9-1.32-1.04-2.1-.23-1.42,1.36-2.68,2.8-2.45,1.43.23,2.47,1.59,2.74,2.99.11.56.13,1.15.37,1.66.54,1.11,1.93,1.45,3.08,1.91,1.16.46,2.36,1.61,1.88,2.75-.22.5-.75.97-.56,1.48.18.45.86.65.86,1.14-.01.32-.35.54-.66.67-.77.31-1.62.42-2.37.78-.75.35-1.43,1.07-1.37,1.88.09,1.16,1.49,1.72,2.15,2.68.63.92.54,2.13.94,3.18.38.96,1.15,1.72,1.77,2.54,1.95,2.62,2.4,6,3.35,9.11.42,1.4,1.2,2.97,2.65,3.24.8.14,1.59-.16,2.35-.45,2.1-.82,4.28-1.71,5.75-3.39,1.48-1.69,1.97-4.44.46-6.1-.19-.22-.43-.42-.72-.45-.4-.05-.75.22-1.1.38-1.07.49-2.38.08-3.27-.7-.88-.77-1.42-1.84-1.95-2.89-.57-1.15-1.15-2.31-1.74-3.47.69-.58,1.79-.34,2.51.23.7.57,1.14,1.39,1.71,2.09,1.75,2.16,4.62,3.11,7.4,3.43.7.08,1.43.14,2.09.43,2.08.94,2.67,3.97,4.87,4.62.61.19,1.29.15,1.86.42.87.41,1.3,1.38,1.56,2.3.48,1.71.64,3.5,1.37,5.13.72,1.62,2.18,3.1,3.96,3.12,1.11.02,2.17-.53,2.98-1.31h0c.09-1.61.15-3.21.15-4.84,0-.34,0-.67-.02-1.01Z" style="fill:#006837; stroke-width:0px;"/><path d="m126.96,102.73c-1.1.21-1.32.86-1.92,1.67-.78,1.05-1.9,2.11-2.61,3.15-1.21,1.76-.12,4.51-1.71,5.99-.32.3-.74.5-1.03.83-.64.73-.4,1.98.38,2.56.78.58,1.92.54,2.76.05.84-.49,1.4-1.36,1.69-2.29.21-.66.33-1.42.86-1.87.91-.79,2.32-.2,3.51-.37,5.08-.7,2.9-10.66-1.93-9.72Z" style="fill:#006837; stroke-width:0px;"/><rect x="77.96" y="151.92" width="9.52" height="33.5" style="fill:#263238; stroke-width:0px;"/><path d="m82.72,154.05C37.11,154.05,0,117.34,0,72.21,0,42.5,16.32,15.07,42.6.63l.92-.51,5.53,7.66-1.92,1.39-4.3-5.96C17.85,17.37,2.37,43.71,2.37,72.21c0,43.82,36.04,79.46,80.35,79.46,18.34,0,36.19-6.24,50.43-17.6l-3.34-3.31,1.67-1.69,5.22,5.16-1.01.83c-14.82,12.23-33.63,18.97-52.96,18.97Z" style="fill:#263238; stroke-width:0px;"/><rect x="44.71" y="185.42" width="73.27" height="5.66" style="fill:#263238; stroke-width:0px;"/></g></svg>