<?xml version="1.0" encoding="UTF-8"?><svg id="_Слой_2" xmlns="http://www.w3.org/2000/svg" width="240.54" height="516.42" viewBox="0 0 240.54 516.42"><g id="_Слой_1-2"><rect width="57.87" height="516.42" style="fill:#263238; stroke-width:0px;"/><rect x="57.54" width="183" height="516.42" style="fill:#455a64; stroke-width:0px;"/><rect x="72.33" y="10.14" width="159.54" height="125.39" style="fill:#263238; stroke-width:0px;"/><rect x="72.33" y="148.92" width="159.54" height="125.39" style="fill:#263238; stroke-width:0px;"/><path d="m231.86,355.6s-.03-.45-.05-1.27c-.01-.87-.03-2.08-.05-3.63-.03-3.23-.06-7.89-.11-13.87-.06-12.02-.14-29.33-.24-50.69l.44.44c-41.11.05-97.43.11-159.53.17-.56.55.74-.75.61-.61v4.54s0,4.54,0,4.54c0,3.02,0,6.02,0,9.01,0,5.97,0,11.87,0,17.68,0,11.62-.01,22.89-.02,33.69l-.59-.59c46.26.11,86.06.21,114.35.28,14.13.07,25.39.12,33.17.16,3.84.03,6.82.06,8.9.07.98.02,1.74.03,2.31.04.52.01.8.02.81.04.01.01-.24.02-.74.04-.55,0-1.29.02-2.24.04-2.05.02-4.99.04-8.77.07-7.75.04-18.96.09-33.04.16-28.39.07-68.33.17-114.75.28h-.59s0-.59,0-.59c0-10.8-.01-22.07-.02-33.69,0-5.81,0-11.71,0-17.68,0-2.99,0-5.99,0-9.01v-4.54s0-2.28,0-2.28v-2.27c-.14.13,1.17-1.18.63-.62,62.09.07,118.41.13,159.53.17h.44s0,.44,0,.44c-.1,21.48-.18,38.88-.24,50.96-.05,5.94-.08,10.57-.11,13.77-.02,1.52-.04,2.7-.05,3.55-.02.8-.05,1.18-.05,1.18Z" style="fill:#263238; stroke-width:0px;"/><path d="m231.86,498.29s-.04-.86-.06-2.48c-.01-1.65-.03-4.03-.06-7.12-.03-6.25-.08-15.36-.13-26.94-.06-23.19-.16-56.32-.27-96.24l.52.52c-45.71.03-100.58.06-159.52.1h-.01l.62-.62c-.02,48.08-.05,93.44-.07,132.77l-.55-.55c47.41.11,87.22.21,115.22.28,14,.06,25.04.11,32.63.15,3.76.03,6.65.05,8.66.06.96.01,1.7.02,2.24.03.51.01.78.03.78.03.01.01-.23.02-.72.03-.53,0-1.25.02-2.18.03-1.98.02-4.84.04-8.55.07-7.56.03-18.57.08-32.51.15-28.09.07-68.02.16-115.58.28h-.55s0-.55,0-.55c-.02-39.33-.04-84.69-.07-132.77v-.62s.62,0,.62,0h.01c58.94.04,113.81.07,159.52.1h.52s0,.52,0,.52c-.11,40.05-.2,73.29-.27,96.56-.06,11.54-.1,20.6-.13,26.83-.03,3.04-.05,5.39-.06,7.02-.02,1.58-.06,2.37-.06,2.37Z" style="fill:#263238; stroke-width:0px;"/><path d="m157.25,317.43c0,2.27-1.84,4.11-4.11,4.11s-4.11-1.84-4.11-4.11,1.84-4.11,4.11-4.11,4.11,1.84,4.11,4.11Z" style="fill:#263238; stroke-width:0px;"/><circle cx="153.15" cy="399.19" r="4.11" style="fill:#263238; stroke-width:0px;"/></g></svg>