<?xml version="1.0" encoding="UTF-8"?><svg id="_Слой_2" xmlns="http://www.w3.org/2000/svg" width="452.36" height="342.23" viewBox="0 0 452.36 342.23"><g id="_Слой_1-2"><rect y="49.13" width="452.36" height="20.45" style="fill:#8f6627; stroke-width:0px;"/><rect x="20.78" y="69.58" width="14.82" height="272.05" style="fill:#263238; stroke-width:0px;"/><rect x="394.36" y="69.58" width="14.82" height="272.05" style="fill:#263238; stroke-width:0px;"/><rect x="35.36" y="134.21" width="359" height="112.18" style="fill:#8f6627; stroke-width:0px;"/><rect x="35.6" y="89.76" width="358.76" height="15.87" style="fill:#8f6627; stroke-width:0px;"/><rect x="122.38" y="13.85" width="185.2" height="75.91" rx="4.05" ry="4.05" style="fill:#e8505b; stroke-width:0px;"/><rect x="122.38" y="13.85" width="185.2" height="75.91" rx="4.05" ry="4.05" style="fill:#e8505b; stroke-width:0px;"/><rect x="122.38" y="13.85" width="185.2" height="75.91" rx="4.05" ry="4.05" style="fill:#72521f; stroke-width:0px;"/><path d="m290.22,209.34h-153.24c-11.98,0-21.69-9.71-21.69-21.69h0c0-11.98,9.71-21.69,21.69-21.69h153.24c11.98,0,21.69,9.71,21.69,21.69h0c0,11.98-9.71,21.69-21.69,21.69Z" style="fill:#e8505b; stroke-width:0px;"/><path d="m290.22,209.34h-153.24c-11.98,0-21.69-9.71-21.69-21.69h0c0-11.98,9.71-21.69,21.69-21.69h153.24c11.98,0,21.69,9.71,21.69,21.69h0c0,11.98-9.71,21.69-21.69,21.69Z" style="fill:#72521f; stroke-width:0px;"/><path d="m144.6,341.63h-11.64V6.68c0-3.21,2.61-5.82,5.82-5.82h0c3.21,0,5.82,2.61,5.82,5.82v334.95Z" style="fill:#455a64; stroke-width:0px;"/><path d="m144.6,341.63s-.03-.64-.04-1.85c-.01-1.24-.03-3.02-.04-5.34-.02-4.72-.05-11.6-.09-20.46-.05-17.76-.11-43.39-.19-75.06-.05-31.65-.11-69.32-.18-111.15-.02-20.9-.03-42.85-.05-65.59,0-11.37,0-22.95-.01-34.69,0-5.87,0-11.79,0-17.74-.05-1.46.13-3.07-.16-4.31-.32-1.3-1.17-2.46-2.31-3.16-2.28-1.5-5.67-.76-7.1,1.6-.64.98-.88,2.07-.84,3.32v3.82c0,2.55,0,5.08,0,7.62,0,5.06,0,10.1,0,15.1,0,10.01,0,19.9,0,29.65,0,19.5-.02,38.45-.03,56.7-.04,36.49-.07,70.18-.1,99.92-.16,59.38-.28,102.94-.33,121.64l-.15-.15c3.95.04,6.83.07,8.77.09,1.92.03,2.87.06,2.87.06,0,0-.88.04-2.78.06-1.96.02-4.87.05-8.86.09h-.15s0-.15,0-.15c-.05-18.7-.17-62.26-.33-121.64-.03-29.74-.06-63.43-.1-99.92,0-18.25-.02-37.19-.03-56.7,0-9.75,0-19.64,0-29.65,0-5.01,0-10.04,0-15.1,0-2.53,0-5.07,0-7.62v-3.82c-.06-1.3.24-2.83,1.03-3.99.9-1.41,2.37-2.43,4-2.79,1.62-.36,3.38-.07,4.79.81,1.41.87,2.46,2.3,2.85,3.91.36,1.69.13,3.11.2,4.62,0,5.97,0,11.9,0,17.79,0,11.78,0,23.38-.01,34.79-.02,22.8-.04,44.8-.05,65.76-.07,41.88-.13,79.6-.18,111.29-.08,31.61-.15,57.19-.19,74.92-.04,8.8-.07,15.63-.09,20.32-.02,2.29-.03,4.04-.04,5.26-.01,1.18-.04,1.76-.04,1.76Z" style="fill:#455a64; stroke:#333; stroke-miterlimit:10; stroke-width:.5px;"/><path d="m296.46,341.63h-11.64V6.68c0-3.21,2.61-5.82,5.82-5.82h0c3.21,0,5.82,2.61,5.82,5.82v334.95Z" style="fill:#455a64; stroke-width:0px;"/><path d="m296.46,341.63s-.03-.64-.04-1.85c-.01-1.24-.03-3.02-.04-5.34-.02-4.72-.05-11.6-.09-20.46-.05-17.76-.11-43.39-.19-75.06-.05-31.65-.11-69.32-.18-111.15-.02-20.9-.03-42.85-.05-65.59,0-11.37,0-22.95-.01-34.69,0-5.87,0-11.79,0-17.74-.05-1.46.13-3.07-.16-4.31-.32-1.3-1.17-2.46-2.31-3.16-2.28-1.5-5.67-.76-7.1,1.6-.64.98-.88,2.07-.84,3.32v3.82c0,2.55,0,5.08,0,7.62,0,5.06,0,10.1,0,15.1,0,10.01,0,19.9,0,29.65,0,19.5-.02,38.45-.03,56.7-.04,36.49-.07,70.18-.1,99.92-.16,59.38-.28,102.94-.33,121.64l-.15-.15c3.95.04,6.83.07,8.77.09,1.92.03,2.87.06,2.87.06,0,0-.88.04-2.78.06-1.96.02-4.87.05-8.86.09h-.15s0-.15,0-.15c-.05-18.7-.17-62.26-.33-121.64-.03-29.74-.06-63.43-.1-99.92,0-18.25-.02-37.19-.03-56.7,0-9.75,0-19.64,0-29.65,0-5.01,0-10.04,0-15.1,0-2.53,0-5.07,0-7.62v-3.82c-.06-1.3.24-2.83,1.03-3.99.9-1.41,2.37-2.43,4-2.79,1.62-.36,3.38-.07,4.79.81,1.41.87,2.46,2.3,2.85,3.91.36,1.69.13,3.11.2,4.62,0,5.97,0,11.9,0,17.79,0,11.78,0,23.38-.01,34.79-.02,22.8-.04,44.8-.05,65.76-.07,41.88-.13,79.6-.18,111.29-.08,31.61-.15,57.19-.19,74.92-.04,8.8-.07,15.63-.09,20.32-.02,2.29-.03,4.04-.04,5.26-.01,1.18-.04,1.76-.04,1.76Z" style="fill:#455a64; stroke:#333; stroke-miterlimit:10; stroke-width:.5px;"/></g></svg>