<?xml version="1.0" encoding="UTF-8"?><svg id="_Слой_2" xmlns="http://www.w3.org/2000/svg" width="267.12" height="202.71" viewBox="0 0 267.12 202.71"><g id="_Слой_1-2"><g style="opacity:.8;"><polygon points="267.12 3.83 267.12 202.71 10.24 202.71 .98 5.22 267.12 3.83" style="fill:#7f7364; stroke-width:0px;"/></g><rect x="30.56" y="-28.59" width="197.73" height="256.88" transform="translate(29.58 229.27) rotate(-90)" style="fill:#b2873a; stroke-width:0px;"/><path d="m258.84,199.69H0V0h258.84v199.69ZM1.96,197.73h254.92V1.96H1.96v195.77Z" style="fill:#534741; stroke-width:0px;"/><rect x="28.8" y="21.3" width="201.24" height="151.38" style="fill:#367891; stroke-width:0px;"/><path d="m230.04,21.3s-.34.02-.98.03c-.66,0-1.6.02-2.83.03-2.51.01-6.19.03-10.96.06-9.59.03-23.57.07-41.27.12-35.39.06-85.63.14-145.19.23l.46-.46c.02,45.41.03,96.95.05,151.36v.02l-.51-.51c74.94.03,144.4.07,201.24.09l-.42.42c.09-45.75.17-83.54.22-109.92.05-13.2.08-23.54.11-30.61.02-3.52.04-6.21.05-8.06.02-1.83.05-2.79.05-2.79,0,0,.03.9.05,2.7.01,1.83.03,4.5.05,7.98.02,7.05.06,17.36.11,30.51.05,26.45.13,64.33.22,110.18v.42s-.42,0-.42,0c-56.83.03-126.3.06-201.24.09h-.51s0-.51,0-.51v-.02c.02-54.42.03-105.96.05-151.36v-.46s.46,0,.46,0c59.68.09,110.03.17,145.49.23,17.66.05,31.61.09,41.17.12,4.74.02,8.38.04,10.87.05,1.21.01,2.13.02,2.78.03.62,0,.92.03.92.03Z" style="fill:#e0e0e0; stroke-width:0px;"/><path d="m.98.52c.08-.11,1.74.91,4.35,2.67,2.61,1.76,6.17,4.24,10.03,7.09,3.86,2.85,7.27,5.55,9.69,7.57,2.41,2.02,3.84,3.34,3.76,3.45-.09.11-1.68-1.01-4.2-2.88-2.81-2.09-6.15-4.57-9.85-7.31-3.69-2.75-7.04-5.24-9.84-7.33C2.41,1.87.9.64.98.52Z" style="fill:#e0e0e0; stroke-width:0px;"/><path d="m257.86.98c.17.23-5.93,4.96-13.61,10.57-7.68,5.61-14.05,9.98-14.21,9.75-.17-.23,5.93-4.96,13.61-10.57,7.68-5.61,14.05-9.97,14.21-9.75Z" style="fill:#e0e0e0; stroke-width:0px;"/><line x1="257.86" y1="198.71" x2="229.02" y2="172.68" style="fill:#fff; stroke-width:0px;"/><path d="m229.02,172.68c.19-.21,6.8,5.45,14.76,12.63,7.97,7.19,14.27,13.18,14.08,13.39s-6.8-5.45-14.77-12.63c-7.96-7.19-14.27-13.18-14.08-13.39Z" style="fill:#e0e0e0; stroke-width:0px;"/><path d="m.98,198.71c-.19-.21,5.82-5.94,13.43-12.81,7.61-6.86,13.92-12.26,14.11-12.05.19.21-5.82,5.94-13.43,12.81-7.6,6.86-13.92,12.26-14.11,12.05Z" style="fill:#e0e0e0; stroke-width:0px;"/><path d="m210.24,146.81c-.11.56-.46,1.17-.93,1.56-.33.28-1.4.85-1.52.05-.03-.22.21-1.26.3-1.47.26-.62.54-.22.97-.13.43.08.84-.32,1.19,0Z" style="fill:#d9e021; stroke-width:0px;"/><path d="m207.34,81.97c.15.53.25,1.06.37,1.56-.41.61-1.22.39-1.82.71-.28.15-.36.72-.63.8-.22.07-.39-.23-.59-.22-.53.01-.79,1.07-1.45.8-.37.27.01,1.29-.45,1.38-.33.06-.51-.45-.71-.76-.24-.38-.58-.59-.59-.89,0-.32.53-.85.7-1.07.21-.27.63-.78.89-.85.49-.13,1,.06,1.37-.13.32-.17.34-.78.52-.94.15-.13.32-.1.45-.18.34-.22.72-1,.52-1.78-.12-.5-.81-1.04-.37-1.65.66.08,1.52.86,1.63,1.65.04.31-.1.62-.07.94.01.18.16.38.22.62Z" style="fill:#ff7bac; stroke-width:0px;"/><path d="m207.49,77.11c-.08.23-.25.18-.41.31-.15.13-.33.54-.52.58-.3.07-.63-.35-.93-.27-.35.1-.14.42-.26.8-.3-.08-.8-.49-.82-.89,0-.26.27-.41.33-.71.11-.51-.18-.77-.33-1.25-.01-.07.04-.08.04-.13.36-.09,1.07.73,1.89.89.53.1.97.05,1,.67Z" style="fill:#ff7bac; stroke-width:0px;"/><path d="m206.12,122.38c.04.37-.5.33-.56.09.01-.29.49-.38.56-.09Z" style="fill:#e0e0e0; stroke-width:0px;"/><path d="m203.52,73.36c.37.23,1.26.76.63,1.25-.38-.17-.78-.75-.63-1.25Z" style="fill:#ff7bac; stroke-width:0px;"/><path d="m201.81,120.41c.42-.28.89-.89,1.63-.58-.16.56-.72.54-1.08.8-.36.26-.66.71-1.11.76-.03-.08-.08-.14-.15-.18,0-.5.41-.61.71-.8Z" style="fill:#c69c6d; stroke-width:0px;"/><path d="m200.81,112.03c.44,0,.85-.16,1.15.04-.06,1.12-1.5.27-2.45.45-.2.04-.26.23-.48.13.01-.38.35-.76.71-.8.27-.03.68.18,1.08.18Z" style="fill:#c69c6d; stroke-width:0px;"/><path d="m201.18,113.41c.04.62-.66.69-.85,1.16.31.57.43,1.36.78,1.87-.01.34.06.78-.11.94-.75.17-1.15-1.44-1.45-2.01-.57.13-.05,2.32-.82,2.05-.38-.13,0-.76-.07-1.25-.07-.43-.42-.52-.45-.85-.02-.27.25-.57.33-.85.12-.4.04-1.18.45-1.2.2-.01.47.5.59.53.44.11.97-.54,1.6-.4Z" style="fill:#c69c6d; stroke-width:0px;"/><path d="m199.81,120.06c-.14.34-.9.18-.96-.13.13-.35.9-.25.96.13Z" style="fill:#c69c6d; stroke-width:0px;"/><path d="m199.1,121.13c-.04.07-.09.13-.15.18-.28-.11-.58-.19-.67-.54.21-.37.81-.06.82.36Z" style="fill:#c69c6d; stroke-width:0px;"/><path d="m198.1,120.01c-.19.32-.84-.03-1.08.31-.39-.01-.78-.02-.85-.4.11-.33.46-.1.74-.13.45-.05,1.07-.43,1.19.22Z" style="fill:#c69c6d; stroke-width:0px;"/><path d="m192.87,137.09c0-.39-.21-.74-.26-1.16-.02-.15.02-.35,0-.54-.02-.28-.14-.51-.11-.67.05-.3.34-.33.41-.58.12-.42-.14-.48-.15-.98,0-.35.22-.52.37-.98.07-.21.07-.61.15-.76.1-.19.51-.35.67-.44.57-.34,1.03-.96,1.6-1.07.14-.03.34.02.45,0,.34-.07.76-.41,1.22-.53.45-.12.85-.08,1.19-.31.37-.26.9-.93,1.04-1.34.17-.49.12-.9.45-1.07.16-.08.32,0,.48-.04.17-.05.54-.26.67-.4.26-.28.3-.73.59-1.03.2-.2.58-.51.85-.67.16-.1.45-.2.59-.18.52.05.77.93,1.34.76.2-.06.41-.58.59-.89.27-.46.46-1.07.93-1.2.38-.11.8.17,1-.22.05-.28-.18-.45,0-.62.43.03,1.16.73,1.82.76.35.01,1.01-.46,1.08.18.03.28-.26.51-.33.8-.05.21.07.32-.04.54-.3.14-.62.22-.63.62-.01.51.6.75.96,1.03.25.19.46.48.59.58.11.08.3.12.37.18.24.19.41.61.74.63.38.01.75-.57.96-1.12.25-.64.26-1.42.37-2.1.04-.23.17-.45.22-.67.14-.61.34-1.43.78-1.65.44.56.59,1.66.52,2.59.3.27.82.18.89.8.03.22-.09.49-.07.71.03.38.26.7.3,1.03.07.59-.08,1.08.15,1.52.29.55.86.53,1.23,1.12,0,.37.11.51.19.8.03.14,0,.36.04.45.12.3.44.33.56.58.06.12.04.36.11.58.1.33.35.57.52.89.17.31.44.65.48.89.07.44-.19.75-.26,1.11-.08.44,0,1.02-.15,1.47-.17.54-.6,1.06-.93,1.74-.27.55-.64,1.18-1.04,1.56-.23.23-.51.36-.74.58-.36.35-.65.8-.96,1.2-.33.42-.74.75-1,1.11-.38.53-.57,1.39-1.22,1.47-.38.05-.73.01-1.08.18-.55.26-.91.75-1.19.76-.29.01-.55-.4-.82-.45-.3-.05-.53.27-.96.27-.18,0-.27-.13-.52-.22-.53-.2-1.11-.19-1.19-.89-.04-.38.2-.55.18-.89-.02-.34-.29-.43-.41-.71.07-.31.09-.69-.19-.89,0-.28.05-.48.15-.62-.22.11-.5.18-.74.36-.27.2-.47.65-.78.58-.29-.12-.07-.47-.11-.76-.03-.22-.44-1.14-.63-1.29-.21-.18-1-.53-1.26-.58-1.15-.22-1.88.52-2.78.63-.23.03-.49-.05-.7,0-.75.16-1.58.87-2.04,1.34-.77.09-1.55-.19-2.34.09-.79.28-1.24,1.06-2.45.85-.24-.25-.67-.37-.67-.8,0-.34.42-.56.56-.8.15-.26.4-.87.41-1.25,0-.3-.17-.65-.15-1.02.01-.29.15-.6.15-.89Z" style="fill:#d9e021; stroke-width:0px;"/><path d="m192.24,118.49c.2-.03.35-.21.56-.22.43-.02.86.38,1.37.31.11.14.04.26.04.49.43.28,1.15.23,1.37.76-.33.41-.81.12-1.22.04-.38-.06-.78-.03-1.19-.09-.52-.07-.99-.42-1.48-.49-.3-.05-.61.05-.89,0-.33-.06-1.58-.63-1.6-1.02-.02-.41.56-.53,1.08-.45.67.11,1.11.81,1.97.67Z" style="fill:#c69c6d; stroke-width:0px;"/><path d="m193.24,115.42c-.28-.09-.54-.04-.67-.13-.25-.19-.22-.72-.3-1.03-.08-.31-.39-.47-.56-.89-.24-.61-.35-1.97.3-2.1.26-.05.52.19.7.13.36-.11.3-.66.59-.89.17-.13.47-.07.71-.18.24-.11.43-.38.59-.62.16-.22.28-.6.48-.76.23-.18.44-.19.63-.36.49-.45.5-1.07.89-1.61.33-.46.85.44.89.8.18.28.55.35.7.67-.22.79-.84.85-.7,1.96.02.18.12.52.22.76.11.26.42.54.41.71-.02.33-.58.32-.71.67-.11.32,0,.35-.04.85-.16.36-.58.45-.71.89-.16.53.02,1.22-.33,1.61-.25-.02-.52.26-.82.22-.33-.04-.64-.57-1.15-.58-.2,0-.43.15-.63.13-.16-.01-.29-.19-.52-.27Z" style="fill:#c69c6d; stroke-width:0px;"/><path d="m190.83,114.43c.94,0,.94,1.76,0,1.76s-.94-1.76,0-1.76Z" style="fill:#c69c6d; stroke-width:0px;"/><path d="m189.45,114.21c.12.02.53.71.52.89-.01.31-.41.3-.52.71-.17.64.08,1.37-.22,1.7-.17.12-.47.09-.74.09-.67-.57-1.21-1.25-1.78-2.01-.21-.28-.46-.52-.59-.8-.19-.43-.26-.89-.48-1.29-.19-.35-.55-.6-.74-.98-.16-.31-.17-.72-.33-1.03-.15-.28-.41-.4-.6-.62-.12-.15-.19-.37-.3-.53-.47-.67-1.36-1.02-1.41-2.01.19-.26.39.1.74.18.23.05.5-.02.67.04.34.14.57.77.93,1.11.2.19.46.33.67.53.22.22.38.54.56.67.24.18.58.29.89.54.43.33,1.2.67,1.3,1.34.03.17-.06.45-.04.58.05.23.3.34.45.54.18.25.22.62.48.67.26.09.27-.36.56-.31Z" style="fill:#c69c6d; stroke-width:0px;"/><path d="m171.93,104.85c.32.13,1.39,1.68,1.08,2.54-.09.24-.46.56-.82.49-.74-.14-.59-2.1-.37-2.9.02-.06.06-.11.11-.13Z" style="fill:#c69c6d; stroke-width:0px;"/><path d="m129.36,63.95c.04.75-.95.65-1.08,1.29-.06.29.12.68.08.94-.08.47-.45.33-.93.58-.24.13-.48.59-.74.62-.24.03-.39-.17-.56-.13-.24.06-.16.41-.52.49-.29.06-.78-.31-.82.13-.02.28.45.44.74.4.23-.03.4-.22.63-.22.44,0,.73.39,1,.4.64.02,1.26-.71,1.93-.63.3.04.48.29.7.27.36-.04.66-.54.93-.71-.11-.75.01-1.74.59-1.78.4-.03,1,.82,1.08,0,.03-.36-.32-.67-.56-.67-.21,0-.49.51-.67.09,0-.41.38-.3.59-.4.16-.08.27-.28.45-.36.88-.37,2.11.37,2.45-.53-.78-.8-2.12.29-3.01.22-.38-.03-.88-.37-1-.8-.04-.14,0-.32-.04-.58-.03-.28-.16-.58-.15-.76.04-.81,1.71-.96,1.71-1.96-.32-.37-1.25-.31-1.56.09-.11.14-.1.43-.26.71-.33.61-1.41.68-1.74,1.43-.07.17-.21.62-.15.89.09.42.87.54.89.98Zm11.69,59.58c.17-.33.39-1.25,0-1.47h-.07c-.17.37-.34,1.26.07,1.47Zm-.52-9.32c.13-.31.42-.64.37-1.02-.11-.86-1.44-.44-1.6.18-.1.41.06.74-.08,1.16.15.33.51.4.97.36.25-.13.22-.39.33-.67Zm-2.26,4.59c.15-.33-.23-.54-.3-.89-.07-.41.08-.89-.22-1.12h-.11c-.27.73.11,1.94.63,2.01Zm25.31-44.29c-.14-.34-.54.1-.37.4.25.02.34-.16.37-.4Zm-8.65,1.83c.6-.14,0-1.3-.45-1.16-.59.18.04,1.25.45,1.16Zm-2.75,5.75c.19-1.55-.82-1.66-1-2.76.09.01.04-.13.11-.13.24-.14.61.23.74-.13,0-.53-.55-.92-1.11-.67-.16-.13-.18-.43-.22-.71-.42-.3-1.46-.96-1.45-1.56.01-.5.54-.77,1.15-.76.26-.23.09-.95-.15-1.11-.96-.25-1.47-.08-2.08.45-.29.25-.62.43-.78.58-.15.14-.35.52-.33.71.02.28.35.44.48.8.07.19.05.42.11.58.16.43.58.71.89,1.07.22.26.84.81.85,1.11.01.25-.19.31-.26.58-.07.26-.15.89-.11,1.11.08.49.5.51.89.71.38.21.75.57,1.15.58.42.01.88-.15,1.11-.45Zm-8.72-3.21c1.01-.22.55-1.24.04-1.6-.39-.28-.85-.52-1.3-.85-.26-.19-1.26-.55-1.26-.94,0-.42.74-.56.44-1.29-.51-.15-1.72.09-1.63.76.05.39.43.17.52.58-.36.16-.81.56-1.19.49-.45-.09-.57-.76-.82-1.16-.35.01-.59-.41-1-.36-.44.06-.67.82-.89,1.21-.12.2-.31.31-.37.49-.04.11,0,.29-.04.45-.13.5-.48.68-.45,1.11.03.39.38.56.41.89-.02.34-.48.16-.45.58.66.66.7-.31,1.04-.45.27-.11.8.09,1.15,0,.28-.07.5-.39.82-.53.19-.09.44-.17.71-.18,1.18-.06,1.94.86,2.97.89.34,0,.95-.01,1.3-.09Zm-3.89,6.34c.13-.49,1.49-.7,1.51-1.07.02-.48-.15-.84-.19-1.52-.69-.5-1.2.46-1.89.36-.43-.06-.73-.66-1.19-.58-.25.05-.37.43-.63.49-.53.12-.77-.51-1.34-.27-.79-.73-1.15-1.91-1.34-3.26-.43-.68-1.09-.13-1.41.31-.2,0-.44-.13-.48.13-.15.82.97.91.96,1.47,0,.36-.44.33-.63.58-.21.26-.07.5-.33.67-.73.11-.97-.37-.97-1.16-.32-.58-.72-1-1-1.47-.11-.18-.26-.45-.3-.71-.03-.21.08-.47.04-.71-.08-.43-.74-.75-1.15-.98-.44-.25-.99-.49-1.3-.8-.22-.22-.32-.61-.52-.76-.17-.13-.37-.1-.52-.22-.2-.17-.17-.46-.45-.54-.14-.06-.36.17-.45.31-.18.97.48,1.04.78,1.47.21.3.31.74.52.94.22.21.53.17.82.31.2.1.33.4.52.53.35.26.92.3.97.8-.22.18-.72-.26-.89.18-.04.29.19.44.19.71,0,.44-.42.92-.78.85-.04-.26.19-.48.19-.76-.02-.57-.97-1.43-1.45-1.69-.23-.12-.5-.13-.71-.27-.36-.25-1-.85-1.22-1.2-.27-.42-.49-1.2-1.08-1.16-.24.02-.43.28-.63.4-.18.11-.37.21-.56.36-.22.17-.39.35-.59.36-.47.02-.86-.42-1.26-.31-.13.04-.25.18-.41.36,0,.26.06.43.04.71-.12.25-.48.24-.74.4-.38.24-.73.74-1.04,1.11-.2.24-.38.44-.41.62-.02.15.1.43.08.63-.03.21-.37.66-.59.85-.13.11-.31.12-.45.22-.29.21-.42.48-.67.53-.65.15-1.83-.16-1.82.67,0,.55.63.55,1,.53.52-.02.97.13,1.26.05.2-.06.42-.33.63-.45.13-.07.27-.07.37-.13.22-.13.35-.35.52-.45.34-.19.97-.33,1.34-.36.5-.04,1.02.06,1.67,0,.23-.02.46-.2.71-.22.4-.04.94.19,1.26.18.23,0,.48-.27.74-.27.3,0,.61.26.67.49.03.13-.06.34-.04.54.04.32.27.46.26.67-.02.28-.6.65-.52.98.05.21.47.43.67.58.21.15.57.37.82.4.21.03.4-.07.59-.04.32.04.84.27,1.04.45.35.3.3.77.7.94.17.07.48.03.7.09.54.14.94.68,1.34.62.62-.09.34-.79.41-1.29.16-1.14,2.01-1.09,2.38-.31.27.09.51.01.82.13.18.07.31.3.48.36.13.04.32-.02.48,0,.71.1,1.36.73,1.97.62.39-.07.67-.51,1.04-.53l1.46.53.47,2.77c.15.58.38,1.07.63,1.56.23.44.55.92.7,1.43.06.19.05.43.11.62.23.71.97.92,1.11,1.74.1.55-.02.92.11,1.47.13.52.77.83,1.04,1.34.22.41.22.99.37,1.38.22.57.84.82,1.3,1.2.41.35.7.88,1.04,1.25.2.22.47.26.52.49.06.3-.11.4-.15.67.29.36.56,1.02,1.04,1.07.2.02.44-.22.74-.27.15-.03.32.03.45,0,.2-.04.37-.25.6-.31.38-.1.82-.06,1.3-.13.45-.07.77-.53,1.11-.4.38.5.11,1.07,0,1.56-.04.17-.04.35-.07.49-.2.79-.73,1.38-.97,2.1-.07.22-.06.49-.15.71-.28.72-.85,1.42-1.3,2.01-.25.33-.47.63-.74.89-.27.26-.59.41-.89.67-.59.52-1.21,1.27-1.63,1.96-.16.27-.24.58-.41.8-.24.32-.62.48-.82.8-.16.25-.26.71-.45,1.16-.2.51-.63.85-.56,1.56.03.27.23.44.3.71.12.48.03.88-.04,1.38.21.61.36,1.29.74,1.7.05.9-.06,1.78,0,2.54.04.49.2.85.04,1.29-.14.4-.68,1.09-1,1.34-.35.27-.89.34-1.26.67-.26.23-.48.63-.74.89-.44.44-1.04.85-1.08,1.29-.02.26.17.64.22.89.15.66.29,1.61.04,2.32-.27.77-1.63.61-1.78,1.43-.05.25.09.45.07.71-.01.23-.26,1.05-.37,1.29-.16.37-.54.53-.78.85-.3.4-.46.97-.78,1.38-.44.57-1.03,1.16-1.6,1.65-.49.43-1.38.87-2.15.94-.45.04-.93-.13-1.41-.04-.17.03-.36.22-.59.27-.13.03-.27-.03-.41,0-.23.05-.45.27-.67.27-.48,0-1.1-.7-1.11-1.38,0-.26.19-.52.19-.76,0-.28-.29-.64-.52-1.16-.22-.5-.3-1.06-.52-1.47-.23-.43-.53-.64-.7-.98-.34-.69-.37-1.5-.48-2.32-.04-.27-.19-.56-.22-.89-.04-.41.04-.86-.04-1.2-.06-.26-.3-.53-.45-.85-.26-.58-.45-1.33-.67-1.78-.21-.42-.63-.86-.67-1.34-.03-.32.03-.93.07-1.25.04-.31.23-.56.3-.89.04-.22,0-.47.04-.71.19-1.02,1.12-1.39,1-2.63-.05-.53-.36-.79-.41-1.38-.02-.28.12-.52.11-.8,0-.38-.27-.94-.41-1.29-.38-.98-.61-1.88-1.15-2.63-.3-.41-.68-.69-.93-1.07-.2-.31-.44-.88-.45-1.11,0-.25.16-.41.22-.67.08-.33.08-.95.19-1.47.05-.24.26-.82.22-1.2-.04-.37-.5-1.09-.89-1.2-.52-.15-1.05.2-1.71.13-.56-.43-.52-1.55-1.34-1.69-1.07-.19-2.16.33-2.9.71-.42.22-.85.56-1.22.58-.35.02-.7-.23-1.04-.27-.44-.06-1.01,0-1.45.09-.43.09-.81.46-1.19.49-.72.07-1.4-.78-1.86-1.2-.28-.26-.56-.47-.82-.71-.28-.26-.64-.42-.85-.67-.29-.34-.29-.93-.45-1.38-.18-.53-.73-.92-1.15-1.43-.31-.38-1.03-.94-1.11-1.43-.04-.25.09-.53.07-.8-.02-.39-.26-.61-.26-.89,0-.39.39-.69.48-1.03.05-.17.02-.41.07-.62.1-.45.35-.72.3-1.38-.02-.26-.21-.5-.22-.85,0-.23.13-.37.11-.58-.03-.38-.44-.45-.48-.89-.04-.45.36-.82.59-1.34.11-.23.16-.58.26-.76.21-.38.55-.56.71-.94.12-.28.15-.68.26-.89.14-.27.41-.41.67-.76.21-.28.3-.63.45-.76.19-.16.47-.2.67-.31.69-.38,1.19-.86,1.52-1.65-.1-.72.05-1.02.3-1.52.23-.46.39-.9.78-1.16.46-.32.9-.34,1.22-.94.16-.3.41-.81.41-1.11,0-.44-.38-1.01-.71-1.07-.34-.06-.85.31-1.04-.13-.06-.14.02-.47,0-.62-.04-.29-.25-.5-.26-.71-.02-.42.34-.85.45-1.34.14-.66,0-1.16-.04-1.92.52-.98,1.67-.5,2.82-.4.17.01.37-.05.56-.04.68.02,1.22.27,1.45-.45.09-.27.16-1.26.11-1.52-.06-.3-.55-1.07-.78-1.25-.37-.28-.9-.16-1.11-.67.17-.88.99-.15,1.48-.36.25-.11.22-.63.45-.71.15-.06.35.18.56.18.18,0,.83-.4,1-.54.24-.19.31-.59.52-.76.14-.11.33-.1.48-.18.32-.16.72-.5.93-.8.31-.44.44-.99.82-1.07.5-.11,1.62.12,1.71-.54.08-.62-.46-1.11-.26-1.78.16-.53.55-.44,1.11-.76.27.23.19.89.22,1.29.34,0,1.05-.12,1.11-.49.08-.46-.5-.93-.63-1.2-.14-.3-.17-.83-.45-.89-.57-.13-1.11.94-1.82.94-.46,0-.95-.43-1.08-.85-.07-.24,0-.46-.04-.71-.05-.36-.23-.74-.15-1.25.28-.59.94-.68,1.41-.98.18-.11.32-.36.52-.45.33-.15.82,0,1.15-.22.21-.14.15-.38.3-.67.09-.18.32-.28.45-.49.09-.14.1-.36.19-.49.32-.48.91-.66,1.15-1.16.11-.22-.18-.3-.11-.62.12-.31.58-.08.85-.13.37-.07.71-.61,1.11-.71.42-.11.87-.04,1.26-.22.23-.11.45-.36.67-.4.08-.01.3.05.41.05.14,0,.29-.11.48-.13.27-.03.61.08.97.09.59.02,1.14-.21,1.63.05.26.13.23.48.56.62.17.07.39-.03.63,0,.36.04.74.34,1.22.4.17.02.35-.03.52,0,.53.08,1.11.41,1.63.62.43.18,1.36.4,1.37.89.02.59-.8.76-1.15.76-.58,0-1.36-.41-1.97-.18,0,1.01.92,1.77,1.74,1.65.07-.47-.47-.21-.41-.67.37-.34.81.23,1.34.13.2-.07.17-.42.22-.67.44-.32.99-.79,1.67-.45.03-.08.08-.14.15-.18.04-.49-.45-.75-.19-1.2.13-.32.82-.21.93.05.05.3-.17.27-.15.53.13.36.43.41.59.4.36-.02.44-.42.78-.63.14-.08.34-.09.52-.18.21-.1.39-.3.56-.36.12-.04.31,0,.48-.05.22-.06.45-.27.63-.27.22,0,.38.31.67.36.15.02.33-.11.56-.13.18-.02.37.03.52,0,.35-.06.6-.29.89-.27.21.01.56.35.7.18.24-.29-.32-.5-.15-.76.57.05,1.17.04,1.74.13.85.15,1.65.65,2.41.67-.07-.62-.66-.44-.93-.71-.08-.08-.41-.74-.41-.94,0-.1.42-.96.52-1.07.33-.37,1.4-.37,1.71.13.21.34.14.86.45.85.26,0,.4-.78.71-.8.25-.02.38.5.63.49.31,0,.52-.7.93-.71.22,0,.29.14.63.18.23-.18-.08-.42.04-.67.42-.36,1.36-.09,1.89-.31.15-.21-.19-.36-.04-.58.46-.38,1.23-.42,2.01-.58.48-.1.92-.5,1.3-.54.39-.04.76.27,1.11.27.21,0,.46-.08.67-.18.21-.1.35-.34.56-.4.33-.1.74.05,1.11,0,.4-.05.75-.23,1.04-.18.27.05.49.4.74.45.78.15,1.59-.14,2.3.09.13.04.26.2.41.27.48.21.8.14.89.85.37.16.6.57,1.04.71.3.09.59-.05.93-.05.44,0,1,.02,1.37.09.21.04.39.23.59.27.15.03.35-.02.52,0,.23.03.44.14.63.13.39-.01.68-.43,1-.49.17-.03.4.07.56.09.63.06,1.35-.1,1.86.05.27.08.74.44,1.04.71.22.2.35.52.56.67.2.14.69.4.89.36.24-.05.25-.36.48-.49.74-.2,2.04.28,2.64-.05.23-.13.18-.42.37-.58,1.11-.07,2.22.06,3.27.09.37.01.75-.11,1.08-.04.37.08.64.52,1,.67.24.1.67.05,1.04.13.25.06.45.24.63.27.4.07.78-.05,1.15-.09.85-.08,1.94-.14,2.78.27.45.22.63.65,1.11.71.69.09,1.75-.07,2.45,0,.17.02.32.1.45.09.24-.02.38-.26.67-.27.37,0,.95.69,1.49.58.23-.19-.18-.45.04-.62.21-.21.49,0,.82,0,.18,0,.39-.11.56-.09.41.04.79.48,1.3.62.4.11.95.15,1.45.09.36-.05.66-.19,1-.13.16.03.31.17.48.22.16.05.31,0,.45.04.12.04.25.18.37.22.69.24,1.61.35,2.34.63.43.16.87.48,1.22.49.18,0,.33-.09.56-.09,1.12,0,2.44.57,2.34,1.83-1.31.35-2.41-1.09-3.79-.67-.22.07-.46.36-.44.62.05.78,1.68.71,1.82,1.47-.27.24-.56.01-.78.05-.33.05-.9.47-1.11.71-.25.28-.47,1.01-.74,1.07-.33.08-.84-.39-1.34-.27-.18.05-.36.32-.52.36-.41.09-.93-.27-1.19.31.13.41.05.98.33,1.2.18.15.41.03.63.13.26.12.41.5.63.71.18.17.38.18.48.4.02.33-.11.36-.07.58.06.37.54.46.56.71.02.32-.31.25-.37.58-.02.21.2.26.22.53.01.18-.12.37-.11.58.02.3.21.5.18.76-.02.23-.18.4-.33.49-.71-.55-1.35-1.3-2.12-2.01-.78-.72-2.02-1.61-2.15-3.12,0-.23.41-.41.48-.76.03-.14-.05-.34-.04-.53.03-.52.39-1.03.37-1.34-.02-.34-.55-.98-.82-1.07-.22.14,0,.41-.04.63-.04.27-.31.6-.56.62-.7.07-.78-1.09-1.89-.76-.29.09-.69.61-.59,1.25.03.19.48.4.45.67-.03.26-1.01.33-1.23.31-.6-.06-.91-.6-1.45-.58-.26,0-.5.27-.71.31-1.17.26-2.9-.69-3.3.53-.06.17-.03.4-.07.58-.07.26-.24.46-.3.62-.05.14-.04.41-.11.62-.07.19-.77.96-.15,1.16.15.05.22-.08.41-.05.32.05.85.67,1.22.67.22,0,.53-.3.71-.31.34-.02.59.25.85.4.25.15.63.46.82.45.35-.02.18-.31.52-.45.64.23.94,1.05,1.56,1.69.22.23.55.44.85.76.17.18.68.66.71.89.02.21-.14.3-.19.49-.06.27.08.47-.07.67-.59-.26-.73-.96-1.15-1.56-.16-.22-.32-.49-.56-.8-.11-.14-.5-.65-.74-.53-.47.21.26,1.06.37,1.25.25.39.57.92.6,1.34.01.27-.14.75-.15,1.2,0,.31.06.59.04.85-.03.26-.18.56-.26.85-.09.33-.11.72-.18.94-.14.4-.63.88-.97.89-.31.02-.44-.28-.74-.27-.46.03-.54.53-.82.94.02.44.14.59.07.89-.1.47-.65.55-.63,1.03.02.44.5.52.74.71.33.26.91.85,1.23,1.34.21.32.5.91.48,1.25-.03.44-1.09,1.06-1.52.89-.42-.15-.27-.63-.37-1.07-.08-.34-.3-.48-.41-.76-.06-.14-.03-.37-.11-.53-.22-.45-.61-.21-1.08-.49-.3-.19-.21-.58-.33-.94-.16-.48-.83-.71-1.37-.58-.4.09-.52.49-.89.58-.54-.39.11-1.34-.56-1.43-.51-.06-.85.88-1.15,1.16-.2.19-.57.22-.59.49-.04.49.43.39.82.58.35.17.39.64.71.67.27.02.44-.33.7-.36.46-.05.83.2,1.11.4-.19.54-1.18.94-1.19,1.65,0,.41.4.48.71.76.26.23.6.88.96,1.34.16.2.41.33.48.45.17.29.14.65.33.85.03.24-.09.3-.07.53.09.32.5.26.59.58-.08.77.19,1.49-.33,1.78-.24,1.38-.51,2.46-1.3,3.21-.71.67-1.64.87-2.49,1.2-.22.09-.4.36-.59.45-.49.2-1.37.08-1.41.8-.02.36.38.57.41.94.05.56-.37,1.12-.67,1.16-.22.03-.68-.15-.71-.63-.03-.53.55-.75.59-1.07.08-.57-.41-1.12-.96-1.07-.49.04-1.61,1.23-1.63,1.87-.02.48.8,1.49,1.08,1.78,1.04,1.1,2.15,1.77,1.97,4.46-.26.68-.93.83-1.45,1.2-.4.29-.59,1.17-1.26,1.25-.27-.11-.11-.61-.19-.85-.1-.32-.63-.48-.96-.8-.27-.27-.39-.69-.59-.94-.26-.31-.65-.37-.97-.58-.2-.13-.36-.59-.56-.58-.33.02-.21.39-.3,1.02-.08.62-.46,1.1-.33,1.83.05.3.36.54.52.85.26.51.29,1.09.56,1.38.17.19.47.23.67.4.39.34,1.09,1.07,1.23,1.47.16.47,0,1.02.11,1.52.12.57.75.98.37,1.56-.36-.08-.67-.36-.97-.58-.51-.38-.74-.71-1.08-1.34-.1-.18-.24-.37-.3-.53-.13-.4-.1-.85-.22-1.34-.1-.42-.51-1.08-.82-1.43-.26-.29-.72-.47-.74-.89-.03-.6.17-1.3.15-2.01,0-.15-.09-.31-.11-.49-.04-.34.03-.76-.04-1.07-.06-.28-.23-.54-.33-.8-.1-.26-.2-.51-.3-.85-.15-.52-.32-1.51-.67-1.56-.37-.05-.74.84-1.22.85-.25,0-.58-.24-.63-.54-.05-.27.12-.55.11-.85-.01-.6-.37-.83-.63-1.25-.11-.17-.14-.41-.22-.53-.17-.24-.49-.38-.7-.62-.2-.24-.43-.58-.52-.8-.14-.35-.19-.8-.41-.85-.21-.04-.45.32-.67.4-.23.09-.78.2-1,.22-.74.06-1.35-.18-1.26.89-.12.48-.54.49-.82.71-.36.29-.61.87-1,1.34-.19.23-.46.37-.63.58-.14.18-.19.46-.33.63-.4.45-.99.49-1.26,1.11-.02.74.29,1.3.22,2.01-.03.32-.23.61-.26.94-.02.28.1.59.04.89-.03.16-.18.25-.3.45-.1.18-.14.41-.22.53-.13.19-.33.33-.45.49-.19.27-.23.46-.41.49-.81.14-1.01-1.72-1.37-2.5-.17-.36-.5-.68-.67-1.11-.19-.5-.25-1.13-.52-1.69-.23-.48-.55-.97-.7-1.47-.13-.42-.25-.96-.37-1.43-.13-.5-.28-1.12-.3-1.52-.03-.58.09-.94-.3-1.16-.36.1-.52.53-.93.53s-1.46-.82-1.15-1.56c-.26-.44-.91-.68-1.41-1.2-.28-.3-.54-1.01-1.04-1.07-.14-.02-.32.08-.45.09-.31.03-.87-.03-1.23,0-.45.04-1,.16-1.56.09-.36-.05-.81-.13-1.19-.18-.48-.06-1.11-.19-1.37-.49-.16-.18-.23-.77-.52-.85-.34-.1-.53.22-.85.31-.68.19-1.25-.17-1.71-.53-.33-.26-.62-.4-.85-.58-.56-.45-.67-1.82-1.52-1.83-.3,0-.77.22-.82.63-.03.28.28.81.41,1.03.42.7,1.18.97,1.41,1.92.15.07.47-.16.63.05.14.41,0,1.16.33,1.34,1.54.31,1.98-.71,2.67-1.43.4.31.27.59.41.94.14.36.37.64.63.76.19.09.43,0,.71.13.18.08.91.91.93,1.21.02.26-.48,1.16-.63,1.38-.15.22-.37.34-.45.53-.05.15-.04.48-.07.58-.07.18-.4.41-.59.62-.2.23-.44.4-.63.58-.23.22-.38.51-.63.63-.49.22-.96.12-1.37.45-.27.21-.27.68-.59.94-.34.26-.92.27-1.41.54-.32.17-.51.51-.78.62-.11.05-.25,0-.37.05-.25.08-.47.29-.71.36-.18.06-.38.03-.56.09-.57.2-1.1.9-1.67.49-.27-.75-.31-1.7-.63-2.36-.16-.34-.48-.44-.59-.8-.02-.29.27-.21.3-.45-.09-.48-.47-.71-.7-1.12-.11-.2-.17-.48-.3-.71-.44-.77-1.32-1.18-1.48-2.14-.05-.26,0-.47-.04-.67-.07-.33-.26-.68-.45-.94-.14-.2-.43-.33-.59-.63-.11-.19-.13-.46-.22-.67l-1.73-2.6v-2l-1-2Zm41.52-16.28c.15-.57-.08-1.14-.37-1.52-.43.09-.12.62-.15.94-.04.44-.43.75-.41,1.2-.14.2-.39.28-.41.62.24.2.34-.15.52-.36.28-.32.72-.51.82-.89Zm-9.72-15.47c-.41,0-.56.19-.82.36-.14.09-.42.14-.33.4.36-.05,1.06-.25,1.15-.76Zm-15.66,5.49c.87.24,1.28-.94.7-1.61-.14-.16-.59-.22-.78-.58-.23-.44-.2-1.02-.74-.89,0,.05,0,.13-.04.13-.05.98,1.13,1.22,1.11,2.01,0,.41-.37.46-.26.94Z" style="fill:#006837; stroke-width:0px;"/><path d="m147.25,127.42c.03-.36.25-.95.48-1.16.34-.31.81-.27,1.15-.49.28-.18.68-.48.89-.8.18-.28.19-.6.33-.8.1-.14.32-.18.44-.36.11-.16.08-.45.26-.62.52-.26.66.87.74,1.65.02.24.13.5.11.62-.05.36-.38.43-.48.67-.03.98-.34,1.83-.63,2.63-.25.69-.39,1.45-.59,2.05-.07.22-.23.39-.3.58-.27.76-.37,1.95-.85,2.27-.18.12-.85.32-1.04.31-.45,0-.85-.42-.96-.89-.06-.25,0-.52-.04-.8-.05-.36-.22-.66-.19-1.07.08-.91.82-1.35.85-2.1.03-.56-.24-1.12-.19-1.69Z" style="fill:#22b573; stroke-width:0px;"/><path d="m143.5,57.26c-.11-.48.65-.4.52.05-.12.13-.44.12-.52-.05Z" style="fill:#e0e0e0; stroke-width:0px;"/><path d="m138.94,83.93c.02-.37.72-.5.85-.18-.05.36-.71.6-.85.18Z" style="fill:#006837; stroke-width:0px;"/><path d="m126.2,81.52c.39-.38,1.25-.12,1.78-.13-.1.34-.12.78-.33.98-.61-.13-1.18-.31-1.45-.85Z" style="fill:#006837; stroke-width:0px;"/><path d="m123.49,79.16c.51-.64,1.04-.3.85.94-.12.37-.65.86-.89.31.08-.43.05-.75.04-1.25Z" style="fill:#006837; stroke-width:0px;"/><path d="m124.24,77.73c.04.38-.09.55-.26.67-.49-.1-.12-1.16.26-.67Z" style="fill:#006837; stroke-width:0px;"/><path d="m117.04,68.68c.04-.25-.12-.57-.33-.71-.12-.08-.31-.04-.45-.13-.36-.24-.49-.74-.7-.85.03-.49-.11-.84,0-1.16.07-.19.55-.74.82-.85.32-.14.66-.01.85-.31.09-.01.14,0,.19.04,0,.28-.2.33-.22.58.05.41.64.15.7.53-.06.42-.37.5-.37.8,0,.26.45.77.67,1.11.16.26.45.45.59.71.13.23.16.51.26.62.19.22.64.26.67.58.04.43-.44.59-.37,1.07-.51.48-1.36.23-2.19.36-.38.06-.79.51-1.19.13-.09-.3.33-.34.37-.62-.03-.26-.31-.23-.37-.45.11-.35.44-.42.41-.94.21-.27.61-.17.67-.53Z" style="fill:#22b573; stroke-width:0px;"/><path d="m114.25,67.61c.5-.36,1.36-.09,1.41.36.04.33-.26.38-.37.76-.1.34.02.75-.11.98-.11.2-.42.19-.63.27-.47.17-1.37.83-1.74.09.05-.4.37-.47.48-.8,0-.26-.22-.39-.19-.67.04-.34.26-.22.56-.36.22-.1.31-.42.59-.63Z" style="fill:#22b573; stroke-width:0px;"/><path d="m88.9,57.93c.08.4-.98.91-1.08.4-.08-.41.81-.92,1.08-.4Z" style="fill:#9c7f5b; stroke-width:0px;"/><path d="m87.68,158.45h-.56c.1-.07.46-.07.56,0Z" style="fill:#e0e0e0; stroke-width:0px;"/><path d="m86.01,54.77c.05-.06.18-.06.22,0-.04.1-.07.22-.22.18v-.18Z" style="fill:#e0e0e0; stroke-width:0px;"/><path d="m82.7,61.86c0,.25-.74.65-.82.18-.01-.08,0-.25.15-.36.2-.15.66-.06.67.18Z" style="fill:#9c7f5b; stroke-width:0px;"/><path d="m67.26,103.29c-.02.07-.06.11-.07.18-.39-.02-.04-.62.07-.18Z" style="fill:#e0e0e0; stroke-width:0px;"/><path d="m52.19,72.11c.26-.18.51.27.33.49-.29.07-.36-.33-.33-.49Z" style="fill:#e0e0e0; stroke-width:0px;"/><path d="m92.65,73.76c-.17-.05-.41-.04-.63-.09-.19-.04-.41-.11-.59-.13-.46-.07-.95.09-1.22-.22.44-.7,1.03-1.4,1.6-2.01.17-.18.53-.31.45-.67-.32-.33-.7.02-1,.22-.31.21-.69.52-1.04.58-.61.11-1.43-.22-1.93.18-.07.34.57.21.48.71-.25.05-.48.07-.67-.13-.17-.19-.07-.47-.19-.58-.19-.19-.91-.24-1.22-.18-.39.08-.73.36-.78.76.47.26,1.24-.27,1.41.4-.26.56-.86.86-.78,1.6.03.29.32.67.52.71.21.04.32-.2.52-.18.21.02.16.31.41.27.36-.18.55-.79.96-.76.49.72-.44,1.07-.96,1.29-.59.26-1.37.4-1.82.63-.24.12-1.13,1.16-1.26.36-.09-.58.44-.41.56-.89-.57-.13-1.11.3-1.63.54-.75.34-2.01.55-2.19,1.56-.04.2.07.58-.04.71-.09.11-.62.13-.85.22-.36.15-.67.46-.89.53-.17.05-.41.04-.52.09-.3.14-.4.62-.74.94-.14.13-.45.23-.56.36-.19.23-.22.81-.56.89-.22.02-.39-.19-.59-.04-.02.57.17,1.34-.04,1.92-.44.43-.92.74-1.48,1.11-.31.21-.59.26-.97.49-.27.16-.51.54-.82.76-.71.5-1.56,1.09-1.56,2.36,0,.27.12.57.15.89.02.19-.02.37,0,.58.04.47.33,1.06,0,1.38-.5-.25-1.14-.33-1.48-.76-.1-.44.19-.8.15-1.2-.04-.32-.41-.9-.63-.94-.23-.04-.43.25-.67.22-.28-.03-.54-.49-.89-.53-.52-.07-.91.14-1.48.05-.56.36-.72,1-1.41.94-.24-.02-.46-.24-.74-.31-.3-.08-.76-.2-1.08-.18-.63.05-1.09.6-1.63.94-.48.3-1.16.67-1.3,1.29-.08.33-.01.81-.11,1.11-.07.2-.21.39-.3.58-.42.91-.76,2.12-.44,3.43.05.19.46,1.29.63,1.52.19.25.75.62,1.08.62.27,0,.59-.17.85-.22.31-.07.69-.07.97-.18.8-.31.64-1.61,1.45-2.05.35-.19.76-.23,1.37-.27.2.2.29.55.26.85-.02.23-.2.43-.3.76-.08.28-.1.62-.19.85-.11.3-.36.52-.45.8-.06.18-.03.41-.07.58-.09.29-.41.5-.26.8.79.38,1.76-.11,2.45.05.29.06.9.48.89,1.03,0,.41-.26.67-.3,1.11-.04.56-.24,1.24-.26,1.69-.03.74.9,2.02,1.56,2.01.71-.01,1.12-.84,1.97-.4.28.15.58.7.89.67.26-.02.64-.56.82-.94.21-.46.22-.84.59-1.07.4-.25.72-.13,1.22-.36.23-.1.43-.28.63-.45.18-.15.37-.54.59-.27.3.36-.36.56-.11.94.51.33.78-.61,1.15-.62.12,0,.53.28.74.45.29.23.39.55.7.62.2.05.53-.09.82-.05.38.07.6.46.89.45.35-.01.52-.47.82-.53.66-.14.9.09,1.19.58.32.07.33-.45.63-.27-.16.39.06.57.19.89.08.21.07.36.15.45.18.2.52.2.78.4.27.21.43.59.74,1.03.32.44.87.9,1.3.94.41.03.74-.14,1.08-.09.77.11,1.24.57,1.78,1.07.3.28.57.47.67.8.07.23.03.54.11.8.16.55.84.82.59,1.78.11.28.36.38.63.58.22.16.4.49.63.54.15.03.32-.05.45-.05.42.04.71.23,1.08.4.23.1.52.15.67.27.19.15.21.67.44.8.15.09.49-.03.74,0,.4.06.94.35,1.3.36.22,0,.4-.11.59-.09.91.08,1.42,1.39,2.3,1.78.27.12.7.04.89.13.33.17.61,1.38.63,1.92.07,1.62-.96,2.14-1.56,3.21-.12.22-.19.58-.37.89-.36.63-.75.76-.7,1.92.01.32.15.63.15.98,0,.43-.03,1-.11,1.38-.06.3-.26.53-.3.8-.03.27.07.48.04.71-.03.26-.25.62-.41.98-.34.76-.42,1.66-1.11,1.96-.41.18-.96.08-1.41.27-.18.08-.41.28-.63.4-.65.36-1.57.85-1.74,1.65-.16.71.22,1.28.11,2.1-.12.24-.27.48-.45.76-.16.25-.24.55-.41.8-.22.34-.57.48-.7.94-.05.15-.02.34-.07.58-.02.09-.16.23-.22.4-.06.16-.06.36-.11.49-.17.41-.67,1.35-1.04,1.47-.77.26-1.58-.39-2.12-.27.08.45.35.4.52.71.1.18.16.43.3.62.17.23.31.32.33.58.04.55-.31,1.1-.56,1.29-.22.17-.68.28-1.08.36-.27.06-.98.06-1.11.27-.19.31.1,1.07-.04,1.38-.28.65-1.02-.02-1.41.18-.03.34.07.69.3.85.23.16.59-.05.74.27-.08.44-.47.5-.56.94.01.43.12.54.07.8-.1.57-.84.55-.82,1.16.03.91,1.46.54,1.48,1.43.01.54-.41.54-.56,1.07-.08.28.05.35,0,.58-.06.32-.37.41-.37.76,0,.43.52.9.78,1.25.25.35.58.84.93,1.07.52.35,1.3.27,1.52.89-.07.38-.37.48-.67.58h-.07c-.1-.07-.46-.07-.56,0h-.52c-.5-.27-1.1-.45-1.71-.71-.22-.09-.47-.32-.7-.44-.18-.1-.38-.14-.52-.22-.32-.2-.68-.85-1-1.11-.2-.16-.5-.24-.63-.4-.12-.15-.19-.48-.3-.67-.12-.21-.34-.35-.48-.58-.31-.49-.7-1.15-.7-1.52,0-.36.28-.6.19-.93-.09-.32-.66-.25-.74-.63-.05-.23.16-.61.15-.94,0-.19-.3-.44-.19-.71.13-.31.38.03.59-.13-.16-.64.01-1.68-.52-1.87-.27.28.28.9-.19,1.07-.45-.24-.34-.95-.45-1.47-.07-.34-.21-.65-.22-1.03,0-.2.06-.42.04-.62-.08-.6-.64-1.09-.67-1.7-.01-.29.15-.54.19-.85.03-.21-.02-.45,0-.67.03-.28.16-.54.19-.8.04-.49,0-1.33-.07-1.74-.09-.51-.43-.95-.48-1.51-.02-.2.06-.54.04-.8-.02-.24-.13-.48-.15-.76-.02-.25.05-.5.07-.8.04-.56-.09-1.18-.07-1.74,0-.16.08-.28.07-.45,0-.46-.13-.92-.15-1.38-.03-.85.08-1.45-.04-2.23-.09-.59-.19-1.5-.37-1.87-.2-.42-.98-1.12-1.37-1.38-.26-.17-.57-.23-.85-.4-.6-.36-1.78-1.11-2.04-1.83-.08-.21-.07-.48-.15-.71-.16-.46-.5-.85-.74-1.29-.46-.84-.83-1.9-1.3-2.76-.24-.44-.44-.94-.7-1.29-.15-.21-.64-.4-.7-.71-.08-.41-.34-.98-.3-1.29.05-.43.74-.77.74-1.16,0-.33-.37-.52-.45-.8-.19-.68.11-1.08.33-1.65.07-.19.15-.49.22-.62.14-.25.41-.31.59-.58.1-.15.16-.46.3-.67.28-.45.74-.62.85-1.03.09-.33.15-1.99.04-2.54-.06-.32-.31-.59-.41-.89-.17-.54-.21-1.13-.67-1.11-.28,0-.49.39-.67.62-.04.32-.02.66-.3.76-.42.15-.58-.53-1.08-.71-.2-.07-.51-.07-.63-.13-.36-.19-.48-.83-.85-1.07-.32-.2-.59-.13-.78-.45-.08-.21-.02-.6-.04-.89-.41-.29-.75-1.35-1.23-1.6-.31-.17-.79-.15-1.19-.31-.18-.08-.33-.17-.52-.22-.24-.06-.48-.07-.67-.18-.73-.44-1.13-1.86-2.04-1.83-.39.01-.76.45-1.11.45-.35,0-.94-.34-1.37-.58-.46-.25-.96-.39-1.34-.62-.3-.19-.51-.53-.78-.67-.2-.11-.5-.13-.67-.22-.24-.14-.48-.42-.78-.67-.28-.23-.58-.59-.59-.89-.01-.35.27-.65.3-.98.1-1.06-.56-1.83-.97-2.45-.3-.47-.66-.86-.96-1.29.02-.29.02-.34,0-.62-.23-.27-.42-.67-.67-1.07-.22-.36-.65-.75-.7-1.16-.07-.5.16-.94,0-1.43-.26-.81-1.2-.44-1.08.62.03.29.38.69.48.98.11.3.09.67.19,1.03.1.34.38.64.48,1.03.16.61.15,1.27.3,1.65.13.34.6.66.33,1.07-.35.09-.49-.33-.7-.58-.12-.14-.56-.4-.63-.71-.06-.26.14-.62.07-.94-.13-.63-1.18-.65-1.19-1.29,0-.41.44-.46.45-.85,0-.43-.49-.79-.59-1.16-.1-.33-.11-.87-.15-1.34-.03-.44.01-.95-.08-1.29-.08-.31-.46-.73-.7-.89-.33-.22-.58-.13-.74-.45-.14-.28-.23-.86-.26-1.16-.05-.54-.01-1.12-.04-1.7-.02-.57-.07-1.12,0-1.74.18-.43.52-.64.71-1.07.13-.3.15-.66.3-.98.27-.58.86-1.12,1.26-1.69.43-.62.82-1.21,1.08-1.92.09-.25.33-.81.3-1.11-.05-.43-.72-.78-.67-1.29.03-.32.41-.31.52-.62.06-.16.11-.61.11-.8,0-.43-.18-.88-.11-1.34.06-.39.55-.55.3-.98-.25-.43-.69.23-.97-.05-.25-.25.05-.56.07-1.03,0-.19-.09-.4-.07-.53.02-.2.35-.53.26-.67-.2-.3-.43-1.08-.85-1.34-.54-.33-1.13-.11-1.89-.27-.47-.1-.69-.62-1.11-.58-.26.02-.42.39-.78.58-.36.19-.83.12-1.19.22-.35.1-.52.39-.89.36-.31-.03-.31-.36-.67-.4-.14-.02-.41.1-.63.13-.57.07-1.61.11-2.19-.05-.53-.14-.86-.34-1.45-.67-.44-.25-1.26-.55-1.23-.94.02-.25.78-.51,1.08-.62.48-.18.78-.46,1.15-.49.14,0,.33.11.52.09.19-.02.42-.23.67-.27.52-.09,1.25.03,1.19-.58-.39-.37-2,.28-2.04-.53-.03-.49.61-.64,1.08-.76.43-.11,1.07-.29,1.45-.27.42.03.98.6,1.22-.04.12-.45-.14-.84-.22-1.2.32-.52.9-.46,1.34-.53.5-.09.92-.2,1.41-.45.43-.22.9-.37,1.41-.45.5-.08.99-.31,1.45-.36.37-.04.72,0,1.08-.09.32-.07.65-.29,1-.27.23.01.43.22.67.27.22.05.47-.01.71.05.18.05.34.19.52.22.28.05.58-.05.85,0,.25.04.46.23.7.27.57.09,1.23-.04,1.78.09.21.05.4.17.63.22.22.05.46,0,.67.04.3.07.54.41.85.45.57.07,1.22-.3,1.82-.36.43-.04.88.02,1.34-.09.41-.1.82-.29,1.19-.31.2-.01.37.07.56.04.19-.03.42-.31.63-.27.28.05.23.47.52.58.32-.2.65.01,1,0,.35-.01.66-.21,1.04-.13.68.13,1.62.92,2.15.49.13-.11.1-.3.22-.58.16-.38.49-.84.41-1.38-.74.01-1.45.45-2.3.49-.86-.64.23-1.04.85-1.34.52-.24.92-.78,1.56-.89.52-.09,1.09.14,1.71.22.36.05.72-.03.93.04.36.13.55.57.85.67.13.05.34.04.52.09.33.09.63.3.97,0,.26.06.29.39.56.45.25-.16.44-.57.82-.67.16-.05.34.03.52,0,.3-.06.71-.55.89-.09-.08.32-.48.37-.71.63-.2.23-.51.75-.48.98.04.43.57.26.59.8-.08.31-.38.17-.63.31-.23.13-.31.39-.56.45-.67.15-1.23-.2-1.82-.18-.03.3.29.48.45.58.53.33.96.29,1.71.27.38-.01.82.14,1.15-.13.21-.17.2-.55.37-.76.21-.25.69-.51,1-.45.17.03.41.27.41.45,0,.41-.48.28-.48.71.31.23,1.14-.25,1.19-.62.03-.27-.27-.43-.26-.71.02-.47.55-.46.48-.94-.26-.24-.52.05-.78,0-.36-.07-.69-.6-.85-.94.16-.24.5-.08.74-.04.27-.45.78-.63,1.48-.71.25-.03.58-.15.71.13.06.42-.52.68-.41,1.16.5.15.66-.66,1.08-.98.18-.14.44-.24.7-.36.23-.1.48-.36.67-.36.21,0,.24.21.45.31.18.09.42-.06.48.22-.43.9-2.03.38-2.45,1.29.09.61-.25,1.19.04,1.61.21.29.67.09.78.4.15.41-.45.41-.3.89.39.28.86-.27,1.22-.49.39-.24.88-.52.93-1.07-.2-.45-.93-.1-1.04-.58-.06-.26.22-.84.3-.94.39-.52,1.74-1.26,2.71-1.16.18.02.37.16.56.18.64.08,1.39-.33,1.89,0,.4-.28.89.04,1.45-.05.43.31.31.96.97,1.25.18.08.4.02.63.09.17.05.36.29.56.4.28.15.5.12.56.36.06.23-.2.38-.19.63.16.16.03.4.11.62.16.41.56.38.96.58.28.14.88.56.85.89-.02.22-.56.61-.74.71-.13.07-.75.44-.96.4-.35-.06-.49-.91-.97-.89-.21.01-.4.16-.41.49,0,.59.55.61.56,1.11.02.61-.28.65-.7,1.02-.31-.15-.57-.36-.97-.4-.24.34.39.46.19.89-.6.15-1.05-.2-1.6-.4-.17-.06-.42-.04-.56-.13-.21-.15-.27-.58-.45-.8-.2-.26-.6-.63-.93-.62-.46,0-1.12.69-1.48.04.25-1.02,1.44-.26,2.23-.62.29-.13.39-.51.63-.67.48-.33,1.26-.37,1.19-1.03-.04-.33-.42-.32-.63-.49-.29-.23-.51-1.03-.93-1.07-.21-.02-.37.2-.59.22-.48.05-1.01-.23-1.45,0-.2.14-.07.36-.22.62-.13.22-.43.28-.56.49-.14.25-.11.56-.3.76-.3.32-.95.38-1.34.53-.17.07-.39.31-.56.31-.31,0-.44-.5-.78-.31-.03.48.42.67.7.89.31.24.63.48.74.89-.3.77-.78-.04-1.26-.04-.53,0-1.3,1.21-1.74.22.11-.52.59-.6.7-1.11-.52.11-.98.64-1.6.8-.26.07-.51.05-.74.13-.44.16-.75.55-1.22.76-.18.08-.4.06-.59.13-.45.18-.99.5-1.45.8-.47.31-1.01.63-1.3.94-.16.16-.57.75-.56.94.02.27.43.35.45.63,0,.16-.24.52-.07.76.15.22.46.04.78.09.57.08.94.65,1.37.94.33.22.82.48,1.19.53.51.08,1.08-.18,1.15.31.07.47-.48.64-.52.94.27.44-.19.64-.19,1.03,0,.31.32.77.59.8.37.04.92-.44,1.08-.89.18-.53.11-1.26.45-1.65,1.73.06,3.19-.94,3.08-3.08-.01-.21-.11-.48-.07-.71.05-.34.55-.63.48-1.07.48-.18.46-1.11.97-1.25.42-.11.9.36,1.45.31.18-.01.41-.21.59-.18.36.06.58.6.85.85.24.22.49.15.56.45-.07.5-.36.51-.33.98.03.41.38.72.56.76.27.06.66-.11.93-.27.5-.28.92-1.13,1.34-1.03.33.09.58,1.33.63,1.78.05.48-.05.85-.04,1.29.05.75.84.68,1.22,1.07.12.12.16.42.26.58.19.3.42.3.45.62.07.77-.58.84-.52,1.7-.13.33-.47.31-.45.76.04.7.88.16,1.11.71.12.3-.02.51-.11.94.29.41.29,1.07-.22,1.07-.31,0-.39-.4-.71-.49Zm-40.12-1.16c.18-.22-.07-.67-.33-.49-.03.16.05.56.33.49Zm25.91,4.06c-.15-.18-.66-.13-1-.09-.24.03-.53.09-.56.31.39.21,1.44.37,1.56-.22Zm-1.93-.76c.29-.28.16-.84-.15-.94-.12-.04-.28.11-.48.09-.21-.02-.42-.25-.59-.27-.3-.03-.6.15-.71.31-.01.27.16.31.15.58-.36.31-.17,1.35.19,1.38.38.04.57-1.15,1.08-1.25.18-.04.28.12.52.09Zm-.52,1.78c-.53-.23-1.01.15-1.45.22-.26.04-.73-.06-.67.4.05.38.53.24.82.13.59-.22.96-.41,1.3-.76Zm-1.63-3.39c.74-.38-.15-1.54-.48-1.65-.6-.19-1.46.53-2.15.76-.39.13-.76.14-.85.54.35.7,1.05-.15,1.56-.05.26.05.41.48.67.53.18.04,1.19-.1,1.26-.13Zm-.52.71c-.15-.22-.99.03-1.22.22-.16.14-.28.47-.45.71-.18.25-.37.45-.52.67-.13.2-.89,1.5-.3,1.65.25.06.77-.56.82-.8.17-.82.47-1.4,1-1.78.31-.22.62-.19.67-.67Zm-4.64-4.99c.41-.02.69-1.49,0-1.29-.46.13-.58,1.32,0,1.29Zm-2,33.45c.02-.07.05-.11.07-.18-.11-.44-.47.16-.07.18Zm-15.7-37.33c0-.08-.04-.1-.04-.18-.11,0-.24-.03-.22.13.05.13.2.15.26.04Zm39.01-7c.18.03.29-.04.26-.27-.17-.14-.41.04-.26.27Zm-4.27-4.37c-.05-.06-.18-.06-.22,0v.18c.16.04.19-.07.22-.18Zm-14.1,3.43c.12-.1.31-.23.22-.45-.41-.23-1.1-.06-1.71-.13-.34-.58-.92-.67-.97.27.69.67,1.74-.31,2.45.31Zm-6.64,4.59c.21-.09.5-.04.56-.31-.17-.17-.35-.39-.56-.4-.27-.01-.4.27-.67.45-.31.2-.75.25-.78.58.57.14,1.09-.17,1.45-.31Zm-.19-3.21c.24-.05.48.08.63-.18-.18-.98-1.31-.38-1.97-.31-.14.28-.32.5-.37.89.51.16,1.13-.28,1.71-.4Zm11.13,45.58c.29-.06.21-.87-.15-.67-.27.15-.13.72.15.67Z" style="fill:#9c7f5b; stroke-width:0px;"/><path d="m51.45,65.96c0,.08.04.09.04.18-.06.11-.21.08-.26-.04-.02-.16.11-.14.22-.13Z" style="fill:#e0e0e0; stroke-width:0px;"/><path d="m50.34,68.59c-.08.29-.29.42-.52.53-.07-.06-.13-.14-.19-.22.02-.42.52-.74.71-.31Z" style="fill:#9c7f5b; stroke-width:0px;"/></g></svg>