<?xml version="1.0" encoding="UTF-8"?><svg id="_Слой_2" xmlns="http://www.w3.org/2000/svg" width="169.48" height="98.6" viewBox="0 0 169.48 98.6"><g id="_Слой_1-2"><path d="m0,0v98.6h169.48L0,0Zm26,39.7l70.45,41.72H26v-41.72Z" style="fill:#b2873a; stroke-width:0px;"/><path d="m16.27,9.47c.28.17-1.09,2.87-3.05,6.03-1.96,3.16-3.77,5.58-4.05,5.41-.28-.17,1.09-2.87,3.05-6.03,1.96-3.16,3.77-5.58,4.05-5.41Z" style="fill:#263238; stroke-width:0px;"/><path d="m41.42,23.93c.28.17-1.07,2.8-3.01,5.87-1.94,3.07-3.74,5.41-4.01,5.24-.28-.17,1.07-2.8,3.02-5.87,1.94-3.07,3.74-5.41,4.01-5.24Z" style="fill:#263238; stroke-width:0px;"/><path d="m66.56,38.4c.26.2-1.36,2.67-3.61,5.52-2.25,2.85-4.28,4.99-4.54,4.79-.26-.2,1.36-2.67,3.61-5.52,2.25-2.85,4.28-4.99,4.54-4.79Z" style="fill:#263238; stroke-width:0px;"/><path d="m91.26,53.43c.26.2-1.36,2.67-3.61,5.52-2.25,2.85-4.28,4.99-4.54,4.79-.26-.2,1.36-2.67,3.61-5.52,2.25-2.85,4.28-4.99,4.54-4.79Z" style="fill:#263238; stroke-width:0px;"/><path d="m117.07,68.21c.27.18-1.22,2.82-3.32,5.9-2.1,3.07-4.03,5.41-4.3,5.23-.27-.18,1.22-2.82,3.32-5.9,2.1-3.07,4.03-5.41,4.3-5.23Z" style="fill:#263238; stroke-width:0px;"/><path d="m143.88,83.77c.27.18-1.06,2.69-2.98,5.61-1.92,2.92-3.69,5.15-3.96,4.97-.27-.18,1.06-2.69,2.98-5.61,1.92-2.92,3.69-5.15,3.96-4.97Z" style="fill:#263238; stroke-width:0px;"/><path d="m24.11,14.03c.28.17-.29,1.59-1.27,3.16-.98,1.57-1.99,2.71-2.27,2.54-.28-.17.29-1.59,1.27-3.16.98-1.57,1.99-2.71,2.27-2.54Z" style="fill:#263238; stroke-width:0px;"/><path d="m32.36,18.63c.28.17-.29,1.59-1.27,3.16-.98,1.57-1.99,2.71-2.27,2.54-.28-.17.29-1.59,1.27-3.16.98-1.57,1.99-2.71,2.27-2.54Z" style="fill:#263238; stroke-width:0px;"/><path d="m50.69,29.41c.28.17-.29,1.59-1.27,3.16-.98,1.57-1.99,2.71-2.27,2.54-.28-.17.29-1.59,1.27-3.16.98-1.57,1.99-2.71,2.27-2.54Z" style="fill:#263238; stroke-width:0px;"/><path d="m58.94,34c.28.17-.29,1.59-1.27,3.16-.98,1.57-1.99,2.71-2.27,2.54-.28-.17.29-1.59,1.27-3.16.98-1.57,1.99-2.71,2.27-2.54Z" style="fill:#263238; stroke-width:0px;"/><path d="m75.5,44.27c.28.17-.29,1.59-1.27,3.16-.98,1.57-1.99,2.71-2.27,2.54-.28-.17.29-1.59,1.27-3.16.98-1.57,1.99-2.71,2.27-2.54Z" style="fill:#263238; stroke-width:0px;"/><path d="m83.37,48.87c.28.17-.29,1.59-1.27,3.16-.98,1.57-1.99,2.71-2.27,2.54-.28-.17.29-1.59,1.27-3.16.98-1.57,1.99-2.71,2.27-2.54Z" style="fill:#263238; stroke-width:0px;"/><path d="m100.33,58.66c.28.17-.29,1.59-1.27,3.16-.98,1.57-1.99,2.71-2.27,2.54-.28-.17.29-1.59,1.27-3.16.98-1.57,1.99-2.71,2.27-2.54Z" style="fill:#263238; stroke-width:0px;"/><path d="m109.45,64.04c.28.17-.29,1.59-1.27,3.16-.98,1.57-1.99,2.71-2.27,2.54-.28-.17.29-1.59,1.27-3.16.98-1.57,1.99-2.71,2.27-2.54Z" style="fill:#263238; stroke-width:0px;"/><path d="m125.84,73.63c.28.17-.29,1.59-1.27,3.16-.98,1.57-1.99,2.71-2.27,2.54-.28-.17.29-1.59,1.27-3.16.98-1.57,1.99-2.71,2.27-2.54Z" style="fill:#263238; stroke-width:0px;"/><path d="m135.3,79.06c.28.17-.29,1.59-1.27,3.16-.98,1.57-1.99,2.71-2.27,2.54-.28-.17.29-1.59,1.27-3.16.98-1.57,1.99-2.71,2.27-2.54Z" style="fill:#263238; stroke-width:0px;"/></g></svg>