<?xml version="1.0" encoding="UTF-8"?><svg id="_Слой_2" xmlns="http://www.w3.org/2000/svg" width="508.56" height="411.96" viewBox="0 0 508.56 411.96"><g id="_Слой_1-2"><path d="m70.25,0s-23.69.82-19.6,22.87c4.08,22.05,55.54,206.65,55.54,206.65h181.94c6.77,0,12.25-5.49,12.25-12.25h0c0-6.77-5.49-12.25-12.25-12.25h-63.14L176.46,22.08C173.58,9.18,162.13,0,148.91,0h-78.66Z" style="fill:#367891; stroke-width:0px;"/><path d="m130.98,229.52c-.33.09-14.19-51.23-30.96-114.6C83.25,51.53,69.92.09,70.25,0c.33-.09,14.19,51.22,30.97,114.61,16.77,63.37,30.1,114.83,29.77,114.91Z" style="fill:#263238; stroke-width:0px;"/><path d="m123.49,204.86c0-.34,27.64-.62,61.72-.62s61.73.28,61.73.62-27.63.62-61.73.62-61.72-.28-61.72-.62Z" style="fill:#263238; stroke-width:0px;"/><rect x="189.82" y="238.2" width="27.93" height="80.09" style="fill:#515b60; stroke-width:0px;"/><polygon points="208.1 383.69 199.46 383.69 199.46 378.13 199.46 307.81 208.1 307.81 208.1 383.69" style="fill:#515b60; stroke-width:0px;"/><polygon points="123.49 411.96 199.46 379.33 208.1 379.33 291.77 411.96 123.49 411.96" style="fill:#515b60; stroke-width:0px;"/><rect x="428.17" y="158.61" width="12.1" height="253.35" style="fill:#263238; stroke-width:0px;"/><rect x="294.33" y="158.61" width="12.1" height="253.35" style="fill:#263238; stroke-width:0px;"/><rect x="130.98" y="130.48" width="363.43" height="160.99" style="fill:#455a64; stroke-width:0px;"/><rect x="1.23" y="123.62" width="507.34" height="26.86" style="fill:#455a64; stroke-width:0px;"/><rect x="8.75" y="137.05" width="110.13" height="154.42" style="fill:#455a64; stroke-width:0px;"/><path d="m502.6,148.73c0,.34-112.52.62-251.29.62s-251.31-.28-251.31-.62,112.5-.62,251.31-.62,251.29.28,251.29.62Z" style="fill:#263238; stroke-width:0px;"/><rect x="118.89" y="148.73" width="12.1" height="263.23" style="fill:#263238; stroke-width:0px;"/><rect x="8.16" y="148.73" width="12.1" height="263.23" style="fill:#263238; stroke-width:0px;"/></g></svg>