<?xml version="1.0" encoding="UTF-8"?><svg id="_Слой_2" xmlns="http://www.w3.org/2000/svg" width="225.54" height="646.67" viewBox="0 0 225.54 646.67"><g id="_Слой_1-2"><path d="m95.83,12.64c8.7,2.48,15.21,11.2,15.12,20.24-.05,4.64-1.47,9.9,1.45,13.5,1.92,2.37,5.17,3.17,7.59,5.04,2.69,2.07,4.24,5.55,3.99,8.93-.25,3.39-2.29,6.59-5.26,8.25,2.95,2.18,7.01,2.77,10.46,1.53-.36,3.56-2.41,6.92-5.41,8.87-3,1.96-6.89,2.48-10.3,1.37-.3,3.57,1.13,7.26,3.78,9.68-5.09-1.59-10.58.25-15.42,2.5s-9.66,4.99-14.98,5.27c-5.61.3-11.07-2.24-15.39-5.83-4.32-3.59-7.67-8.18-10.97-12.73" style="fill:#263238; stroke-width:0px;"/><path d="m99.94,39.03c-.54-11.97-13.21-24.13-25.14-23.08l-38.76,6.66v6.43s-.29,83.03-.29,83.03l45.11,19.69-.7-31.16s15.32-2.26,18.84-22.13c1.75-9.88,1.54-26.14.94-39.43Z" style="fill:#eda688; stroke-width:0px;"/><path d="m95.25,54.09c.02,1.35-1.1,2.48-2.51,2.53-1.41.05-2.57-1-2.59-2.35-.02-1.35,1.1-2.49,2.51-2.54,1.41-.05,2.57,1,2.6,2.35Z" style="fill:#263238; stroke-width:0px;"/><path d="m96.26,47.42c-.32.33-2.23-1.14-4.98-1.18-2.75-.08-4.79,1.3-5.08.96-.14-.15.19-.75,1.08-1.37.88-.62,2.36-1.22,4.08-1.18,1.71.04,3.14.7,3.96,1.36.83.66,1.11,1.27.95,1.42Z" style="fill:#263238; stroke-width:0px;"/><path d="m70.81,54.09c.02,1.35-1.1,2.48-2.51,2.53-1.41.05-2.57-1-2.59-2.35-.02-1.35,1.1-2.49,2.51-2.54,1.41-.05,2.57,1,2.6,2.35Z" style="fill:#263238; stroke-width:0px;"/><path d="m69.22,47.46c-.32.33-2.24-1.14-4.98-1.18-2.75-.08-4.79,1.3-5.08.96-.14-.15.19-.75,1.08-1.37.88-.62,2.36-1.22,4.07-1.18,1.71.04,3.14.7,3.96,1.36.83.66,1.11,1.27.95,1.42Z" style="fill:#263238; stroke-width:0px;"/><path d="m78.84,68.03c0-.16,1.7-.42,4.48-.73.7-.06,1.37-.19,1.5-.66.17-.5-.11-1.27-.43-2.09-.63-1.71-1.29-3.5-1.98-5.38-2.75-7.66-4.72-13.96-4.41-14.07.31-.11,2.79,6.02,5.54,13.68.66,1.89,1.29,3.69,1.89,5.41.25.8.69,1.72.32,2.76-.2.52-.72.89-1.17,1.01-.45.13-.85.13-1.2.14-2.79.1-4.52.08-4.53-.07Z" style="fill:#263238; stroke-width:0px;"/><path d="m80.16,100.6s-13.42.63-26.56-7.59c0,0,6.84,14.05,26.81,12.54l-.25-4.94Z" style="fill:#d68663; stroke-width:0px;"/><path d="m76.92,73.77c.92.2,1.19,1.68,1,2-.19.32-.8.68-1,1-.72,1.18-2.4,1.9-4,2-1.36.08-3.47-1.11-4.2-2.16-.64-.94-.47-2.32.28-3.27.74-.96,1.96-1.51,3.15-1.62,1.72-.15,2.49-.34,2.77,1.06.16.65,1.28,1.35,2,1Z" style="fill:#d68663; stroke-width:0px;"/><path d="m70.72,69.78c.45-.02.4,2.97,2.92,5.13,2.51,2.17,5.7,1.89,5.72,2.31.04.19-.72.57-2.06.58-1.32.02-3.23-.44-4.77-1.76-1.54-1.33-2.17-3.07-2.26-4.3-.09-1.25.25-1.98.46-1.96Z" style="fill:#263238; stroke-width:0px;"/><path d="m70.13,36.69c-.28.74-3.02.34-6.26.67-3.24.27-5.86,1.16-6.27.49-.19-.32.28-1.02,1.35-1.72,1.06-.7,2.73-1.36,4.67-1.54,1.94-.18,3.71.16,4.87.66,1.18.5,1.76,1.1,1.64,1.45Z" style="fill:#263238; stroke-width:0px;"/><path d="m95.39,39.45c-.49.62-2.38-.07-4.66-.14-2.27-.15-4.21.34-4.65-.32-.19-.32.13-.94.98-1.52.84-.57,2.24-1.03,3.8-.96,1.56.08,2.91.67,3.69,1.32.79.66,1.05,1.3.83,1.61Z" style="fill:#263238; stroke-width:0px;"/><path d="m73.49,14.1c.42-3.66-3.07-6.86-6.72-7.36-3.65-.5-7.26,1.01-10.48,2.79-3.22,1.77-6.35,3.87-9.93,4.72-3.1.73-6.36.48-9.5,1-7.14,1.18-13.37,6.71-15.41,13.65-1.23,4.2-1.04,8.83-2.98,12.76-1.68,3.41-4.86,6.04-5.9,9.7-1.29,4.58,1.12,9.29,3.29,13.53,2.17,4.24,4.18,9.29,2.16,13.6,4.21,1.36,8.66,1.97,13.08,1.78,1.56-.07,3.18-.26,4.47-1.13,2.06-1.38,2.73-4.07,3.18-6.51,2.09-11.2,3.24-22.94,9-32.76,2.22-3.78,5.12-7.29,6.18-11.54.61-2.43.65-5.16,2.24-7.09,1.5-1.82,4.01-2.44,6.36-2.61,2.35-.18,4.76-.03,7.01-.75,2.24-.72,4.34-2.65,4.29-5" style="fill:#263238; stroke-width:0px;"/><path d="m107.21,33.56c-1.73-2.36-2.11-5.44-2.05-8.36.06-2.92.52-5.85.25-8.76-.77-8.13-7.68-15.66-15.82-16.37-10.25-.9-18.68,7.67-18.68,7.67,0,0,0,0,0,.01-.25-.42-.52-.83-.84-1.2-1.67-1.91-4.07-3.04-6.5-3.75-3.38-.98-7.13-1.23-10.33.24-2.68,1.23-4.77,3.55-7.53,4.56-3.12,1.15-6.59.46-9.9.85-7.19.85-12.91,6.88-15.55,13.62-2.64,6.74-2.77,14.16-2.86,21.4l4.38-2.66c-1.9,4.19-4.06,8.21-8.03,9.96,2.2,1.58,4.09.34,6.38-1.11-2.77,5.01-3.83,10.94-2.99,16.6.41,2.78,1.28,5.55,1.01,8.36-.27,2.8-2.12,5.75-4.92,6.05,4.65,3.88,10.39,6.9,16.41,6.89-.56,2.93-2.16,5.68-4.52,7.52,5.75,2.01,12.49.95,17.34-2.73,4.86-3.69,7.69-9.89,7.29-15.97-.29-4.55-2.26-9.01-1.62-13.53.61-4.32,3.49-7.94,5.11-11.99.91-2.28,1.38-4.72,1.46-7.17.96-1.54,1.68-3.19,1.97-5.01.86-5.27-2.1-10.6-1.25-15.87.17-1.04.5-2.04.96-2.99l3.25-1.97c2.25.15,4.55.3,6.74-.25.7-.17,1.38-.44,2.02-.77-.03.53-.04.75-.1,1.38,0,0,2.93,4.54,7.68,4.54s13.19-.77,14.81,4.11c1.31,3.94,3.06,8.09,6.17,10.85,3.11,2.76,5.5,4.49,9.65,4.31,4.15-.18,8.58-1.97,8.34-6.12-2.59,1.36-5.97.03-7.7-2.33Z" style="fill:#263238; stroke-width:0px;"/><path d="m14.2,58.01c0-.11,1.19.03,3.28-.23,2.06-.27,5.12-1,8.15-3.19,3-2.14,5.85-5.93,6.68-10.77.41-2.41.29-5.02.12-7.75-.15-2.73-.35-5.65.31-8.62.65-2.98,2.27-5.62,4.35-7.56,2.09-1.97,4.72-3.15,7.23-3.68,2.53-.56,4.94-.7,7.15-.93,2.22-.21,4.24-.57,6.07-1.03,7.33-1.92,11.17-4.91,11.29-4.66.04.06-.87.83-2.71,1.93-1.84,1.1-4.64,2.51-8.35,3.58-1.85.53-3.94.95-6.18,1.21-2.23.28-4.62.46-7.01,1.02-2.39.54-4.75,1.63-6.67,3.45-1.91,1.8-3.38,4.22-3.97,6.94-1.15,5.51.49,11.15-.52,16.3-.96,5.16-4.08,9.11-7.3,11.28-3.25,2.22-6.48,2.83-8.61,2.96-1.08.06-1.92,0-2.48-.06-.56-.08-.85-.15-.85-.19Z" style="fill:#455a64; stroke-width:0px;"/><path d="m17.4,71.43c.03-.12,1.24.25,3.47.38,2.21.11,5.51-.13,9.16-1.72,3.64-1.53,7.58-4.44,10.44-8.85,2.9-4.36,4.71-10.02,5.21-16.07.51-6.02-.58-12,.79-17.4,1.27-5.45,5.19-9.28,8.92-10.99,3.81-1.76,7.33-1.63,9.55-1.21,1.13.21,1.97.5,2.53.72.55.23.83.39.81.42-.04.11-1.2-.39-3.41-.67-2.18-.27-5.55-.24-9.09,1.52-3.48,1.72-7.07,5.37-8.19,10.47-1.25,5.09-.16,10.98-.67,17.23-.51,6.22-2.41,12.08-5.49,16.59-3.03,4.56-7.23,7.54-11.05,9.02-3.84,1.54-7.27,1.65-9.53,1.39-1.14-.13-2.01-.33-2.57-.52-.57-.18-.86-.3-.85-.34Z" style="fill:#455a64; stroke-width:0px;"/><path d="m114.91,35.89c.06,0-.49,1.04-2.26,1.76-1.72.71-4.49,1.31-7.82.54-.83-.19-1.68-.53-2.49-1.04-.86-.5-1.48-1.35-2.05-2.09-1.18-1.56-2.28-3.39-3.05-5.49-1.57-4.31-.96-9.2-2.06-13.94-.54-2.34-1.53-4.55-3.03-6.19-1.47-1.68-3.5-2.58-5.54-2.72-4.14-.22-7.84,1.46-10.57,3.03-5.52,3.4-7.48,7.22-7.68,7.02-.06-.03.37-.97,1.48-2.45,1.11-1.47,2.94-3.49,5.74-5.31,1.4-.9,3.03-1.75,4.89-2.4,1.85-.65,3.95-1.16,6.23-1.02,2.27.1,4.7,1.16,6.35,3.03,1.69,1.84,2.76,4.23,3.34,6.73,1.14,4.99.52,9.91,1.93,13.83.69,1.98,1.69,3.73,2.8,5.26.58.78,1.07,1.48,1.76,1.91.68.46,1.43.79,2.19.99,3.05.83,5.76.4,7.42-.14,1.73-.54,2.35-1.39,2.44-1.31Z" style="fill:#455a64; stroke-width:0px;"/><path d="m112.14,87.64s-.7.63-2.28.57c-1.51-.06-3.91-1.02-5.23-3.61-1.28-2.57-.93-6.22.82-9.4,1.7-3.23,4.6-5.94,6.8-9.2,1.09-1.64,1.93-3.37,2.25-5.15.32-1.77.15-3.56-.38-5.14-.51-1.59-1.36-2.97-2.37-4.06-1.01-1.09-2.21-1.82-3.35-2.51-1.13-.69-2.18-1.38-2.94-2.19-.76-.8-1.22-1.67-1.44-2.41-.44-1.54.11-2.39.14-2.34.12.01-.21.86.32,2.18.26.65.74,1.4,1.47,2.08.73.68,1.74,1.29,2.89,1.92,1.15.63,2.49,1.38,3.65,2.56,1.14,1.17,2.12,2.67,2.71,4.41.61,1.73.83,3.72.49,5.71-.34,2-1.26,3.9-2.41,5.62-2.33,3.44-5.19,6.07-6.83,9.06-1.68,2.92-2.05,6.2-1.02,8.49,1.03,2.28,3.13,3.31,4.48,3.49,1.42.2,2.2-.2,2.23-.09Z" style="fill:#455a64; stroke-width:0px;"/><path d="m114.39,35.62c.08.06-1.12,1.14-3.53.85-2.37-.36-5.1-2.67-6.3-5.97-.59-1.62-.95-3.29-.81-4.83.12-1.5.45-2.78.71-3.84.57-2.11.88-3.39,1.04-3.38.18,0,.17,1.41-.19,3.56-.15,1.07-.38,2.35-.43,3.72-.07,1.34.29,2.83.83,4.33,1.08,2.97,3.39,5.06,5.33,5.56,1.97.47,3.3-.22,3.35,0Z" style="fill:#455a64; stroke-width:0px;"/><path d="m40.77,268.11c-.44.02-2.71,16.86-2.71,16.86l93.75-1.52-3.25-19.61-87.79,4.27Z" style="fill:#263238; stroke-width:0px;"/><path d="m161.37,560.89l-16.34,30.33s25.34,26.8,22.87,32.7l-59.95-29.57,23.52-48.31,29.9,14.85Z" style="fill:#e8505b; stroke-width:0px;"/><path d="m127.77,579.48c-1.32-.26-2.76.65-3.07,1.96-.31,1.31.6,2.78,1.91,3.06,1.31.28,3.08-.76,3.24-2.09.16-1.33-1-3.01-2.34-2.96" style="fill:#e0e0e0; stroke-width:0px;"/><g style="opacity:.6;"><path d="m107.94,594.35l2.56-4.78,56.52,30.14s2.1,2.48.87,4.21l-59.95-29.57Z" style="fill:#fff; stroke-width:0px;"/></g><path d="m146.15,591.39c-.15.29-1.68-.3-3.59-.07-1.91.18-3.28,1.08-3.49.83-.24-.19,1.06-1.72,3.37-1.96,2.31-.26,3.91.96,3.71,1.2Z" style="fill:#263238; stroke-width:0px;"/><path d="m151.15,597.1c-.07.32-1.59.19-3.19.94-1.63.7-2.54,1.92-2.82,1.76-.3-.09.35-1.9,2.36-2.8,2-.91,3.79-.18,3.66.1Z" style="fill:#263238; stroke-width:0px;"/><path d="m151.01,606.38c-.3-.07.02-1.73,1.56-2.96,1.53-1.24,3.23-1.2,3.23-.89.05.32-1.27.74-2.52,1.78-1.27,1-1.97,2.19-2.27,2.08Z" style="fill:#263238; stroke-width:0px;"/><path d="m149.1,584.07c-.25.21-1.4-.86-3.11-1.56-1.7-.74-3.26-.82-3.29-1.14-.06-.3,1.73-.76,3.73.1,2.01.84,2.92,2.45,2.67,2.61Z" style="fill:#263238; stroke-width:0px;"/><path d="m152.29,577.89c-.06.12-1.3-.27-3-1.5-.84-.61-1.78-1.45-2.67-2.51-.44-.53-.87-1.12-1.27-1.77-.19-.31-.43-.65-.56-1.15-.17-.47.02-1.33.63-1.62.53-.31,1.18-.24,1.61-.04.45.2.76.47,1.05.71.59.49,1.1,1.02,1.55,1.56.89,1.09,1.49,2.2,1.87,3.18.76,1.97.69,3.3.56,3.31-.18.03-.4-1.22-1.3-2.98-.44-.88-1.08-1.87-1.93-2.83-.43-.48-.92-.95-1.46-1.38-.55-.48-1.09-.75-1.39-.55-.11.08-.14.12-.1.37.05.24.23.53.41.84.36.61.75,1.17,1.14,1.69.79,1.03,1.62,1.88,2.35,2.54,1.48,1.33,2.57,1.96,2.49,2.12Z" style="fill:#263238; stroke-width:0px;"/><path d="m151.7,578.12c-.13,0-.19-1.34.64-3.29.41-.96,1.07-2.06,2.03-3.09.48-.51,1.04-1,1.66-1.45.64-.42,1.46-1,2.66-.57.6.27.87.98.84,1.46,0,.5-.13.87-.23,1.25-.24.75-.59,1.43-1,2.02-.82,1.18-1.86,1.99-2.81,2.47-1.94.98-3.33.72-3.31.61-.02-.2,1.27-.26,2.91-1.31.8-.52,1.68-1.29,2.34-2.35.33-.53.61-1.12.8-1.76.22-.68.24-1.32-.04-1.37-.3-.15-1.04.08-1.54.47-.57.39-1.09.81-1.55,1.26-.91.9-1.59,1.85-2.06,2.71-.95,1.72-1.18,2.97-1.36,2.94Z" style="fill:#263238; stroke-width:0px;"/><path d="m145.37,587.15l6.22,33.89s36.53,5.06,38.29,11.21l-65.28,14.41-11.85-52.41,32.62-7.11Z" style="fill:#e8505b; stroke-width:0px;"/><path d="m130.77,622.67c-1.19.62-1.75,2.24-1.17,3.45.58,1.21,2.21,1.79,3.41,1.19,1.2-.6,1.93-2.52,1.22-3.66s-2.67-1.72-3.68-.85" style="fill:#e0e0e0; stroke-width:0px;"/><g style="opacity:.6;"><path d="m124.6,646.67l-.99-5.33,62.96-11.83s3.19.62,3.31,2.74l-65.28,14.41Z" style="fill:#fff; stroke-width:0px;"/></g><path d="m152.57,620.47c.06.32-1.5.82-2.84,2.19-1.38,1.34-1.88,2.9-2.2,2.83-.31,0-.25-2.01,1.4-3.64,1.64-1.65,3.65-1.69,3.65-1.38Z" style="fill:#263238; stroke-width:0px;"/><path d="m160.04,621.79c.14.29-1.12,1.14-1.9,2.73-.83,1.56-.78,3.08-1.1,3.14-.29.12-.92-1.7.09-3.66,1-1.96,2.84-2.51,2.92-2.21Z" style="fill:#263238; stroke-width:0px;"/><path d="m165.74,629.13c-.27.13-1.07-1.36-.64-3.29.42-1.93,1.77-2.95,1.96-2.71.24.22-.52,1.37-.85,2.96-.37,1.58-.16,2.94-.47,3.04Z" style="fill:#263238; stroke-width:0px;"/><path d="m150.29,612.91c-.07.32-1.63.2-3.4.72-1.79.48-3.05,1.4-3.28,1.16-.24-.19.87-1.67,2.97-2.26,2.09-.6,3.81.09,3.71.37Z" style="fill:#263238; stroke-width:0px;"/><path d="m148.91,606.09c.03.13-1.18.61-3.27.71-1.04.05-2.29-.02-3.65-.3-.68-.14-1.38-.33-2.1-.58-.34-.13-.74-.24-1.16-.55-.43-.25-.81-1.06-.52-1.66.22-.58.77-.92,1.24-1.04.48-.12.89-.11,1.26-.1.77.02,1.5.11,2.19.25,1.37.29,2.54.79,3.45,1.31,1.82,1.07,2.6,2.14,2.51,2.23-.12.14-1.08-.7-2.88-1.52-.9-.41-2.01-.78-3.28-1-.64-.1-1.31-.16-2.01-.16-.73-.03-1.32.1-1.43.44-.04.13-.04.18.15.35.19.15.51.27.85.4.66.25,1.31.45,1.95.61,1.26.31,2.44.46,3.43.51,1.99.11,3.24-.08,3.27.1Z" style="fill:#263238; stroke-width:0px;"/><path d="m148.6,606.64c-.1.07-.99-.93-1.56-2.97-.28-1.01-.45-2.28-.34-3.68.06-.7.18-1.43.39-2.17.24-.73.52-1.7,1.72-2.11.64-.17,1.29.22,1.57.61.31.39.44.76.6,1.12.29.74.44,1.49.49,2.2.1,1.43-.21,2.72-.65,3.69-.9,1.97-2.15,2.65-2.2,2.55-.14-.14.83-1,1.45-2.84.3-.91.5-2.06.36-3.3-.07-.62-.22-1.26-.48-1.88-.26-.67-.64-1.17-.88-1.04-.33.07-.76.71-.91,1.32-.21.66-.34,1.32-.42,1.95-.15,1.27-.08,2.44.09,3.4.33,1.94.94,3.05.78,3.14Z" style="fill:#263238; stroke-width:0px;"/><path d="m124.39,272.75l91.32,131.66c9.65,12.43,12.4,28.88,7.33,43.78l-72.66,148.14-29.02-46.34,45.74-109.61-53.72-67.75-24.19-99.89h35.2Z" style="fill:#263238; stroke-width:0px;"/><path d="m109.51,302.52l-2.22-28.05-61.01-1.72s-16.49,7.37-16.85,48.42c-.33,37.29,38.69,113.37,38.69,113.37l44.63,190.96,41.68-9.53-44.91-313.45Z" style="fill:#263238; stroke-width:0px;"/><path d="m116.05,306.99c.09,0,.16,1.18.22,3.32.06,2.37.14,5.4.24,9.03.21,7.62.64,18.15,1.55,29.74.91,11.6,2.12,22.06,3.09,29.63.47,3.6.86,6.61,1.17,8.96.27,2.12.38,3.29.3,3.31-.08.01-.36-1.14-.77-3.23-.42-2.09-.96-5.14-1.56-8.91-1.2-7.54-2.54-18.02-3.46-29.65-.9-11.63-1.2-22.19-1.19-29.83,0-3.82.06-6.91.16-9.05.09-2.13.18-3.31.26-3.31Z" style="fill:#455a64; stroke-width:0px;"/><path d="m111.25,265.18c.15-.04.89,1.89,1.79,5.11.9,3.22,1.91,7.73,2.62,12.79.71,5.06.98,9.68,1,13.02.02,3.34-.15,5.41-.31,5.41-.37,0-.48-8.23-1.91-18.25-1.39-10.02-3.55-17.97-3.19-18.07Z" style="fill:#455a64; stroke-width:0px;"/><path d="m57.63,306.67c-.17-.01-.17-2.24.02-5.84.19-3.6.58-8.56,1.21-14.02,1.09-9.52,2.54-17.4,3.1-19.21l.25.03-.03.1h0s0,0,0,0h0s-.22-.03-.22-.03h0s0,0,0,0h0s0-.03,0-.03v-.04c.09-.05-.08-.11.19-.11-.03.07-.06.1-.08.1-.02,0-.04-.04-.05-.11.26.07.08.09.14.15v.04s0,.02,0,.02h0s0,.01,0,.01h0s-.22-.03-.22-.03h0s0,0,0,0h0s0-.11,0-.11l.25.04c-.01,1.9-1.04,9.82-2.12,19.31-.58,5.21-1.11,9.93-1.57,13.95-.41,3.57-.72,5.78-.89,5.77Z" style="fill:#455a64; stroke-width:0px;"/><path d="m68.12,294.18c-.34,0-.78-6-.98-13.41-.2-7.42-.08-13.43.26-13.44.34,0,.78,5.99.98,13.41.2,7.41.08,13.43-.26,13.44Z" style="fill:#455a64; stroke-width:0px;"/><path d="m195.98,452.89c.03.15-1.78.73-4.83,1.27-1.52.25-3.37.48-5.45.42-2.07-.07-4.41-.46-6.6-1.57-2.21-1.12-3.87-2.81-5.18-4.37-1.32-1.58-2.37-3.07-3.31-4.26-1.85-2.41-3.32-3.58-3.21-3.74.07-.13,1.8.85,3.87,3.18,2.13,2.2,4.41,6,8.38,8.09,4.04,2.02,8.41,1.62,11.38,1.39,3.02-.31,4.91-.58,4.94-.4Z" style="fill:#455a64; stroke-width:0px;"/><path d="m178.68,461.41c-.24.2-3.89-3.97-7.13-9.96-3.27-5.97-4.79-11.3-4.48-11.4.34-.12,2.36,4.94,5.57,10.81,3.18,5.88,6.34,10.33,6.05,10.55Z" style="fill:#455a64; stroke-width:0px;"/><path d="m137.17,225.82s5.87,7.76,12.95,8.82c4.3.64,11.21.73,16.02-2.48,8.12-5.42,10.63-16.22,5.81-24.71h0l-34.79,18.37Z" style="fill:#e0e0e0; stroke-width:0px;"/><path d="m170.48,228.1c-15.13,16.62-37.96-.34-43.3-4.32-6.63-4.95-15.61-22.15-15.61-22.15l-30.41-68.86c-.45-.83,9.33.8,11.8,2.66,5.12,3.85,18.1,16.32,23.69,21.03,9.3,7.84,39.66,38.41,39.66,38.41h0c8.28,6.95,23.62,19.74,14.17,33.22-.09.12.1-.11,0,0Z" style="fill:#e0e0e0; stroke-width:0px;"/><path d="m101.37,178.86c-.26-.22,3.33-5.07,8.04-10.84,4.7-5.77,8.73-10.28,8.99-10.06.26.22-3.33,5.07-8.04,10.84-4.7,5.77-8.73,10.28-8.99,10.06Z" style="fill:#263238; stroke-width:0px;"/><path d="m103.91,183.65c-.26-.22,3.61-5.4,8.64-11.59,5.04-6.18,9.34-11.02,9.6-10.81.26.22-3.61,5.4-8.65,11.59-5.04,6.18-9.34,11.02-9.6,10.81Z" style="fill:#263238; stroke-width:0px;"/><path d="m35.31,100.35l-2.5,11.62s-17.49,16.6-21.4,21.82c-3.91,5.22-4.88,28.68-1.62,47.59,2.77,16.05,19.36,68.3,24.31,83.71.82,2.55,4,3.16,6.68,3.03l87.04-3.9c3.4-.19,5.78-3.44,4.91-6.74-5.13-19.65-20.6-78.52-23.85-87.18-3.91-10.43-22.95-35.53-22.95-35.53l-2.08-13.4-48.54-21.01Z" style="fill:#e0e0e0; stroke-width:0px;"/><path d="m119.52,212.15c-.08.02-.44-1.07-1.02-3.05-.63-2.22-1.43-5.04-2.39-8.41-2.02-7.09-4.79-16.91-8.78-27.4-2.02-5.24-4.2-10.12-6.37-14.47-2.24-4.31-4.41-8.12-6.46-11.17-4.04-6.14-7.1-9.56-6.91-9.71.06-.06.86.77,2.24,2.31.7.76,1.53,1.72,2.42,2.9.9,1.17,1.96,2.47,2.98,4.02,2.16,3.02,4.43,6.81,6.74,11.14,2.25,4.36,4.48,9.27,6.51,14.55,4.02,10.57,6.67,20.46,8.47,27.62.9,3.58,1.57,6.5,2.01,8.51.44,2.02.64,3.15.56,3.17Z" style="fill:#263238; stroke-width:0px;"/><path d="m83.42,121.68c.1.04-.32,1.44-1.15,3.87-.83,2.43-2.06,5.9-3.58,10.07l-.2.56-.53-.3c-4.69-2.62-10.16-5.69-16.05-8.98-8-4.42-15.31-8.31-20.59-11.14-2.45-1.32-4.53-2.45-6.24-3.38-1.47-.81-2.26-1.3-2.22-1.38.04-.08.9.26,2.44.95,1.53.68,3.73,1.72,6.43,3.03,5.39,2.63,12.77,6.42,20.78,10.84,5.97,3.29,11.46,6.47,15.98,9.18l-.74.26c1.62-4.13,3-7.54,3.99-9.91s1.6-3.7,1.7-3.66Z" style="fill:#263238; stroke-width:0px;"/><path d="m102.4,160.42c.02.08-.78.33-2.24.7-1.73.44-3.79.96-6.19,1.56-5.56,1.34-12.64,3.05-20.47,4.93-8.01,1.88-15.28,3.5-20.56,4.58-2.64.54-4.79.94-6.28,1.18-1.49.23-2.33.32-2.34.23-.02-.08.78-.33,2.24-.7,1.73-.44,3.79-.96,6.19-1.56,5.56-1.34,12.64-3.05,20.47-4.93,8.01-1.88,15.27-3.5,20.56-4.58,2.64-.54,4.79-.94,6.28-1.18,1.49-.23,2.33-.32,2.34-.23Z" style="fill:#263238; stroke-width:0px;"/><path d="m104.28,164.38c.03.08-.77.47-2.25,1.1-1.48.62-3.63,1.49-6.31,2.52-5.35,2.06-12.79,4.79-21.05,7.66-8.27,2.87-15.81,5.32-21.31,6.94-2.75.81-5,1.4-6.57,1.77-1.57.34-2.45.48-2.47.4-.02-.08.82-.38,2.34-.86,1.78-.59,3.92-1.3,6.43-2.14,5.71-1.96,13.05-4.49,21.17-7.28,8.11-2.81,15.45-5.34,21.16-7.32,2.51-.84,4.66-1.55,6.44-2.15,1.53-.49,2.39-.72,2.42-.64Z" style="fill:#263238; stroke-width:0px;"/><path d="m49.31,119.48c-.26-.22,1.29-2.47,3.45-5.01,2.17-2.55,4.13-4.43,4.39-4.21.26.22-1.28,2.46-3.45,5.01-2.17,2.55-4.13,4.43-4.39,4.21Z" style="fill:#263238; stroke-width:0px;"/><path d="m63.23,112.15c.2.29-2.14,2.23-4.89,4.74-2.76,2.5-4.92,4.65-5.19,4.42-.26-.21,1.52-2.77,4.36-5.33,2.82-2.58,5.54-4.11,5.72-3.83Z" style="fill:#263238; stroke-width:0px;"/><path d="m19.39,125.2s-14.1,11.6-15.53,20.63c-1.35,8.52-4.67,89.17-3.57,100.39,1.1,11.22,10.37,31.13,25.7,26.05,20.84-6.91,90.32-47.88,90.32-47.88l-12.89-24.26-60.13,24.1,4.5-63.68s-8.67-36.71-28.39-35.35Z" style="fill:#e0e0e0; stroke-width:0px;"/><path d="m44.46,166.65s.05.36.06,1.05c0,.77,0,1.79.01,3.07-.02,2.78-.06,6.7-.1,11.66-.15,10.15-.37,24.52-.64,41.82l-.71-.49c17.29-6.96,37.92-15.27,60.1-24.19l.51-.21.26.49c.41.78.86,1.62,1.31,2.46,3.97,7.47,7.84,14.76,11.58,21.8l.28.52-.51.29c-24.94,14.15-46.96,26.25-62.88,34.58-7.96,4.16-14.38,7.41-18.86,9.5-2.23,1.07-3.99,1.83-5.18,2.33-.55.23-.99.41-1.36.56-.31.12-.47.17-.48.16,0-.02.14-.1.43-.26.35-.18.78-.39,1.31-.66,1.16-.57,2.89-1.38,5.08-2.52,4.42-2.21,10.78-5.55,18.68-9.81,15.8-8.52,37.75-20.74,62.65-34.94l-.23.81c-3.74-7.04-7.62-14.33-11.6-21.79-.45-.84-.89-1.68-1.31-2.46l.77.28c-22.2,8.86-42.86,17.1-60.17,24.01l-.73.29.02-.78c.44-17.3.81-31.66,1.08-41.81.16-4.95.29-8.87.38-11.65.06-1.28.1-2.29.14-3.06.04-.69.07-1.05.1-1.05Z" style="fill:#263238; stroke-width:0px;"/><path d="m43.58,160.38c-.2.08-1.03-2.11-3.16-5.15-2.1-3.03-5.71-6.83-10.74-9.38-5.03-2.54-10.24-3.2-13.92-3.1-3.71.08-5.97.72-6.02.51-.05-.12,2.16-1.06,5.98-1.38,3.78-.33,9.25.2,14.52,2.87,5.27,2.67,8.94,6.75,10.91,10,2.01,3.27,2.55,5.6,2.43,5.63Z" style="fill:#263238; stroke-width:0px;"/><path d="m43.35,200.82c-.01.17-2.47.11-6.42-.19-3.95-.3-9.4-.84-15.39-1.63-5.99-.79-11.4-1.69-15.29-2.43-3.89-.74-6.28-1.32-6.25-1.49.03-.17,2.47.1,6.39.62,4.34.58,9.55,1.29,15.31,2.07,5.76.75,10.98,1.43,15.32,1.99,3.92.52,6.35.89,6.33,1.06Z" style="fill:#263238; stroke-width:0px;"/><path d="m40.52,194.81c-.05.34-8.84-.65-19.63-2.19-10.79-1.55-19.5-3.08-19.45-3.42.05-.34,8.84.65,19.63,2.2,10.79,1.55,19.5,3.08,19.45,3.42Z" style="fill:#263238; stroke-width:0px;"/><path d="m27.99,242.28c-.3-.06,1.29-5.49,5.65-10.79,4.31-5.33,9.31-7.97,9.44-7.7.22.31-4.32,3.33-8.48,8.48-4.21,5.1-6.25,10.16-6.6,10.01Z" style="fill:#263238; stroke-width:0px;"/><path d="m71.47,248.03c-.15.05-.87-1.66-1.74-4.53-.87-2.86-1.85-6.9-2.54-11.42-.68-4.53-.93-8.67-.94-11.66-.01-3,.17-4.84.33-4.84.37,0,.46,7.37,1.83,16.32,1.33,8.95,3.42,16.02,3.06,16.13Z" style="fill:#263238; stroke-width:0px;"/><path d="m75.1,246.59c-.16.03-.68-1.75-1.28-4.68-.61-2.93-1.28-7.02-1.76-11.56-.48-4.55-.67-8.68-.69-11.68-.02-2.99.12-4.85.28-4.85.36,0,.67,7.36,1.64,16.4.94,9.03,2.17,16.31,1.82,16.38Z" style="fill:#263238; stroke-width:0px;"/><path d="m217.85,178.68s-10.93-5.64-25.94,3.04l-7.23,2.81,2.3,8.74,30.87-14.58Z" style="fill:#ebebeb; stroke-width:0px;"/><path d="m192.74,198.4s3.88-8.46,11.34-12.76c.65-.38,2.34-.97,3.04-1.2,2.37-.78,6.8-2.02,10.74-1.98v-3.77s-10.45-4.3-20.98,4.41c-11.6,9.58-9.15,15.88-9.15,15.88l4.6-.52" style="fill:#455a64; stroke-width:0px;"/><path d="m148.04,182.62s24.94-9.27,29.62-9c2.95.17,4.34-.1,6.58,6,2.12,5.77,4.62,14.63,4.62,14.63l-68.99,34.52-.3-13.5,10.9-26.29,17.57-6.35Z" style="fill:#455a64; stroke-width:0px;"/><path d="m131.84,196.26l35.07-11.58s5.73-9.73,11.47-9.05c5.74.67,7.45,8.68,7.45,8.68,0,0-2.61-13.03-9.06-11.86-4.73.86-28.74,10.17-28.74,10.17l-15.71,13.23" style="fill:#ebebeb; stroke-width:0px;"/><polygon points="188.85 194.24 192.76 198.39 125.31 233.02 119.86 228.76 188.85 194.24" style="fill:#455a64; stroke-width:0px;"/><path d="m150.08,180.9l-18.24,15.36,15.35-5.07s-.15,5.81-5.15,10.27c0,0,1.82,5.74-1.86,7.99,0,0,1.21,3.35-4.32,6.98-5.53,3.63-14.21,5.73-14.21,5.73l-11.21,1.32s-5.85-6.05-6.12-15.23c-.27-9.18,1.21-10.44,1.21-10.44.41-1.13,10.53-14.03,12.9-14.54,2.37-.52,13.55,2.5,13.55,2.5l8.74-3.88s5.37-2.88,6.68-2.54c0,0,2.55.38,2.68,1.55Z" style="fill:#eda688; stroke-width:0px;"/><path d="m131.98,185.77c.12.32-2.41,1.56-5.64,2.78-3.24,1.22-5.96,1.94-6.08,1.63-.12-.32,2.41-1.56,5.64-2.78,3.24-1.22,5.96-1.94,6.08-1.63Z" style="fill:#d68663; stroke-width:0px;"/><path d="m142.14,201.16c.18.29-1.44,1.55-3.66,2.6-2.2,1.05-4.03,1.79-4.2,1.5-.18-.29,1.44-1.55,3.66-2.6,2.2-1.05,4.03-1.79,4.2-1.5Z" style="fill:#d68663; stroke-width:0px;"/><path d="m134.15,212.54c-.14-.31,1.09-1.25,2.74-2.1,1.65-.85,3.13-1.29,3.29-.99.16.3-1.07,1.24-2.74,2.1-1.68.86-3.15,1.3-3.29.99Z" style="fill:#d68663; stroke-width:0px;"/><path d="m192.76,198.39s-.45-.34-1.16-1.08c-.84-.91-1.84-1.99-3.05-3.3l-.04-.05-.03-.09c-.97-3.28-2.34-8-5.07-13-.73-1.21-1.54-2.44-2.59-3.46-1.05-1.02-2.43-1.48-3.9-1.1-2.94.76-5.46,3.37-7.63,6.06-.59.76-1.16,1.54-1.63,2.27l-.12.19-.2.07c-9.79,3.33-18.56,6.24-24.9,8.28-3,.94-5.5,1.73-7.5,2.35-1.77.53-2.76.78-2.79.71-.03-.08.91-.48,2.64-1.14,1.96-.72,4.43-1.63,7.37-2.72,6.26-2.25,14.99-5.3,24.77-8.65l-.32.25c.51-.8,1.09-1.58,1.7-2.37,2.28-2.77,4.8-5.54,8.35-6.46.43-.13.91-.09,1.35-.14.45.02.91.12,1.35.2.41.19.85.36,1.22.58l1.01.79c1.18,1.17,2.01,2.49,2.75,3.76,2.73,5.23,3.95,10,4.77,13.38l-.07-.14c1.11,1.38,2.04,2.54,2.82,3.5.63.82.94,1.27.9,1.31Z" style="fill:#263238; stroke-width:0px;"/><path d="m188.64,193.08c.04.08-.9.63-2.63,1.56-1.96,1.03-4.42,2.32-7.35,3.87-6.46,3.34-14.94,7.73-24.33,12.58-9.38,4.88-17.85,9.29-24.3,12.65-2.95,1.51-5.43,2.78-7.39,3.78-1.76.87-2.75,1.32-2.79,1.25-.04-.07.87-.66,2.56-1.67,1.69-1.01,4.15-2.42,7.21-4.13,6.12-3.43,14.64-8.04,24.15-12.97,9.5-4.93,18.18-9.24,24.51-12.27,3.16-1.52,5.74-2.72,7.53-3.52,1.79-.8,2.8-1.21,2.84-1.13Z" style="fill:#263238; stroke-width:0px;"/><path d="m155.98,202.63s-3.45.34-2.93,3.48l.51,3.14s-4.18-6.65-4.71-8.11c-1.54-4.24-5.27-2.1-4.53,1.67.19.97.58,4.95.58,4.95,0,0-.86-1.3-3.11.41-.55.42-1.64,5.36-1.64,5.36l-4.29,2.9s-.16,3.13.38,5.5c.58,2.52,2.23,3.53,2.89,4.05.66.52,8.41,6.51,10.72,6.1s4.01-2.56,3.91-3.38c-.1-.82,3.47-.03,5.1-1.59,1.62-1.56,1.73-1.85,1.82-2.28s3.99-1.58,5.21-2.98c1.23-1.4.98-2.29.98-2.29,0,0,3.49-1.06,4.21-3.21,0,0,1.27-1.98.73-4.45l-.54-2.47-2.82,1.45-5.87-2.89s-4.47-6.27-6.61-5.35Z" style="fill:#eda688; stroke-width:0px;"/><path d="m163.71,217.92c-.14.29-3.44-1.17-6.66-4.16-3.24-2.97-4.96-6.14-4.68-6.31.3-.2,2.4,2.55,5.52,5.4,3.09,2.88,6,4.76,5.82,5.07Z" style="fill:#d68663; stroke-width:0px;"/><path d="m155.34,221.47c-.21.24-3.32-2.19-6.27-6.05-2.95-3.86-4.45-7.52-4.17-7.65.32-.17,2.28,3.16,5.15,6.9,2.86,3.75,5.54,6.53,5.29,6.8Z" style="fill:#d68663; stroke-width:0px;"/><path d="m151.03,225.82c-.03.15-1.05.1-2.6-.42-1.54-.53-3.6-1.65-5.3-3.54-1.7-1.9-2.58-4.09-2.9-5.69-.33-1.61-.22-2.62-.07-2.63.4-.09.75,4,3.89,7.5,3.13,3.5,7.13,4.41,6.98,4.79Z" style="fill:#d68663; stroke-width:0px;"/></g></svg>