<?xml version="1.0" encoding="UTF-8"?><svg id="_Слой_2" xmlns="http://www.w3.org/2000/svg" width="115.75" height="136.16" viewBox="0 0 115.75 136.16"><g id="_Слой_1-2"><path d="m31.57,121.03c-2.47-2.12-7.99-8.84-3.74-16.66,1.56-2.87,4.87-4.28,7.87-5.55,3-1.26,6.15-2.36,8.63-4.47,4.68-3.98,5.97-10.6,9.08-15.91,3.57-6.1,10.22-10.67,17.26-10.35,8.05.37,14.77,6.94,17.82,14.44,3.04,7.5,3.15,15.83,3.21,23.93.04,4.48-.16,9.53-3.45,12.55-3.03,2.79-7.6,2.82-11.7,2.7-14.67-.45-29.34-.9-44.01-1.35" style="fill:#ccc; stroke-width:0px;"/><path d="m115.75,0H0l20.85,124.33c.91,5.43,4.84,9.62,9.88,11.07.13.04.27.07.41.11.34.09.68.2,1.03.27.76.16,1.55.24,2.35.27,0,.04.01.08.02.12l.56-.09h51.59c.97,0,1.92-.1,2.83-.28,6.09-.94,10.97-5.83,11.71-12.15l10.05-85.66.45-3.41h-.05L115.67.64l.08-.64Zm-21.84,79.31h-11.88l1.2-36.08h13.76l-3.08,36.08Zm4.24-36.08h11.37l-4.23,36.08h-10.22l3.08-36.08Zm-33.94,76.08l-.72-31.35h17.11l-1.04,31.35h-15.34Zm-18.49-31.35h16.62l.72,31.35h-14.91l-2.44-31.35Zm1.28,31.35h-13.94c-1.32-8.46-3.05-19.46-4.91-31.35h16.41l2.44,31.35Zm-1.96-40l-2.8-36.08h19.07l.83,36.08h-17.1Zm18.24,0l-.83-36.08h19.62l-1.2,36.08h-17.59Zm-1.03-44.74l-.77-33.42h21.99l-1.11,33.42h-20.11Zm-1.15,0h-19.54L38.97,1.15h21.37l.77,33.42Zm-20.69,0h-20.68c-.73-4.61-1.43-8.98-2.05-12.91C15.53,8.15,14.72,3.07,14.27,1.15h23.55l2.6,33.42Zm.67,8.65l2.8,36.08h-17.1c-.58-3.66-1.16-7.36-1.74-11.07-1.34-8.52-2.68-17.03-3.94-25.01h19.98Zm-15.46,36.08h-11.17l-6.05-36.08h11.54c1.76,11.15,3.72,23.56,5.69,36.08Zm1.36,8.65c1.7,10.85,3.38,21.54,4.91,31.35h-10.73l-5.26-31.35h11.08Zm53.71,31.35l1.04-31.35h11.43l-2.68,31.35h-9.79Zm2.81-84.74l1.11-33.42h15.96l-2.85,33.42h-14.22ZM13.18,1.15c.46,2.42,2.57,15.56,5.4,33.42H6.96L1.36,1.15h11.82Zm87.42,118.15h-8.95l2.68-31.35h9.95l-3.68,31.35Zm9.94-84.74h-11.65l2.86-33.42h12.71l-3.92,33.42Z" style="fill:#333; stroke-width:0px;"/></g></svg>