<?xml version="1.0" encoding="UTF-8"?><svg id="_Слой_2" xmlns="http://www.w3.org/2000/svg" width="116.2" height="116.2" viewBox="0 0 116.2 116.2"><g id="_Слой_1-2"><circle cx="58.1" cy="58.1" r="58.1" transform="translate(-8.56 106.14) rotate(-80.78)" style="fill:#e8505b; stroke-width:0px;"/><circle cx="58.71" cy="57.52" r="52.58" style="fill:#e8505b; stroke-width:0px;"/><circle cx="58.37" cy="57.83" r="52.89" transform="translate(-5.49 109.53) rotate(-83.73)" style="fill:#fafafa; stroke-width:0px;"/><path d="m5.6,54.36s.02.29.02.86c0,.58,0,1.42,0,2.52,0,.55,0,1.17-.01,1.85.03.68.12,1.42.19,2.23.07.81.15,1.67.24,2.6.05.93.33,1.89.5,2.92.66,4.14,2.25,9.08,4.92,14.39,2.7,5.29,6.72,10.89,12.39,15.8.71.61,1.43,1.22,2.16,1.84.76.58,1.57,1.11,2.37,1.68.82.54,1.58,1.18,2.47,1.65.87.49,1.75.99,2.64,1.49.45.25.89.5,1.34.75.47.21.95.42,1.42.63.95.42,1.91.84,2.89,1.27.98.4,2.02.68,3.04,1.03,1.03.31,2.04.74,3.13.93,2.15.45,4.32,1.04,6.59,1.21,1.13.11,2.26.3,3.41.36,1.15.02,2.32.03,3.49.05.58,0,1.17.04,1.76,0,.59-.05,1.18-.1,1.77-.15,1.18-.12,2.38-.18,3.57-.34,2.36-.48,4.79-.79,7.14-1.59l1.78-.52c.3-.09.6-.17.89-.27l.87-.35c1.16-.47,2.33-.94,3.5-1.41,1.15-.53,2.26-1.16,3.4-1.74.56-.31,1.15-.56,1.69-.92l1.62-1.06c2.23-1.32,4.22-3.03,6.29-4.67.95-.92,1.9-1.84,2.86-2.76l.72-.69.66-.76,1.31-1.53,1.31-1.54,1.17-1.66,1.17-1.67.59-.84c.18-.29.34-.59.51-.89.67-1.19,1.35-2.39,2.03-3.58.56-1.26,1.12-2.52,1.68-3.79,2.06-5.16,3.35-10.69,3.8-16.38.3-5.7-.25-11.36-1.62-16.74-.39-1.33-.78-2.66-1.17-3.98-.52-1.28-1.03-2.55-1.54-3.82l-.39-.95-.47-.91-.94-1.81-.94-1.8-1.1-1.69-1.1-1.69-.55-.84-.62-.78c-.83-1.04-1.65-2.08-2.48-3.11-1.84-1.89-3.59-3.85-5.62-5.45l-1.47-1.26c-.49-.42-1.04-.75-1.56-1.13-1.06-.72-2.07-1.49-3.14-2.17-1.1-.62-2.2-1.24-3.29-1.86l-.82-.46c-.28-.14-.57-.26-.85-.38l-1.7-.75c-2.22-1.1-4.59-1.73-6.87-2.51-1.16-.32-2.34-.53-3.5-.81-.58-.13-1.16-.26-1.73-.38-.58-.12-1.17-.15-1.75-.23-1.16-.14-2.32-.27-3.46-.41-1.15-.09-2.3-.06-3.43-.09-2.28-.14-4.5.17-6.69.33-1.1.04-2.16.34-3.23.51-1.06.21-2.12.36-3.15.63-1.02.3-2.03.59-3.03.88-.5.15-1,.29-1.49.44-.48.19-.96.38-1.43.57-.95.38-1.89.76-2.81,1.13-.94.35-1.78.89-2.66,1.31-.87.46-1.74.88-2.57,1.35-.8.52-1.6,1.04-2.38,1.54-6.26,4.12-10.98,9.15-14.35,14.04-3.34,4.91-5.56,9.61-6.76,13.62-.3,1-.71,1.92-.88,2.83-.2.91-.4,1.75-.57,2.54-.17.79-.36,1.51-.48,2.18-.08.68-.16,1.29-.23,1.84-.14,1.08-.25,1.91-.32,2.49-.08.56-.13.85-.13.85,0,0,.01-.29.07-.85.06-.58.15-1.42.26-2.51.06-.55.13-1.17.2-1.85.11-.67.29-1.4.45-2.19.17-.79.35-1.65.55-2.56.16-.92.56-1.84.85-2.85,1.17-4.05,3.37-8.78,6.71-13.74,3.36-4.94,8.1-10.02,14.39-14.2.79-.52,1.59-1.04,2.4-1.56.84-.48,1.72-.91,2.59-1.37.89-.43,1.73-.97,2.68-1.33.93-.38,1.88-.76,2.83-1.15.48-.19.96-.38,1.44-.58.5-.15,1-.3,1.5-.44,1.01-.3,2.03-.6,3.05-.9,1.03-.27,2.11-.42,3.18-.64,1.08-.17,2.14-.48,3.26-.52,2.21-.17,4.46-.48,6.75-.35,1.15.03,2.31,0,3.47.09,1.16.13,2.32.27,3.5.4.59.08,1.18.11,1.76.23.58.13,1.17.26,1.75.38,1.17.27,2.36.49,3.53.81,2.3.79,4.7,1.42,6.94,2.53l1.72.76c.29.13.58.25.86.39l.82.47c1.1.62,2.21,1.25,3.32,1.88,1.08.68,2.11,1.46,3.18,2.19.52.38,1.08.72,1.57,1.14l1.49,1.27c2.06,1.62,3.83,3.59,5.69,5.51.83,1.04,1.67,2.09,2.51,3.15l.63.79.56.85,1.11,1.71,1.11,1.71.96,1.82.95,1.83.48.92.39.96c.52,1.28,1.04,2.57,1.56,3.86.39,1.34.79,2.68,1.18,4.03,1.38,5.44,1.94,11.17,1.64,16.93-.45,5.75-1.76,11.35-3.84,16.56-.57,1.28-1.14,2.56-1.7,3.84-.69,1.21-1.37,2.42-2.05,3.62-.17.3-.33.6-.52.9l-.59.85-1.18,1.69-1.18,1.67-1.33,1.55-1.32,1.54-.66.77-.73.7c-.97.93-1.93,1.86-2.89,2.79-2.09,1.65-4.1,3.38-6.36,4.71l-1.64,1.06c-.54.36-1.14.62-1.71.93-1.15.58-2.27,1.22-3.44,1.75-1.19.48-2.37.95-3.54,1.42l-.88.35c-.3.1-.6.18-.9.27l-1.8.53c-2.37.81-4.83,1.12-7.21,1.6-1.2.17-2.41.22-3.61.34-.6.05-1.19.1-1.79.15-.59.04-1.19,0-1.78,0-1.18-.02-2.36-.04-3.52-.06-1.16-.06-2.31-.25-3.45-.37-2.29-.17-4.48-.77-6.65-1.23-1.1-.19-2.12-.63-3.16-.95-1.03-.36-2.08-.65-3.07-1.05-.98-.43-1.95-.86-2.91-1.29-.48-.21-.96-.43-1.43-.64-.45-.25-.9-.51-1.35-.76-.9-.51-1.78-1.01-2.66-1.51-.89-.48-1.66-1.13-2.48-1.67-.8-.57-1.62-1.12-2.38-1.7-.73-.63-1.46-1.25-2.17-1.86-5.69-4.96-9.72-10.63-12.41-15.96-2.66-5.35-4.22-10.34-4.85-14.5-.16-1.04-.43-2-.47-2.94-.08-.93-.15-1.8-.21-2.61-.06-.81-.14-1.55-.16-2.24.02-.68.03-1.3.04-1.86.03-1.09.05-1.93.07-2.52.02-.57.04-.86.04-.86Z" style="fill:#263238; stroke-width:0px;"/><path d="m82.66,58.96s-.66.09-1.87.12c-1.32.03-3.05.06-5.14.1-4.36.06-10.44.1-17.3.11h-.34s0-.34,0-.34c0-1.1,0-2.26,0-3.43,0-7.66.04-14.6.1-19.62.04-2.42.08-4.42.11-5.94.04-1.4.09-2.18.13-2.18s.09.78.13,2.18c.03,1.52.06,3.52.11,5.94.06,5.02.1,11.96.1,19.62,0,1.17,0,2.33,0,3.43l-.34-.34c6.86.01,12.94.05,17.3.11,2.09.04,3.82.08,5.14.1,1.21.04,1.87.08,1.87.12Z" style="fill:#263238; stroke-width:0px;"/><path d="m58.51,13.13c.19,0,.34,1.99.34,4.44s-.15,4.44-.34,4.44-.34-1.99-.34-4.44.15-4.44.34-4.44Z" style="fill:#263238; stroke-width:0px;"/><path d="m82.61,20.26c.13.13-1.14,1.63-2.85,3.34-1.71,1.71-3.21,2.99-3.34,2.85-.13-.13,1.14-1.63,2.85-3.34,1.71-1.71,3.2-2.99,3.34-2.85Z" style="fill:#263238; stroke-width:0px;"/><path d="m96.7,35.66c.09.17-1.59,1.18-3.64,2.43-2.06,1.25-3.72,2.27-3.84,2.12-.11-.15,1.4-1.44,3.48-2.7,2.08-1.27,3.92-2.01,4-1.85Z" style="fill:#263238; stroke-width:0px;"/><path d="m104.96,58.5c0,.19-2.71.34-6.06.34s-6.06-.15-6.06-.34,2.71-.34,6.06-.34,6.06.15,6.06.34Z" style="fill:#263238; stroke-width:0px;"/><path d="m20.95,57.69c0,.19-2.56.34-5.72.34s-5.72-.15-5.72-.34,2.56-.34,5.72-.34,5.72.15,5.72.34Z" style="fill:#263238; stroke-width:0px;"/><path d="m26.89,74.7c.12.14-1.81,1.9-4.32,3.92-2.51,2.02-4.64,3.54-4.75,3.39-.11-.15,1.82-1.91,4.32-3.92,2.5-2.01,4.63-3.53,4.75-3.39Z" style="fill:#263238; stroke-width:0px;"/><path d="m41.55,87.85c.16.11-1.28,2.32-2.94,5.1-1.67,2.77-2.95,5.08-3.12,4.99-.17-.08.85-2.54,2.54-5.35,1.68-2.81,3.38-4.86,3.53-4.75Z" style="fill:#263238; stroke-width:0px;"/><path d="m58.51,104.81c-.19,0-.34-2.71-.34-6.06s.15-6.06.34-6.06.34,2.71.34,6.06-.15,6.06-.34,6.06Z" style="fill:#263238; stroke-width:0px;"/><path d="m84.62,96.74c-.1.15-2.47-1.21-4.99-3.42-2.54-2.2-4.21-4.37-4.07-4.48.15-.13,2.02,1.8,4.52,3.97,2.49,2.18,4.65,3.77,4.55,3.94Z" style="fill:#263238; stroke-width:0px;"/><path d="m96.88,83.54c-.13.13-1.93-1.45-4.01-3.53s-3.66-3.88-3.53-4.01c.13-.13,1.93,1.45,4.01,3.53,2.08,2.08,3.66,3.88,3.53,4.01Z" style="fill:#263238; stroke-width:0px;"/><path d="m26.33,41.4c-.13.13-1.72-1.23-3.54-3.06-1.82-1.82-3.19-3.41-3.06-3.54.13-.13,1.72,1.23,3.54,3.06,1.82,1.82,3.19,3.41,3.06,3.54Z" style="fill:#263238; stroke-width:0px;"/><path d="m41.46,25.47c-.13.13-1.69-1.2-3.48-2.98-1.79-1.78-3.13-3.33-3-3.47.13-.13,1.69,1.2,3.48,2.98,1.79,1.78,3.13,3.33,3,3.47Z" style="fill:#263238; stroke-width:0px;"/><path d="m11.63,58.03C11.63,30.04,33.5,7.17,61.08,5.55c-1.03-.06-2.08-.1-3.13-.1C28.92,5.45,5.38,28.99,5.38,58.03s23.54,52.58,52.58,52.58c1.05,0,2.09-.04,3.13-.1-27.58-1.62-49.45-24.49-49.45-52.48Z" style="fill:#e0e0e0; stroke-width:0px;"/></g></svg>